<svg id="Ebene_1" data-name="Ebene 1" xmlns="http://www.w3.org/2000/svg" xmlns:xlink="http://www.w3.org/1999/xlink" viewBox="0 0 586.48 252.19"><defs><style>.cls-1{fill:#42e8e0;}.cls-2,.cls-7{opacity:0.11;}.cls-3{fill:url(#Unbenannter_Verlauf);}.cls-4{fill:url(#Unbenannter_Verlauf_2);}.cls-5{fill:url(#Unbenannter_Verlauf_3);}.cls-6{fill:url(#Unbenannter_Verlauf_4);}.cls-12,.cls-14,.cls-29,.cls-30,.cls-31,.cls-7{isolation:isolate;}.cls-7{fill:url(#Unbenannter_Verlauf_5);}.cls-8{fill:url(#Unbenannter_Verlauf_6);}.cls-9{fill:url(#Unbenannter_Verlauf_7);}.cls-10{fill:url(#Unbenannter_Verlauf_8);}.cls-11{fill:url(#Unbenannter_Verlauf_9);}.cls-12{opacity:0.5;fill:url(#Unbenannter_Verlauf_10);}.cls-13{fill:url(#Unbenannter_Verlauf_12);}.cls-14{fill:#180d5b;opacity:0.2;}.cls-15{fill:#160a5b;}.cls-16{fill:#24126a;}.cls-17{fill:#453c9e;}.cls-18{fill:url(#Unbenannter_Verlauf_13);}.cls-19{fill:url(#Unbenannter_Verlauf_14);}.cls-20{fill:#f0f6ff;}.cls-21{fill:#fcd1c5;}.cls-22{fill:#4846a5;}.cls-23{fill:#aa8383;}.cls-24{fill:#c4ccd6;}.cls-25{fill:#e2b1a6;}.cls-26{fill:url(#Unbenannter_Verlauf_15);}.cls-27{fill:#936d6d;}.cls-28{fill:#03a7d3;}.cls-29{fill:#172f78;opacity:0.4;}.cls-30{font-size:11px;fill:#309ba0;font-family:SourceCodePro-Bold, Source Code Pro;font-weight:700;}</style><linearGradient id="Unbenannter_Verlauf" x1="242.8" y1="738.13" x2="341.35" y2="738.13" gradientTransform="translate(0 -513.92)" gradientUnits="userSpaceOnUse"><stop offset="0" stop-color="#5761d7"/><stop offset="0.07" stop-color="#5472d8"/><stop offset="0.28" stop-color="#4e9cdb"/><stop offset="0.48" stop-color="#49bddd"/><stop offset="0.67" stop-color="#45d5df"/><stop offset="0.85" stop-color="#43e3e0"/><stop offset="1" stop-color="#42e8e0"/></linearGradient><linearGradient id="Unbenannter_Verlauf_2" x1="242.8" y1="730.55" x2="341.34" y2="730.55" xlink:href="#Unbenannter_Verlauf"/><linearGradient id="Unbenannter_Verlauf_3" x1="242.8" y1="722.93" x2="341.34" y2="722.93" xlink:href="#Unbenannter_Verlauf"/><linearGradient id="Unbenannter_Verlauf_4" x1="242.8" y1="715.39" x2="341.34" y2="715.39" xlink:href="#Unbenannter_Verlauf"/><linearGradient id="Unbenannter_Verlauf_5" x1="242.8" y1="726.76" x2="341.35" y2="726.76" xlink:href="#Unbenannter_Verlauf"/><linearGradient id="Unbenannter_Verlauf_6" x1="232.35" y1="702.55" x2="351.84" y2="702.55" xlink:href="#Unbenannter_Verlauf"/><linearGradient id="Unbenannter_Verlauf_7" x1="232.36" y1="693.32" x2="351.83" y2="693.32" xlink:href="#Unbenannter_Verlauf"/><linearGradient id="Unbenannter_Verlauf_8" x1="232.36" y1="684.13" x2="351.83" y2="684.13" xlink:href="#Unbenannter_Verlauf"/><linearGradient id="Unbenannter_Verlauf_9" x1="232.36" y1="674.94" x2="351.82" y2="674.94" xlink:href="#Unbenannter_Verlauf"/><linearGradient id="Unbenannter_Verlauf_10" x1="232.35" y1="688.74" x2="351.83" y2="688.74" xlink:href="#Unbenannter_Verlauf"/><linearGradient id="Unbenannter_Verlauf_12" x1="232.36" y1="691.47" x2="351.82" y2="691.47" xlink:href="#Unbenannter_Verlauf"/><linearGradient id="Unbenannter_Verlauf_13" x1="264.68" y1="587.41" x2="277.28" y2="587.41" gradientTransform="translate(35.95 -509.34) rotate(3.43)" xlink:href="#Unbenannter_Verlauf"/><linearGradient id="Unbenannter_Verlauf_14" x1="282.51" y1="591.38" x2="308.89" y2="591.38" gradientTransform="translate(35.95 -509.34) rotate(3.43)" xlink:href="#Unbenannter_Verlauf"/><linearGradient id="Unbenannter_Verlauf_15" x1="270.39" y1="558.01" x2="313.29" y2="558.01" gradientTransform="translate(35.95 -509.34) rotate(3.43)" xlink:href="#Unbenannter_Verlauf"/></defs><g id="Ebene_2" data-name="Ebene 2"><g id="Ebene_1-2" data-name="Ebene 1-2"><g id="Ebene_2-2" data-name="Ebene 2-2"><g id="Ńëîé_1" data-name="Ńëîé 1"><polygon class="cls-1" points="344.31 171.41 342.95 172.19 342.95 171.28 344.31 170.5 344.31 171.41"/><polygon class="cls-1" points="344.31 177.54 342.95 178.34 342.95 173.01 344.31 172.24 344.31 177.54"/><polygon class="cls-1" points="344.31 180.49 342.95 181.28 342.95 179.16 344.31 178.38 344.31 180.49"/><polygon class="cls-1" points="344.31 183.53 342.95 184.31 342.95 182.21 344.31 181.43 344.31 183.53"/><polygon class="cls-1" points="346.33 173.18 344.98 173.96 344.98 171.84 346.33 171.06 346.33 173.18"/><polygon class="cls-1" points="346.33 177.21 344.98 178 344.98 174.9 346.33 174.1 346.33 177.21"/><polygon class="cls-1" points="346.33 180.93 344.98 181.71 344.98 179.04 346.33 178.26 346.33 180.93"/><polygon class="cls-1" points="344.31 186.59 342.95 187.37 342.95 185.25 344.31 184.47 344.31 186.59"/><polygon class="cls-1" points="346.33 170.24 344.98 171.01 344.98 170.1 346.33 169.32 346.33 170.24"/><polygon class="cls-1" points="345.32 188.96 342.95 190.31 342.95 189.44 345.32 188.07 345.32 188.96"/><g class="cls-2"><path class="cls-3" d="M295.88,197.29a7.54,7.54,0,0,0-7.55,0l-45,25.92a1.06,1.06,0,0,0-.39,1.45h0a1,1,0,0,0,.39.39l45.37,26.2a6.66,6.66,0,0,0,6.66,0L340.82,225a1.06,1.06,0,0,0,.39-1.45h0a1,1,0,0,0-.39-.39Z" transform="translate(0 0.04)"/></g><g class="cls-2"><path class="cls-4" d="M295.88,189.71a7.59,7.59,0,0,0-7.55,0l-45,25.93a1.06,1.06,0,0,0-.39,1.45h0a1,1,0,0,0,.39.39l45.37,26.19a6.66,6.66,0,0,0,6.66,0l45.45-26.18a1.06,1.06,0,0,0,.39-1.45h0a1,1,0,0,0-.39-.39Z" transform="translate(0 0.04)"/></g><g class="cls-2"><path class="cls-5" d="M295.88,182.13a7.59,7.59,0,0,0-7.55,0l-45,25.91a1.06,1.06,0,0,0-.39,1.45h0a1,1,0,0,0,.39.39L288.7,236a6.66,6.66,0,0,0,6.66,0l45.45-26.17a1.06,1.06,0,0,0,.39-1.45h0a1,1,0,0,0-.39-.39Z" transform="translate(0 0.04)"/></g><g class="cls-2"><path class="cls-6" d="M295.88,174.55a7.59,7.59,0,0,0-7.55,0l-45,25.92a1.06,1.06,0,0,0-.39,1.45h0a1,1,0,0,0,.39.39L288.7,228.5a6.66,6.66,0,0,0,6.66,0l45.45-26.17a1.06,1.06,0,0,0,.39-1.45h0a1,1,0,0,0-.39-.39Z" transform="translate(0 0.04)"/></g><path class="cls-7" d="M340.82,200.49l-44.94-25.94a7.59,7.59,0,0,0-7.55,0l-45,25.92a1.06,1.06,0,0,0-.53.92v22.75a1.06,1.06,0,0,0,.53.92l45.37,26.19a6.66,6.66,0,0,0,6.66,0L340.82,225a1.06,1.06,0,0,0,.53-.92V201.41h0A1.06,1.06,0,0,0,340.82,200.49Z" transform="translate(0 0.04)"/><g class="cls-2"><path class="cls-8" d="M296.7,156a9.17,9.17,0,0,0-9.15,0L233,187.38a1.29,1.29,0,0,0-.48,1.76,1.23,1.23,0,0,0,.48.48l55,31.76a8,8,0,0,0,8.08,0l55.11-31.73a1.29,1.29,0,0,0,.48-1.76,1.23,1.23,0,0,0-.48-.48Z" transform="translate(0 0.04)"/></g><g class="cls-2"><path class="cls-9" d="M296.7,146.76a9.17,9.17,0,0,0-9.15,0L233,178.19a1.29,1.29,0,0,0-.47,1.76,1.32,1.32,0,0,0,.47.47l55,31.77a8.1,8.1,0,0,0,8.08,0l55.11-31.74a1.29,1.29,0,0,0,.47-1.76,1.32,1.32,0,0,0-.47-.47Z" transform="translate(0 0.04)"/></g><g class="cls-2"><path class="cls-10" d="M296.7,137.57a9.17,9.17,0,0,0-9.15,0L233,169a1.29,1.29,0,0,0-.47,1.76,1.32,1.32,0,0,0,.47.47L288,203a8.1,8.1,0,0,0,8.08,0l55.11-31.74a1.29,1.29,0,0,0,.47-1.76,1.32,1.32,0,0,0-.47-.47Z" transform="translate(0 0.04)"/></g><g class="cls-2"><path class="cls-11" d="M296.7,128.38a9.17,9.17,0,0,0-9.15,0L233,159.81a1.29,1.29,0,0,0-.47,1.76,1.32,1.32,0,0,0,.47.47l55,31.77a8.1,8.1,0,0,0,8.08,0L351.18,162a1.29,1.29,0,0,0,.47-1.76,1.32,1.32,0,0,0-.47-.47Z" transform="translate(0 0.04)"/></g><path class="cls-12" d="M351.18,159.84,296.7,128.38a9.17,9.17,0,0,0-9.15,0L233,159.81a1.28,1.28,0,0,0-.65,1.11V188.5a1.3,1.3,0,0,0,.65,1.12l55,31.76a8,8,0,0,0,8.08,0l55.11-31.73a1.29,1.29,0,0,0,.64-1.12V161h0A1.26,1.26,0,0,0,351.18,159.84Z" transform="translate(0 0.04)"/><path class="cls-11" d="M296.7,128.38a9.17,9.17,0,0,0-9.15,0L233,159.81a1.29,1.29,0,0,0-.47,1.76,1.32,1.32,0,0,0,.47.47l55,31.77a8.1,8.1,0,0,0,8.08,0L351.18,162a1.29,1.29,0,0,0,.47-1.76,1.32,1.32,0,0,0-.47-.47Z" transform="translate(0 0.04)"/><path class="cls-13" d="M351.18,160.8l-55.11,31.74a8.1,8.1,0,0,1-8.08,0l-55-31.77a1.23,1.23,0,0,1-.48-.48A1.29,1.29,0,0,0,233,162l55,31.77a8.1,8.1,0,0,0,8.08,0L351.18,162a1.3,1.3,0,0,0,.48-1.75A1.22,1.22,0,0,1,351.18,160.8Z" transform="translate(0 0.04)"/><ellipse class="cls-14" cx="292.07" cy="161.06" rx="30.04" ry="17.35"/><path class="cls-15" d="M280.64,146.31s-.73.76-1.49,1.66a20.16,20.16,0,0,1-3.78,2.7c-.9.56-5,3.67-5.86,6.73s2.08,3.46,5.08,2.93,5.79-3.3,6.61-4.29a27.65,27.65,0,0,1,7.33-5.17c3.68-1.91,1.45-4.47,1.45-4.47Z" transform="translate(0 0.04)"/><path class="cls-15" d="M308,155.4a11.82,11.82,0,0,1,.78,3.15c.17,1.77.42,5.61.51,6.73a9.52,9.52,0,0,1-1.85,6.5c-2,2.63-3,3.67-5.62,2.63s-2.57-5.44-2.1-7.7a65.22,65.22,0,0,0,.85-7.88,1.54,1.54,0,0,1,.15-.87Z" transform="translate(0 0.04)"/><path class="cls-16" d="M271.58,94.32s.55,20.21,5.26,30.93a78.37,78.37,0,0,1,3.86,20.69,4,4,0,0,0,.33,3.51c1.1,1.57,8,3,9.16-2.15s.7-14.84-.55-18.88.44-15.14.44-15.14,1.89,1.21,4.37,9.19a106.35,106.35,0,0,0,5.15,13.24c.85,2.2,1.64,15.73,1.1,22.34,0,0,5.6.8,7.22-1.88s2.16-16.52,1.75-20.94-2.26-18.56-2-22.93,1.17-7.93.17-12.3-30.55-14.08-30.55-14.08Z" transform="translate(0 0.04)"/><path class="cls-15" d="M307.62,112.3c.26-4.38,1.17-7.93.17-12.3-.38-1.65-4.79-4-10.15-6.4-9-.82-20.51-1.78-21.3-1.66a30.13,30.13,0,0,0-4.13,1.44l-.63.94s0,1.23.15,3.23c2.11.63,6.17,0,6.17,0a22,22,0,0,0,8.48,8.64c4.38,2.17,17.2,1.42,17.94,2.25s.88,11.89.8,13.3,1.21,10.26,2.4,18.09-.61,17.07-.67,17.37a3.18,3.18,0,0,0,1-1c1.62-2.68,2.16-16.52,1.75-20.94S307.37,116.67,307.62,112.3Z" transform="translate(0 0.04)"/><path class="cls-17" d="M281.47,28.21l-8.76,2a1.1,1.1,0,0,0-.8.69,26.82,26.82,0,0,0-1,13.93,69.18,69.18,0,0,1,1,15l-3,15.78s-3.82,15-3.49,15.44,8.78,6.84,11.42,5.93,1.77-2.4,1.77-2.4,2.14,10.9,11.61,10.79,17.2-.07,18.81-3.9-.44-19.92-2.11-26.29-5.64-19.06-5.64-19.06L315.1,40.83l-11.85-9s-2.83-5.26-4-5.93-1.77-.11-1.77-.11Z" transform="translate(0 0.04)"/><path class="cls-18" d="M277,93.57c0,.55-.31,1.36-2,2s-6.34-2.11-9.3-4.17c1.48,1.22,8.74,6.52,11.15,5.69A4.18,4.18,0,0,0,278,96.5,20.24,20.24,0,0,1,277,93.57Z" transform="translate(0 0.04)"/><path class="cls-19" d="M308.91,100.25c-1.7,4-9.86,4-19.85,4.12a10.7,10.7,0,0,1-6.21-1.79,10.06,10.06,0,0,0,7.32,2.85c9.47-.1,17.2-.07,18.81-3.9.53-1.26.66-3.84.54-7A16.74,16.74,0,0,1,308.91,100.25Z" transform="translate(0 0.04)"/><path class="cls-20" d="M299,25.72s2.42,2.93-1.07,6.88a93.3,93.3,0,0,0-9,13.13c-2,3.41-3.78,5.22-4.81,8.15,0,0-.14-3.48-.28-8.84a113.18,113.18,0,0,1,0-11.65C284.36,30.66,296.32,24.39,299,25.72Z" transform="translate(0 0.04)"/><path class="cls-21" d="M289.94,34.53s-1.24.77-1.67.7a8.1,8.1,0,0,1-1.8-1.39s-3.43-.07-3.81-1.54a30,30,0,0,0-1-3.72c-.35-.77-1.83-4.44-1.84-5.93s0-4.15-.6-5.56S277.7,1.57,291.36,2s9.39,14.54,9.39,14.54,1,.43.39,2.25-.74,2-1,2.91a4.05,4.05,0,0,1-1.33,2.22l-.22,1.67a6.72,6.72,0,0,1-1,5.05C295.81,33.1,289.94,34.53,289.94,34.53Z" transform="translate(0 0.04)"/><path class="cls-16" d="M272.33,30.39s-1.45.22-6.16,12.07c-2.63,6.62-6.69,13.47-7.55,18.38s-.38,10.17.59,10.54S277.08,78,282.38,80a.47.47,0,0,0,.62-.27h0v-.1l1.46-8.17-10.47-4a14.9,14.9,0,0,0-3.88-3.37s2.1-3.88,2-4.94.19-12-1-16.49S272.33,30.39,272.33,30.39Z" transform="translate(0 0.04)"/><path class="cls-21" d="M278.49,61.72a16,16,0,0,0-1.81-1.11c-.36-.11-2.29-.8-2.66-1a7.44,7.44,0,0,0-2,0,.62.62,0,0,0-.48.32c-.44.83-1.69,3.24-1.55,4.17,0,0,3.5,2.21,3.89,3.19l.56.12S276.81,62.45,278.49,61.72Z" transform="translate(0 0.04)"/><path class="cls-16" d="M306.87,75.24c-.4-1.53-.94-3.43-1.52-5.43l-21.28,9.12a22.47,22.47,0,0,0,17.54,7.33A14.66,14.66,0,0,0,308.52,84,81.41,81.41,0,0,0,306.87,75.24Z" transform="translate(0 0.04)"/><path class="cls-16" d="M315.1,40.83s-5.61.77-10.14,8a107.27,107.27,0,0,0-7.84,15.5l-.16.93a3.78,3.78,0,0,1-4.39,3,4.39,4.39,0,0,1-.87-.27c-4.79-2.14-11.88-5.37-13.2-6.34a12.17,12.17,0,0,0-5.4,7.88c-.93,4.46-.7,4.46-.7,4.46s18.9,8.82,26.19,8.73,16.56-24.08,17.58-29S318.31,42.23,315.1,40.83Z" transform="translate(0 0.04)"/><path class="cls-22" d="M315.1,40.83s-5.61.77-10.14,8a107.27,107.27,0,0,0-7.84,15.5l-.16.93a3.78,3.78,0,0,1-4.39,3,4.39,4.39,0,0,1-.87-.27c-4.79-2.14-11.88-5.37-13.2-6.34a12.17,12.17,0,0,0-5.4,7.88c-.93,4.46-.7,4.46-.7,4.46s18.9,8.82,26.19,8.73,16.56-24.08,17.58-29S318.31,42.23,315.1,40.83Z" transform="translate(0 0.04)"/><path class="cls-17" d="M294.4,69.18s2.38,2.23,3.42,1,.73-1.35.73-1.35,2.15,0,2.41-1.36,1.32-.64,1.38-2.14-1.74-1.19-1.74-1.19Z" transform="translate(0 0.04)"/><path class="cls-21" d="M291.52,68s.65-.61,1.5-1.32,2.21-3.68,2.44-3.94,3.09-2.45,4.46-2.48.35,1.5,0,1.71-1.66.89-1.66.89-1.38,1.16-1.54,1.33,3.84-.28,4.47.11a1.08,1.08,0,0,1,.17,1.52h0a1.37,1.37,0,0,1-.17.17,1.5,1.5,0,0,1-.79.27,1.39,1.39,0,0,1-.7,1.8c-1.19.56-1.47.25-1.47.25A1.68,1.68,0,0,1,296.58,70a1.55,1.55,0,0,1-.43,0Z" transform="translate(0 0.04)"/><path class="cls-23" d="M278.94,9.88s-1.78,5.66,2.91,4,8.91-4.31,10.38-3.28c1.12.78,1.07,3.17,1,4.27a1.67,1.67,0,0,0,.28,1.06l1.39,2a1.62,1.62,0,0,1,.27.77l.09,1.4a.7.7,0,0,0,.67.66h.31a.71.71,0,0,0,.74-.58l.36-2.07s1.1-2.77,3.43-1.68c0,0,1.56-2.09,1-6.56s-2.5-9-11.28-9.87S278.94,9.88,278.94,9.88Z" transform="translate(0 0.04)"/><path class="cls-24" d="M292.36,39.51l-1.31-1a7.23,7.23,0,0,0-1.69,2.08c-.48,1.07,0,4.47,0,4.47l-.4.69-.49-.9-.42-4s.45-3,.49-3.05,2.53.26,2.53.26A5.1,5.1,0,0,1,292.36,39.51Z" transform="translate(0 0.04)"/><path class="cls-24" d="M286,35.51a4.41,4.41,0,0,0-2,.61l1.7.1C286,36.25,286,35.51,286,35.51Z" transform="translate(0 0.04)"/><path class="cls-16" d="M288.7,35.82l2.35,2.2a5.46,5.46,0,0,0-2.64,2.8s-2.57.48-2.8-.45,0-3.26-.3-4.3S288.7,35.82,288.7,35.82Z" transform="translate(0 0.04)"/><path class="cls-16" d="M285.7,40.32a12.46,12.46,0,0,1-.92,2.72c-.48.8-1,1.69-1,1.69L283.9,56s4.16-8.56,5.06-10.3c0,0-.14-4.13-.53-4.91S285.7,40.32,285.7,40.32Z" transform="translate(0 0.04)"/><path class="cls-25" d="M296.89,23.62c-2.73,7.88-10.42,10.22-10.42,10.22a8.1,8.1,0,0,0,1.8,1.39c.43.07,1.67-.7,1.67-.7s5.87-1.43,7.56-3.92a6.72,6.72,0,0,0,1-5.05l.22-1.67A1.81,1.81,0,0,1,296.89,23.62Z" transform="translate(0 0.04)"/><path class="cls-16" d="M303.14,32.84s-1.08,3.72-1.22,3.86a16.37,16.37,0,0,1-2.71-.16l1.25,2.37s-12.93,13.87-15.61,21.33A158.31,158.31,0,0,1,301.7,39.49l-1.52-2.31,2.64.52Z" transform="translate(0 0.04)"/><path class="cls-16" d="M281.89,29.56l-.68.78.8.75-2.39,2.17s-.73,15.17,2.19,25.21c0,0-4-9.21-3.06-25.63l2.58-1.75-.84-.84Z" transform="translate(0 0.04)"/><path class="cls-15" d="M290,113.28l.09.07-3.35-3.57c1.55,2.18-.23,12.17-.42,14.45s1.79,7,2.53,12.54-.77,13.41-.78,13.44a4.32,4.32,0,0,0,2-2.91c1.14-5.17.7-14.84-.55-18.88S290,113.28,290,113.28Z" transform="translate(0 0.04)"/><path class="cls-26" d="M298.59,82.76c7.3-.08,16.56-24.08,17.58-29,.17-.82.34-1.7.5-2.58,0,.07-1.92,5.25-3.74,9.84s-11.59,18.61-16.58,19.52c-4.49.82-20.66-6.72-23.79-8.21-.28,1.68-.16,1.7-.16,1.7S291.3,82.85,298.59,82.76Z" transform="translate(0 0.04)"/><path class="cls-27" d="M296.22,20.84a.71.71,0,0,0,.74-.58l.36-2.07s1.1-2.77,3.43-1.68c0,0,1.47-2,1.07-6.21-2.59,3.88-8.33,5.68-8.33,5.68l1.39,2a1.62,1.62,0,0,1,.27.77l.09,1.4a.7.7,0,0,0,.67.66Z" transform="translate(0 0.04)"/><path class="cls-28" d="M394,122.43a3.1,3.1,0,1,1,3.1-3.1h0a3.1,3.1,0,0,1-3.1,3.1Zm0-5.69a2.6,2.6,0,1,0,2.6,2.6,2.59,2.59,0,0,0-2.6-2.6Z" transform="translate(0 0.04)"/><path class="cls-28" d="M394,112.77a3.1,3.1,0,1,1,3.1-3.1,3.1,3.1,0,0,1-3.1,3.1Zm0-5.7a2.6,2.6,0,1,0,2.6,2.6,2.59,2.59,0,0,0-2.6-2.6Z" transform="translate(0 0.04)"/><path class="cls-29" d="M394,97.15a2.85,2.85,0,1,1-2.85,2.85A2.86,2.86,0,0,1,394,97.15Z" transform="translate(0 0.04)"/><path class="cls-28" d="M394,103.1a3.1,3.1,0,1,1,3.1-3.1,3.1,3.1,0,0,1-3.1,3.1Zm0-5.7a2.6,2.6,0,1,0,2.6,2.6,2.59,2.59,0,0,0-2.6-2.6Z" transform="translate(0 0.04)"/><path class="cls-28" d="M394,93.43a3.1,3.1,0,1,1,3.1-3.1,3.1,3.1,0,0,1-3.1,3.1Zm0-5.69a2.6,2.6,0,1,0,2.6,2.6h0A2.62,2.62,0,0,0,394,87.74Z" transform="translate(0 0.04)"/><path class="cls-28" d="M394,83.76a3.1,3.1,0,1,1,3.1-3.1h0a3.1,3.1,0,0,1-3.1,3.1Zm0-5.69a2.6,2.6,0,1,0,2.6,2.6,2.59,2.59,0,0,0-2.6-2.6Z" transform="translate(0 0.04)"/><rect class="cls-28" x="396.83" y="99.79" width="28.39" height="0.5"/><path class="cls-28" d="M425.22,162.87h-28a3.48,3.48,0,0,1-3.47-3.46V122.18h.5v37.23a3,3,0,0,0,3,3h28Z" transform="translate(0 0.04)"/><path class="cls-28" d="M394.23,77.82h-.53V40.59a3.48,3.48,0,0,1,3.47-3.46h28v.5h-28a3,3,0,0,0-3,3Z" transform="translate(0 0.04)"/><path class="cls-28" d="M185.7,122.43a3.1,3.1,0,1,0-3.1-3.1h0a3.1,3.1,0,0,0,3.1,3.1Zm0-5.69a2.6,2.6,0,1,1-2.6,2.6h0a2.59,2.59,0,0,1,2.58-2.6h0Z" transform="translate(0 0.04)"/><path class="cls-28" d="M185.7,112.77a3.1,3.1,0,1,0-3.1-3.1h0a3.1,3.1,0,0,0,3.1,3.1Zm0-5.7a2.6,2.6,0,1,1-2.6,2.6h0a2.59,2.59,0,0,1,2.57-2.63h0Z" transform="translate(0 0.04)"/><path class="cls-29" d="M185.7,97.15a2.85,2.85,0,1,0,2.84,2.89,2.86,2.86,0,0,0-2.84-2.89Z" transform="translate(0 0.04)"/><path class="cls-28" d="M185.7,103.1a3.1,3.1,0,1,0-3.1-3.1h0a3.1,3.1,0,0,0,3.1,3.1Zm0-5.7a2.6,2.6,0,1,1-2.6,2.6h0a2.59,2.59,0,0,1,2.6-2.6Z" transform="translate(0 0.04)"/><path class="cls-28" d="M185.7,93.43a3.1,3.1,0,1,0-3.1-3.1h0a3.1,3.1,0,0,0,3.1,3.1Zm0-5.69a2.6,2.6,0,1,1-2.6,2.6h0a2.59,2.59,0,0,1,2.59-2.59Z" transform="translate(0 0.04)"/><path class="cls-28" d="M185.7,83.76a3.1,3.1,0,1,0-3.1-3.1h0a3.1,3.1,0,0,0,3.1,3.1Zm0-5.72a2.6,2.6,0,1,1-2.6,2.6h0a2.59,2.59,0,0,1,2.58-2.6h0Z" transform="translate(0 0.04)"/><path class="cls-28" d="M173.7,90.58h9.15V90H173.7a4.17,4.17,0,0,1-4.17-4.16v-20a4.69,4.69,0,0,0-4.66-4.67H154.45v.5h10.41a4.17,4.17,0,0,1,4.14,4.2h0v20a4.67,4.67,0,0,0,4.64,4.7h.06Z" transform="translate(0 0.04)"/><rect class="cls-28" x="154.45" y="118.79" width="28.39" height="0.5"/><rect class="cls-28" x="154.7" y="99.73" width="28.39" height="0.5"/><path class="cls-28" d="M154.45,196.28h28c1.91,0,3.46-2.07,3.46-4.61V142.18h-.5v49.49c0,2.17-1.33,3.94-3,3.94h-28Z" transform="translate(0 0.04)"/><path class="cls-28" d="M185.44,77.82h.5V40.59a3.46,3.46,0,0,0-3.46-3.46h-28v.5h28a3,3,0,0,1,3,3Z" transform="translate(0 0.04)"/><path class="cls-28" d="M185.7,142.88a3.1,3.1,0,1,0-3.1-3.1,3.1,3.1,0,0,0,3.1,3.1Zm0-5.7a2.6,2.6,0,1,1-2.6,2.6,2.59,2.59,0,0,1,2.6-2.6Z" transform="translate(0 0.04)"/><path class="cls-28" d="M185.7,132.21a3.1,3.1,0,1,0-3.1-3.1,3.1,3.1,0,0,0,3.1,3.1Zm0-5.7a2.6,2.6,0,1,1-2.6,2.6,2.59,2.59,0,0,1,2.6-2.6Z" transform="translate(0 0.04)"/><path class="cls-28" d="M172.94,129h9.15v.5h-9.15a4.17,4.17,0,0,0-4.17,4.17v20a4.67,4.67,0,0,1-4.67,4.66H153.7v-.5h10.4a4.17,4.17,0,0,0,4.17-4.16v-20a4.67,4.67,0,0,1,4.67-4.67Z" transform="translate(0 0.04)"/></g></g><text class="cls-30" transform="translate(0 41.08)">GEBOREN AM 17.01.1991</text><g class="cls-31"><text class="cls-30" transform="translate(59.23 64.91)">NATIONALITÄT</text><text class="cls-30" transform="translate(79.03 78.11)">KROATISCH</text></g><text class="cls-30" transform="translate(92.03 154.46)">WOHNORT</text><text class="cls-30" transform="translate(91.43 167.66)">GAUTING</text><text class="cls-30" transform="translate(53 192.06)">VERFÜGBARKEIT</text><text class="cls-30" transform="translate(54.4 205.25)">INTERNATIONAL</text><text class="cls-30" transform="translate(438.85 33.35)">FACHINFORMATIKER FÜR</text><text class="cls-30" transform="translate(438.85 46.55)">SYSTEMINTEGRATION</text><text class="cls-30" transform="translate(439.42 93.7)">ISTQB CERTIFIED<tspan x="0" y="13.2">AZ-900 CERTIFIED</tspan></text><text class="cls-30" transform="translate(441.28 152.64)">SPRACHEN ENGLISCH,</text><text class="cls-30" transform="translate(441.28 165.84)">DEUTSCH, KROATISCH UND</text><text class="cls-30" transform="translate(441.28 179.04)">RUSSISCH (GRUNDWISSEN)</text><g class="cls-31"><text class="cls-30" transform="translate(13.28 103.12)"><tspan xml:space="preserve"> +49 176 822 783 98</tspan></text></g><text class="cls-30" transform="translate(13.28 122.42)">R.KOVIC@TRALUMA.COM</text></g></g></svg>