<svg xmlns="http://www.w3.org/2000/svg" xmlns:xlink="http://www.w3.org/1999/xlink" viewBox="0 0 557.24 252.14"><defs><style>.cls-1{fill:#42e8e0;}.cls-2,.cls-7{opacity:0.11;}.cls-3{fill:url(#Unbenannter_Verlauf_15);}.cls-4{fill:url(#Unbenannter_Verlauf_15-2);}.cls-5{fill:url(#Unbenannter_Verlauf_15-3);}.cls-6{fill:url(#Unbenannter_Verlauf_15-4);}.cls-12,.cls-14,.cls-29,.cls-7{isolation:isolate;}.cls-7{fill:url(#Unbenannter_Verlauf_15-5);}.cls-8{fill:url(#Unbenannter_Verlauf_15-6);}.cls-9{fill:url(#Unbenannter_Verlauf_15-7);}.cls-10{fill:url(#Unbenannter_Verlauf_15-8);}.cls-11{fill:url(#Unbenannter_Verlauf_15-9);}.cls-12{opacity:0.5;fill:url(#Unbenannter_Verlauf_15-10);}.cls-13{fill:url(#Unbenannter_Verlauf_15-12);}.cls-14{fill:#180d5b;opacity:0.2;}.cls-15{fill:#160a5b;}.cls-16{fill:#24126a;}.cls-17{fill:#453c9e;}.cls-18{fill:url(#Unbenannter_Verlauf_15-13);}.cls-19{fill:url(#Unbenannter_Verlauf_15-14);}.cls-20{fill:#f0f6ff;}.cls-21{fill:#fcd1c5;}.cls-22{fill:#4846a5;}.cls-23{fill:#aa8383;}.cls-24{fill:#c4ccd6;}.cls-25{fill:#e2b1a6;}.cls-26{fill:url(#Unbenannter_Verlauf_15-15);}.cls-27{fill:#936d6d;}.cls-28{fill:#03a7d3;}.cls-29{fill:#172f78;opacity:0.4;}.cls-30{font-size:11px;fill:#309ba0;font-family:SourceCodePro-Bold, Source Code Pro;font-weight:700;}</style><linearGradient id="Unbenannter_Verlauf_15" x1="233.36" y1="29.87" x2="331.92" y2="29.87" gradientTransform="matrix(1, 0, 0, -1, 0, 254.08)" gradientUnits="userSpaceOnUse"><stop offset="0" stop-color="#5761d7"/><stop offset="0.07" stop-color="#5472d8"/><stop offset="0.28" stop-color="#4e9cdb"/><stop offset="0.48" stop-color="#49bddd"/><stop offset="0.67" stop-color="#45d5df"/><stop offset="0.85" stop-color="#43e3e0"/><stop offset="1" stop-color="#42e8e0"/></linearGradient><linearGradient id="Unbenannter_Verlauf_15-2" x1="233.36" y1="37.45" x2="331.91" y2="37.45" xlink:href="#Unbenannter_Verlauf_15"/><linearGradient id="Unbenannter_Verlauf_15-3" x1="233.36" y1="45.05" x2="331.91" y2="45.05" xlink:href="#Unbenannter_Verlauf_15"/><linearGradient id="Unbenannter_Verlauf_15-4" x1="233.36" y1="52.61" x2="331.91" y2="52.61" xlink:href="#Unbenannter_Verlauf_15"/><linearGradient id="Unbenannter_Verlauf_15-5" x1="233.37" y1="41.24" x2="331.92" y2="41.24" xlink:href="#Unbenannter_Verlauf_15"/><linearGradient id="Unbenannter_Verlauf_15-6" x1="222.89" y1="65.48" x2="342.38" y2="65.48" xlink:href="#Unbenannter_Verlauf_15"/><linearGradient id="Unbenannter_Verlauf_15-7" x1="222.9" y1="74.68" x2="342.37" y2="74.68" xlink:href="#Unbenannter_Verlauf_15"/><linearGradient id="Unbenannter_Verlauf_15-8" x1="222.9" y1="83.85" x2="342.37" y2="83.85" xlink:href="#Unbenannter_Verlauf_15"/><linearGradient id="Unbenannter_Verlauf_15-9" x1="222.9" y1="93.06" x2="342.39" y2="93.06" xlink:href="#Unbenannter_Verlauf_15"/><linearGradient id="Unbenannter_Verlauf_15-10" x1="222.89" y1="79.27" x2="342.37" y2="79.27" xlink:href="#Unbenannter_Verlauf_15"/><linearGradient id="Unbenannter_Verlauf_15-12" x1="222.91" y1="76.49" x2="342.39" y2="76.49" xlink:href="#Unbenannter_Verlauf_15"/><linearGradient id="Unbenannter_Verlauf_15-13" x1="241.27" y1="156.4" x2="253.87" y2="156.4" gradientTransform="matrix(1, 0.06, 0.06, -1, 5.29, 235.89)" xlink:href="#Unbenannter_Verlauf_15"/><linearGradient id="Unbenannter_Verlauf_15-14" x1="259.1" y1="152.44" x2="285.48" y2="152.44" gradientTransform="matrix(1, 0.06, 0.06, -1, 5.29, 235.89)" xlink:href="#Unbenannter_Verlauf_15"/><linearGradient id="Unbenannter_Verlauf_15-15" x1="246.98" y1="185.81" x2="289.88" y2="185.81" gradientTransform="matrix(1, 0.06, 0.06, -1, 5.29, 235.89)" xlink:href="#Unbenannter_Verlauf_15"/></defs><title>aboutMeEn</title><g id="Ebene_2" data-name="Ebene 2"><g id="Ebene_1-2" data-name="Ebene 1"><g id="Ebene_2-2" data-name="Ebene 2"><g id="Ńëîé_1" data-name="Ńëîé 1"><polygon class="cls-1" points="334.88 171.36 333.52 172.14 333.52 171.23 334.88 170.45 334.88 171.36"/><polygon class="cls-1" points="334.88 177.5 333.52 178.29 333.52 172.97 334.88 172.19 334.88 177.5"/><polygon class="cls-1" points="334.88 180.44 333.52 181.23 333.52 179.11 334.88 178.33 334.88 180.44"/><polygon class="cls-1" points="334.88 183.49 333.52 184.27 333.52 182.16 334.88 181.38 334.88 183.49"/><polygon class="cls-1" points="336.9 173.13 335.55 173.91 335.55 171.8 336.9 171.02 336.9 173.13"/><polygon class="cls-1" points="336.9 177.16 335.55 177.95 335.55 174.85 336.9 174.06 336.9 177.16"/><polygon class="cls-1" points="336.9 180.88 335.55 181.66 335.55 179 336.9 178.22 336.9 180.88"/><polygon class="cls-1" points="334.88 186.54 333.52 187.32 333.52 185.21 334.88 184.42 334.88 186.54"/><polygon class="cls-1" points="336.9 170.19 335.55 170.97 335.55 170.06 336.9 169.28 336.9 170.19"/><polygon class="cls-1" points="335.89 188.91 333.52 190.27 333.52 189.39 335.89 188.03 335.89 188.91"/><g class="cls-2"><path class="cls-3" d="M286.45,197.29a7.54,7.54,0,0,0-7.55,0l-45,25.92a1.05,1.05,0,0,0,0,1.84l45.37,26.2a6.66,6.66,0,0,0,6.66,0L331.39,225a1.06,1.06,0,0,0,.39-1.45,1,1,0,0,0-.39-.39Z"/></g><g class="cls-2"><path class="cls-4" d="M286.45,189.71a7.59,7.59,0,0,0-7.55,0l-45,25.93a1.05,1.05,0,0,0,0,1.84l45.37,26.19a6.66,6.66,0,0,0,6.66,0l45.45-26.18a1.06,1.06,0,0,0,.39-1.45,1,1,0,0,0-.39-.39Z"/></g><g class="cls-2"><path class="cls-5" d="M286.45,182.13a7.59,7.59,0,0,0-7.55,0L233.9,208a1.05,1.05,0,0,0,0,1.84L279.27,236a6.66,6.66,0,0,0,6.66,0l45.45-26.17a1.06,1.06,0,0,0,.39-1.45,1,1,0,0,0-.39-.39Z"/></g><g class="cls-2"><path class="cls-6" d="M286.45,174.55a7.59,7.59,0,0,0-7.55,0l-45,25.92a1.05,1.05,0,0,0,0,1.84l45.37,26.19a6.66,6.66,0,0,0,6.66,0l45.45-26.17a1.06,1.06,0,0,0,.39-1.45,1,1,0,0,0-.39-.39Z"/></g><path class="cls-7" d="M331.39,200.49l-44.94-25.94a7.59,7.59,0,0,0-7.55,0l-45,25.92a1.06,1.06,0,0,0-.53.92v22.75a1.06,1.06,0,0,0,.53.92l45.37,26.19a6.66,6.66,0,0,0,6.66,0L331.39,225a1.06,1.06,0,0,0,.53-.92V201.41h0A1.06,1.06,0,0,0,331.39,200.49Z"/><g class="cls-2"><path class="cls-8" d="M287.27,156a9.17,9.17,0,0,0-9.15,0l-54.58,31.42a1.28,1.28,0,0,0-.48,1.76,1.23,1.23,0,0,0,.48.48l55,31.76a8,8,0,0,0,8.08,0l55.11-31.73a1.29,1.29,0,0,0,.48-1.76,1.38,1.38,0,0,0-.48-.48Z"/></g><g class="cls-2"><path class="cls-9" d="M287.27,146.76a9.17,9.17,0,0,0-9.15,0l-54.58,31.43a1.28,1.28,0,0,0-.47,1.76,1.18,1.18,0,0,0,.47.47l55,31.77a8.1,8.1,0,0,0,8.08,0l55.11-31.74a1.29,1.29,0,0,0,.46-1.76,1.22,1.22,0,0,0-.46-.47Z"/></g><g class="cls-2"><path class="cls-10" d="M287.27,137.57a9.17,9.17,0,0,0-9.15,0L223.54,169a1.28,1.28,0,0,0-.47,1.76,1.18,1.18,0,0,0,.47.47l55,31.77a8.1,8.1,0,0,0,8.08,0l55.11-31.74a1.29,1.29,0,0,0,.46-1.76,1.22,1.22,0,0,0-.46-.47Z"/></g><g class="cls-2"><path class="cls-11" d="M287.27,128.38a9.17,9.17,0,0,0-9.15,0l-54.58,31.43a1.28,1.28,0,0,0-.47,1.76,1.18,1.18,0,0,0,.47.47l55,31.77a8.1,8.1,0,0,0,8.08,0L341.75,162a1.29,1.29,0,0,0,.46-1.76,1.22,1.22,0,0,0-.46-.47Z"/></g><path class="cls-12" d="M341.75,159.84l-54.48-31.46a9.17,9.17,0,0,0-9.15,0l-54.58,31.43a1.28,1.28,0,0,0-.65,1.11V188.5a1.3,1.3,0,0,0,.65,1.12l55,31.76a8,8,0,0,0,8.08,0l55.11-31.73a1.29,1.29,0,0,0,.64-1.12V161h0A1.27,1.27,0,0,0,341.75,159.84Z"/><path class="cls-11" d="M287.27,128.38a9.17,9.17,0,0,0-9.15,0l-54.58,31.43a1.28,1.28,0,0,0-.47,1.76,1.18,1.18,0,0,0,.47.47l55,31.77a8.1,8.1,0,0,0,8.08,0L341.75,162a1.29,1.29,0,0,0,.46-1.76,1.22,1.22,0,0,0-.46-.47Z"/><path class="cls-13" d="M341.75,160.8l-55.11,31.74a8.1,8.1,0,0,1-8.08,0l-55-31.77a1.23,1.23,0,0,1-.48-.48,1.28,1.28,0,0,0,.48,1.75l55,31.77a8.1,8.1,0,0,0,8.08,0L341.75,162a1.3,1.3,0,0,0,.48-1.75A1.31,1.31,0,0,1,341.75,160.8Z"/><ellipse class="cls-14" cx="282.64" cy="161.02" rx="30.04" ry="17.35"/><path class="cls-15" d="M271.21,146.31s-.73.76-1.49,1.66a20.16,20.16,0,0,1-3.78,2.7c-.9.56-5,3.67-5.86,6.73s2.08,3.46,5.08,2.93S271,157,271.77,156a27.49,27.49,0,0,1,7.33-5.17c3.68-1.91,1.45-4.47,1.45-4.47Z"/><path class="cls-15" d="M298.52,155.4a12.22,12.22,0,0,1,.78,3.15c.17,1.77.42,5.61.51,6.73a9.52,9.52,0,0,1-1.85,6.5c-2,2.63-3,3.67-5.62,2.63s-2.57-5.44-2.1-7.7a67.29,67.29,0,0,0,.85-7.88,1.46,1.46,0,0,1,.15-.87Z"/><path class="cls-16" d="M262.15,94.32s.55,20.21,5.26,30.93a78.37,78.37,0,0,1,3.86,20.69,4,4,0,0,0,.33,3.51c1.1,1.57,8,3,9.16-2.15s.7-14.84-.55-18.88.44-15.14.44-15.14,1.89,1.21,4.37,9.19a102.75,102.75,0,0,0,5.15,13.24c.85,2.2,1.64,15.73,1.1,22.34,0,0,5.6.8,7.22-1.88s2.16-16.52,1.75-20.94-2.26-18.56-2-22.93,1.17-7.93.17-12.3-30.55-14.08-30.55-14.08Z"/><path class="cls-15" d="M298.19,112.3c.26-4.38,1.17-7.93.17-12.3-.38-1.65-4.79-4-10.15-6.4-9-.82-20.51-1.78-21.3-1.66a30.13,30.13,0,0,0-4.13,1.44l-.63.94s0,1.23.15,3.23c2.11.63,6.17,0,6.17,0a21.75,21.75,0,0,0,8.48,8.64c4.38,2.17,17.2,1.42,17.94,2.25s.88,11.89.8,13.3,1.21,10.26,2.4,18.09-.61,17.07-.67,17.37a3.29,3.29,0,0,0,1-1c1.62-2.68,2.16-16.52,1.75-20.94S297.94,116.67,298.19,112.3Z"/><path class="cls-17" d="M272,28.21l-8.76,2a1.1,1.1,0,0,0-.8.69,26.72,26.72,0,0,0-1,13.93,69.81,69.81,0,0,1,1,15l-3,15.78s-3.82,15-3.49,15.44,8.78,6.84,11.42,5.93,1.77-2.4,1.77-2.4,2.14,10.9,11.61,10.79,17.2-.07,18.81-3.9-.44-19.92-2.11-26.29-5.64-19.06-5.64-19.06l13.82-15.29-11.85-9s-2.83-5.26-4-5.93-1.77-.11-1.77-.11Z"/><path class="cls-18" d="M267.52,93.57c0,.55-.31,1.36-2,2s-6.34-2.11-9.3-4.17c1.48,1.22,8.74,6.52,11.15,5.69a4.27,4.27,0,0,0,1.19-.59A20.41,20.41,0,0,1,267.52,93.57Z"/><path class="cls-19" d="M299.48,100.25c-1.7,4-9.86,4-19.85,4.12a10.68,10.68,0,0,1-6.21-1.79,10.06,10.06,0,0,0,7.32,2.85c9.47-.1,17.2-.07,18.81-3.9.53-1.26.66-3.84.54-7A17,17,0,0,1,299.48,100.25Z"/><path class="cls-20" d="M289.57,25.72s2.42,2.93-1.07,6.88a93.88,93.88,0,0,0-9,13.13c-2,3.41-3.78,5.22-4.81,8.15,0,0-.14-3.48-.28-8.84a113.18,113.18,0,0,1,0-11.65C274.93,30.66,286.89,24.39,289.57,25.72Z"/><path class="cls-21" d="M280.51,34.53s-1.24.77-1.67.7a8.1,8.1,0,0,1-1.8-1.39s-3.43-.07-3.81-1.54a31.89,31.89,0,0,0-1-3.72c-.35-.77-1.83-4.44-1.84-5.93s0-4.15-.6-5.56S268.27,1.57,281.93,2s9.39,14.54,9.39,14.54,1,.43.39,2.25-.74,2-1,2.91a4.05,4.05,0,0,1-1.33,2.22l-.22,1.67a6.81,6.81,0,0,1-1,5.05C286.38,33.1,280.51,34.53,280.51,34.53Z"/><path class="cls-16" d="M262.9,30.39s-1.45.22-6.16,12.07c-2.63,6.62-6.69,13.47-7.55,18.38s-.38,10.17.59,10.54S267.65,78,273,80a.49.49,0,0,0,.63-.28l0-.1,1.46-8.17-10.5-4.06a15.06,15.06,0,0,0-3.88-3.37s2.1-3.88,2-4.94.19-12-1-16.49S262.9,30.39,262.9,30.39Z"/><path class="cls-21" d="M269.06,61.72a15.67,15.67,0,0,0-1.81-1.11c-.36-.11-2.29-.8-2.66-1a7.44,7.44,0,0,0-2,0,.59.59,0,0,0-.48.32c-.44.83-1.69,3.24-1.55,4.17,0,0,3.5,2.21,3.89,3.19l.56.12S267.38,62.45,269.06,61.72Z"/><path class="cls-16" d="M297.44,75.24c-.4-1.53-.94-3.43-1.52-5.43l-21.28,9.12a22.45,22.45,0,0,0,17.54,7.33A14.69,14.69,0,0,0,299.09,84,87.4,87.4,0,0,0,297.44,75.24Z"/><path class="cls-16" d="M305.67,40.83s-5.61.77-10.14,8a107.27,107.27,0,0,0-7.84,15.5l-.16.93a3.78,3.78,0,0,1-4.39,3,4.19,4.19,0,0,1-.87-.27c-4.79-2.14-11.88-5.37-13.2-6.34a12.17,12.17,0,0,0-5.4,7.88C262.74,74,263,74,263,74s18.9,8.82,26.19,8.73,16.56-24.08,17.58-29S308.88,42.23,305.67,40.83Z"/><path class="cls-22" d="M305.67,40.83s-5.61.77-10.14,8a107.27,107.27,0,0,0-7.84,15.5l-.16.93a3.78,3.78,0,0,1-4.39,3,4.19,4.19,0,0,1-.87-.27c-4.79-2.14-11.88-5.37-13.2-6.34a12.17,12.17,0,0,0-5.4,7.88C262.74,74,263,74,263,74s18.9,8.82,26.19,8.73,16.56-24.08,17.58-29S308.88,42.23,305.67,40.83Z"/><path class="cls-17" d="M285,69.18s2.38,2.23,3.42,1,.73-1.35.73-1.35,2.15,0,2.41-1.36,1.32-.64,1.38-2.14-1.74-1.19-1.74-1.19Z"/><path class="cls-21" d="M282.09,68s.65-.61,1.5-1.32S285.8,63,286,62.72s3.09-2.45,4.46-2.48.35,1.5,0,1.71-1.66.89-1.66.89-1.38,1.16-1.54,1.33,3.84-.28,4.47.11a1.09,1.09,0,0,1,.17,1.52,1.37,1.37,0,0,1-.17.17,1.53,1.53,0,0,1-.79.27,1.39,1.39,0,0,1-.7,1.8c-1.19.56-1.47.25-1.47.25A1.69,1.69,0,0,1,287.15,70a1.54,1.54,0,0,1-.43,0Z"/><path class="cls-23" d="M269.51,9.88s-1.78,5.66,2.91,4,8.91-4.31,10.38-3.28c1.12.78,1.07,3.17,1,4.27a1.65,1.65,0,0,0,.28,1.06l1.39,2a1.78,1.78,0,0,1,.27.77l.09,1.4a.7.7,0,0,0,.67.66h.31a.72.72,0,0,0,.74-.58l.36-2.07s1.1-2.77,3.43-1.68c0,0,1.56-2.09,1-6.56S289.84.82,281.06,0,269.51,9.88,269.51,9.88Z"/><path class="cls-24" d="M282.93,39.51l-1.31-1a7.07,7.07,0,0,0-1.69,2.08c-.48,1.07,0,4.47,0,4.47l-.4.69-.49-.9-.42-4s.45-3,.49-3.05,2.53.26,2.53.26A5.26,5.26,0,0,1,282.93,39.51Z"/><path class="cls-24" d="M276.61,35.51a4.41,4.41,0,0,0-2,.61l1.7.1C276.52,36.25,276.61,35.51,276.61,35.51Z"/><path class="cls-16" d="M279.27,35.82l2.35,2.2a5.38,5.38,0,0,0-2.64,2.8s-2.57.48-2.8-.45,0-3.26-.3-4.3S279.27,35.82,279.27,35.82Z"/><path class="cls-16" d="M276.27,40.32a13.62,13.62,0,0,1-.92,2.72c-.48.8-1,1.69-1,1.69L274.47,56s4.16-8.56,5.06-10.3c0,0-.14-4.13-.53-4.91S276.27,40.32,276.27,40.32Z"/><path class="cls-25" d="M287.46,23.62C284.73,31.5,277,33.84,277,33.84a8.1,8.1,0,0,0,1.8,1.39c.43.07,1.67-.7,1.67-.7s5.87-1.43,7.56-3.92a6.81,6.81,0,0,0,1-5.05l.22-1.67A1.81,1.81,0,0,1,287.46,23.62Z"/><path class="cls-16" d="M293.71,32.84s-1.08,3.72-1.22,3.86a16.31,16.31,0,0,1-2.71-.16L291,38.91S278.1,52.78,275.42,60.24a157.5,157.5,0,0,1,16.85-20.75l-1.52-2.31,2.64.52Z"/><path class="cls-16" d="M272.46,29.56l-.68.78.8.75-2.39,2.17s-.73,15.17,2.19,25.21c0,0-4-9.21-3.06-25.63l2.58-1.75-.84-.84Z"/><path class="cls-15" d="M280.61,113.28l.09.07-3.35-3.57c1.55,2.18-.23,12.17-.42,14.45s1.79,7,2.53,12.54-.77,13.41-.78,13.44a4.32,4.32,0,0,0,2-2.91c1.14-5.17.7-14.84-.55-18.88S280.61,113.28,280.61,113.28Z"/><path class="cls-26" d="M289.16,82.76c7.3-.08,16.56-24.08,17.58-29,.17-.82.34-1.7.5-2.58,0,.07-1.92,5.25-3.74,9.84s-11.59,18.61-16.58,19.52c-4.49.82-20.66-6.72-23.79-8.21C262.85,74,263,74,263,74S281.87,82.85,289.16,82.76Z"/><path class="cls-27" d="M286.79,20.84a.72.72,0,0,0,.74-.58l.36-2.07s1.1-2.77,3.43-1.68c0,0,1.47-2,1.07-6.21-2.59,3.88-8.33,5.68-8.33,5.68l1.39,2a1.78,1.78,0,0,1,.27.77l.09,1.4a.7.7,0,0,0,.67.66Z"/><path class="cls-28" d="M384.55,122.43a3.1,3.1,0,1,1,3.1-3.1h0A3.1,3.1,0,0,1,384.55,122.43Zm0-5.69a2.6,2.6,0,1,0,2.6,2.6,2.6,2.6,0,0,0-2.6-2.6Z"/><path class="cls-28" d="M384.55,112.77a3.1,3.1,0,1,1,3.1-3.1,3.1,3.1,0,0,1-3.1,3.1Zm0-5.7a2.6,2.6,0,1,0,2.6,2.6,2.6,2.6,0,0,0-2.6-2.6h0Z"/><path class="cls-29" d="M384.55,97.15A2.85,2.85,0,1,1,381.7,100a2.86,2.86,0,0,1,2.85-2.85Z"/><path class="cls-28" d="M384.55,103.1a3.1,3.1,0,1,1,3.1-3.1,3.1,3.1,0,0,1-3.1,3.1Zm0-5.7a2.6,2.6,0,1,0,2.6,2.6A2.6,2.6,0,0,0,384.55,97.4Z"/><path class="cls-28" d="M384.55,93.43a3.1,3.1,0,1,1,3.1-3.1,3.1,3.1,0,0,1-3.1,3.1Zm0-5.69a2.6,2.6,0,1,0,2.6,2.6h0A2.61,2.61,0,0,0,384.55,87.74Z"/><path class="cls-28" d="M384.55,83.76a3.1,3.1,0,1,1,3.1-3.1h0A3.1,3.1,0,0,1,384.55,83.76Zm0-5.69a2.6,2.6,0,1,0,2.6,2.6,2.6,2.6,0,0,0-2.6-2.6h0Z"/><rect class="cls-28" x="387.4" y="99.75" width="28.39" height="0.5"/><path class="cls-28" d="M415.79,162.87h-28a3.46,3.46,0,0,1-3.47-3.46V122.18h.5v37.23a3,3,0,0,0,3,3h28Z"/><path class="cls-28" d="M384.8,77.82h-.53V40.59a3.46,3.46,0,0,1,3.47-3.46h28v.5h-28a3,3,0,0,0-3,3Z"/><path class="cls-28" d="M176.27,122.43a3.1,3.1,0,1,0-3.1-3.1h0A3.09,3.09,0,0,0,176.27,122.43Zm0-5.69a2.6,2.6,0,1,1-2.6,2.6h0a2.59,2.59,0,0,1,2.58-2.6Z"/><path class="cls-28" d="M176.27,112.77a3.1,3.1,0,1,0-3.1-3.1h0A3.1,3.1,0,0,0,176.27,112.77Zm0-5.7a2.6,2.6,0,1,1-2.6,2.6h0a2.6,2.6,0,0,1,2.57-2.63h0Z"/><path class="cls-29" d="M176.27,97.15a2.85,2.85,0,1,0,2.84,2.89,2.85,2.85,0,0,0-2.84-2.89Z"/><path class="cls-28" d="M176.27,103.1a3.1,3.1,0,1,0-3.1-3.1h0A3.1,3.1,0,0,0,176.27,103.1Zm0-5.7a2.6,2.6,0,1,1-2.6,2.6h0A2.6,2.6,0,0,1,176.27,97.4Z"/><path class="cls-28" d="M176.27,93.43a3.1,3.1,0,1,0-3.1-3.1h0A3.1,3.1,0,0,0,176.27,93.43Zm0-5.69a2.6,2.6,0,1,1-2.6,2.6h0a2.59,2.59,0,0,1,2.59-2.59Z"/><path class="cls-28" d="M176.27,83.76a3.1,3.1,0,1,0-3.1-3.1h0A3.09,3.09,0,0,0,176.27,83.76Zm0-5.72a2.6,2.6,0,1,1-2.6,2.6h0a2.59,2.59,0,0,1,2.58-2.6Z"/><path class="cls-28" d="M164.27,90.58h9.15V90h-9.15a4.17,4.17,0,0,1-4.17-4.16v-20a4.68,4.68,0,0,0-4.66-4.67H145v.5h10.41a4.17,4.17,0,0,1,4.16,4.17v20a4.67,4.67,0,0,0,4.64,4.7Z"/><rect class="cls-28" x="145.02" y="118.75" width="28.39" height="0.5"/><rect class="cls-28" x="145.27" y="99.69" width="28.39" height="0.5"/><path class="cls-28" d="M145,196.28h28c1.91,0,3.46-2.07,3.46-4.61V142.18H176v49.49c0,2.17-1.33,3.94-3,3.94H145Z"/><path class="cls-28" d="M176,77.82h.5V40.59a3.46,3.46,0,0,0-3.46-3.46H145v.5h28a3,3,0,0,1,3,3Z"/><path class="cls-28" d="M176.27,142.88a3.1,3.1,0,1,0-3.1-3.1,3.1,3.1,0,0,0,3.1,3.1Zm0-5.7a2.6,2.6,0,1,1-2.6,2.6,2.61,2.61,0,0,1,2.6-2.6Z"/><path class="cls-28" d="M176.27,132.21a3.1,3.1,0,1,0-3.1-3.1,3.1,3.1,0,0,0,3.1,3.1Zm0-5.7a2.6,2.6,0,1,1-2.6,2.6A2.61,2.61,0,0,1,176.27,126.51Z"/><path class="cls-28" d="M163.51,129h9.15v.5h-9.15a4.17,4.17,0,0,0-4.17,4.17v20a4.67,4.67,0,0,1-4.67,4.66h-10.4v-.5h10.4a4.17,4.17,0,0,0,4.17-4.16v-20A4.67,4.67,0,0,1,163.51,129Z"/></g></g><text class="cls-30" transform="translate(33.17 41.04)">BORN 17.01.1991</text><text class="cls-30" transform="translate(0 64.87)">CROATIAN NATIONALITY</text><text class="cls-30" transform="translate(15.8 154.42)">LIVING IN GERMANY </text><text class="cls-30" transform="translate(42.2 167.62)">BAYERN/MUNICH</text><text class="cls-30" transform="translate(50.36 192.02)">AVAILABILITY </text><text class="cls-30" transform="translate(43.76 205.21)">INTERNATIONAL</text><text class="cls-30" transform="translate(429.41 33.31)">IT SPECIALIST FOR </text><text class="cls-30" transform="translate(429.41 46.51)">SYSTEM INTEGRATION</text><text class="cls-30" transform="translate(429.99 103.66)">ISTQB CERTIFIED</text><text class="cls-30" transform="translate(431.84 152.6)">SPEAKING ENGLISCH, </text><text class="cls-30" transform="translate(431.84 165.8)">GERMAN, CROATIAN &amp; </text><text class="cls-30" transform="translate(431.84 179)">RUSSIAN (LEARNING)</text><text class="cls-30" transform="translate(3.84 103.08)"><tspan xml:space="preserve"> +49 176 822 783 98</tspan></text><text class="cls-30" transform="translate(3.84 122.38)">R.KOVIC@TRALUMA.COM</text></g></g></svg>