<?xml version="1.0" encoding="utf-8"?>
<!-- Generator: Adobe Illustrator 24.3.0, SVG Export Plug-In . SVG Version: 6.00 Build 0)  -->
<svg version="1.1" id="Ebene_1" xmlns="http://www.w3.org/2000/svg" xmlns:xlink="http://www.w3.org/1999/xlink" x="0px" y="0px"
	 viewBox="0 0 586.5 252.1" style="enable-background:new 0 0 586.5 252.1;" xml:space="preserve">
<style type="text/css">
	.st0{fill:#42E8E0;}
	.st1{opacity:0.11;}
	.st2{fill:url(#SVGID_1_);}
	.st3{fill:url(#SVGID_2_);}
	.st4{fill:url(#SVGID_3_);}
	.st5{fill:url(#SVGID_4_);}
	.st6{opacity:0.11;fill:url(#SVGID_5_);enable-background:new    ;}
	.st7{fill:url(#SVGID_6_);}
	.st8{fill:url(#SVGID_7_);}
	.st9{fill:url(#SVGID_8_);}
	.st10{fill:url(#SVGID_9_);}
	.st11{opacity:0.5;fill:url(#SVGID_10_);enable-background:new    ;}
	.st12{fill:url(#SVGID_11_);}
	.st13{fill:url(#SVGID_12_);}
	.st14{opacity:0.2;fill:#180D5B;enable-background:new    ;}
	.st15{fill:#160A5B;}
	.st16{fill:#24126A;}
	.st17{fill:#453C9E;}
	.st18{fill:url(#SVGID_13_);}
	.st19{fill:url(#SVGID_14_);}
	.st20{fill:#F0F6FF;}
	.st21{fill:#FCD1C5;}
	.st22{fill:#4846A5;}
	.st23{fill:#AA8383;}
	.st24{fill:#C4CCD6;}
	.st25{fill:#E2B1A6;}
	.st26{fill:url(#SVGID_15_);}
	.st27{fill:#936D6D;}
	.st28{fill:#03A7D3;}
	.st29{opacity:0.4;fill:#172F78;enable-background:new    ;}
	.st30{fill:#309BA0;}
	.st31{font-family:'SourceCodePro-Bold';}
	.st32{font-size:55.0182px;}
</style>
<g id="Ebene_2_1_">
	<g id="Ebene_1-2">
		<g id="Ebene_2-2">
			<g id="Ńëîé_1">
				<polygon class="st0" points="76.2,175.3 69.4,179.2 69.4,174.7 76.2,170.8 				"/>
				<polygon class="st0" points="76.2,206 69.4,210 69.4,183.4 76.2,179.5 				"/>
				<polygon class="st0" points="76.2,220.7 69.4,224.7 69.4,214.1 76.2,210.2 				"/>
				<polygon class="st0" points="76.2,236 69.4,239.9 69.4,229.3 76.2,225.4 				"/>
				<polygon class="st0" points="86.3,184.2 79.6,188.1 79.6,177.5 86.3,173.6 				"/>
				<polygon class="st0" points="86.3,204.3 79.6,208.3 79.6,192.8 86.3,188.8 				"/>
				<polygon class="st0" points="86.3,222.9 79.6,226.8 79.6,213.5 86.3,209.6 				"/>
				<polygon class="st0" points="76.2,251.2 69.4,255.1 69.4,244.6 76.2,240.6 				"/>
				<polygon class="st0" points="86.3,169.5 79.6,173.4 79.6,168.8 86.3,164.9 				"/>
				<polygon class="st0" points="81.3,263.1 69.4,269.9 69.4,265.5 81.3,258.7 				"/>
				<g class="st1">
					
						<linearGradient id="SVGID_1_" gradientUnits="userSpaceOnUse" x1="-431.5148" y1="953.5613" x2="61.4235" y2="953.5613" gradientTransform="matrix(1 0 0 1 0 -513.92)">
						<stop  offset="0" style="stop-color:#5761D7"/>
						<stop  offset="7.000000e-02" style="stop-color:#5472D8"/>
						<stop  offset="0.28" style="stop-color:#4E9CDB"/>
						<stop  offset="0.48" style="stop-color:#49BDDD"/>
						<stop  offset="0.67" style="stop-color:#45D5DF"/>
						<stop  offset="0.85" style="stop-color:#43E3E0"/>
						<stop  offset="1" style="stop-color:#42E8E0"/>
					</linearGradient>
					<path class="st2" d="M-166,305c-11.7-6.8-26.1-6.8-37.8,0l-225.1,129.6c-2.5,1.5-3.4,4.7-2,7.2c0,0,0,0,0,0
						c0.5,0.8,1.1,1.5,2,2l226.9,131c10.3,6,23,6,33.3,0L58.8,443.6c2.5-1.5,3.4-4.7,2-7.2c0,0,0,0,0,0c-0.5-0.8-1.1-1.5-2-2
						L-166,305z"/>
				</g>
				<g class="st1">
					
						<linearGradient id="SVGID_2_" gradientUnits="userSpaceOnUse" x1="-431.5148" y1="915.6682" x2="61.3736" y2="915.6682" gradientTransform="matrix(1 0 0 1 0 -513.92)">
						<stop  offset="0" style="stop-color:#5761D7"/>
						<stop  offset="7.000000e-02" style="stop-color:#5472D8"/>
						<stop  offset="0.28" style="stop-color:#4E9CDB"/>
						<stop  offset="0.48" style="stop-color:#49BDDD"/>
						<stop  offset="0.67" style="stop-color:#45D5DF"/>
						<stop  offset="0.85" style="stop-color:#43E3E0"/>
						<stop  offset="1" style="stop-color:#42E8E0"/>
					</linearGradient>
					<path class="st3" d="M-166,267.1c-11.7-6.7-26.1-6.7-37.8,0l-225.1,129.7c-2.5,1.5-3.4,4.7-2,7.2c0,0,0,0,0,0
						c0.5,0.8,1.1,1.5,2,2l226.9,131c10.3,6,23,6,33.3,0L58.7,406c2.5-1.5,3.4-4.7,2-7.2c0,0,0,0,0,0c-0.5-0.8-1.1-1.5-2-2
						L-166,267.1z"/>
				</g>
				<g class="st1">
					
						<linearGradient id="SVGID_3_" gradientUnits="userSpaceOnUse" x1="-431.5148" y1="877.5305" x2="61.3736" y2="877.5305" gradientTransform="matrix(1 0 0 1 0 -513.92)">
						<stop  offset="0" style="stop-color:#5761D7"/>
						<stop  offset="7.000000e-02" style="stop-color:#5472D8"/>
						<stop  offset="0.28" style="stop-color:#4E9CDB"/>
						<stop  offset="0.48" style="stop-color:#49BDDD"/>
						<stop  offset="0.67" style="stop-color:#45D5DF"/>
						<stop  offset="0.85" style="stop-color:#43E3E0"/>
						<stop  offset="1" style="stop-color:#42E8E0"/>
					</linearGradient>
					<path class="st4" d="M-166,229.2c-11.7-6.7-26.1-6.7-37.8,0l-225.1,129.6c-2.5,1.5-3.4,4.7-2,7.2c0,0,0,0,0,0
						c0.5,0.8,1.1,1.5,2,2l226.9,130.6c10.3,6,23,6,33.3,0L58.7,367.7c2.5-1.5,3.4-4.7,2-7.2c0,0,0,0,0,0c-0.5-0.8-1.1-1.5-2-2
						L-166,229.2z"/>
				</g>
				<g class="st1">
					
						<linearGradient id="SVGID_4_" gradientUnits="userSpaceOnUse" x1="-431.5148" y1="839.8181" x2="61.3736" y2="839.8181" gradientTransform="matrix(1 0 0 1 0 -513.92)">
						<stop  offset="0" style="stop-color:#5761D7"/>
						<stop  offset="7.000000e-02" style="stop-color:#5472D8"/>
						<stop  offset="0.28" style="stop-color:#4E9CDB"/>
						<stop  offset="0.48" style="stop-color:#49BDDD"/>
						<stop  offset="0.67" style="stop-color:#45D5DF"/>
						<stop  offset="0.85" style="stop-color:#43E3E0"/>
						<stop  offset="1" style="stop-color:#42E8E0"/>
					</linearGradient>
					<path class="st5" d="M-166,191.3c-11.7-6.7-26.1-6.7-37.8,0l-225.1,129.6c-2.5,1.5-3.4,4.7-2,7.2c0,0,0,0,0,0
						c0.5,0.8,1.1,1.5,2,2l226.9,131c10.3,6,23,6,33.3,0L58.7,330.2c2.5-1.5,3.4-4.7,2-7.2c0,0,0,0,0,0c-0.5-0.8-1.1-1.5-2-2
						L-166,191.3z"/>
				</g>
				
					<linearGradient id="SVGID_5_" gradientUnits="userSpaceOnUse" x1="-431.502" y1="896.7119" x2="61.4106" y2="896.7119" gradientTransform="matrix(1 0 0 1 0 -513.92)">
					<stop  offset="0" style="stop-color:#5761D7"/>
					<stop  offset="7.000000e-02" style="stop-color:#5472D8"/>
					<stop  offset="0.28" style="stop-color:#4E9CDB"/>
					<stop  offset="0.48" style="stop-color:#49BDDD"/>
					<stop  offset="0.67" style="stop-color:#45D5DF"/>
					<stop  offset="0.85" style="stop-color:#43E3E0"/>
					<stop  offset="1" style="stop-color:#42E8E0"/>
				</linearGradient>
				<path class="st6" d="M58.8,321L-166,191.3c-11.7-6.7-26.1-6.7-37.8,0l-225.1,129.6c-1.6,0.9-2.7,2.7-2.7,4.6v113.8
					c0,1.9,1,3.7,2.7,4.6l226.9,131c10.3,6,23,6,33.3,0L58.8,443.6c1.6-0.9,2.7-2.7,2.7-4.6V325.6l0,0C61.4,323.7,60.4,322,58.8,321
					z"/>
				<g class="st1">
					
						<linearGradient id="SVGID_6_" gradientUnits="userSpaceOnUse" x1="-483.7701" y1="775.5852" x2="113.8787" y2="775.5852" gradientTransform="matrix(1 0 0 1 0 -513.92)">
						<stop  offset="0" style="stop-color:#5761D7"/>
						<stop  offset="7.000000e-02" style="stop-color:#5472D8"/>
						<stop  offset="0.28" style="stop-color:#4E9CDB"/>
						<stop  offset="0.48" style="stop-color:#49BDDD"/>
						<stop  offset="0.67" style="stop-color:#45D5DF"/>
						<stop  offset="0.85" style="stop-color:#43E3E0"/>
						<stop  offset="1" style="stop-color:#42E8E0"/>
					</linearGradient>
					<path class="st7" d="M-161.9,98.5c-14.2-8.2-31.6-8.2-45.8,0l-272.8,157c-3.1,1.8-4.2,5.7-2.4,8.8c0.6,1,1.4,1.8,2.4,2.4
						l275.1,158.9c12.5,7.3,27.9,7.3,40.4,0l275.6-158.7c3.1-1.8,4.2-5.7,2.4-8.8c-0.6-1-1.4-1.8-2.4-2.4L-161.9,98.5z"/>
				</g>
				<g class="st1">
					
						<linearGradient id="SVGID_7_" gradientUnits="userSpaceOnUse" x1="-483.7325" y1="729.4559" x2="113.8411" y2="729.4559" gradientTransform="matrix(1 0 0 1 0 -513.92)">
						<stop  offset="0" style="stop-color:#5761D7"/>
						<stop  offset="7.000000e-02" style="stop-color:#5472D8"/>
						<stop  offset="0.28" style="stop-color:#4E9CDB"/>
						<stop  offset="0.48" style="stop-color:#49BDDD"/>
						<stop  offset="0.67" style="stop-color:#45D5DF"/>
						<stop  offset="0.85" style="stop-color:#43E3E0"/>
						<stop  offset="1" style="stop-color:#42E8E0"/>
					</linearGradient>
					<path class="st8" d="M-161.9,52.3c-14.2-8.2-31.6-8.2-45.8,0l-272.8,157.2c-3.1,1.8-4.1,5.7-2.4,8.8c0.6,1,1.4,1.8,2.4,2.4
						l275.1,158.9c12.5,7.2,27.9,7.2,40.4,0l275.6-158.8c3.1-1.8,4.1-5.7,2.4-8.8c-0.6-1-1.4-1.8-2.4-2.4L-161.9,52.3z"/>
				</g>
				<g class="st1">
					
						<linearGradient id="SVGID_8_" gradientUnits="userSpaceOnUse" x1="-483.7325" y1="683.4908" x2="113.8411" y2="683.4908" gradientTransform="matrix(1 0 0 1 0 -513.92)">
						<stop  offset="0" style="stop-color:#5761D7"/>
						<stop  offset="7.000000e-02" style="stop-color:#5472D8"/>
						<stop  offset="0.28" style="stop-color:#4E9CDB"/>
						<stop  offset="0.48" style="stop-color:#49BDDD"/>
						<stop  offset="0.67" style="stop-color:#45D5DF"/>
						<stop  offset="0.85" style="stop-color:#43E3E0"/>
						<stop  offset="1" style="stop-color:#42E8E0"/>
					</linearGradient>
					<path class="st9" d="M-161.9,6.3c-14.2-8.2-31.6-8.2-45.8,0l-272.8,157.2c-3.1,1.8-4.1,5.7-2.4,8.8c0.6,1,1.4,1.8,2.4,2.4
						l275.1,158.9c12.5,7.2,27.9,7.2,40.4,0l275.6-158.8c3.1-1.8,4.1-5.7,2.4-8.8c-0.6-1-1.4-1.8-2.4-2.4L-161.9,6.3z"/>
				</g>
				<g class="st1">
					
						<linearGradient id="SVGID_9_" gradientUnits="userSpaceOnUse" x1="-483.7325" y1="637.5256" x2="113.791" y2="637.5256" gradientTransform="matrix(1 0 0 1 0 -513.92)">
						<stop  offset="0" style="stop-color:#5761D7"/>
						<stop  offset="7.000000e-02" style="stop-color:#5472D8"/>
						<stop  offset="0.28" style="stop-color:#4E9CDB"/>
						<stop  offset="0.48" style="stop-color:#49BDDD"/>
						<stop  offset="0.67" style="stop-color:#45D5DF"/>
						<stop  offset="0.85" style="stop-color:#43E3E0"/>
						<stop  offset="1" style="stop-color:#42E8E0"/>
					</linearGradient>
					<path class="st10" d="M-161.9-39.7c-14.2-8.2-31.6-8.2-45.8,0l-272.8,157.2c-3.1,1.8-4.1,5.7-2.4,8.8c0.6,1,1.4,1.8,2.4,2.4
						l275.1,158.9c12.5,7.2,27.9,7.2,40.4,0l275.6-159.1c3.1-1.8,4.1-5.7,2.4-8.8c-0.6-1-1.4-1.8-2.4-2.4L-161.9-39.7z"/>
				</g>
				
					<linearGradient id="SVGID_10_" gradientUnits="userSpaceOnUse" x1="-483.7693" y1="706.5124" x2="113.8331" y2="706.5124" gradientTransform="matrix(1 0 0 1 0 -513.92)">
					<stop  offset="0" style="stop-color:#5761D7"/>
					<stop  offset="7.000000e-02" style="stop-color:#5472D8"/>
					<stop  offset="0.28" style="stop-color:#4E9CDB"/>
					<stop  offset="0.48" style="stop-color:#49BDDD"/>
					<stop  offset="0.67" style="stop-color:#45D5DF"/>
					<stop  offset="0.85" style="stop-color:#43E3E0"/>
					<stop  offset="1" style="stop-color:#42E8E0"/>
				</linearGradient>
				<path class="st11" d="M110.6,117.7L-161.9-39.7c-14.2-8.2-31.6-8.2-45.8,0l-272.8,157.2c-2,1.1-3.2,3.3-3.3,5.6V261
					c0,2.3,1.2,4.4,3.3,5.6l275.1,158.9c12.5,7.3,27.9,7.3,40.4,0l275.6-158.7c2-1.2,3.2-3.3,3.2-5.6V123.5l0,0
					C113.9,121.1,112.7,118.9,110.6,117.7z"/>
				
					<linearGradient id="SVGID_11_" gradientUnits="userSpaceOnUse" x1="-483.7325" y1="637.5256" x2="113.791" y2="637.5256" gradientTransform="matrix(1 0 0 1 0 -513.92)">
					<stop  offset="0" style="stop-color:#5761D7"/>
					<stop  offset="7.000000e-02" style="stop-color:#5472D8"/>
					<stop  offset="0.28" style="stop-color:#4E9CDB"/>
					<stop  offset="0.48" style="stop-color:#49BDDD"/>
					<stop  offset="0.67" style="stop-color:#45D5DF"/>
					<stop  offset="0.85" style="stop-color:#43E3E0"/>
					<stop  offset="1" style="stop-color:#42E8E0"/>
				</linearGradient>
				<path class="st12" d="M-161.9-39.7c-14.2-8.2-31.6-8.2-45.8,0l-272.8,157.2c-3.1,1.8-4.1,5.7-2.4,8.8c0.6,1,1.4,1.8,2.4,2.4
					l275.1,158.9c12.5,7.2,27.9,7.2,40.4,0l275.6-159.1c3.1-1.8,4.1-5.7,2.4-8.8c-0.6-1-1.4-1.8-2.4-2.4L-161.9-39.7z"/>
				
					<linearGradient id="SVGID_12_" gradientUnits="userSpaceOnUse" x1="-483.7041" y1="720.1849" x2="113.7897" y2="720.1849" gradientTransform="matrix(1 0 0 1 0 -513.92)">
					<stop  offset="0" style="stop-color:#5761D7"/>
					<stop  offset="7.000000e-02" style="stop-color:#5472D8"/>
					<stop  offset="0.28" style="stop-color:#4E9CDB"/>
					<stop  offset="0.48" style="stop-color:#49BDDD"/>
					<stop  offset="0.67" style="stop-color:#45D5DF"/>
					<stop  offset="0.85" style="stop-color:#43E3E0"/>
					<stop  offset="1" style="stop-color:#42E8E0"/>
				</linearGradient>
				<path class="st13" d="M110.6,122.5l-275.6,158.8c-12.5,7.2-27.9,7.2-40.4,0l-275.1-158.9c-1-0.6-1.8-1.4-2.4-2.4
					c-1.6,3-0.5,6.8,2.5,8.6l275.1,158.9c12.5,7.2,27.9,7.2,40.4,0l275.6-158.9c3-1.8,4.1-5.7,2.4-8.8
					C112.5,120.9,111.6,121.8,110.6,122.5z"/>
				<ellipse class="st14" cx="-185.1" cy="123.6" rx="150.2" ry="86.8"/>
				<path class="st15" d="M-242.2,50c0,0-3.7,3.8-7.5,8.3c-5.8,5.2-12.1,9.7-18.9,13.5c-4.5,2.8-25,18.4-29.3,33.7
					c-4.3,15.3,10.4,17.3,25.4,14.7c15-2.7,29-16.5,33.1-21.5c10.7-10.6,23.1-19.3,36.7-25.9c18.4-9.6,7.3-22.4,7.3-22.4L-242.2,50z
					"/>
				<path class="st15" d="M-105.4,95.5c2,5,3.3,10.3,3.9,15.8c0.9,8.9,2.1,28.1,2.6,33.7c1,11.6-2.3,23.2-9.3,32.5
					c-10,13.2-15,18.4-28.1,13.2c-13.1-5.2-12.9-27.2-10.5-38.5c2.2-13,3.6-26.2,4.3-39.4c-0.2-1.5,0.1-3,0.8-4.4L-105.4,95.5z"/>
				<path class="st16" d="M-287.6-210c0,0,2.8,101.1,26.3,154.7c11.1,33.5,17.6,68.3,19.3,103.5c-2.2,5.8-1.6,12.3,1.7,17.6
					c5.5,7.9,40,15,45.8-10.8c5.8-25.8,3.5-74.2-2.8-94.4s2.2-75.7,2.2-75.7s9.5,6.1,21.9,46c7.1,22.6,15.7,44.8,25.8,66.2
					c4.3,11,8.2,78.7,5.5,111.7c0,0,28,4,36.1-9.4S-95,16.7-97-5.4c-2.1-22.1-11.3-92.8-10-114.7s5.9-39.7,0.9-61.5
					C-111.2-203.5-259-252-259-252L-287.6-210z"/>
				<path class="st15" d="M-107.3-120.1c1.3-21.9,5.9-39.7,0.9-61.5c-1.9-8.3-24-20-50.8-32c-45-4.1-102.6-8.9-106.5-8.3
					c-7.1,1.9-14,4.3-20.7,7.2l-3.2,4.7c0,0,0,6.2,0.8,16.2c10.6,3.2,30.9,0,30.9,0c9.8,18.1,24.5,33.1,42.4,43.2
					c21.9,10.9,86,7.1,89.7,11.3c3.7,4.2,4.4,59.5,4,66.5s6.1,51.3,12,90.5c6,39.2-3.1,85.4-3.4,86.9c2-1.3,3.7-3,5-5
					C-98,86.1-95.3,16.9-97.4-5.3C-99.4-27.4-108.5-98.2-107.3-120.1z"/>
				<path class="st17" d="M-238.1-540.7l-43.8,10c-1.8,0.4-3.3,1.7-4,3.5c-7.8,22.4-9.5,46.4-5,69.7c4.4,24.8,6.1,49.9,5,75
					l-15,78.9c0,0-19.1,75-17.5,77.2c1.7,2.2,43.9,34.2,57.1,29.7s8.9-12,8.9-12s10.7,54.5,58.1,54s86-0.4,94.1-19.5
					s-2.2-99.6-10.6-131.5s-28.2-95.3-28.2-95.3l69.1-76.5l-59.3-45c0,0-14.2-26.3-20-29.7c-5.9-3.4-8.9-0.6-8.9-0.6L-238.1-540.7z"
					/>
				
					<linearGradient id="SVGID_13_" gradientUnits="userSpaceOnUse" x1="-335.4353" y1="317.6228" x2="-272.4146" y2="317.6228" gradientTransform="matrix(1 6.000000e-02 -6.000000e-02 1 35.95 -509.34)">
					<stop  offset="0" style="stop-color:#5761D7"/>
					<stop  offset="7.000000e-02" style="stop-color:#5472D8"/>
					<stop  offset="0.28" style="stop-color:#4E9CDB"/>
					<stop  offset="0.48" style="stop-color:#49BDDD"/>
					<stop  offset="0.67" style="stop-color:#45D5DF"/>
					<stop  offset="0.85" style="stop-color:#43E3E0"/>
					<stop  offset="1" style="stop-color:#42E8E0"/>
				</linearGradient>
				<path class="st18" d="M-260.4-213.8c0,2.8-1.6,6.8-10,10c-8.5,3.2-31.7-10.6-46.5-20.9c7.4,6.1,43.7,32.6,55.8,28.5
					c2.1-0.7,4-1.7,5.8-3C-257.5-203.9-259.2-208.8-260.4-213.8z"/>
				
					<linearGradient id="SVGID_14_" gradientUnits="userSpaceOnUse" x1="-246.2559" y1="337.4428" x2="-114.3123" y2="337.4428" gradientTransform="matrix(1 6.000000e-02 -6.000000e-02 1 35.95 -509.34)">
					<stop  offset="0" style="stop-color:#5761D7"/>
					<stop  offset="7.000000e-02" style="stop-color:#5472D8"/>
					<stop  offset="0.28" style="stop-color:#4E9CDB"/>
					<stop  offset="0.48" style="stop-color:#49BDDD"/>
					<stop  offset="0.67" style="stop-color:#45D5DF"/>
					<stop  offset="0.85" style="stop-color:#43E3E0"/>
					<stop  offset="1" style="stop-color:#42E8E0"/>
				</linearGradient>
				<path class="st19" d="M-100.8-180.4c-8.5,20-49.3,20-99.3,20.6c-11,0.3-21.9-2.8-31.1-9c9.8,9.5,23,14.7,36.6,14.3
					c47.4-0.5,86-0.4,94.1-19.5c2.7-6.3,3.3-19.2,2.7-35C-97.2-199.3-98.2-189.7-100.8-180.4z"/>
				<path class="st20" d="M-150.4-553.1c0,0,12.1,14.7-5.4,34.4c-16.8,20.6-31.9,42.5-45,65.7c-10,17.1-18.9,26.1-24.1,40.8
					c0,0-0.7-17.4-1.4-44.2c-1-19.4-1-38.9,0-58.3C-223.6-528.4-163.8-559.8-150.4-553.1z"/>
				<path class="st21" d="M-195.7-509.1c0,0-6.2,3.9-8.4,3.5c-3.3-1.9-6.3-4.2-9-7c0,0-17.2-0.4-19.1-7.7c-1.3-6.3-2.9-12.5-5-18.6
					c-1.8-3.9-9.2-22.2-9.2-29.7s0-20.8-3-27.8c-3-7.1-7.6-77.6,60.7-75.5c68.3,2.2,47,72.7,47,72.7s5,2.2,2,11.3
					c-3.1,9.1-3.7,10-5,14.6c-0.9,4.3-3.3,8.2-6.7,11.1l-1.1,8.4c1.8,8.7,0,17.8-5,25.3C-166.4-516.2-195.7-509.1-195.7-509.1z"/>
				<path class="st16" d="M-283.8-529.8c0,0-7.3,1.1-30.8,60.4c-13.2,33.1-33.5,67.4-37.8,91.9c-4.3,24.6-1.9,50.9,3,52.7
					c4.9,1.9,89.4,33.1,115.9,43.1c1.2,0.5,2.6-0.1,3.1-1.3c0,0,0,0,0-0.1c0-0.2,0-0.3,0-0.5l7.3-40.9l-52.4-20.1
					c-5.4-6.7-12-12.4-19.4-16.9c0,0,10.5-19.4,10-24.7c-0.5-5.3,1-60-5-82.5C-295.8-491-283.8-529.8-283.8-529.8z"/>
				<path class="st21" d="M-253-373.1c-2.9-2.1-5.9-3.9-9.1-5.6c-1.8-0.6-11.5-4-13.3-5c-3.3-0.5-6.7-0.5-10,0
					c-1,0.1-1.9,0.7-2.4,1.6c-2.2,4.2-8.5,16.2-7.8,20.9c0,0,17.5,11.1,19.5,16l2.8,0.6C-273.2-344.6-261.4-369.4-253-373.1z"/>
				<path class="st16" d="M-111-305.5c-2-7.7-4.7-17.2-7.6-27.2L-225.1-287c22.4,24.6,54.5,38,87.7,36.7
					c12.3-0.8,24.2-4.7,34.6-11.3C-104.7-276.4-107.5-291-111-305.5z"/>
				<path class="st16" d="M-69.9-477.6c0,0-28.1,3.9-50.7,40c-15.1,24.7-28.3,50.7-39.2,77.5l-0.8,4.7c-2,10.2-11.8,16.9-22,15
					c-1.5-0.3-3-0.8-4.4-1.4c-24-10.7-59.4-26.9-66-31.7c-14,8.9-23.8,23.1-27,39.4c-4.7,22.3-3.5,22.3-3.5,22.3s94.5,44.1,131,43.7
					c36.5-0.5,82.8-120.4,87.9-145C-59.4-437.7-53.8-470.6-69.9-477.6z"/>
				<path class="st22" d="M-69.9-477.6c0,0-28.1,3.9-50.7,40c-15.1,24.7-28.3,50.7-39.2,77.5l-0.8,4.7c-2,10.2-11.8,16.9-22,15
					c-1.5-0.3-3-0.8-4.4-1.4c-24-10.7-59.4-26.9-66-31.7c-14,8.9-23.8,23.1-27,39.4c-4.7,22.3-3.5,22.3-3.5,22.3s94.5,44.1,131,43.7
					c36.5-0.5,82.8-120.4,87.9-145C-59.4-437.7-53.8-470.6-69.9-477.6z"/>
				<path class="st17" d="M-173.4-335.8c0,0,11.9,11.2,17.1,5c5.2-6.2,3.7-6.8,3.7-6.8s10.8,0,12.1-6.8c1.3-6.8,6.6-3.2,6.9-10.7
					c0.3-7.5-8.7-6-8.7-6L-173.4-335.8z"/>
				<path class="st21" d="M-187.8-341.7c0,0,3.3-3.1,7.5-6.6s11.1-18.4,12.2-19.7c1.2-1.3,15.5-12.3,22.3-12.4
					c6.9-0.2,1.8,7.5,0,8.6s-8.3,4.5-8.3,4.5s-6.9,5.8-7.7,6.7c-0.8,0.9,19.2-1.4,22.4,0.6c2.3,1.9,2.7,5.3,0.9,7.6c0,0,0,0,0,0
					c-0.3,0.3-0.5,0.6-0.9,0.9c-1.2,0.8-2.5,1.3-4,1.4c1.4,3.5-0.1,7.4-3.5,9c-6,2.8-7.4,1.3-7.4,1.3c0,4.6-3.7,8.4-8.3,8.5
					c-0.7,0.1-1.4,0.1-2.2,0L-187.8-341.7z"/>
				<path class="st23" d="M-250.7-632.4c0,0-8.9,28.3,14.6,20s44.6-21.6,51.9-16.4c5.6,3.9,5.4,15.9,5,21.4
					c-0.2,1.9,0.3,3.7,1.4,5.3l7,10c0.8,1.2,1.2,2.5,1.4,3.9l0.5,7c0.1,1.8,1.6,3.2,3.4,3.3h1.6c1.8,0.1,3.4-1.1,3.7-2.9l1.8-10.4
					c0,0,5.5-13.9,17.2-8.4c0,0,7.8-10.5,5-32.8c-2.8-22.4-12.5-45.3-56.4-49.4C-236.9-685.9-250.7-632.4-250.7-632.4z"/>
				<path class="st24" d="M-183.6-484.2l-6.6-5c-3.5,2.9-6.3,6.4-8.5,10.4c-2.4,5.4,0,22.4,0,22.4l-2,3.5l-2.5-4.5l-2.1-20
					c0,0,2.3-15,2.5-15.3c0.2-0.3,12.7,1.3,12.7,1.3C-187.5-489.4-185.3-487-183.6-484.2z"/>
				<path class="st24" d="M-215.4-504.2c-3.5,0.2-7,1.2-10,3.1l8.5,0.5C-215.4-500.5-215.4-504.2-215.4-504.2z"/>
				<path class="st16" d="M-201.9-502.6l11.8,11c-6,2.9-10.6,7.9-13.2,14c0,0-12.9,2.4-14-2.3c-1.2-4.7,0-16.3-1.5-21.5
					C-220.4-506.6-201.9-502.6-201.9-502.6z"/>
				<path class="st16" d="M-216.9-480.1c-1,4.7-2.5,9.3-4.6,13.6c-2.4,4-5,8.5-5,8.5l0.6,56.4c0,0,20.8-42.8,25.3-51.5
					c0,0-0.7-20.7-2.7-24.6S-216.9-480.1-216.9-480.1z"/>
				<path class="st25" d="M-161-563.6c-13.7,39.4-52.1,51.1-52.1,51.1c2.7,2.7,5.7,5.1,9,7c2.2,0.4,8.4-3.5,8.4-3.5
					s29.4-7.2,37.8-19.6c5-7.4,6.8-16.5,5-25.3l1.1-8.4C-154.9-561-158.4-561.5-161-563.6z"/>
				<path class="st16" d="M-129.7-517.5c0,0-5.4,18.6-6.1,19.3c-4.5,0.1-9.1-0.2-13.6-0.8l6.3,11.9c0,0-64.7,69.4-78.1,106.7
					c25.1-36.9,53.3-71.6,84.3-103.8l-7.6-11.6l13.2,2.6L-129.7-517.5z"/>
				<path class="st16" d="M-236-533.9l-3.4,3.9l4,3.8l-12,10.9c0,0-3.7,75.9,11,126.1c0,0-20-46.1-15.3-128.2l12.9-8.8l-4.2-4.2
					L-236-533.9z"/>
				<path class="st15" d="M-195.4-115.2l0.5,0.4l-16.8-17.9c7.8,10.9-1.2,60.9-2.1,72.3c-1,11.4,9,35,12.7,62.7s-3.9,67.1-3.9,67.2
					c5.3-3.2,8.9-8.5,10-14.6c5.7-25.9,3.5-74.2-2.8-94.4S-195.4-115.2-195.4-115.2z"/>
				
					<linearGradient id="SVGID_15_" gradientUnits="userSpaceOnUse" x1="-306.8759" y1="170.5663" x2="-92.3051" y2="170.5663" gradientTransform="matrix(1 6.000000e-02 -6.000000e-02 1 35.95 -509.34)">
					<stop  offset="0" style="stop-color:#5761D7"/>
					<stop  offset="7.000000e-02" style="stop-color:#5472D8"/>
					<stop  offset="0.28" style="stop-color:#4E9CDB"/>
					<stop  offset="0.48" style="stop-color:#49BDDD"/>
					<stop  offset="0.67" style="stop-color:#45D5DF"/>
					<stop  offset="0.85" style="stop-color:#43E3E0"/>
					<stop  offset="1" style="stop-color:#42E8E0"/>
				</linearGradient>
				<path class="st26" d="M-152.5-267.8c36.5-0.4,82.8-120.4,87.9-145c0.9-4.1,1.7-8.5,2.5-12.9c0,0.4-9.6,26.3-18.7,49.2
					c-9.1,23-58,93.1-82.9,97.6c-22.5,4.1-103.3-33.6-119-41.1c-1.4,8.4-0.8,8.5-0.8,8.5S-188.9-267.4-152.5-267.8z"/>
				<path class="st27" d="M-164.3-577.5c1.8,0.1,3.4-1.1,3.7-2.9l1.8-10.4c0,0,5.5-13.9,17.2-8.4c0,0,7.4-10,5.4-31.1
					c-13,19.4-41.7,28.4-41.7,28.4l7,10c0.8,1.2,1.2,2.5,1.4,3.9l0.5,7c0.1,1.8,1.6,3.2,3.4,3.3L-164.3-577.5z"/>
				<path class="st28" d="M324.7-69.4c-8.6,0-15.5-6.9-15.5-15.5c0-8.6,6.9-15.5,15.5-15.5c8.6,0,15.5,6.9,15.5,15.5l0,0
					C340.3-76.4,333.3-69.4,324.7-69.4L324.7-69.4z M324.7-97.9c-7.2,0-13,5.8-13,13c0,7.2,5.8,13,13,13c7.2,0,13-5.8,13-13
					C337.8-92.1,331.9-97.9,324.7-97.9L324.7-97.9z"/>
				<path class="st28" d="M324.7-117.7c-8.6,0-15.5-6.9-15.5-15.5c0-8.6,6.9-15.5,15.5-15.5c8.6,0,15.5,6.9,15.5,15.5
					C340.3-124.7,333.3-117.7,324.7-117.7L324.7-117.7z M324.7-146.3c-7.2,0-13,5.8-13,13c0,7.2,5.8,13,13,13c7.2,0,13-5.8,13-13
					C337.8-140.4,331.9-146.3,324.7-146.3L324.7-146.3L324.7-146.3z"/>
				<path class="st29" d="M324.7-195.9c7.9,0,14.3,6.4,14.3,14.3c0,7.9-6.4,14.3-14.3,14.3c-7.9,0-14.3-6.4-14.3-14.3
					C310.5-189.5,316.9-195.8,324.7-195.9z"/>
				<path class="st28" d="M324.7-166.1c-8.6,0-15.5-6.9-15.5-15.5c0-8.6,6.9-15.5,15.5-15.5c8.6,0,15.5,6.9,15.5,15.5
					C340.3-173,333.3-166.1,324.7-166.1L324.7-166.1z M324.7-194.6c-7.2,0-13,5.8-13,13c0,7.2,5.8,13,13,13c7.2,0,13-5.8,13-13
					C337.8-188.8,331.9-194.6,324.7-194.6L324.7-194.6z"/>
				<path class="st28" d="M324.7-214.5c-8.6,0-15.5-6.9-15.5-15.5c0-8.6,6.9-15.5,15.5-15.5c8.6,0,15.5,6.9,15.5,15.5
					S333.3-214.5,324.7-214.5L324.7-214.5z M324.7-242.9c-7.2,0-13,5.8-13,13c0,7.2,5.8,13,13,13c7.2,0,13-5.8,13-13l0,0
					C337.7-237.1,331.9-242.9,324.7-242.9z"/>
				<path class="st28" d="M324.7-262.8c-8.6,0-15.5-6.9-15.5-15.5c0-8.6,6.9-15.5,15.5-15.5c8.6,0,15.5,6.9,15.5,15.5l0,0
					C340.3-269.8,333.3-262.8,324.7-262.8L324.7-262.8z M324.7-291.3c-7.2,0-13,5.8-13,13c0,7.2,5.8,13,13,13c7.2,0,13-5.8,13-13
					C337.8-285.5,331.9-291.3,324.7-291.3L324.7-291.3L324.7-291.3z"/>
				<rect x="338.9" y="-182.9" class="st28" width="142" height="2.5"/>
				<path class="st28" d="M480.9,132.8h-140c-9.6,0-17.3-7.8-17.4-17.3V-70.7h2.5v186.2c0,8.3,6.7,15,15,15h140L480.9,132.8z"/>
				<path class="st28" d="M325.9-292.5h-2.7v-186.2c0.1-9.6,7.8-17.3,17.4-17.3h140v2.5h-140c-8.3,0-15,6.7-15,15L325.9-292.5z"/>
				<path class="st28" d="M-717.1-69.4c8.6,0,15.5-6.9,15.5-15.5s-6.9-15.5-15.5-15.5c-8.6,0-15.5,6.9-15.5,15.5l0,0
					C-732.6-76.4-725.7-69.4-717.1-69.4L-717.1-69.4z M-717.1-97.9c7.2,0,13,5.8,13,13c0,7.2-5.8,13-13,13c-7.2,0-13-5.8-13-13l0,0
					c0-7.2,5.7-13,12.9-13c0,0,0,0,0,0H-717.1z"/>
				<path class="st28" d="M-717.1-117.7c8.6,0,15.5-6.9,15.5-15.5s-6.9-15.5-15.5-15.5c-8.6,0-15.5,6.9-15.5,15.5l0,0
					C-732.6-124.7-725.7-117.7-717.1-117.7L-717.1-117.7z M-717.1-146.3c7.2,0,13,5.8,13,13c0,7.2-5.8,13-13,13c-7.2,0-13-5.8-13-13
					l0,0c-0.1-7.2,5.7-13.1,12.9-13.2c0,0,0,0,0,0l0,0L-717.1-146.3z"/>
				<path class="st29" d="M-717.1-195.9c-7.9,0-14.3,6.3-14.3,14.2c0,7.9,6.3,14.3,14.2,14.3c7.8,0,14.2-6.2,14.3-14.1
					C-702.8-189.3-709.1-195.8-717.1-195.9C-717.1-195.9-717.1-195.9-717.1-195.9z"/>
				<path class="st28" d="M-717.1-166.1c8.6,0,15.5-6.9,15.5-15.5s-6.9-15.5-15.5-15.5c-8.6,0-15.5,6.9-15.5,15.5l0,0
					C-732.6-173-725.7-166.1-717.1-166.1L-717.1-166.1z M-717.1-194.6c7.2,0,13,5.8,13,13s-5.8,13-13,13c-7.2,0-13-5.8-13-13l0,0
					C-730.1-188.8-724.3-194.6-717.1-194.6L-717.1-194.6z"/>
				<path class="st28" d="M-717.1-214.5c8.6,0,15.5-6.9,15.5-15.5c0-8.6-6.9-15.5-15.5-15.5c-8.6,0-15.5,6.9-15.5,15.5l0,0
					C-732.6-221.4-725.7-214.5-717.1-214.5L-717.1-214.5z M-717.1-242.9c7.2,0,13,5.8,13,13c0,7.2-5.8,13-13,13c-7.2,0-13-5.8-13-13
					l0,0C-730.1-237.1-724.3-242.9-717.1-242.9L-717.1-242.9z"/>
				<path class="st28" d="M-717.1-262.8c8.6,0,15.5-6.9,15.5-15.5s-6.9-15.5-15.5-15.5c-8.6,0-15.5,6.9-15.5,15.5l0,0
					C-732.6-269.8-725.7-262.8-717.1-262.8L-717.1-262.8z M-717.1-291.4c7.2,0,13,5.8,13,13c0,7.2-5.8,13-13,13c-7.2,0-13-5.8-13-13
					l0,0c0-7.2,5.7-13,12.9-13c0,0,0,0,0,0H-717.1z"/>
				<path class="st28" d="M-777.1-228.7h45.8v-2.9h-45.8c-11.5,0-20.8-9.3-20.9-20.8v-100c0-12.9-10.4-23.3-23.3-23.4h-52.1v2.5
					h52.1c11.5,0.1,20.8,9.5,20.7,21c0,0,0,0,0,0.1v100c-0.1,12.9,10.3,23.4,23.2,23.5c0,0,0,0,0,0L-777.1-228.7z"/>
				<rect x="-873.4" y="-87.8" class="st28" width="142" height="2.5"/>
				<rect x="-872.1" y="-183.2" class="st28" width="142" height="2.5"/>
				<path class="st28" d="M-873.4,299.9h140c9.6,0,17.3-10.4,17.3-23.1V29.4h-2.5v247.5c0,10.9-6.7,19.7-15,19.7h-140L-873.4,299.9z
					"/>
				<path class="st28" d="M-718.4-292.5h2.5v-186.2c0-9.6-7.7-17.3-17.3-17.3l0,0h-140v2.5h140c8.3,0,15,6.7,15,15L-718.4-292.5z"/>
				<path class="st28" d="M-717.1,32.9c8.6,0,15.5-6.9,15.5-15.5s-6.9-15.5-15.5-15.5s-15.5,6.9-15.5,15.5S-725.7,32.9-717.1,32.9
					L-717.1,32.9z M-717.1,4.3c7.2,0,13,5.8,13,13s-5.8,13-13,13c-7.2,0-13-5.8-13-13C-730.1,10.2-724.3,4.3-717.1,4.3L-717.1,4.3z"
					/>
				<path class="st28" d="M-717.1-20.5c8.6,0,15.5-6.9,15.5-15.5s-6.9-15.5-15.5-15.5c-8.6,0-15.5,6.9-15.5,15.5
					C-732.6-27.5-725.7-20.5-717.1-20.5L-717.1-20.5z M-717.1-49c7.2,0,13,5.8,13,13s-5.8,13-13,13c-7.2,0-13-5.8-13-13
					C-730.1-43.2-724.3-49-717.1-49C-717.1-49-717.1-49-717.1-49z"/>
				<path class="st28" d="M-780.9-36.6h45.8v2.5h-45.8c-11.5,0-20.9,9.3-20.9,20.9v100c0,12.9-10.5,23.3-23.4,23.3h-52v-2.5h52
					c11.5,0,20.8-9.3,20.9-20.8v-100C-804.3-26.1-793.8-36.6-780.9-36.6C-780.9-36.6-780.9-36.6-780.9-36.6z"/>
			</g>
		</g>
		<text transform="matrix(1 0 0 1 -1645.9033 -476.5093)" class="st30 st31 st32">GEBOREN AM 17.01.1991</text>
		<text transform="matrix(1 0 0 1 -1349.6553 -357.3208)" class="st30 st31 st32">NATIONALITÄT</text>
		<text transform="matrix(1 0 0 1 -1250.6221 -291.2993)" class="st30 st31 st32">KROATISCH</text>
		<text transform="matrix(1 0 0 1 -1185.5996 90.5747)" class="st30 st31 st32">WOHNORT</text>
		<text transform="matrix(1 0 0 1 -1188.6016 156.5996)" class="st30 st31 st32">GAUTING</text>
		<text transform="matrix(1 0 0 1 -1380.8145 278.6426)" class="st30 st31 st32">VERFÜGBARKEIT</text>
		<text transform="matrix(1 0 0 1 -1373.8115 344.6094)" class="st30 st31 st32">INTERNATIONAL</text>
		<text transform="matrix(1 0 0 1 549.0703 -515.1714)" class="st30 st31 st32">FACHINFORMATIKER FÜR</text>
		<text transform="matrix(1 0 0 1 549.0703 -449.1509)" class="st30 st31 st32">SYSTEMINTEGRATION</text>
		<text transform="matrix(1 0 0 1 551.9199 -213.3228)" style="enable-background:new    ;"><tspan x="0" y="0" class="st30 st31 st32">ISTQB CERTIFIED</tspan><tspan x="0" y="66" class="st30 st31 st32">AZ-900 CERTIFIED</tspan></text>
		<text transform="matrix(1 0 0 1 561.2256 81.4771)" class="st30 st31 st32">SPRACHEN ENGLISCH,</text>
		<text transform="matrix(1 0 0 1 561.2256 147.4961)" class="st30 st31 st32">DEUTSCH, KROATISCH UND</text>
		<text transform="matrix(1 0 0 1 561.2256 213.5156)" class="st30 st31 st32">RUSSISCH (grundwissen)</text>
		<text transform="matrix(1 0 0 1 -1579.4814 -166.2065)" class="st30 st31 st32"> +49 176 822 783 98</text>
		<text transform="matrix(1 0 0 1 -1579.4814 -69.6753)" class="st30 st31 st32">R.KOVIC@TRALUMA.COM</text>
	</g>
</g>
</svg>
