<svg xmlns="http://www.w3.org/2000/svg" viewBox="0 0 2078.3 698.4"><defs><style>.cls-1{fill:#1a1a1a;}.cls-1,.cls-2{fill-rule:evenodd;}.cls-2{fill:#fff;}</style></defs><title>AdacPdf_2</title><g id="Ebene_2" data-name="Ebene 2"><g id="Ebene_1-2" data-name="Ebene 1"><path class="cls-1" d="M2047.43,103.47c23.5,43.06,30.4,92.63,30.75,145.1l-144.71,4.34H1932c-.74-38.35-3.27-76.34-24.59-106.38-13.4-17.36-34.74-22.79-55.36-17.73-38.35,14.84-45.6,56.45-52.84,91.18a473.38,473.38,0,0,0-5.77,79.23V419.7c3.62,46.3,5.77,93.35,31.47,130.26,12.67,17.35,32.21,24.24,53.2,21,34.73-8.34,45.95-46.3,50.63-76.7,2.53-15.55,2.92-32.56,3.62-48.85l145.81,4.33c2.18,93.74-29.66,186.7-117.95,229.39-70.54,34-168.23,22.8-225.75-31.47-70.57-65.83-97.7-150.51-110.35-240.6C1612.57,289.81,1635.34,179.1,1699,89,1750.4,19.55,1829.28-12.31,1914.3,4.34c54.25,9.41,107.09,48.14,133.13,99.13ZM485.19,682v.72H326.35l-27.12-124H154.86l-25,124H0L137.86,17H342.27ZM775.71,17.37c93,2.53,182.7,52.1,224,139.28,45.95,91.54,49.19,217.44,25,319.83-17.37,70.2-62.59,143.28-132.79,176.56-43,22.06-91.89,30-144,29.66H578.53V17Zm797,665.35H1413.56l-27.13-124.64H1243.15l-25.68,124.27-130.25.37L1225.42,17h204.06l143.27,665.72Z"/><path class="cls-2" d="M851.32,196.82c26.77,64,21,143.62,19.55,217.8-5.07,57.88-19.18,125.9-82.14,146.52-14.84,4.35-31.31,5.79-48.3,5.07V133.51C787.82,128.8,833.59,152.68,851.32,196.82Zm-669.69,229,43.42-214.92L271,425.85Zm1087.57,0,43.42-214.92,45.6,214.92Z"/></g></g></svg>