<svg xmlns="http://www.w3.org/2000/svg" xmlns:xlink="http://www.w3.org/1999/xlink" viewBox="0 0 2500 1843.87"><defs><style>.cls-1{fill:none;}.cls-2{clip-path:url(#clip-path);}.cls-3{fill:#fff;}</style><clipPath id="clip-path" transform="translate(0 0.06)"><rect class="cls-1" width="2500" height="1843.83"/></clipPath></defs><title>Adobe</title><g id="Ebene_2" data-name="Ebene 2"><g id="Ebene_1-2" data-name="Ebene 1"><g class="cls-2"><path class="cls-3" d="M2500,880.76v82.31c-.78,4.46-1.77,8.84-2.28,13.29-4.26,35.8-7,71.83-12.91,107.36-19.21,115.5-60.76,222.84-122.48,322.1q-140.62,226-379.74,344.1a888.34,888.34,0,0,1-292.92,86.44c-22.63,2.61-45.25,5-67.88,7.45H743.52c-4.43-.83-8.83-2.14-13.29-2.41-88.56-5.58-173.77-25.76-255-61.3Q210,1664.06,80.31,1404.75A738.4,738.4,0,0,1,7.37,1161.93Q3.64,1131.11,0,1100.31v-79.86c.84-4.42,2.14-8.85,2.41-13.29,4.59-76.73,20.33-151.23,48-222.84q111.89-289,389.39-428.06c95.86-48,198-73.24,304.91-78.83,52.33-2.72,104.61.2,156.63,7.18,4.71.64,11.5-1.46,14.77-4.82q112.2-114.59,256-185.49c93.15-45.62,191.17-75,294.36-86.79,24.28-2.78,48.62-5.06,72.94-7.57h74.88c4.9.76,9.82,1.62,14.71,2.2,37.1,4.32,74.41,7,111.15,13.19,114.66,19.24,221.38,60.39,320.15,121.52Q2287.49,277.48,2406,517.24a886,886,0,0,1,86.52,293.13c2.68,23.48,5,47,7.45,70.39M1102.16,348.19c1.5,2,1.87,2.9,2.51,3.21a998.78,998.78,0,0,1,146.89,88.83c2.93,2.12,10.17,1.23,13.71-1,127.32-80.68,265.35-108.52,413.62-82.22,145.29,25.76,263.52,98.35,353.85,214.3C2135,702.53,2174,850.91,2145.78,1016c-18.93,110.64-63.25,209.89-138.58,293-137.45,151.59-309.57,214.28-512.18,187.74-124.73-16.34-232.41-70.14-321.52-160.21C1059.12,1221,944,1106.25,829.28,991,814,975.68,797,963.33,775,960.64c-38.46-4.71-73.35,14.48-90,49-14.81,30.84-12.9,65.62,19.24,97.22,127.88,125.54,254.63,252.23,382.37,377.88a616,616,0,0,0,70.14,59.69c93.31,67.76,198.52,105.23,312.45,120.31,89.42,11.81,178.15,9.28,266.19-10.51,167.94-37.72,307.06-123.44,416.63-255.7q135.7-163.95,164.26-375.91a736.77,736.77,0,0,0-6.84-241.74c-25.41-130.25-80.51-246.8-168.8-346-168.46-189.16-380.39-273.6-632.59-254.76-97,7.25-188.79,35.75-275.15,81a725.82,725.82,0,0,0-130.74,87.08m-61.71,1320.49q-5.21-4.82-10.37-9.69c-52.28-49.36-104.85-98.41-156.52-148.41-10-9.67-19.2-14.39-33.35-14.06-52.33,1.28-104.7,1.5-156.26-10.14-256.38-58-405.25-336.73-310.76-582C447.72,711,654,593.21,857.49,629.53c91.19,16.27,171.23,54.87,236.93,122.63,80.13,82.72,162.64,163.07,243.63,244.94,18.43,18.64,39.6,27.14,65.14,23.5,33-4.71,59.28-20.44,71.21-52.8,11.69-31.85,6-62-18.08-86.44-85-86.11-168-174.38-256.42-256.83C1028.37,464.55,826.11,417,602.41,485c-300.89,91.42-477,402.12-408.23,708.7,62.65,279.35,307,475.39,592.82,475.64q119.71.12,239.46,0c4,0,7.9-.35,14-.66" transform="translate(0 0.06)"/></g></g></g></svg>