<svg xmlns="http://www.w3.org/2000/svg" viewBox="0 0 2078.29 698.4"><defs><style>.cls-1{fill:#fff;}.cls-1,.cls-2{fill-rule:evenodd;}.cls-2{fill:#1a1a1a;}</style></defs><title>AdacWhite</title><g id="Ebene_2" data-name="Ebene 2"><g id="Ebene_1-2" data-name="Ebene 1"><path class="cls-1" d="M2047.43,103.47c23.5,43.06,30.39,92.63,30.74,145.09l-144.7,4.33H1932c-.74-38.34-3.26-76.32-24.6-106.36-13.38-17.37-34.74-22.79-55.36-17.73-38.36,14.84-45.58,56.44-52.83,91.18a475.43,475.43,0,0,0-5.77,79.23V419.7c3.6,46.3,5.77,93.34,31.48,130.25,12.66,17.36,32.2,24.24,53.19,21,34.73-8.34,45.95-46.3,50.64-76.7,2.52-15.55,2.89-32.55,3.62-48.84l145.79,4.33c2.2,93.73-29.64,186.7-117.94,229.38-70.53,34-168.23,22.8-225.77-31.46-70.54-65.84-97.67-150.52-110.34-240.6C1612.56,289.8,1635.34,179.09,1699,89,1750.4,19.54,1829.27-12.3,1914.29,4.34c54.27,9.4,107.07,48.12,133.14,99.13ZM485.19,682v.74H326.35l-27.14-124H154.86l-25,124H0L137.86,17H342.27ZM775.71,17.36c93,2.54,182.69,52.1,223.95,139.3,45.95,91.54,49.2,217.44,25,319.83C1007.26,546.68,962,619.77,891.84,653.05c-43,22.06-91.89,30-144,29.66H578.53V17Zm797,665.35H1413.56l-27.14-124.64H1243.14l-25.68,124.28-130.24.36L1225.42,17h204.06l143.27,665.71Z"/><path class="cls-2" d="M851.32,196.82c26.77,64,21,143.63,19.53,217.81-5.05,57.88-19.16,125.89-82.12,146.52-14.84,4.35-31.3,5.79-48.3,5.07V133.51C787.82,128.8,833.59,152.68,851.32,196.82Zm-669.69,229,43.42-214.92L271,425.84Zm1087.55,0,43.44-214.92,45.59,214.92Z"/></g></g></svg>