<svg xmlns="http://www.w3.org/2000/svg" viewBox="0 0 577.92 210.44"><defs><style>.cls-1{fill:#fff;}</style></defs><title>ADAC</title><g id="Ebene_2" data-name="Ebene 2"><g id="Ebene_1-2" data-name="Ebene 1"><path class="cls-1" d="M0,0H577.92V210.44H0ZM164.07,107.92v22.83q0,33.87,0,67.72c0,2.12-.53,4.52,3,4.47,20.87-.28,41.79.38,62.6-.87,29.52-1.76,49.72-17.73,60.68-44.84,11.2-27.7,12.43-56.48,5.88-85.41C291.49,50.56,280.18,33.48,260.39,23c-13.41-7.13-28-9.55-42.9-9.83-16.11-.3-32.23-.1-48.34-.11-5.06,0-5.07,0-5.07,5.13Q164.07,63,164.07,107.92Zm129.67,94.77c1.88.09,3.25.22,4.62.22,10.06,0,20.12-.23,30.17.13,4.09.14,5.27-1.57,6-5,2-10.1,4.32-20.13,6.18-30.25.63-3.42,2.15-4.2,5.38-4.15q17,.27,34,0c3.16-.06,4.54.74,5.09,4,1.75,10.4,4,20.72,5.75,31.12.53,3.08,1.53,4.31,4.9,4.26,13.4-.2,26.81-.08,40.22-.09,1.23,0,2.46-.13,4-.22-.24-1.84-.34-3.25-.63-4.62q-8.25-38.9-16.54-77.78-6-28.5-12-57c-3.29-15.61-6.62-31.21-9.89-46.82-.48-2.29-1.36-3.53-4.06-3.51-18.69.1-37.38.07-56.08,0-2.12,0-3.17.6-3.69,2.87-5.24,22.83-10.61,45.63-15.93,68.44Q309.62,133.9,298.1,183.5C296.65,189.73,295.26,196,293.74,202.69Zm-283.44,0c2.14.11,3.41.22,4.68.22,9.8,0,19.6-.17,29.4.1,3.5.1,4.7-1.27,5.3-4.39,2-10.49,4.27-20.93,6.28-31.42.5-2.59,1.46-3.65,4.28-3.61q17.22.24,34.43,0c2.8,0,3.81,1,4.25,3.64,1.75,10.53,3.77,21,5.48,31.54.5,3.08,1.6,4.28,4.94,4.22,12.89-.21,25.79-.08,38.68-.09,1.25,0,2.49-.11,3.92-.18a31.34,31.34,0,0,0-.29-3.44q-7.59-37.24-15.21-74.48-6.69-32.72-13.35-65.42Q118.77,38.21,114.47,17c-.44-2.15-.76-4.08-4-4.06C92.33,13.11,74.15,13,56,13c-2.08,0-3.19.49-3.72,2.83C45.48,46.22,38.57,76.57,31.72,107Q23.34,144.23,15,181.51C13.47,188.39,12,195.26,10.3,202.69Zm524.5-70.34c-.17,1.24-.24,1.87-.35,2.49-1.29,7.33-2,14.85-4.06,21.95-2.44,8.31-8.54,12.25-16.7,12.46-9.4.25-16-3.2-18.91-11.65a76.5,76.5,0,0,1-4.54-21.76c-.65-17.51-.56-35.07-.08-52.59.26-9.63,1.71-19.28,6.09-28.12,3.2-6.48,8-10.54,15.77-10.33s12.49,4.48,14.76,11.05a113.65,113.65,0,0,1,4.46,20.24c.43,2.86,1.22,3.68,4,3.66q18.38-.15,36.75,0c3,0,3.95-1.17,3.65-3.93-.47-4.48-.65-9-1.39-13.44-2.64-15.71-8.78-29.65-21.43-40-19.06-15.52-53.2-18-75.75-5.6C458,27.28,448.4,44.61,443.33,64.7a176.47,176.47,0,0,0,0,86.82c3.81,15.28,10.73,29.06,23.31,39.17,17.7,14.22,38.27,16.63,59.65,12.56,35.33-6.74,48.63-35.57,49.33-64,.06-2.38-1.09-3.07-3.28-3.22-4-.27-7.93-.83-11.9-1.22C552,134,543.56,133.18,534.8,132.35Z"/><path d="M164.07,107.92q0-44.88,0-89.77c0-5.12,0-5.13,5.07-5.13,16.11,0,32.23-.19,48.34.11,14.93.28,29.49,2.7,42.9,9.83,19.79,10.52,31.1,27.6,35.91,48.86,6.55,28.93,5.32,57.71-5.88,85.41-11,27.11-31.16,43.08-60.68,44.84-20.81,1.25-41.73.59-62.6.87-3.58.05-3-2.35-3-4.47q0-33.85,0-67.72Zm47.67-60.81V166.83c5.66.63,11,.39,16.08-1.76,10.12-4.25,14.72-12.82,17.39-22.72,4.43-16.39,4.36-33.19,3.25-49.89a103.29,103.29,0,0,0-5-25.58C238.66,52.41,225.79,44.84,211.74,47.11Z"/><path d="M293.74,202.69c1.52-6.71,2.91-13,4.36-19.19q11.52-49.6,23.07-99.19c5.32-22.81,10.69-45.61,15.93-68.44.52-2.27,1.57-2.88,3.69-2.87,18.7,0,37.39.07,56.08,0,2.7,0,3.58,1.22,4.06,3.51,3.27,15.61,6.6,31.21,9.89,46.82q6,28.49,12,57,8.25,38.89,16.54,77.78c.29,1.37.39,2.78.63,4.62-1.49.09-2.72.22-4,.22-13.41,0-26.82-.11-40.22.09-3.37.05-4.37-1.18-4.9-4.26-1.79-10.4-4-20.72-5.75-31.12-.55-3.29-1.93-4.09-5.09-4q-17,.27-34,0c-3.23-.05-4.75.73-5.38,4.15-1.86,10.12-4.21,20.15-6.18,30.25-.68,3.48-1.86,5.19-6,5-10-.36-20.11-.11-30.17-.13C297,202.91,295.62,202.78,293.74,202.69Zm83.86-72.91c-4.4-25.31-8.74-50.26-13.07-75.21l-.71.06c-5.12,25-10.24,50-15.41,75.15Z"/><path d="M10.3,202.69c1.65-7.43,3.17-14.3,4.71-21.18Q23.36,144.24,31.72,107c6.85-30.38,13.76-60.73,20.53-91.12C52.78,13.49,53.89,13,56,13c18.18,0,36.36.11,54.54-.05,3.2,0,3.52,1.91,4,4.06q4.34,21.18,8.62,42.38,6.66,32.72,13.35,65.42Q144,162,151.65,199.29a31.34,31.34,0,0,1,.29,3.44c-1.43.07-2.67.18-3.92.18-12.89,0-25.79-.12-38.68.09-3.34.06-4.44-1.14-4.94-4.22-1.71-10.53-3.73-21-5.48-31.54-.44-2.64-1.45-3.68-4.25-3.64q-17.2.21-34.43,0c-2.82,0-3.78,1-4.28,3.61-2,10.49-4.26,20.93-6.28,31.42-.6,3.12-1.8,4.49-5.3,4.39-9.8-.27-19.6-.08-29.4-.1C13.71,202.91,12.44,202.8,10.3,202.69ZM78.87,54.83l-.57,0c-5,24.86-9.93,49.72-15,74.89H91.68C87.37,104.47,83.12,79.65,78.87,54.83Z"/><path d="M534.8,132.35c8.76.83,17.19,1.62,25.62,2.44,4,.39,7.93,1,11.9,1.22,2.19.15,3.34.84,3.28,3.22-.7,28.45-14,57.28-49.33,64-21.38,4.07-41.95,1.66-59.65-12.56-12.58-10.11-19.5-23.89-23.31-39.17a176.47,176.47,0,0,1,0-86.82C448.4,44.61,458,27.28,477,16.83c22.55-12.41,56.69-9.92,75.75,5.6,12.65,10.31,18.79,24.25,21.43,40,.74,4.43.92,9,1.39,13.44.3,2.76-.68,4-3.65,3.93q-18.36-.18-36.75,0c-2.73,0-3.52-.8-4-3.66a113.65,113.65,0,0,0-4.46-20.24C524.51,49.28,519.67,45,512,44.8s-12.57,3.85-15.77,10.33c-4.38,8.84-5.83,18.49-6.09,28.12-.48,17.52-.57,35.08.08,52.59a76.5,76.5,0,0,0,4.54,21.76c2.91,8.45,9.51,11.9,18.91,11.65,8.16-.21,14.26-4.15,16.7-12.46,2.09-7.1,2.77-14.62,4.06-21.95C534.56,134.22,534.63,133.59,534.8,132.35Z"/><path class="cls-1" d="M211.74,47.11c14-2.27,26.92,5.3,31.74,19.77a103.29,103.29,0,0,1,5,25.58c1.11,16.7,1.18,33.5-3.25,49.89-2.67,9.9-7.27,18.47-17.39,22.72-5.11,2.15-10.42,2.39-16.08,1.76Z"/><path class="cls-1" d="M377.6,129.78H348.41c5.17-25.19,10.29-50.17,15.41-75.15l.71-.06C368.86,79.52,373.2,104.47,377.6,129.78Z"/><path class="cls-1" d="M78.87,54.83c4.25,24.82,8.5,49.64,12.81,74.87H63.34c5-25.17,10-50,15-74.89Z"/></g></g></svg>