<svg xmlns="http://www.w3.org/2000/svg" xmlns:xlink="http://www.w3.org/1999/xlink" viewBox="0 0 237.6 24.9"><defs><style>.cls-1{fill:none;}.cls-2{clip-path:url(#clip-path);}.cls-3{fill:#fff;}</style><clipPath id="clip-path"><polyline class="cls-1" points="0 0.1 0 24.9 154.6 24.9 154.6 0.1 0 0.1"/></clipPath></defs><title>Cancom</title><g id="Ebene_2" data-name="Ebene 2"><g id="Ebene_1-2" data-name="Ebene 1"><g class="cls-2"><path class="cls-3" d="M41.6,24.3h7.5L38.9.4H32.5L22.6,24.3h7.2L35.6,8.9Zm78.3-11.9c0,3.5-2.4,6.5-6.1,6.5a6.22,6.22,0,0,1-6.1-6.5c0-3.5,2.4-6.5,6-6.5a6.36,6.36,0,0,1,6.2,6.5m6.7.1c0-6.9-5.3-12.4-12.8-12.4A12.43,12.43,0,0,0,101,12.5c0,6.9,5.3,12.4,12.8,12.4a12.43,12.43,0,0,0,12.8-12.4M83,12.6c0-3.5,2.4-6.5,5.9-6.5a6.6,6.6,0,0,1,3.2.8l2.6-5.3A10.76,10.76,0,0,0,88.8.1,12.29,12.29,0,0,0,76.3,12.5c0,7.2,5,12.3,12.5,12.3,6.8,0,10.3-4.2,11.4-8.3l-5.4-2.2c-.7,2.3-2.5,4.6-5.7,4.6A6,6,0,0,1,83,12.6m-76.2,0c0-3.5,2.4-6.5,5.9-6.5a6.6,6.6,0,0,1,3.2.8l2.6-5.3A10.76,10.76,0,0,0,12.6.1,12.32,12.32,0,0,0,0,12.5c0,7.2,5,12.3,12.5,12.3,6.8,0,10.3-4.2,11.4-8.3l-5.4-2.2c-.7,2.3-2.5,4.6-5.7,4.6a6,6,0,0,1-6-6.3M67.7,24.3h5.7V.6H67V13.7L57.1.6H51V24.4h6.4V10.9Zm86.9,0V.6h-7l-5.7,9.2L136.2.6h-7V24.4h6.5V10.8l6.1,9.2h.1l6.1-9.3V24.4l6.6-.1Z"/></g><path class="cls-3" d="M236.3,24.8h1.3V23.5h-1.3Zm-7.2,0h1.2V21.1l1.6,2.4h0l1.6-2.5v3.8h1.3V19h-1.4l-1.5,2.4L230.4,19H229v5.8Zm-4.8-2.9V20.2h1.3c.6,0,1,.3,1,.8h0c0,.5-.4.8-1,.8l-1.3.1ZM223,24.8h1.3V23h1l1.2,1.8H228l-1.4-2.1a1.87,1.87,0,0,0,1.2-1.8h0a1.9,1.9,0,0,0-.5-1.3,2.2,2.2,0,0,0-1.7-.6H223v5.8Zm-4.3-1A1.71,1.71,0,0,1,217,22h0a1.7,1.7,0,1,1,3.4,0h0a1.65,1.65,0,0,1-1.7,1.8m0,1.1a3,3,0,0,0,3.1-3h0a3,3,0,0,0-3.1-3,3,3,0,0,0-3.1,3h0a3,3,0,0,0,3.1,3m-8.1-.1h1.3V22.6h2.8V21.4h-2.8V20.2H215V19h-4.4v5.8Zm-4.8-2.9V20.2h1.3c.6,0,1,.3,1,.8h0c0,.5-.4.8-1,.8l-1.3.1Zm-1.3,2.9h1.3V23h1l1.2,1.8h1.5l-1.4-2.1a1.87,1.87,0,0,0,1.2-1.8h0a1.9,1.9,0,0,0-.5-1.3,2.2,2.2,0,0,0-1.7-.6h-2.6v5.8Zm-5.7,0h4.4V23.7h-3.1V22.5h2.7V21.4h-2.7V20.2h3.1V19.1h-4.4ZM194.5,22V20.2h1c.6,0,1,.3,1,.9h0a.92.92,0,0,1-1,.9Zm-1.3,2.8h1.3V23.1h1a2,2,0,0,0,2.3-2h0a2,2,0,0,0-2.2-2h-2.4v5.7Z"/><path class="cls-3" d="M219.8,15.3h1.3V14h-1.3Zm-4.9-1.1V10.7h1a1.63,1.63,0,0,1,1.7,1.7h0a1.63,1.63,0,0,1-1.7,1.7C215.9,14.2,214.9,14.2,214.9,14.2Zm-1.3,1.1h2.3a3,3,0,0,0,3.1-2.9h0a3,3,0,0,0-3.1-2.9h-2.3Zm-5.1,0h4.1V14.1h-2.9V9.5h-1.3v5.8Zm-2.8,0H207V9.5h-1.3Zm-4,.1a2.3,2.3,0,0,0,2.5-2.6V9.5H203v3.3c0,.9-.5,1.4-1.2,1.4s-1.2-.5-1.2-1.4V9.5h-1.3v3.3a2.23,2.23,0,0,0,2.4,2.6m-7.2-1.2V12.9H196q.9,0,.9.6h0q0,.6-.9.6h-1.5Zm0-2.3V10.7h1.3c.5,0,.8.2.8.6h0c0,.4-.4.6-.9.6Zm-1.3,3.4h2.7c1.3,0,2.2-.5,2.2-1.6h0a1.32,1.32,0,0,0-1.1-1.4,1.35,1.35,0,0,0,.8-1.2h0a1.28,1.28,0,0,0-.4-1,2.07,2.07,0,0,0-1.5-.5h-2.7Z"/><path class="cls-3" d="M217.2,5.8h1.3V4.5h-1.3Zm-6.5,0H212V2.1l2.8,3.7h1.1V0h-1.3V3.6L211.9,0h-1.2V5.8Zm-4.8-2.4.8-1.9.8,1.9Zm-2.3,2.4h1.3l.5-1.3h2.4l.5,1.3h1.3L207.1,0h-1.2Zm-4.8,0h4.1V4.6H200V0h-1.3l.1,5.8Zm-4.3-2.9V1.1h1c.6,0,1,.3,1,.9h0a.92.92,0,0,1-1,.9Zm-1.3,2.9h1.3V4.1h1a2,2,0,0,0,2.3-2h0a2,2,0,0,0-2.2-2h-2.4V5.8Z"/></g></g></svg>