<svg xmlns="http://www.w3.org/2000/svg" xmlns:xlink="http://www.w3.org/1999/xlink" viewBox="0 0 561.27 398.02"><defs><style>.cls-1{fill:none;}.cls-2{font-size:22px;fill:#309ba0;font-family:SourceCodePro-Bold, Source Code Pro;font-weight:700;}.cls-11,.cls-29,.cls-3{fill:#42ffff;}.cls-32,.cls-4,.cls-7{fill:#242993;}.cls-29,.cls-4{opacity:0.5;}.cls-5{fill:url(#ŃŚÁŻž_ŪŪŻť_ūŗšŤŚŪÚ_13);}.cls-6{fill:url(#ŃŚÁŻž_ŪŪŻť_ūŗšŤŚŪÚ_11);}.cls-34,.cls-8{fill:#4553c7;}.cls-9{fill:url(#ŃŚÁŻž_ŪŪŻť_ūŗšŤŚŪÚ_13-2);}.cls-10{fill:url(#ŃŚÁŻž_ŪŪŻť_ūŗšŤŚŪÚ_11-2);}.cls-11{opacity:0.4;}.cls-12{fill:url(#ŃŚÁŻž_ŪŪŻť_ūŗšŤŚŪÚ_13-3);}.cls-13{fill:url(#ŃŚÁŻž_ŪŪŻť_ūŗšŤŚŪÚ_11-4);}.cls-14{fill:url(#ŃŚÁŻž_ŪŪŻť_ūŗšŤŚŪÚ_11-5);}.cls-15{fill:url(#ŃŚÁŻž_ŪŪŻť_ūŗšŤŚŪÚ_14);}.cls-16{opacity:0.51;}.cls-17{fill:url(#ŃŚÁŻž_ŪŪŻť_ūŗšŤŚŪÚ_14-2);}.cls-18{fill:url(#ŃŚÁŻž_ŪŪŻť_ūŗšŤŚŪÚ_11-6);}.cls-19{fill:#2859cb;}.cls-20{fill:#adc8ff;}.cls-21{fill:#91afff;}.cls-22{fill:url(#ŃŚÁŻž_ŪŪŻť_ūŗšŤŚŪÚ_11-7);}.cls-23{opacity:0.11;}.cls-24{clip-path:url(#clip-path);}.cls-25{fill:url(#ŃŚÁŻž_ŪŪŻť_ūŗšŤŚŪÚ_11-8);}.cls-26{fill:url(#ŃŚÁŻž_ŪŪŻť_ūŗšŤŚŪÚ_11-9);}.cls-27,.cls-28{opacity:0.42;}.cls-27{fill:url(#ŃŚÁŻž_ŪŪŻť_ūŗšŤŚŪÚ_36);}.cls-28{fill:url(#ŃŚÁŻž_ŪŪŻť_ūŗšŤŚŪÚ_36-2);}.cls-30{fill:url(#ŃŚÁŻž_ŪŪŻť_ūŗšŤŚŪÚ_35);}.cls-31{fill:url(#ŃŚÁŻž_ŪŪŻť_ūŗšŤŚŪÚ_11-10);}.cls-32{opacity:0.6;}.cls-33{opacity:0.96;fill:url(#ŃŚÁŻž_ŪŪŻť_ūŗšŤŚŪÚ_21);}.cls-34{opacity:0.8;}.cls-35{opacity:0.32;}.cls-36{fill:#88fff3;}</style><linearGradient id="ŃŚÁŻž_ŪŪŻť_ūŗšŤŚŪÚ_13" x1="126.06" y1="157.74" x2="55.89" y2="214.02" gradientUnits="userSpaceOnUse"><stop offset="0" stop-color="#bcd5ff"/><stop offset="0.15" stop-color="#a3beff"/><stop offset="0.39" stop-color="#82a0ff"/><stop offset="0.61" stop-color="#6a8aff"/><stop offset="0.82" stop-color="#5c7dff"/><stop offset="1" stop-color="#5778ff"/></linearGradient><linearGradient id="ŃŚÁŻž_ŪŪŻť_ūŗšŤŚŪÚ_11" x1="-15.58" y1="645.24" x2="-79.37" y2="696.39" gradientTransform="matrix(0.87, 0.5, -1, 0.58, 798.05, -189.86)" gradientUnits="userSpaceOnUse"><stop offset="0" stop-color="#c0d6ff"/><stop offset="0.3" stop-color="#c5dbff"/><stop offset="0.65" stop-color="#d3e9ff"/><stop offset="1" stop-color="#e9ffff"/></linearGradient><linearGradient id="ŃŚÁŻž_ŪŪŻť_ūŗšŤŚŪÚ_13-2" x1="520.1" y1="207.18" x2="449.92" y2="263.45" xlink:href="#ŃŚÁŻž_ŪŪŻť_ūŗšŤŚŪÚ_13"/><linearGradient id="ŃŚÁŻž_ŪŪŻť_ūŗšŤŚŪÚ_11-2" x1="261.37" y1="491.03" x2="197.57" y2="542.19" xlink:href="#ŃŚÁŻž_ŪŪŻť_ūŗšŤŚŪÚ_11"/><linearGradient id="ŃŚÁŻž_ŪŪŻť_ūŗšŤŚŪÚ_13-3" x1="520.1" y1="188.72" x2="449.92" y2="244.99" xlink:href="#ŃŚÁŻž_ŪŪŻť_ūŗšŤŚŪÚ_13"/><linearGradient id="ŃŚÁŻž_ŪŪŻť_ūŗšŤŚŪÚ_11-4" x1="242.91" y1="475.05" x2="179.11" y2="526.2" xlink:href="#ŃŚÁŻž_ŪŪŻť_ūŗšŤŚŪÚ_11"/><linearGradient id="ŃŚÁŻž_ŪŪŻť_ūŗšŤŚŪÚ_11-5" x1="1254.88" y1="164.49" x2="1471.12" y2="164.49" gradientTransform="matrix(-1, 0, 0, 1, 1698.98, 0)" xlink:href="#ŃŚÁŻž_ŪŪŻť_ūŗšŤŚŪÚ_11"/><linearGradient id="ŃŚÁŻž_ŪŪŻť_ūŗšŤŚŪÚ_14" x1="1254.88" y1="219.94" x2="1292.01" y2="219.94" gradientTransform="matrix(-1, 0, 0, 1, 1698.98, 0)" gradientUnits="userSpaceOnUse"><stop offset="0" stop-color="#5778ff"/><stop offset="0.18" stop-color="#5c7dff"/><stop offset="0.39" stop-color="#6a8aff"/><stop offset="0.61" stop-color="#82a0ff"/><stop offset="0.85" stop-color="#a3beff"/><stop offset="1" stop-color="#bcd5ff"/></linearGradient><linearGradient id="ŃŚÁŻž_ŪŪŻť_ūŗšŤŚŪÚ_14-2" x1="1283.85" y1="282.28" x2="1589.26" y2="282.28" xlink:href="#ŃŚÁŻž_ŪŪŻť_ūŗšŤŚŪÚ_14"/><linearGradient id="ŃŚÁŻž_ŪŪŻť_ūŗšŤŚŪÚ_11-6" x1="1386.47" y1="272.1" x2="1692.04" y2="272.1" gradientTransform="matrix(-1, 0, 0, 1, 1698.98, 0)" xlink:href="#ŃŚÁŻž_ŪŪŻť_ūŗšŤŚŪÚ_11"/><linearGradient id="ŃŚÁŻž_ŪŪŻť_ūŗšŤŚŪÚ_11-7" x1="1438.22" y1="289.45" x2="1516.43" y2="289.45" gradientTransform="matrix(-1, 0, 0, 1, 1698.98, 0)" xlink:href="#ŃŚÁŻž_ŪŪŻť_ūŗšŤŚŪÚ_11"/><clipPath id="clip-path"><polygon id="SVGID" class="cls-1" points="253.96 47.35 434.39 151.53 412.02 283.44 231.7 179.34 253.96 47.35"/></clipPath><linearGradient id="ŃŚÁŻž_ŪŪŻť_ūŗšŤŚŪÚ_11-8" x1="1269.72" y1="204.37" x2="1575.29" y2="204.37" gradientTransform="matrix(-1, 0, 0, 1, 1698.98, 0)" xlink:href="#ŃŚÁŻž_ŪŪŻť_ūŗšŤŚŪÚ_11"/><linearGradient id="ŃŚÁŻž_ŪŪŻť_ūŗšŤŚŪÚ_11-9" x1="1249.61" y1="181.94" x2="1327.83" y2="181.94" gradientTransform="matrix(-1, 0, 0, 1, 1698.98, 0)" xlink:href="#ŃŚÁŻž_ŪŪŻť_ūŗšŤŚŪÚ_11"/><radialGradient id="ŃŚÁŻž_ŪŪŻť_ūŗšŤŚŪÚ_36" cx="1372.86" cy="243.71" r="87.6" gradientTransform="matrix(-1, 0, 0, 1, 1698.98, 0)" gradientUnits="userSpaceOnUse"><stop offset="0" stop-color="#2b3aa5"/><stop offset="1" stop-color="#182484"/></radialGradient><radialGradient id="ŃŚÁŻž_ŪŪŻť_ūŗšŤŚŪÚ_36-2" cx="1353.7" cy="204.3" r="67.05" xlink:href="#ŃŚÁŻž_ŪŪŻť_ūŗšŤŚŪÚ_36"/><linearGradient id="ŃŚÁŻž_ŪŪŻť_ūŗšŤŚŪÚ_35" x1="1329.56" y1="223.65" x2="1388.62" y2="117.3" gradientTransform="matrix(-1, 0, 0, 1, 1698.98, 0)" gradientUnits="userSpaceOnUse"><stop offset="0" stop-color="#5778ff"/><stop offset="0.04" stop-color="#5c7dff"/><stop offset="0.09" stop-color="#6a8aff"/><stop offset="0.14" stop-color="#82a0ff"/><stop offset="0.19" stop-color="#a3beff"/><stop offset="0.22" stop-color="#bcd5ff"/></linearGradient><linearGradient id="ŃŚÁŻž_ŪŪŻť_ūŗšŤŚŪÚ_11-10" x1="1402.12" y1="224.03" x2="1362.8" y2="147.18" gradientTransform="matrix(-1, 0, 0, 1, 1698.98, 0)" xlink:href="#ŃŚÁŻž_ŪŪŻť_ūŗšŤŚŪÚ_11"/><linearGradient id="ŃŚÁŻž_ŪŪŻť_ūŗšŤŚŪÚ_21" x1="1508.38" y1="362.18" x2="1383.43" y2="140.78" gradientTransform="matrix(-1, 0, 0, 1, 1698.98, 0)" gradientUnits="userSpaceOnUse"><stop offset="0" stop-color="#c0d6ff"/><stop offset="0.08" stop-color="#c3d9ff"/><stop offset="0.13" stop-color="#cce2ff"/><stop offset="0.18" stop-color="#dcf2ff"/><stop offset="0.21" stop-color="#e9ffff"/><stop offset="0.26" stop-color="#d8eeff"/><stop offset="0.31" stop-color="#cbe1ff"/><stop offset="0.39" stop-color="#c2d8ff"/><stop offset="0.51" stop-color="#c0d6ff"/><stop offset="0.62" stop-color="#d0e6ff"/><stop offset="0.75" stop-color="#e9ffff"/><stop offset="1" stop-color="#c0d6ff"/></linearGradient></defs><title>DownloadDE</title><g id="Ebene_2" data-name="Ebene 2"><g id="_ŽÓť_1" data-name="—ŽÓť_1"><text class="cls-2" transform="translate(0 88.21)">LEBENSLAUF ALS PDF <tspan x="0" y="26.4">HERUNTERLADEN</tspan></text><path class="cls-3" d="M533.49,67.71h-30a12,12,0,0,1,0-24h30a12,12,0,1,1,0,24Zm-30-23a11,11,0,0,0,0,22h30a11,11,0,1,0,0-22Z"/><path class="cls-4" d="M98.94,225.76l-43.2-24.94c-.73-.43-.64-1.18.21-1.67l42.78-24.7a3.23,3.23,0,0,1,2.88-.12l43.2,24.94c.74.43.65,1.17-.21,1.67l-42.78,24.7A3.23,3.23,0,0,1,98.94,225.76Z"/><path class="cls-3" d="M100.16,238.55a4.14,4.14,0,0,1-2.07-.49L34.9,201.58a1.72,1.72,0,0,1-1-1.46,2.22,2.22,0,0,1,1.27-1.79L97.78,162.2a5.13,5.13,0,0,1,4.69-.17l63.19,36.48a1.71,1.71,0,0,1,1,1.46,2.19,2.19,0,0,1-1.27,1.79l-62.58,36.13A5.27,5.27,0,0,1,100.16,238.55Zm-1.6-1.3a4.2,4.2,0,0,0,3.74-.18l62.58-36.13c.5-.29.8-.65.8-1a.85.85,0,0,0-.49-.65L102,162.84a4.23,4.23,0,0,0-3.75.18L35.67,199.15c-.5.29-.8.65-.8,1a.84.84,0,0,0,.5.65Z"/><path class="cls-5" d="M145.3,182.38v-8.33H131.73l-30.12-17.38a3.17,3.17,0,0,0-2.88.12l-30,17.31H55.25v8.35h0a.83.83,0,0,0,.48.69l43.2,24.94a3.2,3.2,0,0,0,2.88-.12l42.78-24.7A1.2,1.2,0,0,0,145.3,182.38Z"/><path class="cls-6" d="M98.94,199.76l-43.2-24.94c-.73-.43-.64-1.17.21-1.67l42.78-24.7a3.23,3.23,0,0,1,2.88-.12l43.2,24.94c.74.43.65,1.18-.21,1.67l-42.78,24.7A3.23,3.23,0,0,1,98.94,199.76Z"/><path class="cls-7" d="M99.09,196.84,60.8,174.73c-.65-.38-.57-1,.19-1.48l37.92-21.89a2.81,2.81,0,0,1,2.55-.1l38.29,22.1c.66.38.57,1-.18,1.48l-37.92,21.89A2.87,2.87,0,0,1,99.09,196.84Z"/><path class="cls-8" d="M99.19,195,64,174.67c-.6-.34-.53-.95.17-1.35L99,153.2a2.61,2.61,0,0,1,2.35-.09l35.17,20.31c.61.34.53,1-.17,1.35l-34.83,20.12A2.61,2.61,0,0,1,99.19,195Z"/><polygon class="cls-3" points="99.47 172.72 95.36 170.35 97.6 169.05 101.71 171.43 99.47 172.72"/><polygon class="cls-3" points="107.11 172.39 103 174.76 100.75 173.47 104.87 171.09 107.11 172.39"/><polygon class="cls-3" points="98.53 173.26 96.29 174.56 94.04 173.26 96.29 171.97 98.53 173.26"/><polygon class="cls-3" points="106.3 177.74 104.05 179.04 97.57 175.3 99.82 174 106.3 177.74"/><path class="cls-4" d="M493,274.07l-43.2-24.94c-.74-.42-.64-1.17.21-1.66l42.78-24.7a3.2,3.2,0,0,1,2.88-.12l43.2,24.94c.74.43.64,1.17-.21,1.66L495.86,274A3.2,3.2,0,0,1,493,274.07Z"/><path class="cls-3" d="M494.2,285.27a4.06,4.06,0,0,1-2-.46l-60.55-35a1.65,1.65,0,0,1-.93-1.42A2.11,2.11,0,0,1,432,246.7l60-34.62a4.91,4.91,0,0,1,4.51-.16l60.55,35a1.65,1.65,0,0,1,.93,1.42,2.11,2.11,0,0,1-1.22,1.73l-60,34.62A5.18,5.18,0,0,1,494.2,285.27Zm.24-72.88a4.22,4.22,0,0,0-2.06.51l-60,34.62c-.47.27-.75.61-.75.91a.77.77,0,0,0,.46.6l60.55,35a4,4,0,0,0,3.57-.17l60-34.62c.47-.27.75-.61.75-.91a.77.77,0,0,0-.46-.6l-60.55-35A3.06,3.06,0,0,0,494.44,212.39Z"/><path class="cls-9" d="M539.34,231.81v-8.33H525.77L495.65,206.1a3.23,3.23,0,0,0-2.88.12l-30,17.31H449.28v8.36h0a.9.9,0,0,0,.49.69L493,257.53a3.23,3.23,0,0,0,2.88-.12l42.78-24.7A1.23,1.23,0,0,0,539.34,231.81Z"/><path class="cls-10" d="M493,249.19l-43.2-24.94c-.74-.42-.64-1.17.21-1.66l42.78-24.7a3.2,3.2,0,0,1,2.88-.12l43.2,24.94c.74.43.64,1.17-.21,1.66l-42.78,24.7A3.16,3.16,0,0,1,493,249.19Z"/><path class="cls-10" d="M493,249.19l-43.2-24.94c-.74-.42-.64-1.17.21-1.66l42.78-24.7a3.2,3.2,0,0,1,2.88-.12l43.2,24.94c.74.43.64,1.17-.21,1.66l-42.78,24.7A3.16,3.16,0,0,1,493,249.19Z"/><path class="cls-7" d="M493.13,246.27l-38.29-22.1c-.65-.38-.57-1,.18-1.48L493,200.8a2.81,2.81,0,0,1,2.55-.11l38.29,22.11c.65.38.57,1-.18,1.47l-37.93,21.9A2.84,2.84,0,0,1,493.13,246.27Z"/><path class="cls-8" d="M493.23,244.42l-35.18-20.31c-.6-.35-.53-1,.17-1.36l34.84-20.11a2.62,2.62,0,0,1,2.34-.1l35.18,20.31c.6.35.53,1-.17,1.36l-34.84,20.11A2.59,2.59,0,0,1,493.23,244.42Z"/><polygon class="cls-3" points="493.51 222.16 489.39 219.78 491.64 218.49 495.75 220.86 493.51 222.16"/><polygon class="cls-3" points="501.15 221.82 497.04 224.2 494.79 222.9 498.9 220.53 501.15 221.82"/><polygon class="cls-3" points="492.57 222.7 490.33 223.99 488.08 222.7 490.33 221.4 492.57 222.7"/><polygon class="cls-3" points="500.33 227.18 498.09 228.48 491.61 224.74 493.86 223.44 500.33 227.18"/><path class="cls-11" d="M539.35,212.28l-18.38.11-25.32-14.62a3.2,3.2,0,0,0-2.88.12L467.1,212.71l-17.81.1v10.83h0a.91.91,0,0,0,.48.6L493,249.19a3.16,3.16,0,0,0,2.88-.12l42.78-24.7a1.32,1.32,0,0,0,.68-.77l0,0Z"/><path class="cls-12" d="M539.34,213.35V205H525.77l-30.12-17.39a3.2,3.2,0,0,0-2.88.12l-30,17.31H449.28v8.35h0a.87.87,0,0,0,.49.69L493,239.06a3.16,3.16,0,0,0,2.88-.12l42.78-24.7A1.21,1.21,0,0,0,539.34,213.35Z"/><path class="cls-13" d="M493,230.73l-43.2-24.94c-.74-.43-.64-1.17.21-1.66l42.78-24.7a3.16,3.16,0,0,1,2.88-.12l43.2,24.94c.74.42.64,1.17-.21,1.66l-42.78,24.7A3.2,3.2,0,0,1,493,230.73Z"/><path class="cls-7" d="M493.13,227.81,454.84,205.7c-.65-.38-.57-1,.18-1.47L493,182.33a2.84,2.84,0,0,1,2.55-.1l38.29,22.1c.65.38.57,1-.18,1.48L495.68,227.7A2.81,2.81,0,0,1,493.13,227.81Z"/><path class="cls-8" d="M493.23,226l-35.18-20.31c-.6-.35-.53-1,.17-1.36l34.84-20.11a2.59,2.59,0,0,1,2.34-.1l35.18,20.31c.6.35.53,1-.17,1.35l-34.84,20.12A2.62,2.62,0,0,1,493.23,226Z"/><polygon class="cls-3" points="493.51 203.69 489.39 201.32 491.64 200.02 495.75 202.4 493.51 203.69"/><polygon class="cls-3" points="501.15 203.36 497.04 205.73 494.79 204.44 498.9 202.06 501.15 203.36"/><polygon class="cls-3" points="492.57 204.23 490.33 205.53 488.08 204.23 490.33 202.94 492.57 204.23"/><polygon class="cls-3" points="500.33 208.72 498.09 210.01 491.61 206.27 493.86 204.98 500.33 208.72"/><path class="cls-3" d="M400.06,383.71a3.9,3.9,0,0,1-2-.53l-35.46-20.47.47-.82,35.46,20.48a3,3,0,0,0,3,0L560,290.91a.68.68,0,0,0,.35-.61.71.71,0,0,0-.35-.61l-36.25-20.92.47-.82,36.25,20.93a1.65,1.65,0,0,1,0,2.85l-158.4,91.45A3.93,3.93,0,0,1,400.06,383.71Z"/><path class="cls-3" d="M100.28,305.88a5.12,5.12,0,0,1-2.54-.68L11.51,255.46a1.49,1.49,0,0,1,0-2.58l56.84-32.81.47.82L12,253.7a.54.54,0,0,0-.28.47.53.53,0,0,0,.28.47l86.24,49.75a4.15,4.15,0,0,0,4.12,0l17.4-10.05.47.82-17.4,10A5.08,5.08,0,0,1,100.28,305.88Z"/><path class="cls-14" d="M227.9,177.94,251.32,39l-1.88-.8,2.83-1.62v0a2,2,0,0,1,2.19.15L441.64,144.8a5.31,5.31,0,0,1,2.43,4.76L420.46,289.62a1.78,1.78,0,0,1-1,1.43h0l-2.77,1.6-.48-2.59.16.05L230.33,182.69A5.27,5.27,0,0,1,227.9,177.94Z"/><path class="cls-15" d="M440.59,148.6l3.08-1.36a4.2,4.2,0,0,1,.4,2.32L420.46,289.62a1.78,1.78,0,0,1-1,1.43h0l-2.77,1.6-.48-2.59.16.05L407,284.68Z"/><path class="cls-7" d="M227.39,184.38l187.2,108.07c1.44.83,2.68.35,2.93-1.14l23.61-140.07a5.26,5.26,0,0,0-2.43-4.75L251.51,38.41c-1.45-.83-2.68-.35-2.94,1.15L225,179.62A5.31,5.31,0,0,0,227.39,184.38Z"/><g class="cls-16"><polygon class="cls-8" points="253.96 47.35 434.39 151.53 412.02 283.44 231.7 179.34 253.96 47.35"/></g><path class="cls-3" d="M299.93,398a9.42,9.42,0,0,1-4.63-1.17L96.09,281.8a3.68,3.68,0,0,1-2.14-3,2.78,2.78,0,0,1,1.58-2.36l125.74-72.59c2.16-1.25,5.79-1.11,8.26.32l199.2,115a3.67,3.67,0,0,1,2.15,3,2.77,2.77,0,0,1-1.59,2.36L303.56,397.17A7.38,7.38,0,0,1,299.93,398Zm-75-194a6.46,6.46,0,0,0-3.15.72L96,277.3a1.87,1.87,0,0,0-1.11,1.54A2.79,2.79,0,0,0,96.56,281L295.77,396a8.16,8.16,0,0,0,7.32.33l125.73-72.6a1.86,1.86,0,0,0,1.12-1.54,2.78,2.78,0,0,0-1.68-2.14L229.06,205A8.61,8.61,0,0,0,224.89,204Z"/><path class="cls-4" d="M111.31,280.21l185.28,107a7.62,7.62,0,0,0,6.86.28L414,323.64c1.76-1,1.54-2.79-.49-4l-185.29-107a7.62,7.62,0,0,0-6.85-.28L110.81,276.26C109.06,277.27,109.28,279,111.31,280.21Z"/><path class="cls-17" d="M109.73,250.69,119.94,256l102.44-59.14a7.43,7.43,0,0,1,6.68.28l176.68,102c1.69-.94,9.39-4.65,9.39-4.65l-3.74,9.74h0a2.21,2.21,0,0,1-1.05,1.16L302.45,367.69a7.45,7.45,0,0,1-6.69-.28L115,263a3.22,3.22,0,0,1-1.51-1.61h0Z"/><path class="cls-18" d="M111.31,252.37l185.28,107a7.65,7.65,0,0,0,6.86.29L414,295.79c1.76-1,1.54-2.78-.49-4l-185.29-107a7.63,7.63,0,0,0-6.85-.29L110.81,248.41C109.06,249.43,109.28,251.2,111.31,252.37Z"/><path class="cls-19" d="M352.48,336.2v-2c0-.19-.12-.28-.26-.2l-7.17,4.14a.64.64,0,0,0-.26.5v2c0,.19.12.28.26.2l7.17-4.14A.62.62,0,0,0,352.48,336.2Z"/><path class="cls-19" d="M341.76,342.39v-2c0-.19-.11-.28-.26-.2l-7.17,4.14a.62.62,0,0,0-.26.5v2c0,.19.12.28.26.2l7.17-4.14A.61.61,0,0,0,341.76,342.39Z"/><path class="cls-20" d="M385.19,289.81l-154-88.89a3.27,3.27,0,0,0-3.31,0l-54.83,31.72a1.18,1.18,0,0,0,0,2.05L327,323.54a3.32,3.32,0,0,0,3.31,0l54.91-31.68A1.19,1.19,0,0,0,385.19,289.81Z"/><path class="cls-21" d="M385.19,291.86l-.55.32L231.21,203.6a3.32,3.32,0,0,0-3.31,0L173.62,235l-.55-.31a1.18,1.18,0,0,1,0-2.05l54.83-31.72a3.29,3.29,0,0,1,3.31,0l154,88.9A1.19,1.19,0,0,1,385.19,291.86Z"/><polygon class="cls-7" points="223.76 208.95 357.51 286.17 363.45 282.74 229.71 205.52 223.76 208.95"/><polygon class="cls-7" points="209.18 217.37 334.63 289.8 340.58 286.36 215.13 213.94 209.18 217.37"/><polygon class="cls-7" points="199.68 222.85 347.39 308.13 353.33 304.69 205.63 219.42 199.68 222.85"/><polygon class="cls-7" points="190.19 228.33 337.89 313.61 343.84 310.18 196.13 224.9 190.19 228.33"/><polygon class="cls-7" points="180.69 233.82 328.39 319.09 334.34 315.66 186.64 230.38 180.69 233.82"/><polygon class="cls-7" points="365.59 290.84 371.53 294.27 377.48 290.84 371.53 287.4 365.59 290.84"/><polygon class="cls-7" points="344.61 295.56 356.95 302.69 362.9 299.25 350.56 292.13 344.61 295.56"/><path class="cls-22" d="M225.28,311.32l-41.51-24c-1.62-.93-1.62-2.45,0-3.39l28.39-16.39a6.46,6.46,0,0,1,5.87,0l41.52,24c1.62.94,1.62,2.46,0,3.39l-28.39,16.39A6.48,6.48,0,0,1,225.28,311.32Z"/><path class="cls-21" d="M259.55,292.93,218,269a6.46,6.46,0,0,0-5.87,0l-28.39,16.39a2.58,2.58,0,0,0-1,1c-.43-.82-.1-1.74,1-2.39l28.39-16.39a6.46,6.46,0,0,1,5.87,0l41.52,24c1.12.65,1.45,1.57,1,2.39A2.58,2.58,0,0,0,259.55,292.93Z"/><g class="cls-23"><g class="cls-24"><path class="cls-25" d="M228.05,184.64l185.29,107a7.6,7.6,0,0,0,6.85.29l110.57-63.84c1.75-1,1.53-2.78-.49-3.95L345,117.13a7.6,7.6,0,0,0-6.85-.28L227.56,180.68C225.8,181.7,226,183.47,228.05,184.64Z"/><path class="cls-26" d="M413.89,203.82l-41.52-24c-1.62-.94-1.62-2.46,0-3.39l28.39-16.4a6.54,6.54,0,0,1,5.88,0l41.52,24c1.62.94,1.62,2.46,0,3.4l-28.39,16.39A6.54,6.54,0,0,1,413.89,203.82Z"/><path class="cls-21" d="M448.16,185.42l-41.52-24a6.54,6.54,0,0,0-5.88,0l-28.39,16.39a2.53,2.53,0,0,0-1,1c-.43-.82-.1-1.75,1-2.39l28.39-16.4a6.54,6.54,0,0,1,5.88,0l41.52,24c1.12.65,1.45,1.58,1,2.39A2.65,2.65,0,0,0,448.16,185.42Z"/><path class="cls-20" d="M466.41,241.28l-154-88.9a3.32,3.32,0,0,0-3.31,0L254.29,184.1a1.18,1.18,0,0,0,0,2.05L408.19,275a3.32,3.32,0,0,0,3.31,0l54.91-31.69A1.17,1.17,0,0,0,466.41,241.28Z"/><path class="cls-21" d="M466.41,243.32l-.55.32L312.43,155.06a3.29,3.29,0,0,0-3.31,0l-54.28,31.4-.55-.32a1.18,1.18,0,0,1,0-2.05l54.83-31.72a3.32,3.32,0,0,1,3.31,0l154,88.9A1.17,1.17,0,0,1,466.41,243.32Z"/><polygon class="cls-7" points="268.63 181.94 402.77 259.39 397.46 262.45 263.32 185.01 268.63 181.94"/><polygon class="cls-7" points="282.77 173.78 410.26 247.39 404.95 250.46 277.45 176.85 282.77 173.78"/><polygon class="cls-7" points="419.79 252.89 431.69 259.76 426.38 262.83 414.47 255.96 419.79 252.89"/><polygon class="cls-7" points="409.27 263.13 417.56 267.92 412.25 270.99 403.95 266.2 409.27 263.13"/><polygon class="cls-7" points="291.63 168.67 440.55 254.65 435.24 257.72 286.31 171.74 291.63 168.67"/><polygon class="cls-7" points="300.48 163.56 449.4 249.54 444.09 252.6 295.17 166.62 300.48 163.56"/><polygon class="cls-7" points="309.34 158.44 458.26 244.42 452.95 247.49 304.02 161.51 309.34 158.44"/></g></g><polygon class="cls-27" points="313.84 281.89 353.76 257.33 264.01 205.52 221.66 233.99 313.84 281.89"/><polygon class="cls-28" points="353.76 257.33 362.9 199.57 278.68 151.26 278.68 213.87 353.76 257.33"/><polygon class="cls-29" points="360.31 128.16 350.77 122.73 351.1 120.67 360.64 126.09 360.31 128.16"/><polygon class="cls-29" points="365.2 130.94 361.77 128.98 362.1 126.92 365.53 128.87 365.2 130.94"/><polygon class="cls-29" points="369 133.09 366.66 131.77 366.99 129.7 369.32 131.03 369 133.09"/><polygon class="cls-29" points="355.23 130.4 350.03 127.44 350.36 125.38 355.56 128.34 355.23 130.4"/><polygon class="cls-29" points="363.06 134.85 356.69 131.23 357.01 129.16 363.38 132.79 363.06 134.85"/><polygon class="cls-29" points="366.85 137.01 364.52 135.68 364.84 133.62 367.17 134.94 366.85 137.01"/><polygon class="cls-29" points="370.46 139.06 368.12 137.73 368.45 135.67 370.78 137 370.46 139.06"/><polygon class="cls-3" points="353.05 134.3 349.29 132.16 349.62 130.09 353.38 132.23 353.05 134.3"/><polygon class="cls-3" points="355.8 135.86 354.51 135.13 354.84 133.06 356.12 133.79 355.8 135.86"/><polygon class="cls-29" points="359.59 138.01 357.25 136.68 357.58 134.62 359.91 135.95 359.59 138.01"/><polygon class="cls-29" points="362.43 144.76 348.55 136.87 348.88 134.81 362.76 142.7 362.43 144.76"/><polygon class="cls-29" points="367.32 147.55 363.89 145.59 364.21 143.53 367.65 145.48 367.32 147.55"/><polygon class="cls-29" points="351.57 143.72 347.81 141.59 348.14 139.52 351.9 141.66 351.57 143.72"/><polygon class="cls-29" points="360.4 148.74 353.03 144.55 353.36 142.49 360.72 146.68 360.4 148.74"/><polygon class="cls-29" points="364.19 150.9 361.86 149.57 362.18 147.51 364.51 148.84 364.19 150.9"/><polygon class="cls-29" points="354.77 150.67 347.07 146.3 347.4 144.24 355.09 148.61 354.77 150.67"/><polygon class="cls-3" points="361.79 154.67 356.22 151.5 356.55 149.44 362.11 152.6 361.79 154.67"/><polygon class="cls-29" points="367.01 157.63 363.25 155.5 363.57 153.43 367.33 155.57 367.01 157.63"/><polygon class="cls-29" points="348.93 152.49 346.33 151.01 346.66 148.95 349.25 150.43 348.93 152.49"/><polygon class="cls-29" points="353.82 155.27 350.39 153.32 350.71 151.25 354.15 153.21 353.82 155.27"/><polygon class="cls-29" points="360.81 159.25 355.28 156.1 355.6 154.04 361.14 157.18 360.81 159.25"/><polygon class="cls-29" points="353.55 160.25 345.59 155.73 345.92 153.66 353.88 158.19 353.55 160.25"/><polygon class="cls-29" points="362.47 165.32 355.01 161.08 355.33 159.02 362.79 163.26 362.47 165.32"/><polygon class="cls-3" points="366.26 167.48 363.93 166.15 364.25 164.09 366.58 165.42 366.26 167.48"/><polygon class="cls-29" points="369.9 169.55 367.56 168.22 367.89 166.16 370.22 167.49 369.9 169.55"/><polygon class="cls-29" points="349.62 163.15 344.85 160.44 345.18 158.38 349.94 161.09 349.62 163.15"/><polygon class="cls-3" points="375.49 136.79 382.11 140.55 382.43 138.48 375.81 134.72 375.49 136.79"/><polygon class="cls-29" points="376.17 142.31 381.37 145.26 381.69 143.2 376.49 140.24 376.17 142.31"/><polygon class="cls-29" points="376.86 147.84 380.62 149.97 380.95 147.91 377.19 145.77 376.86 147.84"/><polygon class="cls-29" points="374.41 151.58 379.88 154.69 380.21 152.63 374.74 149.51 374.41 151.58"/><polygon class="cls-29" points="375.38 157.26 379.14 159.4 379.47 157.34 375.71 155.2 375.38 157.26"/><polygon class="cls-29" points="373.63 161.4 378.4 164.12 378.73 162.05 373.96 159.34 373.63 161.4"/><polygon class="cls-29" points="375.06 167.35 377.66 168.83 377.99 166.77 375.39 165.29 375.06 167.35"/><polygon class="cls-29" points="371.89 170.68 376.92 173.54 377.25 171.48 372.21 168.62 371.89 170.68"/><polygon class="cls-29" points="371.41 175.54 376.18 178.26 376.51 176.19 371.74 173.48 371.41 175.54"/><polygon class="cls-29" points="353.11 165.13 351.08 163.98 351.4 161.92 353.43 163.07 353.11 165.13"/><polygon class="cls-29" points="359.13 168.56 354.56 165.96 354.89 163.9 359.45 166.5 359.13 168.56"/><polygon class="cls-29" points="397.32 149.11 387.78 143.69 388.1 141.62 397.64 147.05 397.32 149.11"/><polygon class="cls-29" points="402.21 151.89 398.77 149.94 399.1 147.88 402.53 149.83 402.21 151.89"/><polygon class="cls-3" points="406 154.05 403.67 152.72 403.99 150.66 406.32 151.99 406 154.05"/><polygon class="cls-29" points="392.24 151.35 387.04 148.4 387.36 146.34 392.56 149.29 392.24 151.35"/><polygon class="cls-29" points="400.06 155.81 393.69 152.18 394.02 150.12 400.39 153.74 400.06 155.81"/><polygon class="cls-3" points="403.85 157.96 401.52 156.63 401.84 154.57 404.18 155.9 403.85 157.96"/><polygon class="cls-29" points="407.46 160.01 405.13 158.69 405.45 156.62 407.79 157.95 407.46 160.01"/><polygon class="cls-29" points="390.06 155.25 386.3 153.11 386.62 151.05 390.38 153.19 390.06 155.25"/><polygon class="cls-29" points="392.8 156.81 391.51 156.08 391.84 154.02 393.12 154.75 392.8 156.81"/><polygon class="cls-29" points="396.59 158.97 394.26 157.64 394.58 155.58 396.92 156.9 396.59 158.97"/><polygon class="cls-29" points="399.44 165.72 385.56 157.83 385.88 155.76 399.76 163.66 399.44 165.72"/><polygon class="cls-29" points="404.33 168.5 400.89 166.55 401.22 164.49 404.65 166.44 404.33 168.5"/><polygon class="cls-29" points="388.58 164.68 384.82 162.54 385.14 160.48 388.9 162.62 388.58 164.68"/><polygon class="cls-29" points="397.4 169.7 390.03 165.51 390.36 163.44 397.73 167.63 397.4 169.7"/><polygon class="cls-29" points="401.19 171.85 398.86 170.53 399.18 168.46 401.52 169.79 401.19 171.85"/><polygon class="cls-3" points="391.77 171.63 384.08 167.25 384.4 165.19 392.09 169.57 391.77 171.63"/><polygon class="cls-29" points="398.79 175.62 393.23 172.46 393.55 170.4 399.12 173.56 398.79 175.62"/><polygon class="cls-29" points="404.01 178.59 400.25 176.45 400.57 174.39 404.33 176.53 404.01 178.59"/><polygon class="cls-29" points="385.93 173.45 383.33 171.97 383.66 169.9 386.26 171.38 385.93 173.45"/><polygon class="cls-29" points="390.83 176.23 387.39 174.28 387.71 172.21 391.15 174.16 390.83 176.23"/><polygon class="cls-3" points="397.82 180.2 392.28 177.06 392.61 174.99 398.14 178.14 397.82 180.2"/><polygon class="cls-29" points="390.56 181.21 382.6 176.68 382.92 174.62 390.88 179.15 390.56 181.21"/><polygon class="cls-29" points="399.47 186.28 392.01 182.04 392.34 179.97 399.8 184.22 399.47 186.28"/><polygon class="cls-29" points="403.26 188.44 400.93 187.11 401.25 185.04 403.59 186.37 403.26 188.44"/><polygon class="cls-29" points="406.9 190.5 404.57 189.18 404.89 187.11 407.23 188.44 406.9 190.5"/><polygon class="cls-29" points="386.62 184.11 381.85 181.4 382.18 179.33 386.95 182.04 386.62 184.11"/><polygon class="cls-3" points="412.5 157.74 419.11 161.5 419.43 159.44 412.82 155.68 412.5 157.74"/><polygon class="cls-29" points="413.17 163.26 418.37 166.22 418.69 164.15 413.5 161.2 413.17 163.26"/><polygon class="cls-29" points="413.87 168.79 417.63 170.93 417.95 168.87 414.19 166.73 413.87 168.79"/><polygon class="cls-29" points="411.42 172.53 416.89 175.65 417.21 173.58 411.74 170.47 411.42 172.53"/><polygon class="cls-29" points="412.39 178.22 416.15 180.36 416.47 178.29 412.71 176.16 412.39 178.22"/><polygon class="cls-29" points="410.64 182.36 415.41 185.07 415.73 183.01 410.96 180.3 410.64 182.36"/><polygon class="cls-29" points="412.07 188.31 414.67 189.79 414.99 187.72 412.39 186.24 412.07 188.31"/><polygon class="cls-29" points="408.89 191.64 413.93 194.5 414.25 192.44 409.21 189.57 408.89 191.64"/><polygon class="cls-29" points="408.42 196.5 413.19 199.21 413.51 197.15 408.74 194.44 408.42 196.5"/><polygon class="cls-3" points="390.11 186.09 388.08 184.94 388.4 182.87 390.43 184.03 390.11 186.09"/><polygon class="cls-29" points="396.13 189.51 391.57 186.92 391.89 184.85 396.46 187.45 396.13 189.51"/><polygon class="cls-29" points="353.64 170.6 344.11 165.18 344.43 163.12 353.97 168.54 353.64 170.6"/><polygon class="cls-29" points="358.54 173.39 355.1 171.43 355.43 169.37 358.86 171.32 358.54 173.39"/><polygon class="cls-29" points="362.33 175.54 359.99 174.22 360.32 172.15 362.65 173.48 362.33 175.54"/><polygon class="cls-29" points="348.56 172.85 343.37 169.89 343.69 167.83 348.89 170.79 348.56 172.85"/><polygon class="cls-29" points="356.39 177.3 350.02 173.68 350.34 171.62 356.71 175.24 356.39 177.3"/><polygon class="cls-29" points="360.18 179.46 357.85 178.13 358.17 176.07 360.5 177.39 360.18 179.46"/><polygon class="cls-29" points="363.79 181.51 361.45 180.18 361.78 178.12 364.11 179.44 363.79 181.51"/><polygon class="cls-29" points="346.38 176.75 342.63 174.61 342.95 172.54 346.71 174.68 346.38 176.75"/><polygon class="cls-29" points="349.13 178.31 347.84 177.57 348.17 175.51 349.45 176.24 349.13 178.31"/><polygon class="cls-29" points="352.92 180.46 350.58 179.13 350.91 177.07 353.24 178.4 352.92 180.46"/><polygon class="cls-29" points="355.76 187.22 341.88 179.32 342.21 177.26 356.09 185.15 355.76 187.22"/><polygon class="cls-29" points="360.66 190 357.22 188.04 357.55 185.98 360.98 187.93 360.66 190"/><polygon class="cls-29" points="344.9 186.17 341.14 184.03 341.47 181.97 345.23 184.11 344.9 186.17"/><polygon class="cls-29" points="353.73 191.19 346.36 187 346.69 184.94 354.05 189.13 353.73 191.19"/><polygon class="cls-29" points="357.52 193.35 355.19 192.02 355.51 189.96 357.85 191.29 357.52 193.35"/><polygon class="cls-29" points="348.1 193.13 340.4 188.75 340.73 186.69 348.42 191.06 348.1 193.13"/><polygon class="cls-29" points="355.12 197.12 349.56 193.95 349.88 191.89 355.44 195.06 355.12 197.12"/><polygon class="cls-29" points="360.34 200.09 356.58 197.95 356.9 195.88 360.66 198.02 360.34 200.09"/><polygon class="cls-29" points="342.26 194.94 339.66 193.46 339.99 191.4 342.59 192.88 342.26 194.94"/><polygon class="cls-29" points="347.15 197.72 343.72 195.77 344.04 193.71 347.48 195.66 347.15 197.72"/><polygon class="cls-29" points="354.14 201.7 348.61 198.55 348.94 196.49 354.47 199.63 354.14 201.7"/><polygon class="cls-29" points="346.88 202.7 338.92 198.18 339.25 196.11 347.21 200.64 346.88 202.7"/><polygon class="cls-29" points="355.8 207.77 348.34 203.53 348.66 201.47 356.12 205.71 355.8 207.77"/><polygon class="cls-29" points="359.59 209.93 357.26 208.6 357.58 206.54 359.91 207.87 359.59 209.93"/><polygon class="cls-29" points="363.23 212 360.89 210.67 361.22 208.61 363.55 209.94 363.23 212"/><polygon class="cls-29" points="342.95 205.6 338.18 202.89 338.51 200.83 343.27 203.54 342.95 205.6"/><polygon class="cls-29" points="368.82 179.24 375.44 183 375.76 180.94 369.15 177.17 368.82 179.24"/><polygon class="cls-29" points="369.5 184.76 374.7 187.71 375.02 185.65 369.82 182.69 369.5 184.76"/><polygon class="cls-29" points="370.19 190.29 373.96 192.43 374.28 190.36 370.52 188.22 370.19 190.29"/><polygon class="cls-29" points="367.75 194.03 373.21 197.14 373.54 195.08 368.07 191.97 367.75 194.03"/><polygon class="cls-29" points="368.71 199.71 372.48 201.85 372.8 199.79 369.04 197.65 368.71 199.71"/><polygon class="cls-29" points="366.96 203.85 371.73 206.57 372.06 204.5 367.29 201.79 366.96 203.85"/><polygon class="cls-29" points="368.39 209.8 370.99 211.28 371.32 209.22 368.72 207.74 368.39 209.8"/><polygon class="cls-29" points="365.22 213.13 370.25 215.99 370.58 213.93 365.54 211.07 365.22 213.13"/><polygon class="cls-29" points="364.74 218 369.51 220.71 369.84 218.64 365.07 215.93 364.74 218"/><polygon class="cls-29" points="346.44 207.59 344.41 206.43 344.73 204.37 346.76 205.52 346.44 207.59"/><polygon class="cls-29" points="352.46 211.01 347.89 208.41 348.22 206.35 352.78 208.95 352.46 211.01"/><polygon class="cls-29" points="354.08 226.87 346.38 222.48 346.7 220.42 354.41 224.8 354.08 226.87"/><polygon class="cls-29" points="359.36 229.87 356.32 228.14 356.65 226.08 359.68 227.8 359.36 229.87"/><polygon class="cls-29" points="390.65 191.56 381.11 186.14 381.43 184.07 390.97 189.5 390.65 191.56"/><polygon class="cls-29" points="395.54 194.34 392.11 192.39 392.43 190.33 395.86 192.28 395.54 194.34"/><polygon class="cls-29" points="399.33 196.5 397 195.17 397.32 193.11 399.66 194.44 399.33 196.5"/><polygon class="cls-29" points="385.57 193.81 380.37 190.85 380.69 188.79 385.89 191.74 385.57 193.81"/><polygon class="cls-29" points="393.39 198.26 387.02 194.63 387.35 192.57 393.72 196.19 393.39 198.26"/><polygon class="cls-29" points="397.19 200.41 394.85 199.09 395.18 197.02 397.51 198.35 397.19 200.41"/><polygon class="cls-29" points="400.79 202.47 398.46 201.14 398.78 199.07 401.12 200.4 400.79 202.47"/><polygon class="cls-29" points="383.39 197.7 379.63 195.56 379.95 193.5 383.71 195.64 383.39 197.7"/><polygon class="cls-29" points="386.13 199.26 384.85 198.53 385.17 196.47 386.46 197.2 386.13 199.26"/><polygon class="cls-29" points="389.92 201.42 387.59 200.09 387.91 198.03 390.25 199.35 389.92 201.42"/><polygon class="cls-29" points="392.77 208.17 378.89 200.28 379.21 198.21 393.09 206.11 392.77 208.17"/><polygon class="cls-29" points="397.66 210.95 394.23 209 394.55 206.94 397.98 208.89 397.66 210.95"/><polygon class="cls-29" points="381.91 207.13 378.15 204.99 378.47 202.93 382.23 205.07 381.91 207.13"/><polygon class="cls-29" points="390.73 212.15 383.37 207.96 383.69 205.9 391.06 210.09 390.73 212.15"/><polygon class="cls-29" points="394.52 214.31 392.19 212.98 392.51 210.91 394.85 212.24 394.52 214.31"/><polygon class="cls-29" points="385.1 214.08 377.41 209.71 377.73 207.64 385.43 212.02 385.1 214.08"/><polygon class="cls-29" points="392.12 218.07 386.56 214.91 386.88 212.85 392.45 216.01 392.12 218.07"/><polygon class="cls-29" points="397.34 221.04 393.58 218.9 393.9 216.84 397.67 218.98 397.34 221.04"/><polygon class="cls-29" points="379.26 215.9 376.67 214.42 376.99 212.35 379.59 213.83 379.26 215.9"/><polygon class="cls-29" points="384.16 218.68 380.72 216.72 381.05 214.66 384.48 216.62 384.16 218.68"/><polygon class="cls-29" points="391.15 222.65 385.61 219.51 385.94 217.44 391.47 220.59 391.15 222.65"/><polygon class="cls-29" points="383.89 223.66 375.93 219.13 376.25 217.07 384.21 221.6 383.89 223.66"/><polygon class="cls-29" points="392.8 228.73 385.34 224.49 385.67 222.43 393.13 226.67 392.8 228.73"/><polygon class="cls-29" points="396.59 230.89 394.26 229.56 394.58 227.5 396.92 228.82 396.59 230.89"/><polygon class="cls-29" points="400.23 232.96 397.9 231.63 398.22 229.56 400.56 230.89 400.23 232.96"/><polygon class="cls-29" points="379.95 226.56 375.19 223.85 375.51 221.78 380.28 224.5 379.95 226.56"/><polygon class="cls-29" points="405.83 200.19 412.44 203.95 412.76 201.89 406.15 198.13 405.83 200.19"/><polygon class="cls-29" points="406.5 205.71 411.7 208.67 412.02 206.6 406.83 203.65 406.5 205.71"/><polygon class="cls-29" points="407.2 211.24 410.96 213.38 411.28 211.32 407.52 209.18 407.2 211.24"/><polygon class="cls-29" points="404.75 214.98 410.22 218.09 410.54 216.03 405.07 212.92 404.75 214.98"/><polygon class="cls-29" points="405.72 220.67 409.48 222.81 409.8 220.75 406.04 218.61 405.72 220.67"/><polygon class="cls-29" points="403.97 224.81 408.74 227.52 409.06 225.46 404.29 222.75 403.97 224.81"/><polygon class="cls-29" points="405.4 230.76 408 232.24 408.32 230.17 405.72 228.69 405.4 230.76"/><polygon class="cls-29" points="402.22 234.09 407.26 236.95 407.58 234.89 402.55 232.02 402.22 234.09"/><polygon class="cls-29" points="401.75 238.95 406.52 241.66 406.84 239.6 402.07 236.89 401.75 238.95"/><polygon class="cls-29" points="383.44 228.54 381.41 227.39 381.74 225.32 383.76 226.48 383.44 228.54"/><polygon class="cls-29" points="389.46 231.97 384.9 229.37 385.22 227.31 389.79 229.9 389.46 231.97"/><polygon class="cls-29" points="391.09 247.82 383.38 243.44 383.71 241.38 391.41 245.76 391.09 247.82"/><polygon class="cls-29" points="396.36 250.82 393.33 249.1 393.65 247.03 396.69 248.76 396.36 250.82"/><polygon class="cls-29" points="271.38 77.13 261.84 71.71 262.17 69.64 271.71 75.07 271.38 77.13"/><polygon class="cls-29" points="276.27 79.92 272.84 77.96 273.16 75.9 276.6 77.85 276.27 79.92"/><polygon class="cls-29" points="280.07 82.07 277.73 80.74 278.06 78.68 280.39 80.01 280.07 82.07"/><polygon class="cls-29" points="266.3 79.38 261.1 76.42 261.43 74.36 266.63 77.31 266.3 79.38"/><polygon class="cls-29" points="274.13 83.83 267.76 80.21 268.08 78.14 274.45 81.77 274.13 83.83"/><polygon class="cls-29" points="277.92 85.98 275.58 84.66 275.91 82.59 278.24 83.92 277.92 85.98"/><polygon class="cls-29" points="281.53 88.04 279.19 86.71 279.52 84.65 281.85 85.97 281.53 88.04"/><polygon class="cls-3" points="264.12 83.27 260.36 81.14 260.69 79.07 264.45 81.21 264.12 83.27"/><polygon class="cls-3" points="266.87 84.83 265.58 84.1 265.9 82.04 267.19 82.77 266.87 84.83"/><polygon class="cls-29" points="270.66 86.99 268.32 85.66 268.65 83.6 270.98 84.93 270.66 86.99"/><polygon class="cls-29" points="273.5 93.74 259.62 85.85 259.95 83.79 273.83 91.68 273.5 93.74"/><polygon class="cls-29" points="278.39 96.53 274.96 94.57 275.28 92.51 278.72 94.46 278.39 96.53"/><polygon class="cls-29" points="262.64 92.7 258.88 90.56 259.21 88.5 262.97 90.64 262.64 92.7"/><polygon class="cls-29" points="271.47 97.72 264.1 93.53 264.42 91.47 271.79 95.66 271.47 97.72"/><polygon class="cls-29" points="275.26 99.88 272.93 98.55 273.25 96.49 275.58 97.81 275.26 99.88"/><polygon class="cls-29" points="265.83 99.65 258.14 95.28 258.46 93.21 266.16 97.59 265.83 99.65"/><polygon class="cls-3" points="272.86 103.65 267.29 100.48 267.62 98.42 273.18 101.58 272.86 103.65"/><polygon class="cls-29" points="278.07 106.61 274.31 104.47 274.64 102.41 278.4 104.55 278.07 106.61"/><polygon class="cls-29" points="260 101.47 257.4 99.99 257.73 97.93 260.32 99.41 260 101.47"/><polygon class="cls-29" points="264.89 104.25 261.46 102.3 261.78 100.23 265.21 102.19 264.89 104.25"/><polygon class="cls-29" points="271.88 108.23 266.35 105.08 266.67 103.02 272.21 106.16 271.88 108.23"/><polygon class="cls-29" points="264.62 109.23 256.66 104.7 256.98 102.64 264.94 107.17 264.62 109.23"/><polygon class="cls-29" points="273.54 114.3 266.08 110.06 266.4 108 273.86 112.24 273.54 114.3"/><polygon class="cls-3" points="277.33 116.46 274.99 115.13 275.32 113.07 277.65 114.39 277.33 116.46"/><polygon class="cls-29" points="280.97 118.53 278.63 117.2 278.96 115.14 281.29 116.46 280.97 118.53"/><polygon class="cls-29" points="260.69 112.13 255.92 109.42 256.24 107.35 261.01 110.07 260.69 112.13"/><polygon class="cls-3" points="286.56 85.77 293.17 89.53 293.5 87.46 286.88 83.7 286.56 85.77"/><polygon class="cls-29" points="287.24 91.28 292.43 94.24 292.76 92.18 287.56 89.22 287.24 91.28"/><polygon class="cls-29" points="287.93 96.81 291.69 98.95 292.02 96.89 288.26 94.75 287.93 96.81"/><polygon class="cls-29" points="285.48 100.56 290.95 103.67 291.28 101.6 285.81 98.49 285.48 100.56"/><polygon class="cls-29" points="286.45 106.24 290.21 108.38 290.54 106.32 286.78 104.18 286.45 106.24"/><polygon class="cls-29" points="284.7 110.38 289.47 113.09 289.8 111.03 285.03 108.32 284.7 110.38"/><polygon class="cls-29" points="286.13 116.33 288.73 117.81 289.06 115.75 286.46 114.27 286.13 116.33"/><polygon class="cls-29" points="282.95 119.66 287.99 122.52 288.31 120.46 283.28 117.59 282.95 119.66"/><polygon class="cls-29" points="282.48 124.52 287.25 127.24 287.57 125.17 282.81 122.46 282.48 124.52"/><polygon class="cls-29" points="264.17 114.11 262.15 112.96 262.47 110.9 264.5 112.05 264.17 114.11"/><polygon class="cls-29" points="270.2 117.54 265.63 114.94 265.96 112.88 270.52 115.47 270.2 117.54"/><polygon class="cls-29" points="308.39 98.09 298.85 92.66 299.17 90.6 308.71 96.03 308.39 98.09"/><polygon class="cls-29" points="313.28 100.87 309.84 98.92 310.17 96.85 313.6 98.81 313.28 100.87"/><polygon class="cls-3" points="317.07 103.03 314.74 101.7 315.06 99.64 317.39 100.96 317.07 103.03"/><polygon class="cls-29" points="303.3 100.33 298.11 97.38 298.43 95.31 303.63 98.27 303.3 100.33"/><polygon class="cls-29" points="311.13 104.78 304.76 101.16 305.09 99.1 311.45 102.72 311.13 104.78"/><polygon class="cls-3" points="314.92 106.94 312.59 105.61 312.91 103.55 315.25 104.88 314.92 106.94"/><polygon class="cls-29" points="318.53 108.99 316.2 107.67 316.52 105.6 318.85 106.93 318.53 108.99"/><polygon class="cls-29" points="301.13 104.23 297.37 102.09 297.69 100.03 301.45 102.17 301.13 104.23"/><polygon class="cls-29" points="303.87 105.79 302.58 105.06 302.91 103 304.19 103.73 303.87 105.79"/><polygon class="cls-29" points="307.66 107.95 305.33 106.62 305.65 104.56 307.99 105.88 307.66 107.95"/><polygon class="cls-29" points="310.51 114.7 296.63 106.81 296.95 104.74 310.83 112.64 310.51 114.7"/><polygon class="cls-29" points="315.4 117.48 311.96 115.53 312.29 113.46 315.72 115.42 315.4 117.48"/><polygon class="cls-29" points="299.65 113.66 295.88 111.52 296.21 109.45 299.97 111.59 299.65 113.66"/><polygon class="cls-29" points="308.47 118.68 301.1 114.49 301.43 112.42 308.8 116.61 308.47 118.68"/><polygon class="cls-29" points="312.26 120.83 309.93 119.5 310.25 117.44 312.59 118.77 312.26 120.83"/><polygon class="cls-3" points="302.84 120.61 295.14 116.23 295.47 114.17 303.16 118.55 302.84 120.61"/><polygon class="cls-29" points="309.86 124.6 304.3 121.44 304.62 119.37 310.19 122.54 309.86 124.6"/><polygon class="cls-29" points="315.08 127.57 311.32 125.43 311.64 123.37 315.4 125.51 315.08 127.57"/><polygon class="cls-29" points="297 122.42 294.4 120.95 294.73 118.88 297.33 120.36 297 122.42"/><polygon class="cls-29" points="301.89 125.21 298.46 123.25 298.78 121.19 302.22 123.14 301.89 125.21"/><polygon class="cls-3" points="308.89 129.18 303.35 126.03 303.68 123.97 309.21 127.12 308.89 129.18"/><polygon class="cls-29" points="301.62 130.19 293.66 125.66 293.99 123.6 301.95 128.12 301.62 130.19"/><polygon class="cls-29" points="310.54 135.26 303.08 131.02 303.41 128.95 310.87 133.19 310.54 135.26"/><polygon class="cls-29" points="314.33 137.41 312 136.09 312.32 134.02 314.66 135.35 314.33 137.41"/><polygon class="cls-29" points="317.97 139.48 315.64 138.16 315.96 136.09 318.29 137.42 317.97 139.48"/><polygon class="cls-29" points="297.69 133.09 292.92 130.37 293.25 128.31 298.02 131.02 297.69 133.09"/><polygon class="cls-3" points="323.56 106.72 330.18 110.48 330.5 108.42 323.89 104.66 323.56 106.72"/><polygon class="cls-29" points="324.24 112.24 329.44 115.2 329.76 113.13 324.56 110.18 324.24 112.24"/><polygon class="cls-29" points="324.94 117.77 328.7 119.91 329.02 117.85 325.26 115.71 324.94 117.77"/><polygon class="cls-29" points="322.49 121.51 327.96 124.62 328.28 122.56 322.81 119.45 322.49 121.51"/><polygon class="cls-29" points="323.46 127.2 327.22 129.34 327.54 127.27 323.78 125.14 323.46 127.2"/><polygon class="cls-29" points="321.71 131.34 326.48 134.05 326.8 131.99 322.03 129.28 321.71 131.34"/><polygon class="cls-29" points="323.14 137.29 325.74 138.76 326.06 136.7 323.46 135.22 323.14 137.29"/><polygon class="cls-29" points="319.96 140.61 325 143.48 325.32 141.41 320.28 138.55 319.96 140.61"/><polygon class="cls-29" points="319.49 145.48 324.25 148.19 324.58 146.13 319.81 143.42 319.49 145.48"/><polygon class="cls-3" points="301.18 135.07 299.15 133.91 299.47 131.85 301.5 133 301.18 135.07"/><polygon class="cls-29" points="307.2 138.49 302.63 135.9 302.96 133.83 307.52 136.43 307.2 138.49"/><polygon class="cls-29" points="264.71 119.58 255.18 114.16 255.5 112.09 265.04 117.52 264.71 119.58"/><polygon class="cls-29" points="269.61 122.37 266.17 120.41 266.5 118.35 269.93 120.3 269.61 122.37"/><polygon class="cls-29" points="273.4 124.52 271.06 123.19 271.39 121.13 273.72 122.46 273.4 124.52"/><polygon class="cls-29" points="259.63 121.83 254.43 118.87 254.76 116.81 259.96 119.77 259.63 121.83"/><polygon class="cls-29" points="267.46 126.28 261.09 122.66 261.41 120.59 267.78 124.22 267.46 126.28"/><polygon class="cls-29" points="271.25 128.44 268.92 127.11 269.24 125.05 271.57 126.37 271.25 128.44"/><polygon class="cls-29" points="274.86 130.49 272.52 129.16 272.85 127.1 275.18 128.42 274.86 130.49"/><polygon class="cls-29" points="257.45 125.72 253.69 123.59 254.02 121.52 257.78 123.66 257.45 125.72"/><polygon class="cls-29" points="260.2 127.28 258.91 126.55 259.24 124.49 260.52 125.22 260.2 127.28"/><polygon class="cls-29" points="263.99 129.44 261.65 128.11 261.98 126.05 264.31 127.38 263.99 129.44"/><polygon class="cls-29" points="266.83 136.19 252.95 128.3 253.28 126.24 267.16 134.13 266.83 136.19"/><polygon class="cls-29" points="271.73 138.98 268.29 137.02 268.62 134.96 272.05 136.91 271.73 138.98"/><polygon class="cls-29" points="255.97 135.15 252.21 133.01 252.54 130.95 256.3 133.09 255.97 135.15"/><polygon class="cls-29" points="264.8 140.17 257.43 135.98 257.75 133.92 265.12 138.11 264.8 140.17"/><polygon class="cls-29" points="268.59 142.33 266.26 141 266.58 138.94 268.91 140.26 268.59 142.33"/><polygon class="cls-29" points="259.17 142.1 251.47 137.73 251.8 135.66 259.49 140.04 259.17 142.1"/><polygon class="cls-29" points="266.19 146.1 260.62 142.93 260.95 140.87 266.51 144.03 266.19 146.1"/><polygon class="cls-29" points="271.41 149.06 267.65 146.93 267.97 144.86 271.73 147 271.41 149.06"/><polygon class="cls-29" points="253.33 143.92 250.73 142.44 251.06 140.38 253.66 141.85 253.33 143.92"/><polygon class="cls-29" points="258.22 146.7 254.79 144.75 255.11 142.68 258.55 144.64 258.22 146.7"/><polygon class="cls-29" points="265.21 150.68 259.68 147.53 260 145.47 265.54 148.61 265.21 150.68"/><polygon class="cls-29" points="257.95 151.68 249.99 147.16 250.31 145.09 258.28 149.62 257.95 151.68"/><polygon class="cls-29" points="266.87 156.75 259.41 152.51 259.73 150.45 267.19 154.69 266.87 156.75"/><polygon class="cls-29" points="270.66 158.91 268.32 157.58 268.65 155.52 270.98 156.84 270.66 158.91"/><polygon class="cls-29" points="274.3 160.98 271.96 159.65 272.29 157.59 274.62 158.91 274.3 160.98"/><polygon class="cls-29" points="254.02 154.58 249.25 151.87 249.57 149.81 254.34 152.52 254.02 154.58"/><polygon class="cls-29" points="279.89 128.22 286.51 131.98 286.83 129.91 280.22 126.15 279.89 128.22"/><polygon class="cls-29" points="280.57 133.74 285.76 136.69 286.09 134.63 280.89 131.67 280.57 133.74"/><polygon class="cls-29" points="281.26 139.26 285.02 141.4 285.35 139.34 281.59 137.2 281.26 139.26"/><polygon class="cls-29" points="278.81 143.01 284.28 146.12 284.61 144.05 279.14 140.94 278.81 143.01"/><polygon class="cls-29" points="279.78 148.69 283.54 150.83 283.87 148.77 280.11 146.63 279.78 148.69"/><polygon class="cls-29" points="278.03 152.83 282.8 155.54 283.13 153.48 278.36 150.77 278.03 152.83"/><polygon class="cls-29" points="279.46 158.78 282.06 160.26 282.39 158.19 279.79 156.72 279.46 158.78"/><polygon class="cls-29" points="276.29 162.11 281.32 164.97 281.65 162.91 276.61 160.04 276.29 162.11"/><polygon class="cls-29" points="275.81 166.97 280.58 169.69 280.91 167.62 276.14 164.91 275.81 166.97"/><polygon class="cls-29" points="257.51 156.56 255.48 155.41 255.8 153.35 257.83 154.5 257.51 156.56"/><polygon class="cls-29" points="263.53 159.99 258.96 157.39 259.29 155.33 263.85 157.93 263.53 159.99"/><polygon class="cls-29" points="265.15 175.84 257.45 171.46 257.77 169.4 265.48 173.78 265.15 175.84"/><polygon class="cls-29" points="270.43 178.84 267.39 177.12 267.72 175.06 270.75 176.78 270.43 178.84"/><polygon class="cls-29" points="301.72 140.54 292.18 135.12 292.5 133.05 302.04 138.48 301.72 140.54"/><polygon class="cls-29" points="306.61 143.32 303.18 141.37 303.5 139.31 306.93 141.26 306.61 143.32"/><polygon class="cls-29" points="310.4 145.48 308.07 144.15 308.39 142.09 310.73 143.41 310.4 145.48"/><polygon class="cls-29" points="296.63 142.78 291.44 139.83 291.76 137.76 296.96 140.72 296.63 142.78"/><polygon class="cls-29" points="304.46 147.24 298.09 143.61 298.42 141.55 304.79 145.17 304.46 147.24"/><polygon class="cls-29" points="308.25 149.39 305.92 148.06 306.24 146 308.58 147.33 308.25 149.39"/><polygon class="cls-29" points="311.86 151.44 309.53 150.12 309.85 148.05 312.19 149.38 311.86 151.44"/><polygon class="cls-29" points="294.46 146.68 290.7 144.54 291.02 142.48 294.78 144.62 294.46 146.68"/><polygon class="cls-29" points="297.2 148.24 295.92 147.51 296.24 145.45 297.52 146.18 297.2 148.24"/><polygon class="cls-29" points="300.99 150.4 298.66 149.07 298.98 147.01 301.32 148.33 300.99 150.4"/><polygon class="cls-29" points="303.84 157.15 289.96 149.26 290.28 147.19 304.16 155.09 303.84 157.15"/><polygon class="cls-29" points="308.73 159.93 305.3 157.98 305.62 155.91 309.05 157.87 308.73 159.93"/><polygon class="cls-29" points="292.98 156.11 289.22 153.97 289.54 151.91 293.3 154.04 292.98 156.11"/><polygon class="cls-29" points="301.8 161.13 294.43 156.94 294.76 154.87 302.13 159.06 301.8 161.13"/><polygon class="cls-29" points="305.59 163.28 303.26 161.96 303.58 159.89 305.92 161.22 305.59 163.28"/><polygon class="cls-29" points="296.17 163.06 288.48 158.68 288.8 156.62 296.49 161 296.17 163.06"/><polygon class="cls-29" points="303.19 167.05 297.63 163.89 297.95 161.82 303.52 164.99 303.19 167.05"/><polygon class="cls-29" points="308.41 170.02 304.65 167.88 304.97 165.82 308.73 167.96 308.41 170.02"/><polygon class="cls-29" points="290.33 164.88 287.74 163.4 288.06 161.33 290.66 162.81 290.33 164.88"/><polygon class="cls-29" points="295.23 167.66 291.79 165.7 292.12 163.64 295.55 165.59 295.23 167.66"/><polygon class="cls-29" points="302.22 171.63 296.68 168.49 297.01 166.42 302.54 169.57 302.22 171.63"/><polygon class="cls-29" points="294.96 172.64 287 168.11 287.32 166.05 295.28 170.57 294.96 172.64"/><polygon class="cls-29" points="303.87 177.71 296.41 173.47 296.74 171.4 304.2 175.65 303.87 177.71"/><polygon class="cls-29" points="307.66 179.86 305.33 178.54 305.65 176.47 307.99 177.8 307.66 179.86"/><polygon class="cls-29" points="311.3 181.93 308.97 180.61 309.29 178.54 311.63 179.87 311.3 181.93"/><polygon class="cls-29" points="291.02 175.54 286.25 172.82 286.58 170.76 291.35 173.47 291.02 175.54"/><polygon class="cls-29" points="316.89 149.17 323.51 152.93 323.83 150.87 317.22 147.11 316.89 149.17"/><polygon class="cls-29" points="317.57 154.69 322.77 157.65 323.09 155.58 317.89 152.63 317.57 154.69"/><polygon class="cls-29" points="318.27 160.22 322.03 162.36 322.35 160.3 318.59 158.16 318.27 160.22"/><polygon class="cls-29" points="315.82 163.96 321.29 167.07 321.61 165.01 316.14 161.9 315.82 163.96"/><polygon class="cls-29" points="316.79 169.65 320.55 171.79 320.87 169.72 317.11 167.59 316.79 169.65"/><polygon class="cls-29" points="315.04 173.79 319.81 176.5 320.13 174.44 315.36 171.72 315.04 173.79"/><polygon class="cls-29" points="316.47 179.74 319.07 181.22 319.39 179.15 316.79 177.67 316.47 179.74"/><polygon class="cls-29" points="313.29 183.06 318.33 185.93 318.65 183.87 313.61 181 313.29 183.06"/><polygon class="cls-29" points="312.82 187.93 317.58 190.64 317.91 188.58 313.14 185.87 312.82 187.93"/><polygon class="cls-29" points="294.51 177.52 292.48 176.37 292.81 174.3 294.83 175.46 294.51 177.52"/><polygon class="cls-29" points="300.53 180.94 295.97 178.35 296.29 176.28 300.86 178.88 300.53 180.94"/><polygon class="cls-29" points="302.16 196.8 294.45 192.42 294.77 190.35 302.48 194.74 302.16 196.8"/><polygon class="cls-29" points="307.43 199.8 304.4 198.07 304.72 196.01 307.76 197.74 307.43 199.8"/><path class="cls-30" d="M269.87,123.21l8.91-5.14h0a.41.41,0,0,1,.44,0l111.65,64.46a1.58,1.58,0,0,1,.66,1.26v21.07a.63.63,0,0,1-.18.5h0l-9,5.19-.07-10.19-103-59.47a1.59,1.59,0,0,1-.65-1.26v-7.24Z"/><path class="cls-31" d="M270.27,146.09l111.64,64.46c.37.21.66,0,.66-.5V189a1.57,1.57,0,0,0-.66-1.26L270.27,123.26c-.37-.21-.66,0-.66.49v21.08A1.56,1.56,0,0,0,270.27,146.09Z"/><path class="cls-32" d="M285.67,141.82l86.93,51.12A60.13,60.13,0,0,0,365,200.8l-87.57-50.56A59.07,59.07,0,0,1,285.67,141.82Z"/><path class="cls-7" d="M273.45,139.76l105.28,60.78c.24.14.45,0,.45-.34v-5.3a1.11,1.11,0,0,0-.45-.86L273.45,133.26c-.25-.14-.45,0-.45.34v5.3A1.07,1.07,0,0,0,273.45,139.76Z"/><path class="cls-8" d="M273.45,133.26l2.14,1.24v2.86a1.1,1.1,0,0,0,.45.86l103.14,59.54v2.44c0,.33-.21.48-.45.34L273.45,139.76a1.07,1.07,0,0,1-.45-.86v-5.3C273,133.27,273.2,133.12,273.45,133.26Z"/><path class="cls-33" d="M214.31,367.81l-87.58-50.57h0c11.3-6.52,20.82-20.8,23.73-34.45a19.94,19.94,0,0,1,9.47-13.17l66.18-38.2a63.32,63.32,0,0,0,31.63-51c1.06-17.94,14.62-35.58,25.15-41.66h0l87.58,50.56h0c-10.37,6-21.79,22.72-23.09,40.36a64.1,64.1,0,0,1-31.57,51.13l-68.3,39.43A19.9,19.9,0,0,0,238,333.35c-2.91,13.66-12.43,27.93-23.73,34.46Z"/><path class="cls-34" d="M282.89,138.71l87.58,50.56c-.7.41-1.4.85-2.09,1.3h0L280.81,140C281.5,139.55,282.19,139.11,282.89,138.71Z"/><g class="cls-35"><polygon class="cls-8" points="315.82 198.52 331.18 207.42 331.31 205.65 315.97 196.78 315.82 198.52"/><polygon class="cls-8" points="308.08 194.03 313.51 197.18 313.66 195.44 308.24 192.31 308.08 194.03"/><polygon class="cls-8" points="302.14 190.59 305.79 192.7 305.96 190.99 302.31 188.88 302.14 190.59"/><polygon class="cls-8" points="322.45 206.57 330.9 211.49 331.02 209.7 322.59 204.8 322.45 206.57"/><polygon class="cls-8" points="309.93 199.27 320.1 205.2 320.25 203.44 310.09 197.54 309.93 199.27"/><polygon class="cls-8" points="303.95 195.79 307.62 197.93 307.79 196.2 304.12 194.06 303.95 195.79"/><polygon class="cls-8" points="298.3 192.5 301.95 194.62 302.12 192.9 298.48 190.79 298.3 192.5"/><polygon class="cls-8" points="324.46 211.99 330.61 215.59 330.73 213.79 324.6 210.21 324.46 211.99"/><polygon class="cls-8" points="320.01 209.39 322.1 210.61 322.24 208.83 320.16 207.61 320.01 209.39"/><polygon class="cls-8" points="313.92 205.82 317.66 208.01 317.81 206.24 314.07 204.06 313.92 205.82"/><polygon class="cls-8" points="307.82 206.48 330.32 219.73 330.44 217.92 307.98 204.72 307.82 206.48"/><polygon class="cls-8" points="300.06 201.92 305.5 205.12 305.67 203.36 300.24 200.17 300.06 201.92"/><polygon class="cls-8" points="323.83 220.24 330.02 223.91 330.15 222.08 323.97 218.42 323.83 220.24"/><polygon class="cls-8" points="309.51 211.76 321.44 218.83 321.59 217.02 309.67 209.98 309.51 211.76"/><polygon class="cls-8" points="303.45 208.17 307.17 210.38 307.34 208.6 303.62 206.41 303.45 208.17"/><polygon class="cls-8" points="317.06 220.58 329.73 228.12 329.86 226.27 317.21 218.76 317.06 220.58"/><polygon class="cls-8" points="305.71 213.82 314.69 219.17 314.85 217.36 305.88 212.03 305.71 213.82"/><polygon class="cls-8" points="297.39 208.87 303.37 212.43 303.55 210.65 297.58 207.1 297.39 208.87"/><polygon class="cls-8" points="325.11 229.78 329.43 232.37 329.56 230.5 325.25 227.93 325.11 229.78"/><polygon class="cls-8" points="317.05 224.96 322.7 228.34 322.84 226.49 317.2 223.12 317.05 224.96"/><polygon class="cls-8" points="305.69 218.16 314.66 223.53 314.82 221.7 305.86 216.35 305.69 218.16"/><polygon class="cls-8" points="315.92 228.71 329.13 236.65 329.26 234.77 316.08 226.86 315.92 228.71"/><polygon class="cls-8" points="301.43 219.98 313.53 227.27 313.69 225.43 301.61 218.17 301.43 219.98"/><polygon class="cls-8" points="295.36 216.33 299.09 218.57 299.27 216.77 295.55 214.53 295.36 216.33"/><polygon class="cls-8" points="289.59 212.86 293.29 215.08 293.48 213.29 289.79 211.07 289.59 212.86"/><polygon class="cls-8" points="320.85 236.15 328.83 240.98 328.96 239.08 321 234.27 320.85 236.15"/><polygon class="cls-8" points="285.71 181.06 275.72 175.27 275.94 173.63 285.91 179.4 285.71 181.06"/><polygon class="cls-8" points="283.08 183.63 275.22 179.05 275.44 177.39 283.29 181.96 283.08 183.63"/><polygon class="cls-8" points="280.42 186.19 274.72 182.85 274.94 181.18 280.63 184.51 280.42 186.19"/><polygon class="cls-8" points="282.55 191.6 274.21 186.69 274.43 185.01 282.76 189.9 282.55 191.6"/><polygon class="cls-8" points="279.44 193.96 273.7 190.56 273.92 188.86 279.66 192.25 279.44 193.96"/><polygon class="cls-8" points="280.5 198.82 273.18 194.46 273.41 192.75 280.72 197.09 280.5 198.82"/><polygon class="cls-8" points="276.66 200.78 272.66 198.39 272.89 196.66 276.88 199.04 276.66 200.78"/><polygon class="cls-8" points="279.93 207.04 272.14 202.35 272.37 200.61 280.15 205.28 279.93 207.04"/><polygon class="cls-8" points="279.01 210.83 271.61 206.35 271.84 204.6 279.24 209.06 279.01 210.83"/><polygon class="cls-8" points="315.08 232.66 318.43 234.69 318.58 232.81 315.24 230.79 315.08 232.66"/><polygon class="cls-8" points="305.22 226.69 312.68 231.21 312.84 229.35 305.4 224.85 305.22 226.69"/></g><g class="cls-35"><polygon class="cls-8" points="259.27 256.51 236.44 243.32 238.07 242.38 260.9 255.56 259.27 256.51"/><polygon class="cls-8" points="272.55 264.17 264.31 259.41 265.94 258.47 274.18 263.23 272.55 264.17"/><polygon class="cls-8" points="279.16 267.99 276.75 266.6 278.38 265.65 280.79 267.05 279.16 267.99"/><polygon class="cls-8" points="291.6 275.17 283.36 270.41 284.99 269.47 293.23 274.23 291.6 275.17"/><polygon class="cls-8" points="239.73 249.12 233.06 245.27 234.69 244.33 241.36 248.18 239.73 249.12"/><polygon class="cls-8" points="269.17 266.12 244.77 252.03 246.4 251.09 270.8 265.18 269.17 266.12"/><polygon class="cls-8" points="275.79 269.94 273.37 268.54 275 267.6 277.42 269 275.79 269.94"/><polygon class="cls-8" points="288.22 277.12 279.98 272.36 281.61 271.42 289.85 276.18 288.22 277.12"/><polygon class="cls-8" points="233.02 249.14 229.69 247.22 231.32 246.28 234.65 248.2 233.02 249.14"/><polygon class="cls-8" points="242.01 254.34 238.06 252.05 239.69 251.11 243.65 253.4 242.01 254.34"/><polygon class="cls-8" points="248.63 258.15 246.21 256.76 247.84 255.82 250.26 257.21 248.63 258.15"/><polygon class="cls-8" points="261.06 265.33 252.82 260.58 254.46 259.64 262.7 264.39 261.06 265.33"/><polygon class="cls-8" points="232.99 253.02 226.31 249.17 227.94 248.22 234.62 252.08 232.99 253.02"/><polygon class="cls-8" points="246.26 260.68 238.02 255.93 239.65 254.99 247.89 259.74 246.26 260.68"/><polygon class="cls-8" points="252.87 264.5 250.46 263.11 252.09 262.17 254.5 263.56 252.87 264.5"/><polygon class="cls-8" points="265.31 271.68 257.07 266.93 258.7 265.98 266.94 270.74 265.31 271.68"/><polygon class="cls-8" points="245.52 264.44 222.69 251.26 224.31 250.32 247.15 263.5 245.52 264.44"/><polygon class="cls-8" points="258.8 272.11 250.56 267.35 252.19 266.41 260.43 271.17 258.8 272.11"/><polygon class="cls-8" points="265.41 275.93 262.99 274.53 264.63 273.59 267.04 274.99 265.41 275.93"/><polygon class="cls-8" points="277.85 283.11 269.61 278.35 271.24 277.41 279.48 282.17 277.85 283.11"/><polygon class="cls-8" points="225.98 257.06 219.31 253.21 220.94 252.27 227.61 256.12 225.98 257.06"/><polygon class="cls-8" points="255.42 274.06 231.02 259.97 232.65 259.03 257.05 273.12 255.42 274.06"/><polygon class="cls-8" points="262.04 277.88 259.62 276.48 261.25 275.54 263.67 276.94 262.04 277.88"/><polygon class="cls-8" points="274.47 285.06 266.23 280.3 267.86 279.36 276.1 284.12 274.47 285.06"/><polygon class="cls-8" points="219.27 257.08 215.94 255.16 217.57 254.22 220.9 256.14 219.27 257.08"/><polygon class="cls-8" points="228.26 262.27 224.31 259.99 225.94 259.05 229.9 261.33 228.26 262.27"/><polygon class="cls-8" points="234.88 266.09 232.46 264.7 234.09 263.76 236.51 265.15 234.88 266.09"/><polygon class="cls-8" points="247.31 273.27 239.07 268.52 240.71 267.57 248.94 272.33 247.31 273.27"/><polygon class="cls-8" points="219.23 260.96 212.56 257.11 214.19 256.16 220.87 260.02 219.23 260.96"/><polygon class="cls-8" points="232.51 268.62 224.27 263.87 225.9 262.92 234.14 267.68 232.51 268.62"/><polygon class="cls-8" points="239.12 272.44 236.71 271.05 238.34 270.11 240.75 271.5 239.12 272.44"/><polygon class="cls-8" points="251.56 279.62 243.32 274.86 244.95 273.92 253.19 278.68 251.56 279.62"/><polygon class="cls-8" points="231.77 272.38 208.93 259.2 210.56 258.26 233.4 271.44 231.77 272.38"/><polygon class="cls-8" points="245.05 280.05 236.81 275.29 238.44 274.35 246.68 279.11 245.05 280.05"/><polygon class="cls-8" points="251.66 283.87 249.24 282.47 250.88 281.53 253.29 282.93 251.66 283.87"/><polygon class="cls-8" points="264.1 291.05 255.86 286.29 257.49 285.35 265.73 290.11 264.1 291.05"/><polygon class="cls-8" points="212.23 265 205.56 261.15 207.19 260.21 213.86 264.06 212.23 265"/><polygon class="cls-8" points="241.67 282 217.27 267.91 218.9 266.97 243.3 281.06 241.67 282"/><polygon class="cls-8" points="248.28 285.81 245.87 284.42 247.5 283.48 249.92 284.87 248.28 285.81"/><polygon class="cls-8" points="260.72 293 252.48 288.24 254.11 287.3 262.35 292.05 260.72 293"/><polygon class="cls-8" points="205.52 265.02 202.19 263.1 203.82 262.15 207.15 264.08 205.52 265.02"/><polygon class="cls-8" points="214.51 270.21 210.56 267.93 212.19 266.99 216.15 269.27 214.51 270.21"/><polygon class="cls-8" points="221.13 274.03 218.71 272.64 220.34 271.69 222.76 273.09 221.13 274.03"/><polygon class="cls-8" points="233.56 281.21 225.32 276.45 226.95 275.51 235.19 280.27 233.56 281.21"/><polygon class="cls-8" points="205.48 268.9 198.81 265.04 200.44 264.1 207.11 267.95 205.48 268.9"/><polygon class="cls-8" points="218.76 276.56 210.52 271.8 212.15 270.86 220.39 275.62 218.76 276.56"/><polygon class="cls-8" points="225.37 280.38 222.96 278.99 224.59 278.04 227 279.44 225.37 280.38"/><polygon class="cls-8" points="237.81 287.56 229.57 282.8 231.2 281.86 239.44 286.62 237.81 287.56"/></g><path class="cls-36" d="M171.85,163.33,140.08,145l31.77-18.35L203.63,145Zm-30-18.34,30,17.34,30-17.34-30-17.35Z"/><path class="cls-36" d="M109,380.64,77.27,362.29,109,344l31.78,18.35ZM79,362.29l30,17.35,30-17.34L109,345Z"/><path class="cls-36" d="M328.4,36.69,296.62,18.34,328.4,0l31.77,18.34Zm-30-18.35,30,17.35,30-17.35L328.4,1Z"/><path class="cls-36" d="M454.4,326.24l-31.77-18.35,31.77-18.34,31.77,18.35Zm-30-18.35,30,17.35,30-17.34-30-17.35Z"/></g></g></svg>