<svg xmlns="http://www.w3.org/2000/svg" xmlns:xlink="http://www.w3.org/1999/xlink" viewBox="0 0 539 340"><defs><style>.cls-1{fill:url(#Áĺçűě_ííűé_ăđŕäčĺíň_127);}.cls-2{fill:#fff;}.cls-3{fill:url(#Áĺçűě_ííűé_ăđŕäčĺíň_104);}.cls-4{fill:url(#Áĺçűě_ííűé_ăđŕäčĺíň_94);}.cls-5{fill:url(#Áĺçűě_ííűé_ăđŕäčĺíň_126);}.cls-6{fill:url(#Áĺçűě_ííűé_ăđŕäčĺíň_126-2);}.cls-7{fill:url(#Áĺçűě_ííűé_ăđŕäčĺíň_127-2);}.cls-8{fill:#fcc29f;}.cls-9{fill:#fba999;}.cls-10{fill:#451376;opacity:0.3;}.cls-11{fill:url(#Áĺçűě_ííűé_ăđŕäčĺíň_126-3);}.cls-12{opacity:0.8;fill:url(#Áĺçűě_ííűé_ăđŕäčĺíň_126-4);}</style><linearGradient id="Áĺçűě_ííűé_ăđŕäčĺíň_127" x1="481.13" y1="362.98" x2="77.03" y2="6.29" gradientUnits="userSpaceOnUse"><stop offset="0" stop-color="#f88b93"/><stop offset="0.21" stop-color="#d76d8e"/><stop offset="0.57" stop-color="#a23d87"/><stop offset="0.85" stop-color="#811f82"/><stop offset="1" stop-color="#751480"/></linearGradient><linearGradient id="Áĺçűě_ííűé_ăđŕäčĺíň_104" x1="47.15" y1="101.78" x2="135.65" y2="101.78" gradientUnits="userSpaceOnUse"><stop offset="0" stop-color="#f88b93"/><stop offset="0.15" stop-color="#f99595"/><stop offset="0.7" stop-color="#fbb69c"/><stop offset="1" stop-color="#fcc29f"/></linearGradient><radialGradient id="Áĺçűě_ííűé_ăđŕäčĺíň_94" cx="-16163.57" cy="-17856.14" r="214.04" gradientTransform="translate(-15843 -14638.65) rotate(180) scale(1 0.83)" xlink:href="#Áĺçűě_ííűé_ăđŕäčĺíň_127"/><linearGradient id="Áĺçűě_ííűé_ăđŕäčĺíň_126" x1="84.18" y1="240.94" x2="-124.24" y2="213.48" gradientTransform="matrix(0.59, 0.5, -1.19, 0.58, 656.29, -51.63)" gradientUnits="userSpaceOnUse"><stop offset="0" stop-color="#fcba9d"/><stop offset="0.56" stop-color="#ee8594"/><stop offset="1" stop-color="#e4608d"/></linearGradient><linearGradient id="Áĺçűě_ííűé_ăđŕäčĺíň_126-2" x1="734.58" y1="143.45" x2="848.68" y2="126.82" gradientTransform="matrix(-0.87, -0.34, -1, 0.69, 1272.53, 304.65)" xlink:href="#Áĺçűě_ííűé_ăđŕäčĺíň_126"/><linearGradient id="Áĺçűě_ííűé_ăđŕäčĺíň_127-2" x1="263.96" y1="164.34" x2="104.61" y2="98.04" gradientTransform="matrix(0.87, 0.5, -0.87, 0.5, 388.55, -10.95)" xlink:href="#Áĺçűě_ííűé_ăđŕäčĺíň_127"/><linearGradient id="Áĺçűě_ííűé_ăđŕäčĺíň_126-3" x1="-623.64" y1="-176.05" x2="-544.39" y2="-176.05" gradientTransform="translate(662.86 209.24)" xlink:href="#Áĺçűě_ííűé_ăđŕäčĺíň_126"/><linearGradient id="Áĺçűě_ííűé_ăđŕäčĺíň_126-4" x1="-654.21" y1="-184.49" x2="-574.96" y2="-184.49" gradientTransform="translate(666.35 217.68)" xlink:href="#Áĺçűě_ííűé_ăđŕäčĺíň_126"/></defs><title>Email</title><g id="Ebene_2" data-name="Ebene 2"><g id="Ńëîé_1" data-name="Ńëîé 1"><path class="cls-1" d="M242.1,336.55a10.21,10.21,0,0,0-3.23-1.13L245.09,322l6.26-13.48a12.55,12.55,0,0,0,7.49-1.3c2-1.13,2.73-2.69,2.3-4.16l23.21-3.59,23.4-3.62a5.31,5.31,0,0,0,1.89,1.71,13,13,0,0,0,11.16.24l33.82,19.52.31.18c-2.77,1.88-2.63,4.69.44,6.46a10.37,10.37,0,0,0,3.24,1.14l-6.23,13.41-.69,1.49h1l.58-1.26,6.26-13.48a12.57,12.57,0,0,0,7.49-1.3c2-1.13,2.72-2.69,2.3-4.16l23.21-3.59L416,312.59a5.39,5.39,0,0,0,1.89,1.71,13,13,0,0,0,11.17.24l34.13,19.7c-2.43,1.64-2.62,4-.57,5.76h13.67a3.27,3.27,0,0,0,1.31-3.45l23.22-3.6,23.39-3.61a5.47,5.47,0,0,0,1.89,1.7,13,13,0,0,0,11.17.24l1.78,1v-1.07l-.52-.3-.31-.18a5.81,5.81,0,0,0,.83-.68v-4.83a6.47,6.47,0,0,0-1.27-.95,10.63,10.63,0,0,0-3.24-1.14l4.51-9.71v-2.21L533.54,323a12.57,12.57,0,0,0-7.49,1.3c-2,1.13-2.72,2.69-2.3,4.16l-23.21,3.59-23.39,3.62a5.39,5.39,0,0,0-1.89-1.71,13,13,0,0,0-11.17-.24L430,314c2.76-1.88,2.62-4.69-.45-6.46a10.31,10.31,0,0,0-3.23-1.14L432.51,293l6.26-13.48a12.56,12.56,0,0,0,7.49-1.3c2-1.13,2.72-2.69,2.3-4.16l23.21-3.59,23.39-3.62a5.53,5.53,0,0,0,1.9,1.71,13,13,0,0,0,11.16.24L539,286.58V285.5l-29.51-17-.31-.18c2.76-1.87,2.62-4.68-.45-6.46a10.56,10.56,0,0,0-3.23-1.13l6.22-13.41L518,233.79a12.63,12.63,0,0,0,7.49-1.29c2-1.13,2.72-2.69,2.3-4.16L539,226.6v-.94l-11.64,1.8a5.38,5.38,0,0,0-1.89-1.7,13,13,0,0,0-11.16-.25L480.49,206l-.31-.18c2.77-1.87,2.63-4.69-.44-6.46a10.36,10.36,0,0,0-3.24-1.13l6.23-13.42L489,171.32a12.67,12.67,0,0,0,7.5-1.29c2-1.14,2.72-2.7,2.3-4.16l23.21-3.6,17-2.63v-.94l-17.24,2.67L498.37,165a5.49,5.49,0,0,0-1.89-1.71,13,13,0,0,0-11.17-.24L451.5,143.52l-.31-.18c2.76-1.87,2.62-4.69-.45-6.46a10.57,10.57,0,0,0-3.23-1.14l6.22-13.41L460,108.85a12.56,12.56,0,0,0,7.49-1.3c2-1.13,2.72-2.69,2.3-4.16L524,95l15,8.65v-1.08l-14.65-8.46-.14-.08-54.84,8.48a5.38,5.38,0,0,0-1.89-1.7,13,13,0,0,0-11.16-.24l-34.13-19.7c2.77-1.88,2.63-4.69-.44-6.46a10.37,10.37,0,0,0-3.24-1.14l14.74-31.75L387.15,14.9l-.15-.08L332.17,23.3a5.47,5.47,0,0,0-1.89-1.7,13,13,0,0,0-11.17-.25L285,1.65A4.9,4.9,0,0,0,286.57,0h-20.2l-19,2.94L224,6.56a5.29,5.29,0,0,0-1.89-1.7,13,13,0,0,0-11.16-.25l-8-4.61h-1.87l8.59,5,.31.18c-2.77,1.87-2.62,4.69.45,6.46a10.47,10.47,0,0,0,3.23,1.13l-6.22,13.42-6.26,13.48a12.62,12.62,0,0,0-7.49,1.29c-2,1.14-2.73,2.7-2.3,4.16l-23.21,3.59-23.4,3.62a5.38,5.38,0,0,0-1.89-1.7,13,13,0,0,0-11.16-.24L97.88,30.82l-.31-.18c2.77-1.87,2.63-4.69-.44-6.46a10.62,10.62,0,0,0-3.24-1.13l6.23-13.41L104.59,0h-1L99.2,9.4,92.94,22.89a12.65,12.65,0,0,0-7.49,1.29c-2,1.14-2.72,2.7-2.3,4.16L59.94,31.93,36.55,35.55a5.47,5.47,0,0,0-1.89-1.7,13,13,0,0,0-11.17-.24L0,20v1.08L22.22,34l.32.18c-2.77,1.87-2.63,4.69.44,6.46a10.3,10.3,0,0,0,3.23,1.13L20,55.14,13.73,68.62a12.56,12.56,0,0,0-7.49,1.3c-2,1.13-2.72,2.69-2.3,4.15L0,74.68v.95L4.35,75a5.31,5.31,0,0,0,1.89,1.71,13,13,0,0,0,11.16.24L51.53,96.6c-2.77,1.88-2.62,4.69.44,6.46a10.37,10.37,0,0,0,3.24,1.14L49,117.61l-6.25,13.48a12.59,12.59,0,0,0-7.5,1.3c-2,1.13-2.72,2.69-2.29,4.16L9.72,140.14,0,141.64v1l10-1.54,23.39-3.62a5.47,5.47,0,0,0,1.89,1.7,13,13,0,0,0,11.17.24L80.21,158.9l.32.18c-2.77,1.87-2.63,4.69.44,6.46a10.56,10.56,0,0,0,3.23,1.13L78,180.08l-6.26,13.49a12.63,12.63,0,0,0-7.49,1.29c-2,1.13-2.72,2.69-2.3,4.16l-23.21,3.59-23.39,3.62a5.51,5.51,0,0,0-1.9-1.7,13,13,0,0,0-11.16-.25L0,203v1.08l1.31.76A5.37,5.37,0,0,0,0,206v3.73a5.81,5.81,0,0,0,1.76,1.5A10.3,10.3,0,0,0,5,212.4L0,223.16v2.21l5.94-12.8a12.74,12.74,0,0,0,7.5-1.3c2-1.13,2.72-2.69,2.29-4.16L39,203.52l23.39-3.62a5.29,5.29,0,0,0,1.89,1.7,13,13,0,0,0,11.17.25l33.81,19.52.31.18c-2.77,1.87-2.62,4.69.44,6.46a10.36,10.36,0,0,0,3.24,1.13L107,242.56,100.72,256a12.59,12.59,0,0,0-7.5,1.3c-2,1.13-2.72,2.69-2.29,4.15l-54.25,8.4L0,248.71v1.07l36.36,21,.14.09,54.83-8.49a5.58,5.58,0,0,0,1.89,1.71,13,13,0,0,0,11.17.24L138.52,284c-2.77,1.88-2.63,4.69.44,6.46a10.57,10.57,0,0,0,3.23,1.14l-14.73,31.75L156.26,340h1.86l-29.46-17,14.49-31.21a12.57,12.57,0,0,0,7.49-1.3c2-1.13,2.72-2.69,2.3-4.16l23.21-3.59,23.39-3.62a5.39,5.39,0,0,0,1.89,1.71,13,13,0,0,0,11.17.24l33.63,19.42.49.28c-2.77,1.88-2.62,4.69.45,6.46a10.48,10.48,0,0,0,3.23,1.14l-6.22,13.41-6.26,13.48a12.55,12.55,0,0,0-7.49,1.3c-1.65.95-2.44,2.2-2.4,3.45h16.48C244.55,338.75,243.75,337.5,242.1,336.55Zm189.49-43.77-6.25,13.48a12.59,12.59,0,0,0-7.5,1.3c-2,1.13-2.72,2.69-2.29,4.16l-23.22,3.59-23.39,3.61a5.47,5.47,0,0,0-1.89-1.7,13,13,0,0,0-11.17-.24l-33.81-19.52-.31-.18c2.77-1.88,2.62-4.69-.44-6.46a10.37,10.37,0,0,0-3.24-1.14l6.23-13.41,6.25-13.48a12.62,12.62,0,0,0,7.49-1.3c2-1.13,2.73-2.69,2.3-4.16l23.22-3.59L387,250.12a5.4,5.4,0,0,0,1.89,1.71,13,13,0,0,0,11.16.24l33.82,19.52.31.18c-2.77,1.87-2.62,4.69.44,6.46a10.36,10.36,0,0,0,3.24,1.13ZM292.32,228.34a10.56,10.56,0,0,0-3.23-1.13l6.22-13.41,6.26-13.49a12.65,12.65,0,0,0,7.49-1.29c2-1.13,2.72-2.69,2.3-4.16l23.21-3.59L358,187.65a5.47,5.47,0,0,0,1.89,1.7,13,13,0,0,0,11.17.24l34.13,19.71c-2.77,1.87-2.63,4.69.44,6.46a10.56,10.56,0,0,0,3.23,1.13l-6.22,13.42-6.26,13.48a12.63,12.63,0,0,0-7.49,1.29c-2,1.14-2.72,2.7-2.3,4.16l-23.21,3.59L340,256.45a5.51,5.51,0,0,0-1.9-1.7,13,13,0,0,0-11.16-.24L293.07,235l-.31-.18C295.53,232.93,295.39,230.11,292.32,228.34Zm-14,4.16-23.21,3.59-23.39,3.62a5.47,5.47,0,0,0-1.89-1.7,13,13,0,0,0-11.17-.24l-34.12-19.71c2.76-1.87,2.62-4.69-.45-6.46a10.47,10.47,0,0,0-3.23-1.13l6.22-13.41,6.26-13.49a12.62,12.62,0,0,0,7.49-1.29c2-1.14,2.72-2.69,2.3-4.16l23.21-3.59,23.4-3.62a5.38,5.38,0,0,0,1.89,1.7,13,13,0,0,0,11.16.24l33.82,19.53.31.18c-2.77,1.87-2.63,4.69.44,6.46a10.62,10.62,0,0,0,3.24,1.13l-6.23,13.41-6.26,13.49a12.65,12.65,0,0,0-7.49,1.29C278.68,229.48,277.92,231,278.34,232.5ZM155.12,149.13a10.36,10.36,0,0,0-3.24-1.13l6.23-13.42,6.26-13.48a12.57,12.57,0,0,0,7.49-1.3c2-1.13,2.72-2.69,2.3-4.15l23.21-3.6,23.39-3.61a5.47,5.47,0,0,0,1.89,1.7,13,13,0,0,0,11.17.24l33.81,19.52.31.18c-2.76,1.88-2.62,4.69.45,6.46a10.22,10.22,0,0,0,3.23,1.14l-6.22,13.41-6.26,13.48a12.7,12.7,0,0,0-7.49,1.3c-2,1.13-2.72,2.69-2.3,4.16l-23.21,3.59-23.4,3.62a5.4,5.4,0,0,0-1.89-1.71,13,13,0,0,0-11.16-.24l-33.82-19.52-.31-.18C158.33,153.72,158.19,150.9,155.12,149.13Zm98.25-79.22,23.21-3.59L300,62.7a5.49,5.49,0,0,0,1.89,1.71,13,13,0,0,0,11.17.24l33.81,19.52.31.18c-2.76,1.87-2.62,4.69.45,6.46a10.3,10.3,0,0,0,3.23,1.13l-6.22,13.42-6.26,13.48a12.56,12.56,0,0,0-7.49,1.3c-2,1.13-2.72,2.69-2.3,4.16l-23.21,3.59L282,131.51a5.31,5.31,0,0,0-1.89-1.71,13,13,0,0,0-11.16-.24L235.08,110l-.31-.18c2.77-1.88,2.63-4.69-.44-6.46a10.63,10.63,0,0,0-3.24-1.14l6.23-13.41,6.26-13.48a12.57,12.57,0,0,0,7.49-1.3C253,72.94,253.79,71.38,253.37,69.91Zm123.22,83.37a10.37,10.37,0,0,0,3.24,1.14l-6.23,13.41-6.25,13.48a12.74,12.74,0,0,0-7.5,1.3c-2,1.13-2.72,2.69-2.29,4.16l-23.22,3.59L311,194a5.49,5.49,0,0,0-1.89-1.71,13,13,0,0,0-11.17-.24l-33.81-19.52-.31-.18c2.77-1.87,2.62-4.69-.44-6.46a10.36,10.36,0,0,0-3.24-1.13l6.22-13.42,6.26-13.48a12.55,12.55,0,0,0,7.49-1.3c2-1.13,2.73-2.69,2.3-4.15l23.21-3.6,23.4-3.61a5.38,5.38,0,0,0,1.89,1.7,13,13,0,0,0,11.16.24l33.82,19.52.31.18C373.38,148.7,373.52,151.51,376.59,153.28Zm102.64,53.06L513,225.86l.31.18c-2.77,1.87-2.62,4.69.44,6.46a10.36,10.36,0,0,0,3.24,1.13l-6.23,13.42-6.25,13.48a12.62,12.62,0,0,0-7.49,1.29c-2,1.14-2.73,2.7-2.3,4.16l-23.21,3.59-23.4,3.62a5.38,5.38,0,0,0-1.89-1.7,13,13,0,0,0-11.16-.24l-33.82-19.53-.31-.18c2.77-1.87,2.63-4.68-.44-6.46a10.62,10.62,0,0,0-3.24-1.13l6.23-13.41,6.25-13.49a12.67,12.67,0,0,0,7.5-1.29c2-1.13,2.72-2.69,2.29-4.16L442.78,208l23.39-3.62a5.47,5.47,0,0,0,1.89,1.7A13,13,0,0,0,479.23,206.34Zm-29-62.48L484,163.38l.32.18c-2.77,1.88-2.63,4.69.44,6.46a10.31,10.31,0,0,0,3.23,1.14l-6.22,13.41-6.26,13.49a12.65,12.65,0,0,0-7.49,1.29c-2,1.13-2.72,2.69-2.3,4.16l-23.21,3.59-23.39,3.62a5.37,5.37,0,0,0-1.89-1.7,13,13,0,0,0-11.17-.25L372,189.07c2.77-1.87,2.63-4.69-.44-6.46a10.3,10.3,0,0,0-3.23-1.13l6.22-13.42,6.26-13.48a12.56,12.56,0,0,0,7.49-1.3c2-1.13,2.72-2.69,2.3-4.15l23.21-3.6,23.39-3.61a5.42,5.42,0,0,0,1.9,1.7A13,13,0,0,0,450.23,143.86Zm-29-62.47,34.12,19.7c-2.77,1.87-2.62,4.69.44,6.46a10.63,10.63,0,0,0,3.24,1.14l-6.23,13.41-6.25,13.48a12.59,12.59,0,0,0-7.5,1.3c-2,1.13-2.72,2.69-2.29,4.16l-23.22,3.59-23.39,3.62a5.4,5.4,0,0,0-1.89-1.71,13,13,0,0,0-11.16-.24l-33.82-19.52-.31-.18c2.77-1.88,2.62-4.69-.44-6.46A10.63,10.63,0,0,0,339.3,119l6.23-13.41,6.25-13.48a12.59,12.59,0,0,0,7.5-1.3c2-1.13,2.72-2.69,2.29-4.16l23.22-3.59,23.39-3.62a5.49,5.49,0,0,0,1.89,1.71A13,13,0,0,0,421.24,81.39Zm-91-53c2-1.13,2.72-2.69,2.3-4.16l54.24-8.39L432.05,41.9,417.56,73.11a12.65,12.65,0,0,0-7.49,1.29c-2,1.14-2.72,2.7-2.3,4.16l-23.21,3.59-23.39,3.62a5.47,5.47,0,0,0-1.89-1.7,13,13,0,0,0-11.17-.24L314.3,64.31l-.32-.19c2.77-1.87,2.63-4.68-.44-6.46a10.56,10.56,0,0,0-3.23-1.13l6.22-13.41,6.26-13.49A12.65,12.65,0,0,0,330.28,28.34Zm-122-2,6.26-13.49a12.62,12.62,0,0,0,7.49-1.29c2-1.13,2.73-2.69,2.3-4.16l23.21-3.59L271,.23a5.38,5.38,0,0,0,1.89,1.7A13,13,0,0,0,284,2.18l34.13,19.7c-2.77,1.87-2.63,4.69.44,6.46a10.36,10.36,0,0,0,3.24,1.13l-6.23,13.42-6.25,13.48a12.67,12.67,0,0,0-7.5,1.29c-2,1.14-2.72,2.7-2.3,4.16l-23.21,3.59L253,69a5.47,5.47,0,0,0-1.89-1.7,13,13,0,0,0-11.17-.24L205.78,47.38c2.77-1.87,2.62-4.68-.45-6.46a10.47,10.47,0,0,0-3.23-1.13Zm-65.46,31c2-1.13,2.72-2.69,2.3-4.16l23.21-3.59L191.77,46a5.4,5.4,0,0,0,1.89,1.71,13,13,0,0,0,11.16.24L239,67.61c-2.77,1.87-2.63,4.69.44,6.46a10.36,10.36,0,0,0,3.24,1.13L236.4,88.62l-6.26,13.48a12.57,12.57,0,0,0-7.49,1.3c-2,1.13-2.72,2.69-2.3,4.16l-23.21,3.59-23.39,3.62a5.39,5.39,0,0,0-1.89-1.71,13,13,0,0,0-11.17-.24L126.88,93.3l-.31-.18c2.76-1.88,2.62-4.69-.45-6.46a10.31,10.31,0,0,0-3.23-1.14l6.22-13.41,6.26-13.48A12.56,12.56,0,0,0,142.86,57.33ZM52.48,96.08,18.36,76.38c2.77-1.88,2.62-4.69-.44-6.46a10.37,10.37,0,0,0-3.24-1.14l6.23-13.41,6.25-13.48a12.67,12.67,0,0,0,7.5-1.3c2-1.13,2.72-2.69,2.29-4.16l23.22-3.59,23.39-3.62a5.49,5.49,0,0,0,1.89,1.71,13,13,0,0,0,11.17.24l33.81,19.52.31.18c-2.77,1.87-2.62,4.69.44,6.46a10.36,10.36,0,0,0,3.24,1.13l-6.23,13.42-6.25,13.48a12.55,12.55,0,0,0-7.49,1.3c-2,1.13-2.73,2.69-2.3,4.16L88.93,94.41,65.54,98a5.31,5.31,0,0,0-1.89-1.71A13,13,0,0,0,52.48,96.08Zm29,62.47L47.67,139l-.32-.18c2.77-1.87,2.63-4.69-.44-6.46a10.3,10.3,0,0,0-3.23-1.13l6.22-13.42,6.26-13.48a12.56,12.56,0,0,0,7.49-1.3c2-1.13,2.72-2.69,2.3-4.16l23.21-3.59,23.39-3.61a5.51,5.51,0,0,0,1.9,1.7,13,13,0,0,0,11.16.24l33.82,19.52.31.18c-2.77,1.88-2.63,4.69.44,6.46a10.4,10.4,0,0,0,3.23,1.14l-6.22,13.41-6.26,13.48a12.65,12.65,0,0,0-7.49,1.3c-2,1.13-2.72,2.69-2.3,4.16l-23.21,3.59L94.54,160.5a5.49,5.49,0,0,0-1.89-1.71A13,13,0,0,0,81.48,158.55Zm29,62.47L76.66,201.5l-.31-.18c2.77-1.87,2.63-4.69-.44-6.46a10.62,10.62,0,0,0-3.24-1.13l6.23-13.41,6.25-13.49a12.67,12.67,0,0,0,7.5-1.29c2-1.14,2.72-2.69,2.29-4.16l23.22-3.59,23.39-3.62a5.47,5.47,0,0,0,1.89,1.7,13,13,0,0,0,11.17.24l33.81,19.53.31.18c-2.77,1.87-2.62,4.69.44,6.46a10.62,10.62,0,0,0,3.24,1.13l-6.22,13.41-6.26,13.49a12.62,12.62,0,0,0-7.49,1.29c-2,1.13-2.73,2.69-2.3,4.16l-23.21,3.59L123.53,223a5.38,5.38,0,0,0-1.89-1.7A13,13,0,0,0,110.48,221Zm91,53.06c-2,1.13-2.72,2.69-2.3,4.15l-23.21,3.6-23.39,3.61a5.47,5.47,0,0,0-1.89-1.7,13,13,0,0,0-11.17-.24l-34.13-19.7c2.77-1.88,2.63-4.69-.44-6.46a10.31,10.31,0,0,0-3.23-1.14l6.22-13.41,6.26-13.48a12.71,12.71,0,0,0,7.49-1.3c2-1.13,2.72-2.69,2.3-4.16l23.21-3.59,23.39-3.62a5.53,5.53,0,0,0,1.9,1.71,13,13,0,0,0,11.16.24l34.13,19.7c-2.77,1.87-2.63,4.69.44,6.46a10.36,10.36,0,0,0,3.24,1.13l-6.23,13.42-6.26,13.48A12.57,12.57,0,0,0,201.43,274.08Zm46.25,26.16-33.63-19.42-.5-.28c2.77-1.88,2.63-4.69-.44-6.46a10.37,10.37,0,0,0-3.24-1.14l6.23-13.41,6.26-13.48a12.65,12.65,0,0,0,7.49-1.3c2-1.13,2.72-2.69,2.3-4.16L255.36,237l23.39-3.62a5.49,5.49,0,0,0,1.89,1.71,13,13,0,0,0,11.17.24l33.81,19.52.31.18c-2.76,1.87-2.62,4.69.45,6.46a10.3,10.3,0,0,0,3.23,1.13L323.39,276l-6.26,13.48a12.56,12.56,0,0,0-7.49,1.3c-2,1.13-2.72,2.69-2.3,4.16l-23.21,3.59-23.4,3.61a5.38,5.38,0,0,0-1.89-1.7A13,13,0,0,0,247.68,300.24Z"/><path class="cls-2" d="M36.5,87.32V61h11v3.38H41.3v7.57h4.93V75.3H41.3V84h6.31v3.32Z"/><path class="cls-2" d="M50.33,87.32,50.76,61h4.92L59.5,79.49,63.43,61h4.81l.45,26.35H65.06l-.31-18.15L61,87.32H58.13L54.29,69.11,54,87.32Z"/><path class="cls-2" d="M71.22,87.32,76.57,61h5l5.34,26.35H82.45L81.39,81.2H76.83l-1.08,6.12Zm6.12-9.25h3.52L79.1,67.25Z"/><path class="cls-2" d="M89.65,87.32V61h4.74V87.32Z"/><path class="cls-2" d="M98.44,87.32V61h4.8V84h6.32v3.32Z"/><path class="cls-2" d="M120,87.32,120.43,61h4.93l3.81,18.52L133.1,61h4.81l.45,26.35h-3.63l-.31-18.15-3.8,18.15H127.8L124,69.11l-.29,18.21Z"/><path class="cls-2" d="M140.89,87.32,146.24,61h5l5.34,26.35h-4.47l-1.06-6.12H146.5l-1.08,6.12ZM147,78.07h3.53l-1.77-10.82Z"/><path class="cls-2" d="M165.83,87.64q-7,0-7.32-8l4.19-.88c.1,3.49,1.1,5.23,3,5.23a2,2,0,0,0,1.63-.66,2.8,2.8,0,0,0,.54-1.8,5.08,5.08,0,0,0-.4-2,5.65,5.65,0,0,0-.92-1.5,20.29,20.29,0,0,0-1.5-1.43l-3.46-3a9.67,9.67,0,0,1-2.28-2.77,7.87,7.87,0,0,1-.74-3.6,6.23,6.23,0,0,1,1.8-4.77,7,7,0,0,1,5-1.73,7.48,7.48,0,0,1,2.56.35,5.56,5.56,0,0,1,1.84,1,5.48,5.48,0,0,1,1.21,1.57,8.63,8.63,0,0,1,.72,2,14.1,14.1,0,0,1,.33,2.25l-4.1.81c0-.53-.05-1-.1-1.39a7.43,7.43,0,0,0-.25-1.19,3.08,3.08,0,0,0-.45-1,2.07,2.07,0,0,0-1.84-.77,2.28,2.28,0,0,0-1.63.71,2.55,2.55,0,0,0-.56,1.73,4,4,0,0,0,.5,2.09,8,8,0,0,0,1.57,1.75l3.43,3A17.48,17.48,0,0,1,170,75.05a12.42,12.42,0,0,1,1.22,1.67,7.38,7.38,0,0,1,.88,2.07,9.18,9.18,0,0,1,.3,2.38,6.23,6.23,0,0,1-1.82,4.67A6.48,6.48,0,0,1,165.83,87.64Z"/><path class="cls-2" d="M181.88,87.64q-7,0-7.31-8l4.18-.88c.11,3.49,1.1,5.23,3,5.23a2,2,0,0,0,1.63-.66,2.85,2.85,0,0,0,.53-1.8,4.91,4.91,0,0,0-.4-2,5.4,5.4,0,0,0-.92-1.5c-.35-.38-.85-.86-1.49-1.43l-3.47-3a9.63,9.63,0,0,1-2.27-2.77,7.74,7.74,0,0,1-.75-3.6,6.2,6.2,0,0,1,1.81-4.77,7,7,0,0,1,5-1.73,7.56,7.56,0,0,1,2.56.35,5.5,5.5,0,0,1,1.83,1A5.31,5.31,0,0,1,187,63.59a8.18,8.18,0,0,1,.72,2,15.28,15.28,0,0,1,.34,2.25l-4.1.81c0-.53-.06-1-.11-1.39a7.38,7.38,0,0,0-.24-1.19,3.08,3.08,0,0,0-.46-1,2,2,0,0,0-.74-.59,2.15,2.15,0,0,0-1.09-.18,2.26,2.26,0,0,0-1.63.71,2.51,2.51,0,0,0-.57,1.73,4,4,0,0,0,.5,2.09,8.26,8.26,0,0,0,1.57,1.75l3.43,3a17.69,17.69,0,0,1,1.5,1.51,12.39,12.39,0,0,1,1.21,1.67,7.4,7.4,0,0,1,.89,2.07,9.18,9.18,0,0,1,.3,2.38,6.27,6.27,0,0,1-1.82,4.67A6.5,6.5,0,0,1,181.88,87.64Z"/><path class="cls-2" d="M189.93,87.32,195.28,61h5l5.34,26.35h-4.47L200.1,81.2h-4.56l-1.08,6.12Zm6.12-9.25h3.52l-1.76-10.82Z"/><path class="cls-2" d="M214.74,87.67c-2.49,0-4.29-.78-5.38-2.33s-1.65-3.83-1.65-6.81V70a18.57,18.57,0,0,1,.36-3.92,8.25,8.25,0,0,1,1.2-2.89,5.15,5.15,0,0,1,2.32-1.85,9.27,9.27,0,0,1,3.63-.62c2.6,0,4.47.63,5.61,1.91s1.7,3.21,1.7,5.81v1.29h-4.6V68.31c0-.58,0-1.06,0-1.43a5.59,5.59,0,0,0-.19-1.12,2,2,0,0,0-.43-.87,2.22,2.22,0,0,0-.78-.49,3.31,3.31,0,0,0-1.21-.19,3.48,3.48,0,0,0-1,.13,2.76,2.76,0,0,0-.71.34,1.57,1.57,0,0,0-.48.56,3.57,3.57,0,0,0-.31.71,5,5,0,0,0-.16.88c0,.36-.06.68-.07,1s0,.63,0,1.06V79.49a7.77,7.77,0,0,0,.58,3.48,2.31,2.31,0,0,0,2.25,1.11,2.83,2.83,0,0,0,1.43-.33,2.17,2.17,0,0,0,.91-1,5.14,5.14,0,0,0,.46-1.51,13.32,13.32,0,0,0,.14-2.06V77H215.5v-3.1h7.17V87.32h-3.12l-.34-2.67A4.42,4.42,0,0,1,214.74,87.67Z"/><path class="cls-2" d="M226.29,87.32V61h11v3.38h-6.24v7.57H236V75.3h-4.93V84h6.32v3.32Z"/><path class="cls-2" d="M246.82,87.64c-4.65,0-7.08-2.68-7.32-8l4.18-.88q.16,5.23,3,5.23a2,2,0,0,0,1.63-.66,2.8,2.8,0,0,0,.54-1.8,5.08,5.08,0,0,0-.4-2,5.65,5.65,0,0,0-.92-1.5,20.29,20.29,0,0,0-1.5-1.43l-3.46-3a9.67,9.67,0,0,1-2.28-2.77,7.75,7.75,0,0,1-.74-3.6,6.23,6.23,0,0,1,1.8-4.77,7,7,0,0,1,4.95-1.73,7.48,7.48,0,0,1,2.56.35,5.66,5.66,0,0,1,1.84,1,5.28,5.28,0,0,1,1.2,1.57,8.21,8.21,0,0,1,.73,2,14.1,14.1,0,0,1,.33,2.25l-4.1.81c0-.53,0-1-.1-1.39A7.43,7.43,0,0,0,248.5,66a3.31,3.31,0,0,0-.45-1,2.07,2.07,0,0,0-1.84-.77,2.28,2.28,0,0,0-1.63.71,2.55,2.55,0,0,0-.56,1.73,3.92,3.92,0,0,0,.5,2.09,7.74,7.74,0,0,0,1.57,1.75l3.43,3A17.48,17.48,0,0,1,251,75.05a12.42,12.42,0,0,1,1.22,1.67,7.38,7.38,0,0,1,.88,2.07,9.18,9.18,0,0,1,.3,2.38,6.23,6.23,0,0,1-1.82,4.67A6.48,6.48,0,0,1,246.82,87.64Z"/><path class="cls-3" d="M134.15,103.28H48.65a1.5,1.5,0,0,1,0-3h85.5a1.5,1.5,0,0,1,0,3Z"/><polygon class="cls-4" points="353.17 211.75 511.58 75.8 366.97 175.22 353.17 211.75"/><polygon class="cls-4" points="353.17 211.75 511.58 75.8 366.97 175.22 353.17 211.75"/><polygon class="cls-5" points="511.58 75.8 339.37 159.29 282.79 126.62 511.58 75.8"/><polygon class="cls-6" points="511.58 75.8 366.97 175.22 423.55 207.89 511.58 75.8"/><polygon class="cls-7" points="366.97 175.22 511.58 75.8 339.37 159.29 353.17 211.75 366.97 175.22"/><polygon class="cls-8" points="336.85 157.83 511.58 75.8 339.37 159.29 336.85 157.83"/><polygon class="cls-9" points="366.97 175.22 511.58 75.8 369.23 176.53 366.97 175.22"/><polygon class="cls-10" points="474.92 215.56 319.45 250.1 356.19 271.31 356.19 271.31 357.9 272.3 378.43 270.82 388.33 289.87 415.1 305.32 474.92 215.56"/><rect class="cls-11" x="47.39" y="24.75" width="16.89" height="16.89" transform="translate(39.82 -29.76) rotate(45)"/><rect class="cls-12" x="59.33" y="24.75" width="16.89" height="16.89" transform="translate(43.32 -38.2) rotate(45)"/></g></g></svg>