<svg xmlns="http://www.w3.org/2000/svg" viewBox="0 0 2492.83 1041.21"><defs><style>.cls-1{fill:#fff;}</style></defs><title>Git</title><g id="Ebene_2" data-name="Ebene 2"><g id="Ebene_1-2" data-name="Ebene 1"><path class="cls-1" d="M1494,354.4c-54.66,0-95.36,26.84-95.36,91.43,0,48.66,26.82,82.45,92.41,82.45,55.59,0,93.36-32.76,93.36-84.47,0-58.6-33.79-89.41-90.41-89.41ZM1384.7,810.47c-12.94,15.87-25.83,32.74-25.83,52.64,0,39.71,50.64,51.67,120.21,51.67,57.62,0,136.12-4,136.12-57.62,0-31.85-37.77-33.81-85.48-36.8l-145-9.89ZM1678.77,357.4c17.85,22.85,36.76,54.66,36.76,100.35,0,110.28-86.44,174.85-211.59,174.85-31.83,0-60.64-4-78.5-8.93l-32.8,52.64,97.35,6c171.9,11,273.2,15.93,273.2,148,0,114.28-100.32,178.82-273.2,178.82-179.81,0-248.37-45.7-248.37-124.18,0-44.71,19.88-68.5,54.65-101.35-32.79-13.85-43.71-38.68-43.71-65.52,0-21.88,10.92-41.73,28.83-60.63s37.73-37.74,61.58-59.6c-48.67-23.85-85.45-75.51-85.45-149,0-114.23,75.52-192.69,227.49-192.69,42.74,0,68.58,3.93,91.43,9.94h193.75v84.41l-91.42,7ZM1945,176.87c-56.64,0-89.42-32.82-89.42-89.47S1888.32,0,1945,0c57.62,0,90.41,30.83,90.41,87.4S2002.6,176.87,1945,176.87Zm-128.18,597V695.46l50.68-6.93c13.92-2,15.89-5,15.89-19.91V376.53c0-10.9-3-17.89-12.94-20.84l-53.63-18.89,10.92-80.45h205.67V668.62c0,15.92,1,17.9,15.91,19.92l50.66,6.93v78.44Zm676-38.52c-42.73,20.85-105.32,39.73-162,39.73-118.22,0-162.91-47.64-162.91-160V354.89c0-5.95,0-9.93-8-9.93h-69.53V256.51c87.45-10,122.2-53.67,133.13-162H2318V235.66c0,6.94,0,9.94,8,9.94H2466v99.34H2318V582.37c0,58.62,13.93,81.45,67.55,81.45,27.85,0,56.63-6.94,80.47-15.88l26.85,87.44"/><path class="cls-1" d="M1020.78,474.68,566.53,20.45a67,67,0,0,0-94.75,0v0l-94.33,94.34L497.1,234.43A79.57,79.57,0,0,1,597.87,335.87L713.18,451.19a79.68,79.68,0,0,1,82.4,131.64l0,0a79.73,79.73,0,0,1-130.12-86.72L557.89,388.6v283A80.7,80.7,0,0,1,579,686.69a79.73,79.73,0,0,1,0,112.75h0A79.74,79.74,0,1,1,492.32,669.3V383.65a78.8,78.8,0,0,1-26.1-17.4,79.71,79.71,0,0,1-17.17-87.16l-117.95-118L19.63,472.57a67,67,0,0,0,0,94.78h0l454.26,454.24a67,67,0,0,0,94.76,0l452.13-452.12a67,67,0,0,0,0-94.79"/></g></g></svg>