<svg xmlns="http://www.w3.org/2000/svg" viewBox="0 0 2499.67 676"><defs><style>.cls-1{fill:#fff;}</style></defs><title>Github1</title><g id="Ebene_2" data-name="Ebene 2"><g id="Ebene_1-2" data-name="Ebene 1"><path class="cls-1" d="M481.45,289.34H271.39a9.81,9.81,0,0,0-9.81,9.81v102.7a9.82,9.82,0,0,0,9.81,9.83h81.95V539.27s-18.4,6.28-69.27,6.28c-60,0-143.85-21.93-143.85-206.28s87.3-208.66,169.25-208.66c70.95,0,101.51,12.5,121,18.51,6.11,1.88,11.76-4.2,11.76-9.63l23.43-99.22a9.15,9.15,0,0,0-3.75-7.68C454,27,405.79,0,284.07,0,143.84,0,0,59.66,0,346.46S164.69,676,303.46,676c114.91,0,184.61-49.1,184.61-49.1,2.88-1.6,3.19-5.61,3.19-7.45V299.15a9.81,9.81,0,0,0-9.81-9.81M1564,34.36a9.78,9.78,0,0,0-9.7-9.86H1436a9.83,9.83,0,0,0-9.79,9.87h0l0,228.57H1241.83V34.36a9.79,9.79,0,0,0-9.72-9.86H1113.8a9.83,9.83,0,0,0-9.77,9.87v618.9a9.85,9.85,0,0,0,9.77,9.89h118.27a9.82,9.82,0,0,0,9.76-9.89V388.53h184.36l-.33,264.73a9.86,9.86,0,0,0,9.81,9.89h118.55a9.82,9.82,0,0,0,9.76-9.89V34.36M704.63,115.58c0-42.59-34.14-77-76.27-77s-76.25,34.42-76.25,77,34.17,77.05,76.25,77.05,76.27-34.51,76.27-77m-8.46,407.13V237a9.83,9.83,0,0,0-9.78-9.87H568.49c-5.41,0-10.25,5.58-10.25,11V647.46c0,12,7.5,15.61,17.2,15.61H681.66c11.66,0,14.51-5.73,14.51-15.8V522.71M2013.46,228.09H1896.09a9.84,9.84,0,0,0-9.76,9.9V541.45s-29.82,21.82-72.14,21.82-53.54-19.2-53.54-60.64V238a9.84,9.84,0,0,0-9.76-9.9H1631.77A9.87,9.87,0,0,0,1622,238V522.67c0,123.07,68.6,153.18,163,153.18,77.41,0,139.82-42.76,139.82-42.76s3,22.53,4.32,25.21a10.35,10.35,0,0,0,8.63,5.35l75.79-.33a9.86,9.86,0,0,0,9.78-9.88l0-415.45a9.86,9.86,0,0,0-9.8-9.9M2288,562.9c-40.71-1.24-68.32-19.72-68.32-19.72v-196s27.24-16.69,60.66-19.68c42.26-3.78,83,9,83,109.8C2363.28,543.63,2344.9,564.61,2288,562.9Zm46.29-348.7c-66.66,0-112,29.74-112,29.74V34.37a9.81,9.81,0,0,0-9.76-9.88H2093.87a9.82,9.82,0,0,0-9.77,9.87h0V653.26a9.85,9.85,0,0,0,9.79,9.89h82.3c3.7,0,6.5-1.91,8.57-5.25s5-28.53,5-28.53,48.5,46,140.31,46c107.79,0,169.6-54.67,169.6-245.44S2401,214.2,2334.24,214.2M1036.1,227.11H947.38l-.14-117.21c0-4.44-2.28-6.65-7.41-6.65H818.93c-4.7,0-7.23,2.07-7.23,6.58V231s-60.58,14.62-64.68,15.8a9.83,9.83,0,0,0-7.08,9.44v76.11a9.82,9.82,0,0,0,9.78,9.88h62v183.1c0,136,95.4,149.37,159.78,149.37,29.41,0,64.6-9.44,70.41-11.6,3.51-1.29,5.55-4.93,5.55-8.87l.1-83.73a10,10,0,0,0-9.81-9.88c-5.17,0-18.39,2.11-32,2.11-43.57,0-58.34-20.27-58.34-46.49v-174h88.73a9.82,9.82,0,0,0,9.78-9.88V237a9.81,9.81,0,0,0-9.76-9.85h0"/></g></g></svg>