<svg xmlns="http://www.w3.org/2000/svg" viewBox="0 0 2500 2437.51"><defs><style>.cls-1{fill:#fff;}</style></defs><title>ID</title><g id="Ebene_2" data-name="Ebene 2"><g id="Ebene_1-2" data-name="Ebene 1"><path class="cls-1" d="M104.17,104.17H2395.84V2333.34H104.17ZM0,2437.51H2500V0H0Zm1581.25-1425c-15.62-7.29-36.46-10.42-61.46-10.42-134.37,0-228.12,103.13-228.12,275,0,195.83,95.83,275,215.63,275,26,0,53.12-3.12,74-12.5ZM1526,842.71c21.88,0,34.38,0,55.21,2.08V567.71c0-7.29,5.21-10.42,10.41-10.42h168.75c8.34,0,10.42,3.13,10.42,8.34v974c0,29.16,0,65.62,5.21,105.21,0,7.29-2.09,8.33-9.38,12.5a636.8,636.8,0,0,1-272.91,61.46c-230.21,0-394.79-142.71-394.79-433.34-1-249,163.54-442.71,427.08-442.71ZM914.59,1689.59c0,10.41-2.09,13.54-13.55,13.54H740.63c-10.42,0-13.55-5.21-13.55-13.54V570.83c0-10.41,5.21-13.54,13.55-13.54H902.09c8.33,0,12.5,3.12,12.5,12.5Z"/></g></g></svg>