<svg xmlns="http://www.w3.org/2000/svg" viewBox="0 0 2232.19 2232.19"><defs><style>.cls-1{fill:#fff;}</style></defs><title>Jira</title><g id="Ebene_2" data-name="Ebene 2"><g id="Ebene_1-2" data-name="Ebene 1"><path class="cls-1" d="M2139,0H1064c0,268,217.25,485.23,485.24,485.23h198V676.41c.17,267.75,217.17,484.75,484.91,484.93V93.25A93.24,93.24,0,0,0,2139,0Z"/><path class="cls-1" d="M1607.08,535.59H532.18c.17,267.74,217.17,484.75,484.92,484.92h198v191.8c.34,267.74,217.49,484.6,485.23,484.6V628.85a93.26,93.26,0,0,0-93.26-93.25Z"/><path class="cls-1" d="M1074.91,1070.87H0c0,268,217.25,485.23,485.23,485.23H683.86v191.18c.18,267.49,216.8,484.41,484.31,484.91V1164.13a93.27,93.27,0,0,0-93.26-93.26Z"/></g></g></svg>