<svg xmlns="http://www.w3.org/2000/svg" xmlns:xlink="http://www.w3.org/1999/xlink" viewBox="0 0 404.34 273.29"><defs><style>.cls-1{fill:#e82b88;}.cls-2,.cls-3{fill:#e8975b;}.cls-2{opacity:0.6;}.cls-4{fill:#0b0244;opacity:0.2;}.cls-5{fill:#5e1d79;}.cls-6{fill:url(#Áĺçűě_ííűé_ăđŕäčĺíň_127);}.cls-7{fill:url(#Áĺçűě_ííűé_ăđŕäčĺíň_126);}.cls-8{fill:#fbb29b;}.cls-9{fill:#460f60;}.cls-10{fill:#d87960;}.cls-11,.cls-12{opacity:0.1;}.cls-11{fill:url(#Áĺçűě_ííűé_ăđŕäčĺíň_8);}.cls-12{fill:url(#Áĺçűě_ííűé_ăđŕäčĺíň_8-2);}.cls-13{fill:url(#Áĺçűě_ííűé_ăđŕäčĺíň_33);}.cls-14{fill:url(#Áĺçűě_ííűé_ăđŕäčĺíň_33-2);}.cls-15{fill:url(#Áĺçűě_ííűé_ăđŕäčĺíň_33-3);}.cls-16{fill:url(#Áĺçűě_ííűé_ăđŕäčĺíň_33-4);}</style><linearGradient id="Áĺçűě_ííűé_ăđŕäčĺíň_127" x1="282.66" y1="85.55" x2="76.44" y2="266.49" gradientTransform="matrix(0.99, 0.14, -0.14, 0.99, 26.39, -116.15)" gradientUnits="userSpaceOnUse"><stop offset="0" stop-color="#f88b93"/><stop offset="0.21" stop-color="#d76d8e"/><stop offset="0.57" stop-color="#a23d87"/><stop offset="0.85" stop-color="#811f82"/><stop offset="1" stop-color="#751480"/></linearGradient><linearGradient id="Áĺçűě_ííűé_ăđŕäčĺíň_126" x1="296.8" y1="204.56" x2="18.09" y2="289.19" gradientTransform="matrix(0.99, 0.14, -0.14, 0.99, 26.39, -116.15)" gradientUnits="userSpaceOnUse"><stop offset="0" stop-color="#fcba9d"/><stop offset="0.56" stop-color="#ee8594"/><stop offset="1" stop-color="#e4608d"/></linearGradient><linearGradient id="Áĺçűě_ííűé_ăđŕäčĺíň_8" x1="189.11" y1="347.83" x2="232.55" y2="44.56" gradientTransform="matrix(0.99, 0.14, -0.14, 0.99, 26.39, -116.15)" gradientUnits="userSpaceOnUse"><stop offset="0" stop-color="#fcba9d"/><stop offset="0.6" stop-color="#fee5da"/><stop offset="1" stop-color="#fff"/></linearGradient><linearGradient id="Áĺçűě_ííűé_ăđŕäčĺíň_8-2" x1="257.97" y1="285.56" x2="289.42" y2="52.2" xlink:href="#Áĺçűě_ííűé_ăđŕäčĺíň_8"/><linearGradient id="Áĺçűě_ííűé_ăđŕäčĺíň_33" x1="371.73" y1="186.42" x2="404.34" y2="186.42" gradientUnits="userSpaceOnUse"><stop offset="0" stop-color="#e39a65"/><stop offset="1" stop-color="#e95f8d"/></linearGradient><linearGradient id="Áĺçűě_ííűé_ăđŕäčĺíň_33-2" x1="305.33" y1="211.35" x2="360.1" y2="211.35" xlink:href="#Áĺçűě_ííűé_ăđŕäčĺíň_33"/><linearGradient id="Áĺçűě_ííűé_ăđŕäčĺíň_33-3" x1="0" y1="177.91" x2="54.78" y2="177.91" xlink:href="#Áĺçűě_ííűé_ăđŕäčĺíň_33"/><linearGradient id="Áĺçűě_ííűé_ăđŕäčĺíň_33-4" x1="52.92" y1="98.59" x2="129.69" y2="98.59" xlink:href="#Áĺçűě_ííűé_ăđŕäčĺíň_33"/></defs><title>Koffer_1</title><g id="Ebene_2" data-name="Ebene 2"><g id="Ńëîé_1" data-name="Ńëîé 1"><path class="cls-1" d="M157,22.68l4.14,2.39a3.09,3.09,0,0,0,2.81,0,.85.85,0,0,0,0-1.62l-4.14-2.39a3.16,3.16,0,0,0-2.81,0A.86.86,0,0,0,157,22.68Z"/><path class="cls-2" d="M151.11,26.08l11.7,6.75a3.07,3.07,0,0,0,2.8,0,.85.85,0,0,0,0-1.62l-11.69-6.75a3.09,3.09,0,0,0-2.81,0A.86.86,0,0,0,151.11,26.08Z"/><path class="cls-2" d="M180.75,34.78a.86.86,0,0,0,0-1.62l-11.69-6.75a3.09,3.09,0,0,0-2.81,0,.86.86,0,0,0,0,1.62l11.69,6.75A3.09,3.09,0,0,0,180.75,34.78Z"/><path class="cls-3" d="M189.9,38.44l-.69-.39-3.32-1.92a3.07,3.07,0,0,0-2.8,0,.85.85,0,0,0,0,1.62l3.32,1.92.68.39L190.42,42a3.07,3.07,0,0,0,2.8,0,.85.85,0,0,0,0-1.62Z"/><path class="cls-4" d="M204.89,216.61l-55.71,37.65c-1.57,1.06-1.64,2.5-.17,3.22l24.85,12.12a6.18,6.18,0,0,0,5.51-.61L326,170.09c1.57-1.06,1.65-2.49.18-3.21l-24.86-12.13a6.16,6.16,0,0,0-5.5.62l-59.49,40-71.46-39.25-31.39,18.12Z"/><path class="cls-5" d="M128.47,100.12v0h0a15,15,0,0,1,4.79-6L272.54,2.78c3.69-2.42,6.75,0,6.84,5.35l2,121.36c.09,5.54-2.88,12.08-6.63,14.6L158.5,222l.25,34.23L128.27,239.4v-.06c-1.34-1-2.21-3-2.2-6l.31-124.74A20.31,20.31,0,0,1,128.47,100.12Z"/><path class="cls-6" d="M306.35,18,277.26,2.5l-.93-.5a4.4,4.4,0,0,0-3.79.78L133.27,94.1a15,15,0,0,0-4.8,6l4.37,2.54h0l24.89,14.43,122.1-81.4h0Z"/><path class="cls-7" d="M304.7,160.29,163.21,255.57c-3.86,2.6-7,.06-7-5.67l-.14-125.17c0-5.54,3.06-12.06,6.85-14.56L302,18.5c3.68-2.42,6.75,0,6.86,5.37l2.43,121.77C311.39,151.21,308.45,157.77,304.7,160.29Z"/><path class="cls-5" d="M140.81,241.22l.09-124.95c0-5.53,3.08-12,6.87-14.53L286.94,10.25a4.74,4.74,0,0,1,3.18-.91,4.13,4.13,0,0,0-4.24.59L146.7,101.41c-3.79,2.49-6.86,9-6.87,14.53l-.1,124.93c0,3.94,1.36,6.52,3.55,6.79C141.7,246.83,140.81,244.47,140.81,241.22Z"/><path class="cls-8" d="M206.23,62.6l-6.39-3.83a6.66,6.66,0,0,0-4.11-1.11l-.55.07c-.69.08-1.1.74-1.1,1.72v1.18l18,10.8V70.25a5.37,5.37,0,0,0-1.14-3.07l-.55-.73A15.44,15.44,0,0,0,206.23,62.6Z"/><polygon class="cls-8" points="202.24 77.9 212.07 71.43 194.51 58.07 184.83 64.39 202.24 77.9"/><path class="cls-5" d="M196.4,69.06,190,65.22a6.63,6.63,0,0,0-4.12-1.1l-.55.06c-.69.08-1.11.74-1.1,1.73v1.18l18,10.81V76.72a5.42,5.42,0,0,0-1.13-3.07l-.56-.73A15.19,15.19,0,0,0,196.4,69.06Z"/><polygon class="cls-9" points="192.06 71.78 192.03 66.43 192.58 66.76 192.61 72.11 192.06 71.78"/><polygon class="cls-10" points="192.03 66.44 202.1 60.13 202.57 60.41 192.58 66.76 192.03 66.44"/><path class="cls-8" d="M250.52,33.54l-6.37-3.81a6.62,6.62,0,0,0-4.1-1.09l-.55.06c-.68.08-1.09.73-1.08,1.71v1.17L256.38,42.3l0-1.18a5.4,5.4,0,0,0-1.14-3l-.56-.72A15.3,15.3,0,0,0,250.52,33.54Z"/><polygon class="cls-8" points="246.63 48.72 256.38 42.3 238.84 29.04 229.24 35.3 246.63 48.72"/><path class="cls-5" d="M240.78,39.94l-6.37-3.81a6.72,6.72,0,0,0-4.1-1.1l-.55.06c-.68.08-1.1.74-1.09,1.72V38l18,10.74,0-1.18a5.43,5.43,0,0,0-1.14-3l-.56-.72A15.2,15.2,0,0,0,240.78,39.94Z"/><polygon class="cls-9" points="236.48 42.64 236.42 37.33 236.97 37.66 237.02 42.97 236.48 42.64"/><polygon class="cls-10" points="236.42 37.34 246.41 31.08 246.87 31.36 236.97 37.66 236.42 37.34"/><path class="cls-5" d="M191,40.93l.12,22.64,6.58-4.31-.14-22a11.62,11.62,0,0,1,4.59-8.84L230.57,9.82c2.54-1.66,4.62-.41,4.65,2.78l.24,21.87L242,30.18l-.27-22.44C241.64.7,237-2,231.45,1.62L201.14,21.41C195.5,25.09,191,33.82,191,40.93Z"/><path class="cls-5" d="M239.92,9.16,229.22,7.1l-34.15,25L192,49.18l-.84,14.39,6.63,4,2.06-17.85,1.63-12.2,7.39-8.25s12.65-8,12.8-8.23S239.92,9.16,239.92,9.16Z"/><polygon class="cls-5" points="242.08 38.42 235.46 34.47 235.29 18.36 241.89 19.48 243.83 20 242.08 38.42"/><path class="cls-5" d="M245.4,4.7,238.27.46s1.56,4.12,1.6,4.1,2.38,1.06,2.42,1.06Z"/><path class="cls-8" d="M197.61,44.89l.14,22.67,6.58-4.33-.16-22a11.61,11.61,0,0,1,4.58-8.85l28.42-18.59c2.53-1.66,4.62-.42,4.66,2.78l.25,21.88,6.52-4.28-.28-22.47c-.09-7-4.69-9.78-10.28-6.12L207.73,25.36C202.1,29,197.56,37.78,197.61,44.89Z"/><path class="cls-11" d="M251,52.12,185,95.63l-28.83,96.29.06,58c0,5.73,3.14,8.27,7,5.67l33.65-22.66Z"/><path class="cls-12" d="M218.27,218.5l43.93-29.59L309,32.53l-.17-8.66c-.11-5.39-3.18-7.79-6.86-5.37L272.28,38.08Z"/><path class="cls-13" d="M388,196a7,7,0,0,1-3.48-.93l-11.74-6.78a2.18,2.18,0,0,1,0-3.76l11.74-6.78a7,7,0,0,1,7,0l11.74,6.78a2.17,2.17,0,0,1,0,3.77l-11.74,6.77A7,7,0,0,1,388,196Zm0-17.32a5.06,5.06,0,0,0-2.55.69l-11.74,6.77a.32.32,0,0,0,0,.54l11.74,6.78h0a5.1,5.1,0,0,0,5.1,0l11.74-6.78a.3.3,0,0,0,.15-.27.31.31,0,0,0-.15-.27l-11.74-6.77A5.06,5.06,0,0,0,388,178.69Z"/><path class="cls-14" d="M332.71,227.18a11.36,11.36,0,0,1-5.65-1.51h0L306.86,214a3.08,3.08,0,0,1,0-5.32L327.06,197a11.31,11.31,0,0,1,11.31,0l20.2,11.66a3.08,3.08,0,0,1,0,5.32l-20.2,11.66A11.4,11.4,0,0,1,332.71,227.18ZM328,224.06a9.49,9.49,0,0,0,9.45,0l20.2-11.67a1.18,1.18,0,0,0,.6-1,1.2,1.2,0,0,0-.6-1l-20.2-11.66a9.49,9.49,0,0,0-9.45,0l-20.2,11.66a1.2,1.2,0,0,0-.6,1,1.18,1.18,0,0,0,.6,1Z"/><path class="cls-15" d="M27.39,193.74a11.3,11.3,0,0,1-5.66-1.51L1.54,180.57a3.06,3.06,0,0,1,0-5.31l20.19-11.67a11.36,11.36,0,0,1,11.31,0l20.2,11.67a3.06,3.06,0,0,1,0,5.31L33,192.23A11.26,11.26,0,0,1,27.39,193.74Zm0-29.8a9.38,9.38,0,0,0-4.73,1.27L2.47,176.87a1.17,1.17,0,0,0-.61,1A1.19,1.19,0,0,0,2.47,179l20.19,11.66h0a9.46,9.46,0,0,0,9.45,0L52.31,179a1.19,1.19,0,0,0,.61-1.05,1.17,1.17,0,0,0-.61-1l-20.2-11.66A9.34,9.34,0,0,0,27.39,163.94Z"/><path class="cls-16" d="M91.31,120.61a15.54,15.54,0,0,1-7.82-2.09h0L54.9,102a4,4,0,0,1,0-6.85L83.49,78.65a15.69,15.69,0,0,1,15.63,0l28.59,16.51a4,4,0,0,1,0,6.86l-28.59,16.5A15.53,15.53,0,0,1,91.31,120.61Zm-6.89-3.7a13.82,13.82,0,0,0,13.77,0l28.59-16.51a2.09,2.09,0,0,0,0-3.63L98.19,80.26a13.82,13.82,0,0,0-13.77,0L55.83,96.77a2.09,2.09,0,0,0,0,3.63Z"/><path class="cls-3" d="M237.57,240.07l16.89,9.74a3.86,3.86,0,0,0,3.53,0,1.07,1.07,0,0,0,0-2L241.1,238a3.92,3.92,0,0,0-3.53,0A1.08,1.08,0,0,0,237.57,240.07Z"/><path class="cls-2" d="M230.18,242.3a1.07,1.07,0,0,0,0,2l26,15a3.92,3.92,0,0,0,3.53,0,1.08,1.08,0,0,0,0-2l-26-15A3.86,3.86,0,0,0,230.18,242.3Z"/><path class="cls-3" d="M222.79,248.6l5.21,3a3.92,3.92,0,0,0,3.53,0,1.08,1.08,0,0,0,0-2l-5.21-3a3.92,3.92,0,0,0-3.53,0A1.08,1.08,0,0,0,222.79,248.6Z"/><path class="cls-1" d="M215.4,252.87l14.7,8.49a3.92,3.92,0,0,0,3.53,0,1.08,1.08,0,0,0,0-2l-14.7-8.49a3.92,3.92,0,0,0-3.53,0A1.08,1.08,0,0,0,215.4,252.87Z"/><path class="cls-3" d="M252.66,263.81c1-.56,1-1.47,0-2L238,253.29a3.86,3.86,0,0,0-3.53,0,1.07,1.07,0,0,0,0,2l14.7,8.49A3.92,3.92,0,0,0,252.66,263.81Z"/><path class="cls-2" d="M264.17,268.42l-.86-.5-4.18-2.41a3.92,3.92,0,0,0-3.53,0,1.08,1.08,0,0,0,0,2l4.18,2.41.86.5,4.18,2.41a3.92,3.92,0,0,0,3.53,0,1.08,1.08,0,0,0,0-2Z"/></g></g></svg>