<svg xmlns="http://www.w3.org/2000/svg" viewBox="0 0 2500 2437.51"><defs><style>.cls-1{fill:#fff;}</style></defs><title>LR</title><g id="Ebene_2" data-name="Ebene 2"><g id="Ebene_1-2" data-name="Ebene 1"><path class="cls-1" d="M104.17,104.17H2395.84V2333.34H104.17ZM0,2437.51H2500V0H0ZM1463.54,1026c0-12.5,0-42.7-5.2-101,0-8.33,2.08-10.42,8.33-13.54,63.54-26,214.58-71.87,383.33-71.87,8.33,0,12.5,2.08,12.5,10.41v150c0,8.33-3.12,10.42-12.5,10.42-65.62-3.13-162.5,5.2-199,20.83v657.29c0,8.34-3.13,12.5-12.51,12.5H1475c-8.33,0-12.5-3.12-12.5-12.5V1026ZM692.71,1701c-12.5,0-15.62-5.2-15.62-15.62V565.63c0-8.34,3.12-13.55,12.5-13.55H854.17c8.33,0,10.41,3.13,10.41,12.5v964.59h429.17c8.33,0,11.46,3.12,9.37,12.5l-26,147.92q-3.12,12.5-15.63,12.5H692.71Z"/></g></g></svg>