<svg xmlns="http://www.w3.org/2000/svg" viewBox="0 0 464 427"><defs><style>.cls-1{fill:#fff;}</style></defs><title>O2Logo</title><g id="Ebene_2" data-name="Ebene 2"><g id="Ebene_1-2" data-name="Ebene 1"><path class="cls-1" d="M464,427H0V0H464ZM202.8,341.68c20.48-.23,40.3-3.42,59.45-10.52a129.79,129.79,0,0,0,63-48.67c20.83-30,28.33-64.1,29.3-99.79.36-13.31-1.69-26.74-3.3-40A148.22,148.22,0,0,0,334,89.84c-22.71-42-58.5-65.51-105.2-72.48-22.48-3.36-45.2-3.15-67.19,3.53-12.39,3.76-25.23,7.53-36.26,14C81.59,60.62,61.11,101.52,54.47,150.14c-1.91,14-1.16,28.47-.6,42.68.42,10.5,2.22,21,3.92,31.4A143.86,143.86,0,0,0,73,267.92c20.89,39.7,54.3,62.26,97.68,70.67C181.16,340.63,192.07,340.7,202.8,341.68Zm173,55.12-.81-1.25c1-1.16,1.83-2.38,2.86-3.47,8.65-9.11,17.72-17.85,25.89-27.37,12.49-14.55,21.17-30.71,18.48-51-1.56-11.7-9.06-23-20.61-26.87-9.36-3.1-18.89-5.09-28.8-2.26-8.73,2.5-17.54,4.69-26.24,7.28a4.41,4.41,0,0,0-2.3,3.49c.42,5.9,1.26,11.77,2,18.18,2.62-1.38,4.71-2.61,6.9-3.63,10.15-4.7,20.34-8.67,31.9-4.95,9,2.88,16,14.14,12.39,22.22-4,8.76-8.22,17.85-14.38,25-11.74,13.69-24.95,26.11-37.51,39.1-1.33,1.38-3.33,3-3.42,4.55-.38,6.76-.16,13.55-.16,20.31h85.57V396.8Z"/><path d="M202.8,341.68c-10.73-1-21.64-1.05-32.17-3.09-43.38-8.41-76.79-31-97.68-70.67a143.86,143.86,0,0,1-15.16-43.7c-1.7-10.41-3.5-20.9-3.92-31.4-.56-14.21-1.31-28.68.6-42.68,6.64-48.62,27.12-89.52,70.88-115.23,11-6.49,23.87-10.26,36.26-14,22-6.68,44.71-6.89,67.19-3.53,46.7,7,82.49,30.45,105.2,72.48a148.22,148.22,0,0,1,17.24,52.82c1.61,13.3,3.66,26.73,3.3,40-1,35.69-8.47,69.77-29.3,99.79a129.79,129.79,0,0,1-63,48.67C243.1,338.26,223.28,341.45,202.8,341.68Zm94.57-165a118.53,118.53,0,0,0-5.93-41.87c-12-36.38-34.45-61.43-74.05-67.68-21.25-3.35-41.47-.39-59.79,11.11-31,19.46-43.73,49.8-47.22,84.47-1.34,13.38.45,27.14,1.49,40.67,1.19,15.39,6.66,29.57,14.32,42.85,14.54,25.22,36.21,40.09,65.33,43.2,35.75,3.81,68.85-8.42,88.65-41.17C293.13,226.86,297.83,203.27,297.37,176.72Z"/><path d="M375.84,396.8h51.78v19.37H342.05c0-6.76-.22-13.55.16-20.31.09-1.58,2.09-3.17,3.42-4.55,12.56-13,25.77-25.41,37.51-39.1,6.16-7.19,10.42-16.28,14.38-25,3.65-8.08-3.42-19.34-12.39-22.22-11.56-3.72-21.75.25-31.9,4.95-2.19,1-4.28,2.25-6.9,3.63-.76-6.41-1.6-12.28-2-18.18a4.41,4.41,0,0,1,2.3-3.49c8.7-2.59,17.51-4.78,26.24-7.28,9.91-2.83,19.44-.84,28.8,2.26,11.55,3.83,19.05,15.17,20.61,26.87,2.69,20.29-6,36.45-18.48,51-8.17,9.52-17.24,18.26-25.89,27.37-1,1.09-1.91,2.31-2.86,3.47Z"/><path class="cls-1" d="M297.37,176.72c.46,26.55-4.24,50.14-17.2,71.58-19.8,32.75-52.9,45-88.65,41.17-29.12-3.11-50.79-18-65.33-43.2-7.66-13.28-13.13-27.46-14.32-42.85-1-13.53-2.83-27.29-1.49-40.67,3.49-34.67,16.19-65,47.22-84.47,18.32-11.5,38.54-14.46,59.79-11.11,39.6,6.25,62,31.3,74.05,67.68A118.53,118.53,0,0,1,297.37,176.72Z"/></g></g></svg>