<svg xmlns="http://www.w3.org/2000/svg" viewBox="0 0 1253 1231.71"><defs><style>.cls-1{fill:#fff;}</style></defs><title>o2White</title><g id="Ebene_2" data-name="Ebene 2"><g id="Ebene_1-2" data-name="Ebene 1"><path class="cls-1" d="M476.77.29C547.41-1.9,618.84,8.33,685,33.6A457.56,457.56,0,0,1,795.52,94.09c56.25,41.7,102,97.07,133.63,159.5,29.41,57.57,46.89,120.86,53.92,185,3.35,32.18,4.75,64.62,3,96.95a540.9,540.9,0,0,1-29,151c-26.5,76.55-71.38,147-131.07,201.9A470.9,470.9,0,0,1,622.81,998.7c-55.32,14.18-113,18.6-169.9,14.32-57.81-4.33-115-18.38-167.82-42.42a471.13,471.13,0,0,1-160-119.08c-54-61.6-91.6-137-110.39-216.62A564.71,564.71,0,0,1,0,516.94V496.23c.82-33.16,3.72-66.31,9.72-99,14.3-78.86,46-155.14,95.42-218.5A447.43,447.43,0,0,1,246.62,59.17C317,21.1,397,2.3,476.77.29m-5.6,145.59a270.41,270.41,0,0,0-162.1,69.73c-28.64,25.75-52,57.06-70,91-27.45,51.81-42.81,109.65-47.09,168a476.45,476.45,0,0,0,4,102.86c6.47,43.54,18.81,86.37,38.19,126,16.44,33.65,38.08,65,65.21,90.88a263.42,263.42,0,0,0,101.69,61c34.78,11.27,71.68,15.43,108.13,13.86,33.91-1.61,67.75-8.44,99-21.82,47.2-19.86,87.42-54.44,116.63-96.26,37.7-53.79,59-117.82,67.33-182.64,11-84.6-1-172.79-38.15-249.9-16.64-34.09-38.14-66.1-65.21-92.8a270.82,270.82,0,0,0-104.09-66c-36.31-12.63-75.24-16.75-113.49-14ZM976.39,825.53c35.67-17.76,74.94-28.48,114.79-30.35a203.24,203.24,0,0,1,60.8,5.2c20.44,5.22,40.22,14.88,55,30.21,12.5,12.29,21,28.2,26,44.93a160.2,160.2,0,0,1,4.7,64c-2.6,19.26-9.06,37.83-17.53,55.26-15.92,32.06-38.14,60.48-61.88,87.08-25.56,28.47-53.1,55.07-80.61,81.64,55.43-.18,110.86,0,166.29-.09,3,0,6.08-.19,9,.61v67.15c-1.68.21-3.34.44-5,.51H966.47q0-36.17,0-72.34c6.41-6.4,13.26-12.33,19.83-18.57,28.53-26,56.65-52.57,83.15-80.7,25.49-27.65,50.32-56.56,68.07-89.93,8-15.67,14.78-32.73,14.66-50.6-.08-12.78-4.69-25.64-13.52-35-11.47-12.43-28.16-18.71-44.65-20.75-22.26-2.39-44.74,2.24-65.46,10.26-16,6.07-30.83,14.65-45.35,23.56-2.27-24-4.63-48.07-6.81-72.12Z"/></g></g></svg>