<svg xmlns="http://www.w3.org/2000/svg" viewBox="0 0 2500 795.94"><defs><style>.cls-1{fill:#fff;}</style></defs><title>Office</title><g id="Ebene_2" data-name="Ebene 2"><g id="Ebene_1-2" data-name="Ebene 1"><path class="cls-1" d="M0,642.07V158.19L428,0,660.67,74.42V725.81L428,795.94,0,642.07l428,51.5V130.29L148.88,195.43V577L0,642.07Zm1116.56,3.39q-101.05,0-161.88-66.64t-60.8-173.31q0-114.66,62-182.92t168.66-68.25q98.41,0,158.57,66.27t60.15,173.31q0,116.31-61.65,183.92t-165,67.61Zm4-440.75q-74.9,0-121.61,54T952.18,400.56q0,87.79,45.57,141.33t118.79,53.52q78.2,0,123.27-51t45.08-142.82q0-94.12-43.76-145.48t-120.6-51.38Zm420.7-76.91c-30.71,0-56.23,10.47-76.76,31.12s-30.82,48.76-30.82,84.32v55h-57.87v46.52h57.87v292.8h54.09V344.74H1620v292.8h54.09V344.74h79.4V298.22h-79.4V245.87q0-71.9,57-71.81c13.48,0,25.47,2.76,36.06,8.72V133.93c-9.71-4-22.69-6.11-39.25-6.11-30.71,0-56.52,10.47-77.06,31.11S1620,207.7,1620,243.26v55h-132.3V245.89q0-71.91,57-71.82c13.46,0,25.45,2.77,36,8.72V134c-9.72-4-23-6.15-39.55-6.15ZM1832.54,212a34.39,34.39,0,0,1-24.86-9.95q-10.28-9.95-10.27-25.17t10.27-25.34a34.09,34.09,0,0,1,24.86-10.11,35.07,35.07,0,0,1,25.36,10.11c7,6.73,10.42,15.18,10.42,25.34a33.5,33.5,0,0,1-10.42,24.86A34.89,34.89,0,0,1,1832.54,212Zm26.51,425.47H1804.7V298.12H1859V637.44Zm308.75-15.56q-39.09,23.52-92.78,23.53-72.57,0-117.12-47.24t-44.6-122.44q0-83.85,48-134.7t128.26-50.86q44.7,0,78.85,16.58V362.4q-37.76-26.49-80.84-26.5-52,0-85.35,37.28T1969,471.1q0,59.65,31.29,94.12t84,34.45q44.39,0,83.51-29.49v51.7ZM2500,481.39H2260.42q1.32,56.64,30.47,87.47t80.21,30.81q57.33,0,105.37-37.78v51q-44.71,32.48-118.29,32.48-71.91,0-113-46.24t-41.1-130.06q0-79.2,44.89-129.08t111.51-49.87q66.6,0,103.05,43.08T2500,452.86v28.51Zm-55.65-46.07q-.34-47.06-22.72-73.23t-62.12-26.18q-38.46,0-65.29,27.51t-33.12,71.9h183.25Z"/></g></g></svg>