<svg xmlns="http://www.w3.org/2000/svg" viewBox="0 0 2500 1297.7"><defs><style>.cls-1{fill:#1a1a1a;}</style></defs><title>RochePdf</title><g id="Ebene_2" data-name="Ebene 2"><g id="Ebene_1-2" data-name="Ebene 1"><path class="cls-1" d="M1691.1,498.1c-15.7-11.7-40.3-18.8-64.2-18.4-26,.4-50.8,8.7-68,22.5V338.3h-81.1V872.8h81.1v-279c0-19.5,16.3-40.9,46.5-42.2,13.5-.6,32.1,5.3,41.6,19.4,10.1,15,9.5,34.9,9.5,56.6l-.1,245.1h81.1V624.6c-.1-73.2-9.6-99.3-46.4-126.5M1031.7,681.6c0,52.3-1.7,67-2.1,71.6-2.8,29-15.2,59.7-49,59.7s-47.4-32.8-48.9-61.1c-.1-.2-2.1-17.9-2.1-70.2s2.1-74.2,2.1-74.4c.4-29.5,15.7-59.1,48.9-59.1s48.5,29.5,49,58.7c.1.6,2.1,22.4,2.1,74.8m78.5-63.1c-11.5-114.3-76.4-138.8-129.6-138.8-75.5,0-121.4,48-129.7,138.6-.7,7.2-1.8,20.5-2.2,63.2-.3,31.1,1.7,56.5,2.1,63,5.1,84.6,53.8,136.8,129.8,136.8s124.5-53,129.8-136.8c.4-6,2.1-31.9,2.1-63,0-14-1.3-52.3-2.3-63Zm762.5,15c.6-17.7.6-21.4,1-26.5,2.3-32,16.6-58.5,49.4-58.8,38.9-.3,48,37.8,49.4,58.9.7,11.1,1.5,18.5,1.4,26.4Zm100.2,107.1a104.84,104.84,0,0,1-.8,13.2c-2.3,18.9-9.7,59.2-49.2,59.2-33.6,0-46.6-30.5-48.8-61-.4-8.6-2-18.3-1.9-51.1H2053s.3-26.9-.2-43.1c-.3-6.4-.6-16.9-2.1-39.2-2.5-34.3-15.3-71.7-34.9-96-22.7-28-54.8-42.8-92.8-42.8-73,0-118.7,47.6-127.6,138.7-.8,8.2-2.1,19.5-2.1,63.2,0,31.1,1.8,57.1,2.1,63,4.9,83.2,54.1,136.8,127.7,136.8,73.4,0,122.6-52.1,127.8-140.8Z"/><path class="cls-1" d="M592.2,65.5H1909.7L2413.6,655l-503.7,581.4H592.2L86.5,653ZM1941.6,0H560.4L0,650.9l560.5,646.8H1941.6L2500,653Z"/><path class="cls-1" d="M608.5,410.8h38.4c41.7,0,64.3,22.1,65.3,61.6.1,2.9.4,6.2.4,12.3a109.07,109.07,0,0,1-.4,12.5c-2.3,23.5-12.6,64.4-61.5,64.4H608.4Zm192,428.8-8.3-131.2c-3.6-58.7-18.9-93.3-49.3-111,21.9-13.2,50.3-45.8,50-113.9-.4-103.8-64.8-140.2-140.6-141H528.5V872.7h80V630.1H653c25.8,0,54.8,22.5,59.2,85.8l8.3,124.2a208.71,208.71,0,0,0,4,32.6h80.1a205.58,205.58,0,0,1-4.1-33.1ZM1347,736.9c-.3,5.8-.7,11.1-1,14.9-2.3,29.6-12.7,61.1-48.9,61.1-33.8,0-47.1-34.1-49.6-59.3-1.5-15.3-1.1-27.1-1.4-72-.4-52.4,1.3-65.9,2.1-74.4,2.9-33.1,15.7-58.8,48.9-59,34.2-.2,48.5,29.5,48.9,58.7,0,.3.7,7.4,1.2,22.9h80.2c-.3-5.4-.5-9.8-.7-12.4-9.1-110.8-76.6-137.6-129.8-137.6-75.4,0-121.4,48-129.7,138.6-.7,7.2-1.8,20.5-2.2,63.2-.4,31.1,1.6,56.5,2.1,63,5.2,84.6,53.8,136.6,129.8,136.8,78.8.3,122.3-47.8,129.8-136.8.2-3.2.7-5.5.5-7.7Z"/></g></g></svg>