<?xml version="1.0" encoding="utf-8"?>
<!-- Generator: Adobe Illustrator 23.1.1, SVG Export Plug-In . SVG Version: 6.00 Build 0)  -->
<svg version="1.1" id="Ebene_1" xmlns="http://www.w3.org/2000/svg" xmlns:xlink="http://www.w3.org/1999/xlink" x="0px" y="0px"
	 viewBox="0 0 153 137" style="enable-background:new 0 0 153 137;" xml:space="preserve">
<style type="text/css">
	.st0{fill:#FFFFFF;stroke:#000000;stroke-width:2;stroke-miterlimit:10;}
</style>
<rect x="170.6" y="-8.3" class="st0" width="300.9" height="196.5"/>
<title>rLogo</title>
<g>
	<g id="Ebene_1-2">
		<path class="st0" d="M261,82.5c6.3-0.4,11.6-0.3,16.8-1.1c5.8-1,10.2-5.7,10.7-11.6c0.6-5.9-2.3-11.6-7.6-13.8
			c-2.8-1.1-5.7-1.6-8.7-1.6c-11.6-0.2-23.3,0.1-34.9-0.2c-2.7-0.1-5.3-1.2-7.3-3c-8.3-7.8-16.2-16-24.6-24.4
			c0.6-0.3,1.2-0.5,1.9-0.6c23.3,0,46.6-0.3,69.9,0.1c19.3,0.3,36.2,15.4,39.3,34.2c3.3,20.3-7.3,39.8-25.7,46.6
			c-1.6,0.6-4.4,0.3-5.6-0.8C277.1,98.8,269.4,90.9,261,82.5z"/>
		<path class="st0" d="M317.2,152.2c-9.8,0-18.3,0.1-26.7-0.1c-1.3-0.1-2.5-0.7-3.4-1.7c-17.6-17.5-35.1-35-52.6-52.5
			c-0.4-0.6-0.8-1.2-1.1-1.9c9.1,0,17.6,0,26.2,0.1c1.1,0.1,2.2,0.7,3,1.5C280.5,115.5,298.3,133.3,317.2,152.2z"/>
	</g>
</g>
<polygon class="st0" points="329.8,26.1 329.8,152.2 350.6,152.2 350.9,69.8 350.9,26.1 "/>
<polygon class="st0" points="389.9,26.1 362.4,59 362.5,92 390.2,57.2 414.2,26.6 "/>
<polygon class="st0" points="368.3,100.7 395.6,152.2 417.3,152.2 382.6,83.9 "/>
</svg>
