<svg xmlns="http://www.w3.org/2000/svg" viewBox="0 0 153 137"><defs><style>.cls-1{fill:#fff;}</style></defs><title>rLogo</title><g id="Ebene_2" data-name="Ebene 2"><g id="Ebene_1-2" data-name="Ebene 1"><path class="cls-1" d="M0,137V0H153V137ZM64.55,61.31C73,69.73,80.66,77.58,88.62,85.12c1.14,1.08,4,1.39,5.56.8,18.44-6.87,29.05-26.29,25.73-46.64-3.08-18.85-20-33.93-39.27-34.22C57.34,4.71,34,5,10.73,5a7.91,7.91,0,0,0-1.86.61C17.25,14,25.2,22.17,33.49,30A12,12,0,0,0,40.8,33c11.65.3,23.3,0,35,.21a24.25,24.25,0,0,1,8.7,1.63c5.39,2.23,8.28,7.9,7.65,13.83A13,13,0,0,1,81.39,60.2C76.19,61,70.88,60.93,64.55,61.31ZM120.8,131C101.92,112.13,84.07,94.24,66.17,76.4a4.91,4.91,0,0,0-3-1.48c-8.55-.12-17.1-.07-26.17-.07a12.09,12.09,0,0,0,1.11,1.87Q64.4,103,90.72,129.28a5.58,5.58,0,0,0,3.37,1.66C102.52,131.08,111,131,120.8,131Z"/><path d="M64.55,61.31c6.33-.38,11.64-.35,16.84-1.11A13,13,0,0,0,92.1,48.62c.63-5.93-2.26-11.6-7.65-13.83a24.25,24.25,0,0,0-8.7-1.63C64.1,33,52.45,33.25,40.8,33A12,12,0,0,1,33.49,30C25.2,22.17,17.25,14,8.87,5.58A7.91,7.91,0,0,1,10.73,5c23.3,0,46.61-.26,69.91.09,19.28.29,36.19,15.37,39.27,34.22,3.32,20.35-7.29,39.77-25.73,46.64-1.58.59-4.42.28-5.56-.8C80.66,77.58,73,69.73,64.55,61.31Z"/><path d="M120.8,131c-9.84,0-18.28.06-26.71-.08a5.58,5.58,0,0,1-3.37-1.66Q64.37,103.06,38.13,76.72A12.09,12.09,0,0,1,37,74.85c9.07,0,17.62,0,26.17.07a4.91,4.91,0,0,1,3,1.48C84.07,94.24,101.92,112.13,120.8,131Z"/></g></g></svg>