<svg xmlns="http://www.w3.org/2000/svg" viewBox="0 0 501 286"><defs><style>.cls-1{fill:#fefeff;}.cls-2{fill:#1a7bbf;}.cls-3{fill:#fefefe;}.cls-4{fill:#197cc0;}.cls-5{fill:#1b7cc0;}.cls-6{fill:#1c7cc0;}.cls-7{fill:#f7fafc;}.cls-8{fill:#f9fbfd;}.cls-9{fill:#fbfdfd;}</style></defs><title>Roche</title><g id="Ebene_2" data-name="Ebene 2"><g id="Ebene_1-2" data-name="Ebene 1"><path class="cls-1" d="M0,286V0H501V286ZM495.76,147.64a36.48,36.48,0,0,0-2.09-3Q441.49,83.68,389.17,22.88c-1.44-1.67-4.5-2.73-6.81-2.73Q252.11,20,121.88,20a9.08,9.08,0,0,0-7.62,3.6Q70.61,74.38,26.85,125.08c-6.25,7.27-12.47,14.57-18.56,21.69a14.14,14.14,0,0,0,.84,1.43Q62,209.16,115.07,270a9.92,9.92,0,0,0,6.74,2.89q130.24.22,260.48.22a9.53,9.53,0,0,0,8-3.8q33.76-39.19,67.75-78.19Q476.88,169.45,495.76,147.64Z"/><path class="cls-2" d="M495.76,147.64q-18.94,21.86-37.71,43.5-33.9,39.08-67.75,78.19a9.53,9.53,0,0,1-8,3.8Q252,273,121.81,272.91a9.92,9.92,0,0,1-6.74-2.89Q61.94,209.24,9.13,148.2a14.14,14.14,0,0,1-.84-1.43c6.09-7.12,12.31-14.42,18.56-21.69Q70.56,74.34,114.26,23.57a9.08,9.08,0,0,1,7.62-3.6q130.25.15,260.48.18c2.31,0,5.37,1.06,6.81,2.73q52.41,60.72,104.5,121.73A36.48,36.48,0,0,1,495.76,147.64Zm-17.15.33a20.7,20.7,0,0,0-1.19-1.91Q430.19,90.8,382.82,35.62c-1.35-1.56-4.24-2.55-6.42-2.55q-124.21-.2-248.43,0a10,10,0,0,0-6.7,3q-46.84,54-93.45,108.13c-2.09,2.41-2.09,3.88,0,6.24q46.47,53.31,92.72,106.79c2.43,2.82,4.93,3.76,8.57,3.76q123.22-.15,246.44,0a10,10,0,0,0,8.53-3.81q34.72-40.34,69.68-80.47C462,167.22,470.26,157.65,478.61,148Z"/><path class="cls-3" d="M478.61,148c-8.35,9.68-16.6,19.25-24.88,28.8Q418.87,217,384.05,257.24a10,10,0,0,1-8.53,3.81q-123.22-.15-246.44,0c-3.64,0-6.14-.94-8.57-3.76Q74.28,203.79,27.79,150.5c-2.06-2.36-2.06-3.83,0-6.24q46.76-54,93.45-108.13a10,10,0,0,1,6.7-3q124.22-.23,248.43,0c2.18,0,5.07,1,6.42,2.55q47.46,55.1,94.6,110.44A20.7,20.7,0,0,1,478.61,148Zm-313.7,42c-.79-12.19-1.33-23.82-2.39-35.4-.63-6.89-2.55-13.48-8.77-18,9.84-8.9,10.55-19.91,8.06-31.5C160,96.63,154.64,90,146.19,88.67c-11.33-1.83-23-1.73-34.66-2.47V189.82h15.69V143.36c12.64-1.17,16.88,1.42,19.06,11.44a59.82,59.82,0,0,1,.91,7.92c.72,9.07,1.37,18.14,2.05,27.27Zm147.43,0v-3.06c0-16.65-.08-33.31.16-50,.08-6.18,4.21-9.59,10-9.1,5.39.46,8.57,4,8.63,10.29.13,15.49.05,31,.05,46.47v5.24h15.77c0-18.82,0-37.27,0-55.73a25.14,25.14,0,0,0-.75-4.92c-1.71-8-7.8-14.42-15.93-15-5.74-.43-11.61.89-18,1.48V86.32H296.64V190Zm96.83-33.22c-.47-7.14-.44-13.5-1.39-19.71-1.35-8.87-5.07-16.7-13.56-21-15.39-7.75-32.4,1.07-34.81,19.18-1.56,11.73-.45,23.84-.2,35.78.05,2.53,1.33,5.15,2.44,7.54,5.09,10.88,17.64,16,29.55,12.2,10.44-3.34,18.16-15.7,16.25-26.12h-14c-.78,3-1.28,5.58-2.18,8.06a7.87,7.87,0,0,1-8,5.62c-4,0-7-2-7.91-5.64-1.2-5-1.48-10.23-2.24-15.94Zm-236-5.14c.71,7.79.76,14.17,2,20.32,2.44,12.47,11.61,19.85,23.83,20,12.37.15,22.09-6.79,24.56-19.12,2.75-13.76,2.93-27.81-.68-41.53-3-11.46-11.29-17.5-23-17.76s-20.64,5.76-23.71,17.38C174.32,138,174,145.6,173.21,151.61Zm98,12.21c-.34,1.9-.66,3.68-1,5.46-1.1,5.94-3.7,8.76-8.33,9s-9-2.3-9.27-7.86a354,354,0,0,1,.34-36.71c.23-4.43,4.05-6.77,8.63-6.62s7.33,2.91,8.39,7.22c.67,2.69.93,5.48,1.38,8.31h15.5c-.42-3.13-.6-5.93-1.21-8.63-2.95-13-11.63-20.35-24.08-20.5-12.93-.15-21.68,6.8-24.54,20.33a93,93,0,0,0,0,38.67c3,14.05,14.76,21.41,29.3,19.12,12.4-2,20.93-13.79,19.81-27.8Z"/><path class="cls-4" d="M164.91,190H149.24c-.68-9.13-1.33-18.2-2.05-27.27a59.82,59.82,0,0,0-.91-7.92c-2.18-10-6.42-12.61-19.06-11.44v46.46H111.53V86.2c11.68.74,23.33.64,34.66,2.47,8.45,1.37,13.79,8,15.62,16.47,2.49,11.59,1.78,22.6-8.06,31.5,6.22,4.47,8.14,11.06,8.77,18C163.58,166.17,164.12,177.8,164.91,190Zm-37.56-89.71v29.23c6.58.06,13.14,1.48,17.4-5,3.25-5,3.4-15.29.15-19.54C140.34,99,133.83,100.25,127.35,100.28Z"/><path class="cls-5" d="M312.34,190h-15.7V86.32h15.55v29.33c6.42-.59,12.29-1.91,18-1.48,8.13.61,14.22,7,15.93,15a25.14,25.14,0,0,1,.75,4.92c.05,18.46,0,36.91,0,55.73H331.16v-5.24c0-15.49.08-31-.05-46.47-.06-6.32-3.24-9.83-8.63-10.29-5.77-.49-9.9,2.92-10,9.1-.24,16.65-.13,33.31-.16,50Z"/><path class="cls-6" d="M409.17,156.75h-36c.76,5.71,1,10.93,2.24,15.94.87,3.67,3.89,5.63,7.91,5.64a7.87,7.87,0,0,0,8-5.62c.9-2.48,1.4-5.1,2.18-8.06h14c1.91,10.42-5.81,22.78-16.25,26.12-11.91,3.8-24.46-1.32-29.55-12.2-1.11-2.39-2.39-5-2.44-7.54-.25-11.94-1.36-24.05.2-35.78,2.41-18.11,19.42-26.93,34.81-19.18,8.49,4.27,12.21,12.1,13.56,21C408.73,143.25,408.7,149.61,409.17,156.75Zm-16.25-13.59c.24-6.15.16-12-5.48-14.8-2.53-1.23-7.19-.77-9.53.86-4.59,3.22-4.5,8.63-3.75,13.94Z"/><path class="cls-2" d="M173.21,151.61c.82-6,1.11-13.57,3-20.71,3.07-11.62,11.95-17.63,23.71-17.38s20,6.3,23,17.76c3.61,13.72,3.43,27.77.68,41.53-2.47,12.33-12.19,19.27-24.56,19.12-12.22-.15-21.39-7.53-23.83-20C174,165.78,173.92,159.4,173.21,151.61Zm35.84.68.66,0c-.52-6.12-.66-12.3-1.68-18.34-.74-4.38-4.15-6.85-8.68-6.79-4.29,0-7.16,2.45-8.43,6.57a15.9,15.9,0,0,0-.86,4.38c-.08,9.33-.19,18.66,0,28,.07,2.57.56,5.69,2.08,7.52,1.8,2.17,5,4.44,7.5,4.41s5.59-2.42,7.32-4.64c1.49-1.89,1.81-5,2-7.57C209.27,161.3,209.05,156.78,209.05,152.29Z"/><path class="cls-2" d="M271.2,163.82h14.95c1.12,14-7.41,25.85-19.81,27.8C251.8,193.91,240,186.55,237,172.5a93,93,0,0,1,0-38.67c2.86-13.53,11.61-20.48,24.54-20.33,12.45.15,21.13,7.48,24.08,20.5.61,2.7.79,5.5,1.21,8.63h-15.5c-.45-2.83-.71-5.62-1.38-8.31-1.06-4.31-3.79-7.07-8.39-7.22s-8.4,2.19-8.63,6.62a354,354,0,0,0-.34,36.71c.28,5.56,4.63,8.12,9.27,7.86s7.23-3.07,8.33-9C270.54,167.5,270.86,165.72,271.2,163.82Z"/><path class="cls-7" d="M127.35,100.28c6.48,0,13-1.33,17.55,4.65,3.25,4.25,3.1,14.57-.15,19.54-4.26,6.52-10.82,5.1-17.4,5Z"/><path class="cls-8" d="M392.92,143.16H374.16c-.75-5.31-.84-10.72,3.75-13.94,2.34-1.63,7-2.09,9.53-.86C393.08,131.12,393.16,137,392.92,143.16Z"/><path class="cls-9" d="M209.05,152.29c0,4.49.22,9-.08,13.48-.17,2.6-.49,5.68-2,7.57-1.73,2.22-4.8,4.6-7.32,4.64s-5.7-2.24-7.5-4.41c-1.52-1.83-2-4.95-2.08-7.52-.22-9.32-.11-18.65,0-28a15.9,15.9,0,0,1,.86-4.38c1.27-4.12,4.14-6.52,8.43-6.57,4.53-.06,7.94,2.41,8.68,6.79,1,6,1.16,12.22,1.68,18.34Z"/></g></g></svg>