<svg xmlns="http://www.w3.org/2000/svg" xmlns:xlink="http://www.w3.org/1999/xlink" width="414" height="99" viewBox="0 0 414 99">
  <defs>
    <filter id="ONALD_KOVIC" x="66" y="18" width="348" height="81" filterUnits="userSpaceOnUse">
      <feOffset dy="3" input="SourceAlpha"/>
      <feGaussianBlur stdDeviation="3" result="blur"/>
      <feFlood flood-opacity="0.161"/>
      <feComposite operator="in" in2="blur"/>
      <feComposite in="SourceGraphic"/>
    </filter>
  </defs>
  <g id="Gruppe_129" data-name="Gruppe 129" transform="translate(-41 -36)">
    <g id="Ebene_2" data-name="Ebene 2" transform="translate(41 36)">
      <g id="Ebene_1" data-name="Ebene 1">
        <path id="Pfad_1" data-name="Pfad 1" d="M0,80.188V0H89.553V80.188Zm37.782-44.3c4.946,4.928,9.429,9.523,14.089,13.936a3.78,3.78,0,0,0,3.254.468c10.793-4.021,17-15.388,15.06-27.3C68.382,11.958,58.479,3.131,47.2,2.962c-13.638-.2-27.3-.035-40.919-.035a4.63,4.63,0,0,0-1.089.357c4.9,4.911,9.558,9.693,14.41,14.276a7.024,7.024,0,0,0,4.279,1.756c6.819.176,13.638,0,20.486.123a14.194,14.194,0,0,1,5.092.954,7.678,7.678,0,0,1,4.478,8.095,7.609,7.609,0,0,1-6.3,6.749C44.6,35.7,41.487,35.663,37.782,35.886ZM70.706,76.676C59.655,65.631,49.208,55.16,38.73,44.718a2.874,2.874,0,0,0-1.756-.866c-5-.07-10.009-.041-15.318-.041a7.076,7.076,0,0,0,.65,1.095Q37.694,60.288,53.1,75.67a3.266,3.266,0,0,0,1.973.972C60.007,76.723,64.97,76.676,70.706,76.676Z" fill="none"/>
        <g id="Gruppe_3" data-name="Gruppe 3">
          <path id="Pfad_2" data-name="Pfad 2" d="M41.46,37.921c3.705-.222,6.813-.2,9.857-.65a7.609,7.609,0,0,0,6.269-6.778A7.678,7.678,0,0,0,53.108,22.4a14.194,14.194,0,0,0-5.092-.954c-6.819-.094-13.638.053-20.457-.094a7.024,7.024,0,0,1-4.279-1.756C18.428,15.011,13.775,10.229,8.87,5.3a4.63,4.63,0,0,1,1.089-.339c13.638,0,27.282-.152,40.919.053,11.285.17,21.183,9,22.985,20.03,1.943,11.911-4.267,23.278-15.06,27.3a3.774,3.774,0,0,1-3.254-.468C50.89,47.444,46.406,42.849,41.46,37.921Z" transform="translate(-3.678 -2.035)" fill="#fff"/>
          <path id="Pfad_3" data-name="Pfad 3" d="M86.049,107.715c-5.76,0-10.7.035-15.634-.047a3.266,3.266,0,0,1-1.973-.972Q53.02,91.362,37.661,75.945A7.076,7.076,0,0,1,37,74.85c5.309,0,10.313,0,15.318.041a2.874,2.874,0,0,1,1.756.866C64.551,86.2,75,96.671,86.049,107.715Z" transform="translate(-15.343 -31.039)" fill="#fff"/>
        </g>
      </g>
    </g>
    <g transform="matrix(1, 0, 0, 1, 41, 36)" filter="url(#ONALD_KOVIC)">
      <text id="ONALD_KOVIC-2" data-name="ONALD KOVIC" transform="translate(75 73)" fill="#fff" font-size="50" font-family="SourceCodePro-Semibold, Source Code Pro" font-weight="600"><tspan x="0" y="0">ONALD KOVIC</tspan></text>
    </g>
  </g>
</svg>
