<svg xmlns="http://www.w3.org/2000/svg" viewBox="0 0 2499.36 712"><defs><style>.cls-1{fill:#fff;}</style></defs><title>TelefonicaWhite</title><g id="Ebene_2" data-name="Ebene 2"><g id="Ebene_1-2" data-name="Ebene 1"><path class="cls-1" d="M253,710.12C113.85,708.39,0,703.54,0,699.36,0,686.52,975.31,678,1754.9,684c406.14,3.13,740.45,7.66,742.87,10.08s2,6.76-.85,9.65C2491,709.64,640.12,715,253,710.12ZM220,552.31c0-3.69,7.53-14.9,16.76-24.89S283.88,432,321,337.65C398,142,418,103.73,464.19,64.51l33-28-83.62,5C318,47.2,261.69,64.13,226.67,97.69c-26.64,25.52-43,70.92-35.67,98.94,6.45,24.69-11.14,22.48-38.44-4.83-32.34-32.34-24.24-76.21,22.1-119.7C232.63,17.69,272.11,10.17,532.4,4,658.24,1.05,762.54-.65,764.17.24S756.09,9.09,742.58,18C724.21,30,696.91,34.79,634,37c-76,2.68-86.3,5.13-107.88,25.52-24.76,23.41-74.7,135.16-138.67,310.32-36.37,99.58-65.58,150.52-95.22,166C269.57,550.76,220,560,220,552.31Zm748,1.05c0-3.41,7.28-16.7,16.17-29.55s18.37-29.3,21.07-36.56,13.15-33.88,23.22-59.18l18.31-46-39.59,30.23C939.53,464,867,475.06,831.2,439.26,793.46,401.52,808.32,319,867.41,238.33c66.27-90.52,188.6-124,188.6-51.55,0,33.22-49.77,89.7-114,129.32-53.57,33.07-69.42,61.67-52.08,94.06,10.51,19.66,29.39,19.33,73.67-1.28,55.07-25.62,105.64-84.76,131.4-153.67,12.44-33.25,22.6-61.68,22.6-63.19s-8.91-4.41-19.8-6.44c-18.32-3.42-17.73-4.57,7.82-15.37,15.2-6.42,34.56-23.84,43-38.7,47.44-83.29,110.54-120.84,212.47-126.43,68.11-3.74,73.15-2.75,94.6,18.71,12.47,12.47,22.67,27.12,22.67,32.55,0,13.56-48.83,61.32-62.68,61.32-8.74,0-8.89-2.35-.67-10.56,5.8-5.81,10.55-21.55,10.55-35,0-53.24-81.24-67.25-141.43-24.4-25,17.78-78.57,90.13-78.57,106,0,3.43,39.6,4.07,88,1.4C1387,150,1404.9,158,1356.37,183.06c-71,36.73-139.16,233-83.64,240.88,42,6,117.68-128.49,117.68-209.27,0-23.4,3-25,79.2-42.79,96-22.38,109.24-19.27,103.06,24.1-2.48,17.43-7.5,39.09-11.14,48.16s12-3.4,34.67-27.68c46-49.21,82.36-68.28,114.65-60.17,42.6,10.69,38.64,33.81-33.46,194.57-20.07,44.76-31.61,84-31.68,107.8-.13,43.14-9.44,46.48-41.18,14.73-30.48-30.47-25.33-71.26,22.29-176.48,20-44.2,36.37-84.79,36.37-90.2,0-40.12-88.68,62.32-145.2,167.7-40.41,75.37-46.33,82.29-72.6,84.83-15.72,1.51-28.6-.19-28.6-3.81s19.8-57.35,44-119.46c52-133.54,54.44-150.73,19.8-142.45-34.32,8.2-37.4,10.87-37.4,32.46,0,24.73-45.28,120.61-75.91,160.79-47.48,62.22-125.82,90.31-168.52,60.4-44.65-31.27-11.73-162.47,57.63-229.7l34.88-33.8-51,2.94-51,2.95-36.84,102.65C1101.61,434.1,1061.27,518.63,1037,534.36c-24.1,15.58-69,27.95-69,19Zm1.64-291.91c33-34.87,46.51-72.36,28.62-79.22-25-9.58-75.74,53.48-96.14,119.34l-6.54,21.12,25.21-18.12c13.87-10,35.85-29.37,48.85-43.12ZM700.78,477.8c-18.22-14.33-23.19-25.86-23.19-53.84V388.35l-30.8,23.5c-69.76,53.2-132,62.93-168.64,26.34-20.45-20.44-22.07-27-16.73-67.28,14.1-106.25,95.66-203.17,187-222.18,21.61-4.5,32.1-1.75,45.86,12,15,15,16.38,22,8.72,44C691.73,237,622.13,303.27,573.24,328.2c-33.37,17-36.45,21.51-36.45,53.09,0,19,3.56,36.71,7.9,39.39,21,13,69.19-9.4,111-51.55,36.39-36.67,55.38-69.07,105.86-180.57,57.94-128,63.22-136.33,90.76-143.46,16.1-4.17,32.63-6.39,36.75-4.93s-21.55,68.64-57,149.27C755.59,363.17,736.78,417,736.78,462.33c0,38.76-4.14,40.54-36,15.47Zm-92.9-205.74c40.85-38.71,57.86-73,43.4-87.46-6.63-6.62-13.81-6.6-24.53.09-34.36,21.45-99.94,146.73-67.22,128.42,6.75-3.77,28.5-22.25,48.35-41.05ZM2257.63,477.17c-20.17-15.85-23.48-24.29-20.76-52.8,1.78-18.66.16-33.92-3.59-33.92s-6.83,3.93-6.83,8.74c0,17.33-72.74,61.66-101.16,61.66-30.73,0-57.24-22.44-57.24-48.43,0-15.23-1.24-15.12-19.8,1.86-54.92,50.23-124.93,61-161.1,24.89l-21.67-21.69-32,21.69c-37.07,25.14-83.3,28.22-104.57,6.94s-12.9-56.89,40.3-174.57c45.28-100.17,45.48-100.43,81.88-108,20.08-4.19,37.82-6.65,39.43-5.46s-19.18,51.4-46.2,111.59c-50.86,113.29-59.06,147.22-35.58,147.22,20.86,0,65.65-36.66,65.65-53.72,0-26.28,35-98.18,66.42-136.56,36-43.95,93.1-73.72,141.39-73.72,58.17,0,75.39,36.42,33,69.77-28.33,22.28-42.43,23.46-34,2.83,19.59-47.71-9.79-61.09-50.11-22.81-74.84,71-111.6,236.88-48.38,218.16,43-12.73,84.16-50.47,112-102.63,60.21-113,123.7-158.94,221.12-160.18,32.25-.4,61.53,2.15,65.09,5.68s-3.75,29.27-16.23,57.2c-38,85-69.7,189.23-71,233.35-.69,23-3.7,41.82-6.67,41.82s-16.21-8.48-29.41-18.86h0Zm-55-91.08c29-29.86,116.76-196,108.11-204.65-10.26-10.27-54.75,10.1-79.46,36.38-34.62,36.81-72.1,106.14-82.58,152.73C2135.85,427.85,2156.35,433.77,2202.66,386.09ZM1885.41,102.71c-15.06-5.67-13.88-42.12,1.78-55.12,19.91-16.53,44.42-7.53,44.42,16.3C1931.61,86.08,1903.66,109.58,1885.41,102.71Z"/></g></g></svg>