<svg xmlns="http://www.w3.org/2000/svg" xmlns:xlink="http://www.w3.org/1999/xlink" viewBox="0 0 440.82 260.46"><defs><style>.cls-1{isolation:isolate;}.cls-2{opacity:0.1;}.cls-10,.cls-12,.cls-13,.cls-14,.cls-3,.cls-4,.cls-5,.cls-7,.cls-8{fill:#9ffff8;}.cls-16,.cls-3{opacity:0.1;}.cls-17,.cls-5{opacity:0.46;}.cls-11,.cls-16,.cls-17,.cls-18,.cls-19,.cls-20,.cls-21,.cls-26,.cls-27,.cls-33,.cls-6,.cls-9{fill:#42e8e0;}.cls-18,.cls-7{opacity:0.37;}.cls-19,.cls-8{opacity:0.56;}.cls-14,.cls-9{opacity:0.91;}.cls-10,.cls-11{opacity:0.73;}.cls-12,.cls-20{opacity:0.55;}.cls-13,.cls-21{opacity:0.19;}.cls-15{fill:#fff;}.cls-22{opacity:0.2;}.cls-23{fill:url(#Áĺçűě_ííűé_ăđŕäčĺíň_16);}.cls-24,.cls-25,.cls-32,.cls-38,.cls-42,.cls-45,.cls-52{opacity:0.5;}.cls-24,.cls-25,.cls-29,.cls-32,.cls-38,.cls-42,.cls-45,.cls-49,.cls-52{mix-blend-mode:lighten;}.cls-24{fill:url(#Áĺçűě_ííűé_ăđŕäčĺíň_23);}.cls-25{fill:url(#Áĺçűě_ííűé_ăđŕäčĺíň_23-2);}.cls-26{opacity:0.4;}.cls-27,.cls-46{opacity:0.8;}.cls-28{fill:url(#Áĺçűě_ííűé_ăđŕäčĺíň_16-2);}.cls-30{fill:url(#Áĺçűě_ííűé_ăđŕäčĺíň_89);}.cls-31{fill:#251c72;}.cls-32{fill:url(#Áĺçűě_ííűé_ăđŕäčĺíň_23-3);}.cls-33{opacity:0.6;}.cls-34{fill:url(#Áĺçűě_ííűé_ăđŕäčĺíň_16-3);}.cls-35{fill:url(#Áĺçűě_ííűé_ăđŕäčĺíň_85);}.cls-36{fill:url(#Áĺçűě_ííűé_ăđŕäčĺíň_16-4);}.cls-37{fill:url(#Áĺçűě_ííűé_ăđŕäčĺíň_89-2);}.cls-38{fill:url(#Áĺçűě_ííűé_ăđŕäčĺíň_23-4);}.cls-39{fill:#bcbeff;}.cls-40{fill:url(#Áĺçűě_ííűé_ăđŕäčĺíň_16-5);}.cls-41{fill:url(#Áĺçűě_ííűé_ăđŕäčĺíň_89-3);}.cls-42{fill:url(#Áĺçűě_ííűé_ăđŕäčĺíň_8);}.cls-43{fill:url(#Áĺçűě_ííűé_ăđŕäčĺíň_16-6);}.cls-44{fill:url(#Áĺçűě_ííűé_ăđŕäčĺíň_89-4);}.cls-45{fill:url(#Áĺçűě_ííűé_ăđŕäčĺíň_23-5);}.cls-46{fill:url(#Áĺçűě_ííűé_ăđŕäčĺíň_160);}.cls-47{fill:url(#Áĺçűě_ííűé_ăđŕäčĺíň_41);}.cls-48{fill:url(#Áĺçűě_ííűé_ăđŕäčĺíň_41-2);}.cls-49{fill:url(#Áĺçűě_ííűé_ăđŕäčĺíň_116);}.cls-50{fill:url(#Áĺçűě_ííűé_ăđŕäčĺíň_16-7);}.cls-51{fill:url(#Áĺçűě_ííűé_ăđŕäčĺíň_89-5);}.cls-52{fill:url(#Áĺçűě_ííűé_ăđŕäčĺíň_23-6);}.cls-53{font-size:15px;fill:#309ba0;font-family:SourceCodePro-Bold, Source Code Pro;font-weight:700;}.cls-54{fill:#18b2a3;}</style><radialGradient id="Áĺçűě_ííűé_ăđŕäčĺíň_16" cx="951.87" cy="876.08" r="72.23" gradientTransform="matrix(0.78, 0, 0, -1.06, -392.61, 1151.82)" gradientUnits="userSpaceOnUse"><stop offset="0" stop-color="#c0bff6"/><stop offset="1" stop-color="#393091"/></radialGradient><radialGradient id="Áĺçűě_ííűé_ăđŕäčĺíň_23" cx="206.49" cy="582.67" r="51.89" gradientTransform="matrix(0.87, 0.5, -0.87, 0.5, 654.51, -221.9)" gradientUnits="userSpaceOnUse"><stop offset="0" stop-color="#42e8e0"/><stop offset="0.11" stop-color="#37b6bf"/><stop offset="0.22" stop-color="#2c87a1"/><stop offset="0.34" stop-color="#235f87"/><stop offset="0.46" stop-color="#1c3f72"/><stop offset="0.58" stop-color="#162561"/><stop offset="0.71" stop-color="#121355"/><stop offset="0.85" stop-color="#10084e"/><stop offset="1" stop-color="#0f054c"/></radialGradient><radialGradient id="Áĺçűě_ííűé_ăđŕäčĺíň_23-2" cx="-2892.23" cy="278.39" r="85.19" gradientTransform="matrix(0, 0.41, -1, 0, 641.2, 1256.93)" xlink:href="#Áĺçűě_ííűé_ăđŕäčĺíň_23"/><radialGradient id="Áĺçűě_ííűé_ăđŕäčĺíň_16-2" cx="-402.11" cy="-187.92" r="23.89" gradientTransform="translate(614.41 422.35) rotate(16.76)" xlink:href="#Áĺçűě_ííűé_ăđŕäčĺíň_16"/><linearGradient id="Áĺçűě_ííűé_ăđŕäčĺíň_89" x1="-413.36" y1="-172.39" x2="-399.24" y2="-187.65" gradientTransform="translate(614.41 422.35) rotate(16.76)" gradientUnits="userSpaceOnUse"><stop offset="0" stop-color="#2fd3c7"/><stop offset="0.09" stop-color="#31b6bd"/><stop offset="0.23" stop-color="#338db0"/><stop offset="0.37" stop-color="#356ba5"/><stop offset="0.52" stop-color="#37519c"/><stop offset="0.67" stop-color="#383f96"/><stop offset="0.83" stop-color="#393492"/><stop offset="1" stop-color="#393091"/></linearGradient><radialGradient id="Áĺçűě_ííűé_ăđŕäčĺíň_23-3" cx="2488.24" cy="3603.81" r="15.5" gradientTransform="matrix(-0.09, -1, 1, -0.09, -3088.86, 2926.86)" xlink:href="#Áĺçűě_ííűé_ăđŕäčĺíň_23"/><radialGradient id="Áĺçűě_ííűé_ăđŕäčĺíň_16-3" cx="-69.06" cy="-281.78" r="73.11" gradientTransform="translate(371.89 354.5) rotate(11.2)" xlink:href="#Áĺçűě_ííűé_ăđŕäčĺíň_16"/><linearGradient id="Áĺçűě_ííűé_ăđŕäčĺíň_85" x1="-400.4" y1="416.57" x2="-375.06" y2="416.57" gradientTransform="matrix(0.63, -0.77, 0.77, 0.63, 221.55, -458.74)" gradientUnits="userSpaceOnUse"><stop offset="0" stop-color="#706ec4"/><stop offset="0.02" stop-color="#6d6bc2"/><stop offset="0.25" stop-color="#5651ac"/><stop offset="0.49" stop-color="#463f9d"/><stop offset="0.73" stop-color="#3c3494"/><stop offset="1" stop-color="#393091"/></linearGradient><radialGradient id="Áĺçűě_ííűé_ăđŕäčĺíň_16-4" cx="951.87" cy="225.59" r="72.23" gradientTransform="translate(-392.61 -117.48) scale(0.78 1.06)" xlink:href="#Áĺçűě_ííűé_ăđŕäčĺíň_16"/><linearGradient id="Áĺçűě_ííűé_ăđŕäčĺíň_89-2" x1="927.07" y1="273.92" x2="927.07" y2="201.72" gradientTransform="translate(-392.61 -117.48) scale(0.78 1.06)" xlink:href="#Áĺçűě_ííűé_ăđŕäčĺíň_89"/><radialGradient id="Áĺçűě_ííűé_ăđŕäčĺíň_23-4" cx="327.87" cy="121.78" r="43.5" gradientTransform="matrix(1, 0, 0, 1, 0, 0)" xlink:href="#Áĺçűě_ííűé_ăđŕäčĺíň_23"/><radialGradient id="Áĺçűě_ííűé_ăđŕäčĺíň_16-5" cx="350.85" cy="73.7" r="56.37" gradientTransform="matrix(1, 0, 0, 1, 0, 0)" xlink:href="#Áĺçűě_ííűé_ăđŕäčĺíň_16"/><linearGradient id="Áĺçűě_ííűé_ăđŕäčĺíň_89-3" x1="325.4" y1="111.68" x2="334.68" y2="45.61" gradientTransform="matrix(1, 0, 0, 1, 0, 0)" xlink:href="#Áĺçűě_ííűé_ăđŕäčĺíň_89"/><radialGradient id="Áĺçűě_ííűé_ăđŕäčĺíň_8" cx="319.65" cy="81.72" r="27.69" gradientTransform="translate(57.31 -112.48) rotate(22.6)" gradientUnits="userSpaceOnUse"><stop offset="0" stop-color="#42e8e0"/><stop offset="0.06" stop-color="#3ccbcd"/><stop offset="0.18" stop-color="#3098ac"/><stop offset="0.3" stop-color="#266b8f"/><stop offset="0.42" stop-color="#1e4777"/><stop offset="0.54" stop-color="#172a65"/><stop offset="0.66" stop-color="#131657"/><stop offset="0.78" stop-color="#100a50"/><stop offset="0.9" stop-color="#0f064d"/><stop offset="1" stop-color="#0f054c"/></radialGradient><radialGradient id="Áĺçűě_ííűé_ăđŕäčĺíň_16-6" cx="-43.63" cy="-221.92" r="26.42" gradientTransform="translate(371.89 354.5) rotate(11.2)" xlink:href="#Áĺçűě_ííűé_ăđŕäčĺíň_16"/><linearGradient id="Áĺçűě_ííűé_ăđŕäčĺíň_89-4" x1="-57.99" y1="-203.06" x2="-40.78" y2="-221.65" gradientTransform="translate(371.89 354.5) rotate(11.2)" xlink:href="#Áĺçűě_ííűé_ăđŕäčĺíň_89"/><radialGradient id="Áĺçűě_ííűé_ăđŕäčĺíň_23-5" cx="368.89" cy="138.08" r="23.6" gradientTransform="matrix(1, 0, 0, 1, 0, 0)" xlink:href="#Áĺçűě_ííűé_ăđŕäčĺíň_23"/><radialGradient id="Áĺçűě_ííűé_ăđŕäčĺíň_160" cx="349.89" cy="-1737.1" r="22.24" gradientTransform="translate(0 2295.16) scale(1 1.28)" gradientUnits="userSpaceOnUse"><stop offset="0" stop-color="#2b237c"/><stop offset="0.31" stop-color="#251c72"/><stop offset="1" stop-color="#0f054c"/></radialGradient><linearGradient id="Áĺçűě_ííűé_ăđŕäčĺíň_41" x1="367.39" y1="93.48" x2="335.76" y2="103.1" gradientUnits="userSpaceOnUse"><stop offset="0" stop-color="#bcbeff"/><stop offset="0.15" stop-color="#a3a7f5"/><stop offset="0.39" stop-color="#8289e8"/><stop offset="0.61" stop-color="#6a73df"/><stop offset="0.82" stop-color="#5c66d9"/><stop offset="1" stop-color="#5761d7"/></linearGradient><linearGradient id="Áĺçűě_ííűé_ăđŕäčĺíň_41-2" x1="361.91" y1="95.49" x2="318.57" y2="100.65" xlink:href="#Áĺçűě_ííűé_ăđŕäčĺíň_41"/><linearGradient id="Áĺçűě_ííűé_ăđŕäčĺíň_116" x1="355.41" y1="108.23" x2="377.99" y2="70.88" gradientUnits="userSpaceOnUse"><stop offset="0" stop-color="#42e8e0"/><stop offset="0.12" stop-color="#42e2de"/><stop offset="0.27" stop-color="#41d3d7"/><stop offset="0.44" stop-color="#40b9cc"/><stop offset="0.62" stop-color="#3e94bc"/><stop offset="0.81" stop-color="#3c66a8"/><stop offset="1" stop-color="#393091"/></linearGradient><radialGradient id="Áĺçűě_ííűé_ăđŕäčĺíň_16-7" cx="-307.53" cy="-175.63" r="23.89" gradientTransform="translate(614.41 422.35) rotate(16.76)" xlink:href="#Áĺçűě_ííűé_ăđŕäčĺíň_16"/><linearGradient id="Áĺçűě_ííűé_ăđŕäčĺíň_89-5" x1="-318.78" y1="-160.1" x2="-304.66" y2="-175.35" xlink:href="#Áĺçűě_ííűé_ăđŕäčĺíň_89"/><radialGradient id="Áĺçűě_ííűé_ăđŕäčĺíň_23-6" cx="2441.61" cy="3687.01" r="15.5" gradientTransform="matrix(-0.09, -1, 1, -0.09, -3088.86, 2926.86)" xlink:href="#Áĺçűě_ííűé_ăđŕäčĺíň_23"/></defs><title>Thanks</title><g class="cls-1"><g id="Ebene_2" data-name="Ebene 2"><g id="Ńëîé_1" data-name="Ńëîé 1"><g class="cls-2"><path class="cls-3" d="M440.1,185.67v-1c-.14-.73-.31-1.46-.51-2.18v1c.2.72.37,1.45.52,2.18Zm-1.16-4.36v-1c-.24-.72-.49-1.43-.77-2.14v1c.28.7.53,1.42.77,2.13Zm-1.66-4.24v-1c-.32-.7-.66-1.39-1-2.08v1c.35.69.69,1.39,1,2.09Zm-2.16-4.15v-1c-.39-.68-.81-1.35-1.25-2v1c.44.67.86,1.34,1.25,2Zm-2.62-4v-1c-.47-.66-1-1.32-1.49-2v1c.52.65,1,1.3,1.49,2ZM429.42,165v-1c-.55-.63-1.12-1.26-1.7-1.89v1c.58.62,1.15,1.25,1.7,1.89Zm-3.52-3.75v-1c-.62-.61-1.26-1.21-1.91-1.81v1c.65.6,1.29,1.2,1.91,1.81ZM422,157.69v-1c-.69-.59-1.4-1.16-2.12-1.73v1c.72.57,1.43,1.15,2.12,1.73Zm-4.34-3.42v-1c-.75-.55-1.52-1.1-2.3-1.64v1c.78.54,1.55,1.08,2.3,1.64Zm-4.7-3.24v-1c-.82-.52-1.66-1-2.5-1.55v1c.84.51,1.68,1,2.5,1.56ZM407.86,148v-1c-.87-.5-1.76-1-2.66-1.46v1c.9.48,1.79,1,2.66,1.45Zm-5.43-2.86v-1c-.92-.46-1.87-.91-2.82-1.35v1c.95.44,1.9.89,2.82,1.35Zm37.67,38.38v-1q-.21-1.09-.51-2.19v1.05c.2.72.37,1.45.52,2.18Zm-1.16-4.36v-1c-.24-.72-.49-1.43-.77-2.14V177c.28.7.53,1.42.77,2.13Zm-3.82-8.39v-1c-.39-.68-.81-1.36-1.25-2v1.05c.44.67.86,1.34,1.25,2Zm-2.62-4v-1c-.47-.66-1-1.31-1.49-2v1c.52.65,1,1.31,1.49,2Zm-3.08-3.89v-1.05c-.55-.63-1.12-1.26-1.7-1.88v1c.58.62,1.15,1.25,1.7,1.89Zm-3.52-3.75v-1c-.62-.61-1.26-1.21-1.91-1.81v1c.65.6,1.29,1.2,1.91,1.81ZM422,155.51v-1c-.69-.58-1.4-1.16-2.12-1.73v1c.72.57,1.43,1.15,2.12,1.73Zm-14.12-9.72v-1c-.87-.49-1.76-1-2.66-1.45v1c.9.48,1.79,1,2.66,1.45Zm-5.43-2.86v-1c-.92-.46-1.87-.91-2.82-1.35v1.05c.95.44,1.9.89,2.82,1.34ZM440.1,181.3v-1c-.14-.73-.31-1.46-.51-2.18v1c.2.73.37,1.46.52,2.19Zm-1.16-4.36v-1c-.24-.71-.49-1.43-.77-2.13v1c.28.71.53,1.42.77,2.14Zm-6.44-12.41v-1c-.47-.66-1-1.32-1.49-2v1c.52.65,1,1.3,1.49,2Zm-3.08-3.89v-1c-.55-.64-1.12-1.27-1.7-1.89v1c.58.62,1.15,1.25,1.7,1.88Zm-3.52-3.74v-1c-.62-.61-1.26-1.21-1.91-1.81v1c.65.59,1.29,1.2,1.91,1.81ZM422,153.32v-1c-.69-.58-1.4-1.16-2.12-1.73v1c.72.57,1.43,1.15,2.12,1.73Zm-14.12-9.72v-1c-.87-.49-1.76-1-2.66-1.45v1c.9.47,1.79,1,2.66,1.45Zm-5.43-2.86v-1c-.92-.45-1.87-.9-2.82-1.34v1c.95.44,1.9.89,2.82,1.35Zm37.67,38.38v-1c-.14-.74-.31-1.46-.51-2.19v1c.2.73.37,1.46.52,2.19Zm-1.16-4.36v-1c-.24-.72-.49-1.43-.77-2.14v1c.28.71.53,1.42.77,2.14Zm-9.52-16.3v-1c-.55-.63-1.12-1.26-1.7-1.88v1c.58.62,1.15,1.25,1.7,1.88Zm-3.52-3.74v-1c-.62-.61-1.26-1.22-1.91-1.81v1c.65.6,1.29,1.2,1.91,1.81ZM422,151.14v-1c-.69-.59-1.4-1.16-2.12-1.73v1c.72.57,1.43,1.15,2.12,1.73Zm-43.81-18v-6.1a173.39,173.39,0,0,0-29.88-5.35v6.1a173.39,173.39,0,0,1,29.88,5.35Zm-33.8-5.67v-6.1c-3.86-.28-7.8-.44-11.78-.48-2.94,0-5.84,0-8.72.11v6.1c2.88-.1,5.78-.13,8.72-.11,4,0,7.92.21,11.78.48Zm95.73,49.43v-1q-.21-1.1-.51-2.19v1c.2.72.37,1.45.52,2.18Zm-1.16-4.35v-1c-.24-.72-.49-1.43-.77-2.14v1c.28.71.53,1.42.77,2.14Zm-9.52-16.3v-1c-.55-.63-1.12-1.26-1.7-1.88v1c.58.63,1.15,1.26,1.7,1.89Zm-3.52-3.75v-1c-.62-.61-1.26-1.22-1.91-1.81v1c.65.6,1.29,1.2,1.91,1.81Zm14.2,22.23v-1c-.14-.73-.31-1.46-.51-2.18v1c.2.73.37,1.46.52,2.19Zm-10.68-20.66v-1c-.55-.64-1.12-1.27-1.7-1.89v1c.58.62,1.15,1.25,1.7,1.88Zm-3.52-3.74v-1c-.62-.61-1.26-1.21-1.91-1.81v1c.65.59,1.29,1.2,1.91,1.81Zm9.22,18.2V157.24c-.39-.68-.81-1.35-1.25-2v11.3c.44.67.86,1.35,1.25,2ZM388,126.82v-6.09a167.83,167.83,0,0,0-39.67-8.4v6.09a166.84,166.84,0,0,1,39.67,8.4Zm-43.59-8.72V112c-3.86-.27-7.8-.43-11.78-.47a187.54,187.54,0,0,0-31.65,2.32v6.08a188.58,188.58,0,0,1,31.65-2.32c4,0,7.92.2,11.78.48Zm68.57,21v-8c-.82-.53-1.66-1.05-2.5-1.56v17.74c.84.52,1.68,1,2.5,1.56v-9.77Zm19.56,23.28v-14c-.47-.66-1-1.31-1.49-2v14c.52.65,1,1.3,1.49,2Zm4.78,12.53V156.26c-.32-.7-.66-1.39-1-2.08v18.63c.35.68.69,1.38,1,2.08Zm-29.42-33.7V124.9c-.87-.49-1.76-1-2.66-1.45v16.29c.9.47,1.79.95,2.66,1.45Zm21.56,10.62V140c-.55-.64-1.12-1.27-1.7-1.89v11.77c.58.62,1.15,1.25,1.7,1.89Zm-11.78.28v-22.8c-.75-.56-1.52-1.1-2.3-1.64v22.8c.78.54,1.55,1.08,2.3,1.64Zm21.3,17.27v-13.6c-.24-.72-.49-1.43-.77-2.14v14.63c.28.71.53,1.42.77,2.14v-1Zm-17-20.42V131.13c-.69-.58-1.4-1.16-2.12-1.73v17.82c.72.57,1.43,1.14,2.12,1.72Zm-30.33-30.17v-6.08c-.95-.36-1.91-.72-2.88-1.06v6.08c1,.35,1.93.7,2.88,1.06Zm-5.55-2V110.7q-1.49-.49-3-1v6.08c1,.31,2,.64,3,1ZM380.32,115V108.9c-1-.3-2.05-.58-3.09-.86v6.08l3.09.86Zm-6-1.6v-6.09c-1.06-.26-2.12-.51-3.19-.75v6.08c1.07.24,2.13.5,3.19.76Zm-6.81-1.54v-6.08a177.85,177.85,0,0,0-19.25-2.82V109a180.36,180.36,0,0,1,19.25,2.82Zm-23.17-3.14v-6.08c-3.86-.28-7.8-.44-11.78-.48A192.24,192.24,0,0,0,312,103v6.08a192.28,192.28,0,0,1,20.55-.88c4,0,7.92.2,11.78.47Zm95.73,63.6V156.12c-.14-.73-.31-1.46-.51-2.18v16.17c.2.73.37,1.46.52,2.19Zm-37.67-34V115.56c-.92-.46-1.87-.91-2.82-1.35V137c.95.44,1.9.89,2.82,1.35Zm23.47,9.73V131.22c-.62-.61-1.26-1.22-1.91-1.81v16.84c.65.6,1.29,1.2,1.91,1.81Zm-132-49.4a186.34,186.34,0,0,1,38.69-3.59c59.54.6,107.23,28.18,108.23,62.07v39c-1-33.89-48.69-61.48-108.23-62.07a185.66,185.66,0,0,0-38.69,3.59v-39Z"/><path class="cls-4" d="M439.58,153.94c.2.72.37,1.45.52,2.18V172.3q-.21-1.1-.51-2.19V153.94Z"/><path class="cls-4" d="M439.58,171.54c.2.72.37,1.45.52,2.18v1q-.21-1.09-.51-2.19v-1Z"/><path class="cls-4" d="M439.58,173.71c.2.73.37,1.46.52,2.19v1c-.14-.73-.31-1.46-.51-2.18v-1Z"/><path class="cls-4" d="M439.58,175.89c.2.73.37,1.45.52,2.19v1q-.21-1.1-.51-2.19v-1Z"/><path class="cls-4" d="M439.58,178.09c.2.72.37,1.45.52,2.18v1q-.21-1.1-.51-2.19v-1Z"/><path class="cls-4" d="M439.58,180.26c.2.73.37,1.46.52,2.19v1c-.14-.73-.31-1.46-.51-2.18v-1.05Z"/><path class="cls-4" d="M439.58,182.46c.2.72.37,1.45.52,2.18v1c-.14-.73-.31-1.46-.51-2.18v-1Z"/><path class="cls-4" d="M438.94,169.36v1c-.24-.72-.49-1.43-.77-2.14V168c.28.71.53,1.42.77,2.14v-.78Z"/><path class="cls-4" d="M438.17,169.4c.28.71.53,1.42.77,2.14v1c-.24-.72-.49-1.43-.77-2.14v-1Z"/><path class="cls-4" d="M438.17,171.58c.28.71.53,1.42.77,2.14v1c-.24-.72-.49-1.43-.77-2.14v-1Z"/><path class="cls-4" d="M438.17,173.78c.28.7.53,1.42.77,2.13v1c-.24-.72-.49-1.43-.77-2.14v-1Z"/><path class="cls-4" d="M438.17,176c.28.71.53,1.42.77,2.14v1c-.24-.71-.49-1.43-.77-2.13V176Z"/><path class="cls-4" d="M438.17,178.15c.28.71.53,1.42.77,2.14v1c-.24-.71-.49-1.43-.77-2.13v-1Z"/><path class="cls-4" d="M433.87,167.67c.44.67.86,1.35,1.25,2v1c-.39-.68-.81-1.35-1.25-2v-1.05Z"/><path class="cls-4" d="M433.87,169.87c.44.67.86,1.34,1.25,2v1c-.39-.68-.81-1.35-1.25-2v-1Z"/><path class="cls-4" d="M436.27,174c.35.69.69,1.38,1,2.08v1c-.32-.7-.66-1.4-1-2.09v-1Z"/><path class="cls-4" d="M431,161.54c.52.65,1,1.31,1.49,2v1c-.47-.66-1-1.31-1.49-2v-1Z"/><path class="cls-4" d="M431,163.72c.52.65,1,1.3,1.49,2v1c-.47-.66-1-1.32-1.49-2v-1Z"/><path class="cls-4" d="M431,165.91c.52.65,1,1.31,1.49,2v1c-.47-.67-1-1.32-1.49-2v-1Z"/><path class="cls-4" d="M427.72,151.18c.58.62,1.15,1.25,1.7,1.89v1c-.55-.63-1.12-1.26-1.7-1.88v-1Z"/><path class="cls-4" d="M427.72,153.36c.58.62,1.15,1.25,1.7,1.88v1c-.55-.63-1.12-1.26-1.7-1.89v-1Z"/><path class="cls-4" d="M427.72,155.54c.58.62,1.15,1.25,1.7,1.88v1c-.55-.63-1.12-1.26-1.7-1.88v-1Z"/><path class="cls-4" d="M427.72,157.73c.58.62,1.15,1.25,1.7,1.89v1c-.55-.63-1.12-1.26-1.7-1.88v-1Z"/><path class="cls-4" d="M427.72,159.91c.58.62,1.15,1.25,1.7,1.88v1.05c-.55-.64-1.12-1.27-1.7-1.89v-1Z"/><path class="cls-4" d="M427.72,162.1c.58.63,1.15,1.26,1.7,1.89v1c-.55-.64-1.12-1.27-1.7-1.89v-1Z"/><path class="cls-4" d="M424,147.51c.65.6,1.29,1.2,1.91,1.81v1c-.62-.61-1.26-1.22-1.91-1.81v-1Z"/><path class="cls-4" d="M424,149.69c.65.59,1.29,1.2,1.91,1.81v1c-.62-.61-1.26-1.21-1.91-1.81v-1Z"/><path class="cls-4" d="M424,151.87c.65.59,1.29,1.2,1.91,1.81v1c-.62-.61-1.26-1.21-1.91-1.81v-1Z"/><path class="cls-4" d="M424,154.06c.65.6,1.29,1.2,1.91,1.81v1c-.62-.61-1.26-1.22-1.91-1.81v-1Z"/><path class="cls-4" d="M424,156.24c.65.6,1.29,1.2,1.91,1.81v1c-.62-.61-1.26-1.21-1.91-1.81v-1Z"/><path class="cls-4" d="M424,158.43c.65.6,1.29,1.2,1.91,1.81v1c-.62-.61-1.26-1.21-1.91-1.81v-1Z"/><path class="cls-4" d="M419.86,148.37c.72.57,1.43,1.14,2.12,1.73v1c-.69-.58-1.4-1.16-2.12-1.73v-1Z"/><path class="cls-4" d="M419.86,150.56c.72.57,1.43,1.15,2.12,1.73v1c-.69-.58-1.4-1.16-2.12-1.73v-1Z"/><path class="cls-4" d="M419.86,152.74c.72.57,1.43,1.15,2.12,1.73v1c-.69-.58-1.4-1.16-2.12-1.73v-1Z"/><path class="cls-4" d="M419.86,154.94c.72.57,1.43,1.14,2.12,1.73v1c-.69-.58-1.4-1.16-2.12-1.73v-1Z"/><path class="cls-4" d="M415.34,151.6c.78.54,1.55,1.09,2.3,1.64v1c-.75-.56-1.52-1.1-2.3-1.64v-1Z"/><path class="cls-4" d="M412.94,147.81v1c-.82-.53-1.66-1-2.5-1.56v-.81l2.5,1.56v-.23Z"/><path class="cls-4" d="M410.44,148.45c.84.51,1.68,1,2.5,1.55v1c-.82-.53-1.66-1.05-2.5-1.56v-1Z"/><path class="cls-4" d="M405.2,141.12c.9.48,1.79,1,2.66,1.45v1c-.87-.49-1.76-1-2.66-1.45v-1Z"/><path class="cls-4" d="M405.2,143.3c.9.47,1.79,1,2.66,1.45v1c-.87-.49-1.76-1-2.66-1.45v-1Z"/><path class="cls-4" d="M405.2,145.49c.9.48,1.79,1,2.66,1.46v1c-.87-.49-1.76-1-2.66-1.45v-1Z"/><path class="cls-4" d="M399.61,138.37c.95.44,1.9.89,2.82,1.34v1c-.92-.46-1.87-.91-2.82-1.35v-1Z"/><path class="cls-4" d="M399.61,140.54c.95.44,1.9.89,2.82,1.35v1c-.92-.45-1.87-.9-2.82-1.34v-1.05Z"/><path class="cls-4" d="M399.61,142.74c.95.44,1.9.89,2.82,1.35v1c-.92-.46-1.87-.91-2.82-1.35v-1Z"/><path class="cls-4" d="M438.17,153.62c.28.71.53,1.42.77,2.14v14.38c-.24-.72-.49-1.43-.77-2.14V153.62Z"/><path class="cls-4" d="M436.27,154.18c.35.69.69,1.38,1,2.08v18.63c-.32-.7-.66-1.4-1-2.08V154.18Z"/><path class="cls-4" d="M433.87,155.22c.44.67.86,1.34,1.25,2v11.31c-.39-.68-.81-1.36-1.25-2v-11.3Z"/><path class="cls-4" d="M431,146.39c.52.65,1,1.3,1.49,2v14c-.47-.67-1-1.32-1.49-2v-14Z"/><path class="cls-4" d="M427.72,138.15c.58.62,1.15,1.25,1.7,1.89v11.77c-.55-.64-1.12-1.27-1.7-1.89V138.15Z"/><path class="cls-4" d="M424,129.41c.65.59,1.29,1.2,1.91,1.81v16.84c-.62-.61-1.26-1.21-1.91-1.81V129.41Z"/><path class="cls-4" d="M419.86,129.4c.72.57,1.43,1.15,2.12,1.73v17.81c-.69-.58-1.4-1.15-2.12-1.72V129.4Z"/><path class="cls-4" d="M415.34,127.65c.78.54,1.55,1.08,2.3,1.64v22.8c-.75-.56-1.52-1.1-2.3-1.64v-22.8Z"/><path class="cls-4" d="M410.44,129.55c.84.51,1.68,1,2.5,1.56V148l-2.5-1.56V129.55Z"/><path class="cls-4" d="M405.2,123.45c.9.47,1.79,1,2.66,1.45v16.29c-.87-.5-1.76-1-2.66-1.45V123.45Z"/><path class="cls-4" d="M399.61,114.21c.95.44,1.9.89,2.82,1.35v22.77c-.92-.46-1.87-.91-2.82-1.35V114.21Z"/><path class="cls-5" d="M344.37,106.44v-1.7c-3.86-.27-7.8-.43-11.78-.47-1.52,0-3,0-4.52,0V106c1.5,0,3,0,4.52,0,4,0,7.92.2,11.78.48ZM312,103a192.24,192.24,0,0,1,20.55-.89c4,0,7.92.2,11.78.48v6.08c-3.86-.27-7.8-.43-11.78-.47a192.28,192.28,0,0,0-20.55.88V103Z"/><path class="cls-5" d="M344.37,115.9v-1.69c-3.86-.28-7.8-.44-11.78-.48q-5.25,0-10.38.18v1.69q5.13-.22,10.38-.17c4,0,7.92.2,11.78.47Zm-43.43-2a187.54,187.54,0,0,1,31.65-2.32c4,0,7.92.2,11.78.47v6.09c-3.86-.28-7.8-.44-11.78-.48a188.58,188.58,0,0,0-31.65,2.32v-6.08Z"/><path class="cls-5" d="M344.37,125.37v-1.69c-3.2-.23-6.46-.38-9.75-.45v1.69c3.29.07,6.55.22,9.75.45ZM323.87,121c2.88-.1,5.78-.14,8.72-.11,4,0,7.92.2,11.78.48v6.1c-3.86-.27-7.8-.44-11.78-.48-2.94,0-5.84,0-8.72.11V121Z"/><path class="cls-6" d="M348.29,121.71a173.39,173.39,0,0,1,29.88,5.35v6.1a173.39,173.39,0,0,0-29.88-5.35v-6.1Z"/><path class="cls-6" d="M348.29,112.33a167.83,167.83,0,0,1,39.67,8.4v6.09a166.84,166.84,0,0,0-39.67-8.4v-6.09Z"/><path class="cls-6" d="M348.29,102.94a177.85,177.85,0,0,1,19.25,2.82v6.08A180.36,180.36,0,0,0,348.29,109v-6.08Z"/><path class="cls-6" d="M371.16,106.54c1.07.24,2.13.49,3.19.75v6.09c-1.06-.26-2.12-.52-3.19-.76v-6.08Z"/><path class="cls-6" d="M377.23,108c1,.28,2.07.56,3.09.86V115l-3.09-.86V108Z"/><path class="cls-6" d="M383.1,109.74q1.51.47,3,1v6.09c-1-.33-2-.66-3-1v-6.08Z"/><path class="cls-6" d="M388.77,111.63c1,.34,1.93.7,2.88,1.06v6.08c-.95-.36-1.91-.71-2.88-1.06v-6.08Z"/><path class="cls-4" d="M328.07,104.27c1.5,0,3,0,4.52,0,4,0,7.92.2,11.78.47v1.7c-3.86-.28-7.8-.44-11.78-.48-1.52,0-3,0-4.52,0v-1.7Z"/><path class="cls-4" d="M322.21,113.91q5.13-.22,10.38-.18c4,0,7.92.2,11.78.48v1.69c-3.86-.27-7.8-.43-11.78-.47q-5.25-.06-10.38.17v-1.69Z"/><path class="cls-4" d="M334.62,123.23c3.29.07,6.55.22,9.75.45v1.69c-3.2-.23-6.46-.38-9.75-.45v-1.69Z"/><path class="cls-3" d="M250.25,134.57c2.56-1.72,3.1-5.64,1.32-6-2.06-.46-4.52,3.83-3.34,5.8.39.66,1.16.75,2,.23Zm-26,23c1.11-2.52,1.25-6.6.44-6.3s-1.82,6.53-1,6.9c.08,0,.27,0,.56-.6Zm-3.79,34.81c0-.37,0-.75,0-1.12.56-18.35,14.7-34.74,36.84-46.07l.24.29.55-.69h0l.55-.68c-6.6-8-8.17-9.85-12.19-2.48-1.86,3.64-3.56,5.11-5,4.38-8.37-5.44-8.37-5.44-10.6,1.13-3.71,12.6-3.71,12.6-4.77,13-1.29.4-2,.62-2.88,5-1.58,9.81-1.58,9.81-2,14.37a20.81,20.81,0,0,1-.52,3.35l-.16-.34v9.82Zm0,4.95v-39c0-.38,0-.75,0-1.13.63-20.69,18.54-38.89,45.7-50.15v39c-30.23,13.56-45.61,30.81-45.72,51.27Z"/><path class="cls-7" d="M258.15,144.74ZM236.5,156.38v-1.69c-.39.37-.78.74-1.16,1.12v1.69l1.16-1.12Zm0-3.33v-1.71a62.68,62.68,0,0,0-6.39,7V160a62.68,62.68,0,0,1,6.39-7Zm-16,39.29v-7.89l.1.26a29.61,29.61,0,0,0,.69-4.51c.65-6,1.13-8.65,2.18-14.5.68-3.25,1.07-3.37,2.36-3.8,1.12-.56,1.12-.56,5.59-14.41,1.67-4.85,1.67-4.85,9.31.12,1.34.66,3.56.25,6.6-5.49,3-5.44,3.66-4.64,10,3-22.14,11.33-36.28,27.72-36.84,46.07,0,.37,0,.75,0,1.12Z"/><path class="cls-4" d="M220.49,184.45l.1.26a29.61,29.61,0,0,0,.69-4.51c.65-6,1.13-8.65,2.18-14.5.67-3.19,1-3.32,2.36-3.8,1.12-.56,1.12-.56,5.59-14.41,1.67-4.85,1.67-4.85,9.31.12,1.34.66,3.56.25,6.6-5.49,3-5.44,3.66-4.64,10,3l.24.29.55-.69h0l.55-.68-4.93-6c-.37-.38-3.71-3.47-7.84,4.63-2.51,4.61-2.51,4.61-10.44-.68-3-1.5-4.79,5-7.24,14-1.07,3.71-1.73,3.94-3.05,4.39-1,.54-1.95,1.1-4,18.72a30.47,30.47,0,0,1-.49,3.64l-.23-.22v1.93Z"/><path class="cls-4" d="M224.28,151.81c.49-1,.74-.54.84-.2.56,1.84-.74,6.81-1.4,6.52s-.23-4.65.56-6.32Z"/><path class="cls-4" d="M250.25,128.84c1.91-1,2.79.6,2.18,2.68-.76,2.6-3.32,4.31-4.2,2.82s.27-4.43,2-5.5Z"/><path class="cls-4" d="M230.11,158.31a62.68,62.68,0,0,1,6.39-7v1.71a62.68,62.68,0,0,0-6.39,7v-1.71Z"/><path class="cls-4" d="M235.34,155.81c.38-.38.77-.75,1.16-1.12v1.69l-1.16,1.12v-1.69Z"/></g><g class="cls-2"><g class="cls-1"><g class="cls-1"><path class="cls-3" d="M233.21,221.82v-27a81.31,81.31,0,0,0,19,14.88v27a81.31,81.31,0,0,1-19-14.88ZM227,187.72v26.11a40,40,0,0,1-6.55-21.49v-9.82c0-.11.09-.27.12-.39.39-1.65.8-3.35,1.35-3.93.24.14.73.43,1.62,4.41a10.87,10.87,0,0,0,.72,2.29c.28.56.5.82.77.89l1.8.15.34,1.79Zm38.19,60.4v-39c-27.18-11.53-44.74-30-44.74-50.82v39c1.53,21.69,15.33,37.37,44.74,50.83Z"/><path class="cls-7" d="M221.28,196v-1.69A40.37,40.37,0,0,0,225,204.72v1.69A40.37,40.37,0,0,1,221.28,196Zm0-3.32V191a40,40,0,0,0,2.49,7.78v1.69a40.14,40.14,0,0,1-2.49-7.77ZM227,213.83V187.72l-1.68-.13c-.33-.12-1.18-.44-2-4.28-.57-2.63-.91-3-1.12-3.26-.27.14-.75.94-1.54,3.92l-.2.48v7.89A40,40,0,0,0,227,213.83Z"/><path class="cls-4" d="M227,187.72l-1.68-.13c-1-.22-1.62-2.45-2-4.28-1-4.73-1.39-4.14-2.66.66a2.7,2.7,0,0,1-.2.48v-1.93l.09-.27a.08.08,0,0,0,0-.05,13.47,13.47,0,0,1,1.18-3.81c.57-.89,1.44,2.64,1.69,3.74a9.46,9.46,0,0,0,1.22,3.41c.21.24.21.24,2.18.4l.34,1.79Z"/><path class="cls-3" d="M300.33,253.09V251c1.22.2,2.44.39,3.67.57v2.12c-1.23-.18-2.45-.36-3.67-.56Zm7.38,1V252q1.88.22,3.78.42v2.12q-1.9-.19-3.78-.42Zm7.59.76v-2.12c1.27.1,2.56.19,3.84.27v2.12c-1.28-.08-2.57-.17-3.84-.27Zm7.76.46v-2.12c1.3,0,2.61.09,3.92.11v2.13c-1.31,0-2.62-.06-3.92-.12Zm7.88.15v-2.12c1.31,0,2.62,0,3.92,0v2.12c-1.3,0-2.61,0-3.92,0Zm7.84-.16v-2.13c1.29-.05,2.58-.12,3.86-.2v2.13c-1.28.08-2.57.14-3.86.2Zm7.68-.48v-2.12c1.27-.11,2.54-.23,3.8-.36v2.13c-1.26.13-2.53.25-3.8.35Zm7.54-.77V252c1.23-.15,2.46-.32,3.68-.49v2.12c-1.22.18-2.45.34-3.68.5Zm7.35-1.07v-2.12c1.2-.2,2.4-.41,3.59-.64v2.13c-1.19.22-2.39.43-3.59.63Zm7.13-1.34v-2.12c1.17-.25,2.33-.5,3.48-.77v2.12c-1.15.27-2.31.53-3.48.77Zm6.93-1.61V248q1.69-.44,3.36-.9v2.13c-1.11.31-2.23.61-3.36.89Zm6.66-1.85V246.1c1.1-.33,2.19-.67,3.26-1v2.13c-1.07.35-2.16.69-3.26,1Zm6.43-2.12V244c1.05-.37,2.08-.75,3.11-1.14V245c-1,.39-2.06.77-3.11,1.14Zm6.15-2.34v-2.13c1-.41,2-.82,3-1.25v2.12c-1,.43-2,.85-3,1.26Zm5.84-2.57v-2.12c.95-.45,1.88-.9,2.8-1.36v2.12c-.92.46-1.85.92-2.8,1.36Zm5.54-2.78v-2.13c.89-.48,1.77-1,2.63-1.46V237c-.86.5-1.74,1-2.63,1.47Zm5.18-3v-2.13c.84-.51,1.67-1,2.48-1.57v2.12c-.81.54-1.64,1.06-2.48,1.58Zm4.85-3.19v-2.12c.78-.55,1.54-1.1,2.28-1.66v2.13q-1.11.84-2.28,1.65Zm4.46-3.35v-2.13c.72-.58,1.42-1.16,2.1-1.75v2.12c-.68.59-1.38,1.18-2.1,1.76Zm4.08-3.54v-2.13c.65-.6,1.28-1.21,1.89-1.82v2.12q-.92.93-1.89,1.83Zm3.67-3.7v-2.13c.58-.63,1.14-1.26,1.67-1.9v2.12c-.53.64-1.09,1.28-1.67,1.91Zm3.23-3.84v-2.13c.51-.65,1-1.32,1.46-2v2.12c-.46.67-.95,1.33-1.46,2Zm2.8-4V211.7c.42-.68.83-1.36,1.21-2v2.12c-.38.69-.79,1.37-1.21,2Zm2.31-4.11v-2.12c.35-.7.68-1.41,1-2.12v2.13c-.3.71-.63,1.41-1,2.11Zm1.84-4.24v-2.13c.26-.71.5-1.43.72-2.15v2.12q-.33,1.08-.72,2.16Zm1.33-4.35V199c.17-.73.33-1.47.46-2.21v2.13c-.13.74-.29,1.47-.46,2.21ZM300.33,249.27v-2.12c1.22.2,2.44.38,3.67.56v2.12c-1.23-.17-2.45-.36-3.67-.56Zm7.38,1V248.2q1.88.23,3.78.42v2.12q-1.9-.18-3.78-.42Zm7.59.77V249c1.27.11,2.56.2,3.84.27v2.13c-1.28-.08-2.57-.17-3.84-.27Zm7.76.46v-2.12c1.3,0,2.61.08,3.92.11v2.12c-1.31,0-2.62-.06-3.92-.11Zm7.88.15v-2.13c1.31,0,2.62,0,3.92,0v2.12c-1.3,0-2.61,0-3.92,0Zm7.84-.17v-2.12c1.29-.06,2.58-.12,3.86-.2v2.12c-1.28.08-2.57.15-3.86.2Zm7.68-.48v-2.12c1.27-.1,2.54-.22,3.8-.35v2.12c-1.26.13-2.53.25-3.8.35Zm7.54-.77v-2.12c1.23-.16,2.46-.32,3.68-.5v2.12c-1.22.18-2.45.35-3.68.5Zm7.35-1.06v-2.13c1.2-.2,2.4-.41,3.59-.63v2.12c-1.19.22-2.39.44-3.59.64Zm7.13-1.34v-2.13c1.17-.24,2.33-.5,3.48-.76v2.12c-1.15.27-2.31.52-3.48.77Zm6.93-1.61v-2.12q1.69-.43,3.36-.9v2.12q-1.66.47-3.36.9Zm6.66-1.86v-2.12c1.1-.34,2.19-.68,3.26-1v2.12c-1.07.35-2.16.7-3.26,1Zm6.43-2.11v-2.12l3.11-1.15v2.13c-1,.39-2.06.77-3.11,1.14Zm6.15-2.35v-2.12c1-.41,2-.83,3-1.26v2.13c-1,.42-2,.84-3,1.25Zm5.84-2.56v-2.13c.95-.44,1.88-.9,2.8-1.36V236c-.92.47-1.85.92-2.8,1.37ZM406,234.6v-2.12c.89-.48,1.77-1,2.63-1.47v2.13c-.86.49-1.74,1-2.63,1.46Zm5.18-3V229.5c.84-.52,1.67-1,2.48-1.58v2.13c-.81.53-1.64,1-2.48,1.57Zm4.85-3.18v-2.13q1.17-.81,2.28-1.65v2.12c-.74.56-1.5,1.11-2.28,1.66Zm4.46-3.36V223c.72-.58,1.42-1.17,2.1-1.76v2.13c-.68.59-1.38,1.17-2.1,1.75Zm4.08-3.54v-2.12q1-.9,1.89-1.83v2.13c-.61.61-1.24,1.22-1.89,1.82Zm3.67-3.7v-2.12c.58-.63,1.14-1.27,1.67-1.91v2.13c-.53.64-1.09,1.27-1.67,1.9ZM431.5,214v-2.12c.51-.66,1-1.32,1.46-2V212c-.46.67-.95,1.33-1.46,2Zm2.8-4v-2.13c.42-.67.83-1.35,1.21-2V208c-.38.68-.79,1.36-1.21,2Zm2.31-4.11v-2.13c.35-.7.68-1.4,1-2.11v2.12c-.3.71-.63,1.42-1,2.12Zm1.84-4.25v-2.12c.26-.72.5-1.43.72-2.16v2.13c-.22.72-.46,1.44-.72,2.15Zm1.33-4.35v-2.12c.17-.74.33-1.47.46-2.21v2.12c-.13.74-.29,1.48-.46,2.21ZM300.33,245.46v-2.13c1.22.2,2.44.39,3.67.57V246c-1.23-.18-2.45-.36-3.67-.56Zm7.38,1v-2.12q1.88.23,3.78.42v2.12q-1.9-.19-3.78-.42Zm7.59.76v-2.12c1.27.1,2.56.19,3.84.27v2.12c-1.28-.08-2.57-.17-3.84-.27Zm7.76.46v-2.12c1.3,0,2.61.09,3.92.11v2.13c-1.31,0-2.62-.06-3.92-.12Zm7.88.15v-2.12c1.31,0,2.62,0,3.92,0v2.12c-1.3,0-2.61,0-3.92,0Zm7.84-.16v-2.13c1.29-.05,2.58-.12,3.86-.2v2.13c-1.28.08-2.57.14-3.86.2Zm7.68-.48v-2.12c1.27-.11,2.54-.23,3.8-.36v2.13c-1.26.13-2.53.25-3.8.35Zm7.54-.78v-2.12c1.23-.15,2.46-.32,3.68-.49V246c-1.22.18-2.45.34-3.68.49Zm7.35-1.06v-2.12c1.2-.2,2.4-.41,3.59-.64v2.13c-1.19.22-2.39.43-3.59.63Zm7.13-1.34v-2.12c1.17-.25,2.33-.5,3.48-.77v2.12c-1.15.27-2.31.53-3.48.77Zm6.93-1.61v-2.12q1.69-.44,3.36-.9v2.13c-1.11.31-2.23.61-3.36.89Zm6.66-1.85v-2.13c1.1-.33,2.19-.67,3.26-1v2.13c-1.07.35-2.16.69-3.26,1Zm6.43-2.12v-2.12c1.05-.37,2.08-.75,3.11-1.14v2.12c-1,.39-2.06.77-3.11,1.14Zm6.15-2.34V234c1-.41,2-.82,3-1.25v2.12c-1,.43-2,.85-3,1.26Zm5.84-2.57v-2.12c.95-.45,1.88-.9,2.8-1.36v2.12c-.92.46-1.85.92-2.8,1.36Zm5.54-2.78v-2.13c.89-.48,1.77-1,2.63-1.46v2.12c-.86.5-1.74,1-2.63,1.47Zm5.18-3v-2.13c.84-.51,1.67-1,2.48-1.57v2.12c-.81.53-1.64,1.06-2.48,1.58Zm4.85-3.19V222.5c.78-.55,1.54-1.1,2.28-1.66V223q-1.11.84-2.28,1.65Zm4.46-3.35v-2.13c.72-.58,1.42-1.16,2.1-1.75v2.12c-.68.59-1.38,1.18-2.1,1.76Zm4.08-3.54V215.6c.65-.6,1.28-1.21,1.89-1.82v2.12c-.61.62-1.24,1.22-1.89,1.83Zm3.67-3.7V211.9c.58-.63,1.14-1.26,1.67-1.9v2.12c-.53.64-1.09,1.28-1.67,1.91Zm3.23-3.84v-2.13c.51-.65,1-1.32,1.46-2v2.12c-.46.67-.95,1.33-1.46,2Zm2.8-4v-2.12c.42-.68.83-1.36,1.21-2v2.12c-.38.69-.79,1.37-1.21,2Zm2.31-4.11V200c.35-.7.68-1.41,1-2.12V200c-.3.71-.63,1.41-1,2.11Zm1.84-4.24v-2.13c.26-.71.5-1.43.72-2.15v2.12q-.33,1.08-.72,2.16Zm1.33-4.35v-2.13c.17-.73.33-1.47.46-2.21v2.13c-.13.74-.29,1.47-.46,2.21Zm-78.43,48v-5c1.2-.2,2.4-.41,3.59-.63v5c-1.19.23-2.39.44-3.59.64Zm70.28-35.38v-5q.75-1,1.44-2v5c-.46.66-.94,1.32-1.44,2Zm-31.14,23.55v-5.49c.95-.44,1.88-.9,2.8-1.36v5.49c-.92.46-1.85.92-2.8,1.36Zm5.74-2.89v-5.49c.89-.48,1.77-1,2.63-1.47v5.49l-2.63,1.47ZM354,242.52v-6.37c1.23-.15,2.46-.32,3.68-.49V242c-1.22.18-2.45.34-3.68.49Zm80.39-40.42v-6.37c.43-.68.83-1.36,1.21-2v6.37c-.38.69-.78,1.37-1.21,2Zm-65.91,38v-6.8c1.17-.25,2.33-.5,3.48-.77v6.8c-1.15.27-2.31.53-3.48.77Zm59.92-30.18v-6.8c.58-.63,1.13-1.26,1.67-1.91V208c-.54.64-1.09,1.27-1.67,1.9ZM394.65,232.2v-7.42c1-.41,2-.83,3-1.25v7.41c-1,.43-2,.85-3,1.26Zm16.77-8.46v-7.42c.83-.51,1.65-1,2.45-1.56v7.41c-.8.53-1.62,1.05-2.45,1.57Zm-65,19.56v-8.39c1.27-.1,2.54-.22,3.8-.35V243c-1.26.13-2.53.24-3.8.35ZM436.7,198v-8.39q.51-1,1-2.1v8.39q-.45,1-1,2.1ZM300.33,241.52v-9.43c1.22.2,2.44.38,3.67.56v9.43c-1.23-.18-2.45-.36-3.67-.56Zm75.08-3v-9.88q1.69-.44,3.36-.9v9.88q-1.66.46-3.36.9Zm49.34-24.86v-9.88c.65-.61,1.27-1.22,1.89-1.84v9.88c-.62.62-1.24,1.23-1.89,1.84ZM388.5,234.54V224.12c1.05-.37,2.08-.75,3.11-1.14V233.4c-1,.39-2.06.77-3.11,1.14Zm27.74-14V210.14c.77-.55,1.54-1.11,2.28-1.67v10.42c-.74.56-1.51,1.12-2.28,1.67Zm-77.46,23.21V233c1.29-.05,2.58-.12,3.86-.2v10.81c-1.28.08-2.57.15-3.86.2Zm99.73-50V182.92c.26-.72.5-1.45.72-2.17v10.81c-.22.73-.46,1.45-.72,2.17Zm-130.8,48.84V229.65q1.88.22,3.78.42V243q-1.9-.19-3.78-.42Zm23.23,1.37V231c1.31,0,2.62,0,3.92,0V243.9c-1.3,0-2.61,0-3.92,0Zm51.13-7.29V223.73c1.1-.33,2.19-.67,3.26-1v12.93c-1.07.35-2.16.69-3.26,1Zm38.63-19.47V204.26c.7-.57,1.4-1.16,2.07-1.74v12.92c-.67.59-1.37,1.17-2.07,1.74Zm19.12-27.8V176.46c.17-.74.32-1.47.45-2.21v12.92c-.13.74-.28,1.47-.45,2.21ZM323.06,243.79V228.5c1.3.05,2.61.09,3.92.11v15.3c-1.31,0-2.62-.07-3.92-.12Zm-7.76-.46V226.54c1.27.1,2.56.19,3.84.27V243.6c-1.28-.08-2.57-.17-3.84-.27ZM440.8,160c-1.62,34.61-51.57,62.08-112.06,61.48a185,185,0,0,1-35.92-3.82v39a184.22,184.22,0,0,0,35.92,3.81c60.49.61,110.44-26.86,112.06-61.47V160Z"/><path class="cls-4" d="M223.77,198.73a40,40,0,0,1-2.49-7.78v1.7a40.14,40.14,0,0,0,2.49,7.77v-1.69Z"/><path class="cls-4" d="M225,204.72a40.37,40.37,0,0,1-3.76-10.44V196A40.37,40.37,0,0,0,225,206.41v-1.69Z"/><path class="cls-7" d="M235.46,220.27v-2.75q.84.82,1.71,1.62v2.75q-.87-.79-1.71-1.62Zm3.5,3.21v-2.75c.61.52,1.23,1,1.87,1.55V225c-.64-.52-1.26-1-1.87-1.56Zm3.81,3.08v-2.75c.66.5,1.34,1,2,1.48v2.76c-.69-.49-1.37-1-2-1.49Zm4.13,2.94v-2.76c.71.48,1.43.95,2.17,1.42v2.75c-.74-.46-1.46-.93-2.17-1.41Zm-11.44-14.73V212q.84.83,1.71,1.62v2.76l-1.71-1.62ZM239,218v-2.76c.61.53,1.23,1.05,1.87,1.56v2.75c-.64-.51-1.26-1-1.87-1.55Zm3.81,3.07V218.3c.66.5,1.34,1,2,1.49v2.75c-.69-.49-1.37-1-2-1.49ZM246.9,224v-2.75c.71.48,1.43.95,2.17,1.41v2.76c-.74-.47-1.46-.94-2.17-1.42Zm-11.44-14.73v-2.75l1.71,1.62v2.75q-.87-.8-1.71-1.62Zm3.5,3.21v-2.75c.61.52,1.23,1,1.87,1.55V214c-.64-.51-1.26-1-1.87-1.55Zm3.81,3.08v-2.76c.66.5,1.34,1,2,1.49V217c-.69-.49-1.37-1-2-1.48Zm4.13,2.93v-2.75c.71.48,1.43,1,2.17,1.42v2.75c-.74-.47-1.46-.94-2.17-1.42Zm-11.44-14.73V201l1.71,1.62v2.75q-.87-.8-1.71-1.62ZM239,207v-2.75c.61.52,1.23,1,1.87,1.55v2.76c-.64-.51-1.26-1-1.87-1.56Zm3.81,3.08v-2.75c.66.5,1.34,1,2,1.48v2.76c-.69-.49-1.37-1-2-1.49ZM246.9,213v-2.76c.71.48,1.43.95,2.17,1.42v2.75c-.74-.46-1.46-.93-2.17-1.41Zm5.34-3.27a81.31,81.31,0,0,1-19-14.88v27a81.31,81.31,0,0,0,19,14.88v-27Z"/><path class="cls-8" d="M237.17,202.62,235.46,201v2.75q.84.83,1.71,1.62v-2.75Z"/><path class="cls-4" d="M240.83,205.76c-.64-.51-1.26-1-1.87-1.55V207c.61.53,1.23,1,1.87,1.56v-2.76Z"/><path class="cls-8" d="M244.8,208.77c-.69-.49-1.37-1-2-1.48V210c.66.5,1.34,1,2,1.49v-2.76Z"/><path class="cls-8" d="M249.07,211.64c-.74-.47-1.46-.94-2.17-1.42V213c.71.48,1.43,1,2.17,1.41v-2.75Z"/><path class="cls-8" d="M237.17,208.13l-1.71-1.62v2.75q.84.83,1.71,1.62v-2.75Z"/><path class="cls-4" d="M240.83,211.27c-.64-.51-1.26-1-1.87-1.55v2.75c.61.52,1.23,1,1.87,1.55v-2.75Z"/><path class="cls-8" d="M244.8,214.28c-.69-.49-1.37-1-2-1.49v2.76c.66.5,1.34,1,2,1.48v-2.75Z"/><path class="cls-8" d="M249.07,217.15c-.74-.47-1.46-.94-2.17-1.42v2.75c.71.48,1.43,1,2.17,1.42v-2.75Z"/><path class="cls-4" d="M237.17,213.63q-.87-.8-1.71-1.62v2.76l1.71,1.62v-2.76Z"/><path class="cls-8" d="M240.83,216.78c-.64-.51-1.26-1-1.87-1.56V218c.61.52,1.23,1,1.87,1.55v-2.75Z"/><path class="cls-8" d="M244.8,219.79c-.69-.49-1.37-1-2-1.49v2.75c.66.5,1.34,1,2,1.49v-2.75Z"/><path class="cls-4" d="M249.07,222.65c-.74-.46-1.46-.93-2.17-1.41V224c.71.48,1.43.95,2.17,1.42v-2.76Z"/><path class="cls-8" d="M237.17,219.14q-.87-.79-1.71-1.62v2.75q.84.82,1.71,1.62v-2.75Z"/><path class="cls-4" d="M240.83,222.28c-.64-.51-1.26-1-1.87-1.55v2.75c.61.53,1.23,1,1.87,1.56v-2.76Z"/><path class="cls-8" d="M244.8,225.29c-.69-.49-1.37-1-2-1.48v2.75c.66.5,1.34,1,2,1.49v-2.76Z"/><path class="cls-8" d="M249.07,228.16c-.74-.47-1.46-.94-2.17-1.42v2.76c.71.48,1.43.95,2.17,1.41v-2.75Z"/><path class="cls-6" d="M304,232.65c-1.23-.18-2.45-.36-3.67-.56v9.43c1.22.2,2.44.38,3.67.56v-9.43Z"/><path class="cls-6" d="M311.49,230.07q-1.9-.19-3.78-.42v12.92q1.88.23,3.78.42V230.07Z"/><path class="cls-6" d="M319.14,226.81c-1.28-.08-2.57-.17-3.84-.27v16.79c1.27.1,2.56.19,3.84.27V226.81Z"/><path class="cls-6" d="M327,228.61c-1.31,0-2.62-.06-3.92-.11v15.29c1.3.05,2.61.09,3.92.12v-15.3Z"/><path class="cls-6" d="M334.86,231c-1.3,0-2.61,0-3.92,0v12.92c1.31,0,2.62,0,3.92,0V231Z"/><path class="cls-9" d="M342.64,232.76c-1.28.08-2.57.15-3.86.2v10.81c1.29-.05,2.58-.12,3.86-.2V232.76Z"/><path class="cls-9" d="M350.26,234.56c-1.26.13-2.53.25-3.8.35v8.39c1.27-.11,2.54-.22,3.8-.35-1.26.13-2.53.24-3.8.35,1.27-.11,2.54-.22,3.8-.35v-8.39Z"/><path class="cls-10" d="M357.68,235.66c-1.22.17-2.45.34-3.68.49v6.37c1.23-.15,2.46-.31,3.68-.49v-6.37Z"/><path class="cls-11" d="M364.94,235.86c-1.19.22-2.39.43-3.59.63v5c1.2-.2,2.4-.41,3.59-.64v-5Z"/><path class="cls-12" d="M372,232.55c-1.15.27-2.31.52-3.48.77v6.8c1.17-.24,2.33-.5,3.48-.77v-6.8Z"/><path class="cls-12" d="M378.77,227.73q-1.66.47-3.36.9v9.88q1.69-.44,3.36-.9v-9.88Z"/><path class="cls-7" d="M385.33,222.7c-1.07.36-2.16.7-3.26,1v12.92c1.1-.33,2.19-.67,3.26-1V222.7Z"/><path class="cls-7" d="M391.61,223c-1,.39-2.06.77-3.11,1.14v10.42c1.05-.37,2.08-.75,3.11-1.14V223Z"/><path class="cls-13" d="M397.61,223.53c-1,.42-2,.84-3,1.25v7.42c1-.41,2-.83,3-1.26v-7.41Z"/><path class="cls-13" d="M403.29,222.78c-.92.46-1.85.92-2.8,1.36v5.49c.95-.44,1.88-.9,2.8-1.36v-5.49Z"/><path class="cls-4" d="M440.27,174.25c-.13.74-.28,1.47-.45,2.21v12.92c.17-.74.32-1.47.45-2.21V174.25Z"/><path class="cls-14" d="M439.23,180.75c-.22.72-.46,1.45-.72,2.17v10.81c.26-.72.5-1.44.72-2.17V180.75Z"/><path class="cls-14" d="M437.66,187.48q-.45,1.07-1,2.1V198q.51-1,1-2.1v-8.39Z"/><path class="cls-10" d="M435.6,193.68c-.38.69-.78,1.37-1.21,2v6.37c.43-.68.83-1.36,1.21-2v-6.37Z"/><path class="cls-10" d="M433.07,199.14q-.69,1-1.44,2v5c.5-.65,1-1.31,1.44-2v-5Z"/><path class="cls-12" d="M430.07,201.23c-.54.65-1.09,1.28-1.67,1.91v6.8c.58-.63,1.13-1.26,1.67-1.9v-6.81Z"/><path class="cls-12" d="M426.64,201.93c-.62.62-1.24,1.23-1.89,1.84v9.88c.65-.61,1.27-1.22,1.89-1.84v-9.88Z"/><path class="cls-7" d="M422.77,202.52c-.67.58-1.37,1.17-2.07,1.74v12.92c.7-.57,1.4-1.15,2.07-1.74V202.52Z"/><path class="cls-7" d="M418.52,208.47c-.74.56-1.51,1.12-2.28,1.67v10.42c.77-.55,1.54-1.11,2.28-1.67V208.47Z"/><path class="cls-13" d="M413.87,214.76c-.8.53-1.62,1.05-2.45,1.56v7.42c.83-.52,1.65-1,2.45-1.57v-7.41Z"/><path class="cls-13" d="M408.86,219.78c-.86.5-1.74,1-2.63,1.47v5.49l2.63-1.47v-5.49Z"/><path class="cls-4" d="M350.26,243c-1.26.13-2.53.24-3.8.35,1.27-.11,2.54-.22,3.8-.35Z"/><path class="cls-13" d="M304,243.9c-1.23-.18-2.45-.37-3.67-.57v2.13c1.22.2,2.44.38,3.67.56V243.9Z"/><path class="cls-13" d="M319.14,245.42c-1.28-.08-2.57-.17-3.84-.27v2.12c1.27.1,2.56.19,3.84.27v-2.12Z"/><path class="cls-13" d="M327,245.72c-1.31,0-2.62-.06-3.92-.11v2.12c1.3.06,2.61.09,3.92.12v-2.13Z"/><path class="cls-13" d="M334.86,245.72c-1.3,0-2.61,0-3.92,0v2.12c1.31,0,2.62,0,3.92,0v-2.12Z"/><path class="cls-13" d="M342.64,245.39c-1.28.08-2.57.15-3.86.2v2.13c1.29-.06,2.58-.12,3.86-.2v-2.13Z"/><path class="cls-13" d="M357.68,243.85c-1.22.17-2.45.34-3.68.49v2.12c1.23-.15,2.46-.31,3.68-.49v-2.12Z"/><path class="cls-13" d="M364.94,242.64c-1.19.23-2.39.44-3.59.64v2.12c1.2-.2,2.4-.41,3.59-.63v-2.13Z"/><path class="cls-13" d="M372,241.17c-1.15.27-2.31.52-3.48.77v2.12c1.17-.24,2.33-.5,3.48-.77v-2.12Z"/><path class="cls-13" d="M378.77,239.43q-1.66.47-3.36.9v2.12c1.13-.28,2.25-.58,3.36-.89v-2.13Z"/><path class="cls-13" d="M385.33,237.44c-1.07.36-2.16.7-3.26,1v2.13c1.1-.34,2.19-.68,3.26-1v-2.13Z"/><path class="cls-13" d="M397.61,232.76c-1,.43-2,.84-3,1.25v2.13c1-.41,2-.83,3-1.26v-2.12Z"/><path class="cls-13" d="M403.29,230.09c-.92.46-1.85.91-2.8,1.36v2.12c.95-.44,1.88-.9,2.8-1.36v-2.12Z"/><path class="cls-13" d="M408.66,227.2c-.86.49-1.74,1-2.63,1.46v2.13c.89-.48,1.77-1,2.63-1.47V227.2Z"/><path class="cls-13" d="M413.69,224.11c-.81.53-1.64,1.06-2.48,1.57v2.13c.84-.52,1.67-1.05,2.48-1.58v-2.12Z"/><path class="cls-13" d="M418.34,220.84c-.74.56-1.5,1.11-2.28,1.66v2.12q1.17-.81,2.28-1.65v-2.13Z"/><path class="cls-13" d="M422.62,217.39c-.68.59-1.38,1.17-2.1,1.75v2.13c.72-.58,1.42-1.17,2.1-1.76v-2.12Z"/><path class="cls-13" d="M426.49,213.78c-.61.61-1.24,1.22-1.89,1.82v2.13c.65-.61,1.28-1.21,1.89-1.83v-2.12Z"/><path class="cls-13" d="M433,206.08c-.46.66-.95,1.33-1.46,2v2.13c.51-.66,1-1.32,1.46-2v-2.12Z"/><path class="cls-13" d="M435.51,202c-.38.68-.79,1.36-1.21,2v2.12c.42-.67.83-1.35,1.21-2V202Z"/><path class="cls-13" d="M437.59,197.84c-.3.71-.63,1.42-1,2.12v2.12c.35-.7.68-1.4,1-2.11v-2.13Z"/><path class="cls-13" d="M439.17,193.56c-.22.72-.46,1.44-.72,2.15v2.13q.39-1.08.72-2.16v-2.12Z"/><path class="cls-13" d="M304,247.71c-1.23-.18-2.45-.36-3.67-.56v2.12c1.22.2,2.44.39,3.67.56v-2.12Z"/><path class="cls-13" d="M311.49,248.62q-1.9-.19-3.78-.42v2.12q1.88.24,3.78.42v-2.12Z"/><path class="cls-13" d="M319.14,249.23c-1.28-.07-2.57-.16-3.84-.27v2.13c1.27.1,2.56.19,3.84.27v-2.13Z"/><path class="cls-13" d="M327,249.54c-1.31,0-2.62-.06-3.92-.11v2.12c1.3,0,2.61.09,3.92.11v-2.12Z"/><path class="cls-13" d="M334.86,249.53c-1.3,0-2.61,0-3.92,0v2.13c1.31,0,2.62,0,3.92,0v-2.12Z"/><path class="cls-13" d="M342.64,249.21c-1.28.08-2.57.14-3.86.2v2.12c1.29-.05,2.58-.12,3.86-.2v-2.12Z"/><path class="cls-13" d="M357.68,247.66c-1.22.18-2.45.34-3.68.5v2.12c1.23-.15,2.46-.32,3.68-.5v-2.12Z"/><path class="cls-13" d="M372,245c-1.15.26-2.31.52-3.48.76v2.13c1.17-.25,2.33-.5,3.48-.77V245Z"/><path class="cls-13" d="M378.77,243.25q-1.66.47-3.36.9v2.12q1.69-.44,3.36-.9v-2.12Z"/><path class="cls-13" d="M385.33,241.26c-1.07.35-2.16.69-3.26,1v2.12c1.1-.33,2.19-.68,3.26-1v-2.12Z"/><path class="cls-13" d="M397.61,236.57c-1,.43-2,.85-3,1.26V240c1-.41,2-.83,3-1.25v-2.13Z"/><path class="cls-13" d="M403.29,233.9c-.92.46-1.85.92-2.8,1.36v2.13c.95-.45,1.88-.9,2.8-1.37V233.9Z"/><path class="cls-13" d="M418.34,224.66q-1.11.84-2.28,1.65v2.13c.78-.55,1.54-1.1,2.28-1.66v-2.12Z"/><path class="cls-13" d="M422.62,221.2c-.68.59-1.38,1.18-2.1,1.76v2.12c.72-.58,1.42-1.16,2.1-1.75V221.2Z"/><path class="cls-13" d="M426.49,217.59q-.92.93-1.89,1.83v2.12c.65-.6,1.28-1.21,1.89-1.82v-2.13Z"/><path class="cls-13" d="M433,209.89c-.46.67-.95,1.33-1.46,2V214c.51-.66,1-1.32,1.46-2v-2.12Z"/><path class="cls-13" d="M437.59,201.66c-.3.71-.63,1.41-1,2.11v2.13c.35-.7.68-1.41,1-2.12v-2.12Z"/><path class="cls-13" d="M439.17,197.37c-.22.73-.46,1.44-.72,2.16v2.12c.26-.71.5-1.43.72-2.15v-2.13Z"/><path class="cls-13" d="M440.24,193c-.13.74-.29,1.47-.46,2.21v2.12c.17-.73.33-1.47.46-2.21V193Z"/><path class="cls-13" d="M304,251.53c-1.23-.18-2.45-.37-3.67-.57v2.13c1.22.2,2.44.38,3.67.56v-2.12Z"/><path class="cls-13" d="M311.49,252.44q-1.9-.19-3.78-.42v2.12q1.88.23,3.78.42v-2.12Z"/><path class="cls-13" d="M342.64,253c-1.28.08-2.57.15-3.86.2v2.13c1.29-.06,2.58-.12,3.86-.2V253Z"/><path class="cls-13" d="M350.26,252.39c-1.26.13-2.53.25-3.8.36v2.12c1.27-.1,2.54-.22,3.8-.35v-2.13Z"/><path class="cls-13" d="M357.68,251.48c-1.22.17-2.45.34-3.68.49v2.13c1.23-.16,2.46-.32,3.68-.5v-2.12Z"/><path class="cls-13" d="M364.94,250.27c-1.19.23-2.39.44-3.59.64V253c1.2-.2,2.4-.41,3.59-.63v-2.13Z"/><path class="cls-13" d="M372,248.8c-1.15.27-2.31.52-3.48.77v2.12c1.17-.24,2.33-.5,3.48-.77V248.8Z"/><path class="cls-13" d="M385.33,245.07c-1.07.36-2.16.7-3.26,1v2.13c1.1-.34,2.19-.68,3.26-1v-2.13Z"/><path class="cls-13" d="M391.61,242.85c-1,.39-2.06.77-3.11,1.14v2.12c1.05-.37,2.08-.75,3.11-1.14v-2.12Z"/><path class="cls-13" d="M403.29,237.72c-.92.46-1.85.91-2.8,1.36v2.12c.95-.44,1.88-.9,2.8-1.36v-2.12Z"/><path class="cls-13" d="M408.66,234.83c-.86.49-1.74,1-2.63,1.46v2.13c.89-.48,1.77-1,2.63-1.47v-2.12Z"/><path class="cls-13" d="M413.69,231.74c-.81.53-1.64,1.06-2.48,1.57v2.13c.84-.52,1.67-1,2.48-1.58v-2.12Z"/><path class="cls-13" d="M418.34,228.47c-.74.56-1.5,1.11-2.28,1.66v2.12q1.17-.81,2.28-1.65v-2.13Z"/><path class="cls-13" d="M422.62,225c-.68.59-1.38,1.17-2.1,1.75v2.13c.72-.58,1.42-1.17,2.1-1.76V225Z"/><path class="cls-13" d="M429.94,217.63c-.53.64-1.09,1.27-1.67,1.9v2.13c.58-.63,1.14-1.27,1.67-1.91v-2.12Z"/><path class="cls-13" d="M433,213.71c-.46.66-.95,1.33-1.46,2v2.13c.51-.66,1-1.32,1.46-2v-2.12Z"/><path class="cls-13" d="M435.51,209.66c-.38.68-.79,1.36-1.21,2v2.12c.42-.67.83-1.35,1.21-2v-2.12Z"/><path class="cls-13" d="M437.59,205.47c-.3.71-.63,1.42-1,2.12v2.12c.35-.7.68-1.4,1-2.11v-2.13Z"/><path class="cls-13" d="M439.17,201.19c-.22.72-.46,1.44-.72,2.15v2.13q.39-1.08.72-2.16v-2.12Z"/><path class="cls-13" d="M440.24,196.78c-.13.74-.29,1.48-.46,2.21v2.13c.17-.74.33-1.47.46-2.21v-2.13Z"/><path class="cls-6" d="M311.49,244.81q-1.9-.19-3.78-.42v2.12q1.88.23,3.78.42v-2.12Z"/><path class="cls-6" d="M350.26,244.76c-1.26.13-2.53.25-3.8.36v2.12c1.27-.1,2.54-.22,3.8-.35v-2.13Z"/><path class="cls-4" d="M391.61,235.22c-1,.39-2.06.77-3.11,1.14v2.12c1.05-.37,2.08-.75,3.11-1.14v-2.12Z"/><path class="cls-4" d="M429.94,210c-.53.64-1.09,1.27-1.67,1.9V214c.58-.63,1.14-1.27,1.67-1.91V210Z"/><path class="cls-4" d="M440.24,189.15c-.13.74-.29,1.48-.46,2.21v2.13c.17-.74.33-1.47.46-2.21v-2.13Z"/><path class="cls-6" d="M350.26,248.58c-1.26.13-2.53.25-3.8.35v2.12c1.27-.1,2.54-.22,3.8-.35v-2.12Z"/><path class="cls-6" d="M364.94,246.46c-1.19.22-2.39.43-3.59.63v2.13c1.2-.2,2.4-.42,3.59-.64v-2.12Z"/><path class="cls-4" d="M391.61,239l-3.11,1.15v2.12c1.05-.37,2.08-.75,3.11-1.14V239Z"/><path class="cls-4" d="M408.66,231c-.86.5-1.74,1-2.63,1.47v2.12c.89-.48,1.77-1,2.63-1.46V231Z"/><path class="cls-4" d="M413.69,227.92c-.81.54-1.64,1.06-2.48,1.58v2.12c.84-.52,1.67-1,2.48-1.57v-2.13Z"/><path class="cls-4" d="M429.94,213.81c-.53.64-1.09,1.28-1.67,1.91v2.12c.58-.63,1.14-1.26,1.67-1.9v-2.13Z"/><path class="cls-4" d="M435.51,205.84c-.38.69-.79,1.37-1.21,2V210c.42-.68.83-1.36,1.21-2v-2.13Z"/><path class="cls-6" d="M319.14,253.05c-1.28-.08-2.57-.17-3.84-.27v2.12c1.27.1,2.56.19,3.84.27v-2.12Z"/><path class="cls-6" d="M327,253.35c-1.31,0-2.62-.06-3.92-.11v2.12c1.3.06,2.61.09,3.92.12v-2.13Z"/><path class="cls-6" d="M334.86,253.35c-1.3,0-2.61,0-3.92,0v2.12c1.31,0,2.62,0,3.92,0v-2.12Z"/><path class="cls-4" d="M378.77,247.06q-1.66.47-3.36.9v2.12c1.13-.28,2.25-.58,3.36-.89v-2.13Z"/><path class="cls-4" d="M397.61,240.39c-1,.43-2,.84-3,1.25v2.13c1-.41,2-.83,3-1.26v-2.12Z"/><path class="cls-4" d="M426.49,221.41c-.61.61-1.24,1.22-1.89,1.82v2.13q1-.9,1.89-1.83v-2.12Z"/></g></g></g><rect class="cls-15" x="43.98" y="238.32" width="0.72" height="8.17"/><polygon class="cls-15" points="44.34 246.97 40.39 243.43 40.87 242.89 44.34 246.01 47.8 242.89 48.28 243.43 44.34 246.97"/><path class="cls-16" d="M440.1,144.19v-1c-.14-.73-.31-1.46-.51-2.18v1c.2.73.37,1.45.52,2.19Zm-1.16-4.36v-1c-.24-.72-.49-1.43-.77-2.14v1c.28.71.53,1.42.77,2.14Zm-1.66-4.25v-1c-.32-.69-.66-1.39-1-2.08v1c.35.69.69,1.38,1,2.08Zm-2.16-4.15v-1c-.39-.68-.81-1.36-1.25-2v1c.44.67.86,1.34,1.25,2Zm-2.62-4v-1c-.47-.67-1-1.32-1.49-2v1c.52.65,1,1.31,1.49,2Zm-3.08-3.89v-1c-.55-.64-1.12-1.27-1.7-1.89v1c.58.62,1.15,1.25,1.7,1.88Zm-3.52-3.74v-1c-.62-.61-1.26-1.21-1.91-1.81v1c.65.59,1.29,1.2,1.91,1.81ZM422,116.21v-1c-.69-.58-1.4-1.16-2.12-1.73v1c.72.57,1.43,1.14,2.12,1.73Zm-4.34-3.43v-1c-.75-.56-1.52-1.11-2.3-1.65v1c.78.54,1.55,1.09,2.3,1.64Zm-4.7-3.23v-1c-.82-.53-1.66-1-2.5-1.56v1c.84.51,1.68,1,2.5,1.56Zm-5.08-3.06v-1c-.87-.49-1.76-1-2.66-1.45v1c.9.47,1.79.95,2.66,1.45Zm-5.43-2.86v-1c-.92-.46-1.87-.91-2.82-1.35v1c.95.44,1.9.89,2.82,1.35ZM440.1,142v-1c-.14-.73-.31-1.46-.51-2.18v1c.2.73.37,1.46.52,2.19Zm-1.16-4.36V136.6c-.24-.71-.49-1.42-.77-2.13v1c.28.71.53,1.42.77,2.14Zm-3.82-8.39v-1c-.39-.68-.81-1.35-1.25-2v1c.44.67.86,1.35,1.25,2Zm-2.62-4v-1c-.47-.66-1-1.32-1.49-2v1c.52.65,1,1.3,1.49,2Zm-3.08-3.89v-1c-.55-.64-1.12-1.26-1.7-1.89v1c.58.62,1.15,1.25,1.7,1.88Zm-3.52-3.74v-1c-.62-.61-1.26-1.21-1.91-1.81v1c.65.59,1.29,1.2,1.91,1.81ZM422,114v-1c-.69-.58-1.4-1.15-2.12-1.72v1c.72.57,1.43,1.15,2.12,1.73Zm-14.12-9.72v-1c-.87-.49-1.76-1-2.66-1.45v1c.9.47,1.79,1,2.66,1.45Zm-5.43-2.86v-1c-.92-.46-1.87-.91-2.82-1.35v1c.95.44,1.9.89,2.82,1.35Zm37.67,38.36v-1c-.14-.74-.31-1.46-.51-2.19v1c.2.72.37,1.45.52,2.18Zm-1.16-4.36v-1c-.24-.72-.49-1.43-.77-2.14v1c.28.7.53,1.42.77,2.13Zm-6.44-12.4v-1c-.47-.66-1-1.32-1.49-2v1c.52.65,1,1.31,1.49,2Zm-3.08-3.89v-1c-.55-.63-1.12-1.26-1.7-1.88v1c.58.62,1.15,1.25,1.7,1.89Zm-3.52-3.75v-1c-.62-.61-1.26-1.22-1.91-1.81v1c.65.6,1.29,1.2,1.91,1.81ZM422,111.83v-1c-.69-.59-1.4-1.16-2.12-1.73v1c.72.56,1.43,1.14,2.12,1.72Zm-14.12-9.72v-1c-.87-.49-1.76-1-2.66-1.45v1c.9.48,1.79,1,2.66,1.45Zm-5.43-2.86v-1c-.92-.46-1.87-.91-2.82-1.35v1c.95.44,1.9.89,2.82,1.34Zm37.67,38.38v-1c-.14-.73-.31-1.46-.51-2.18v1c.2.72.37,1.45.52,2.18Zm-1.16-4.35v-1.05c-.24-.71-.49-1.43-.77-2.13v1c.28.71.53,1.42.77,2.14ZM429.42,117v-1c-.55-.64-1.12-1.27-1.7-1.89v1c.58.63,1.15,1.26,1.7,1.89Zm-3.52-3.75v-1c-.62-.61-1.26-1.21-1.91-1.81v1c.65.6,1.29,1.2,1.91,1.81ZM422,109.66v-1c-.69-.58-1.4-1.16-2.12-1.73v1.05c.72.57,1.43,1.14,2.12,1.73Zm-43.81-18v-6.1a173.39,173.39,0,0,0-29.88-5.35v6.1a173.39,173.39,0,0,1,29.88,5.35ZM344.37,86v-6.1c-3.86-.28-7.8-.44-11.78-.48-2.94,0-5.84,0-8.72.11v6.1c2.88-.1,5.78-.14,8.72-.11,4,0,7.92.2,11.78.48Zm95.73,49.43v-1c-.14-.73-.31-1.46-.51-2.18v1c.2.72.37,1.45.52,2.18Zm-1.16-4.36v-1c-.24-.71-.49-1.42-.77-2.13v1c.28.71.53,1.42.77,2.14Zm-9.52-16.29v-1c-.55-.64-1.12-1.26-1.7-1.89v1c.58.62,1.15,1.25,1.7,1.89ZM425.9,111v-1c-.62-.61-1.26-1.21-1.91-1.81v1c.65.6,1.29,1.2,1.91,1.81Zm14.2,22.22v-1c-.14-.74-.31-1.46-.51-2.19v1c.2.72.37,1.45.52,2.18Zm-10.68-20.65v-1c-.55-.63-1.12-1.26-1.7-1.88v1c.58.62,1.15,1.25,1.7,1.89Zm-3.52-3.75v-1c-.62-.61-1.26-1.22-1.91-1.81v1c.65.6,1.29,1.2,1.91,1.81Zm9.22,18.2v-11.3c-.39-.68-.81-1.35-1.25-2V125c.44.67.86,1.34,1.25,2ZM388,85.33V79.25a166.84,166.84,0,0,0-39.67-8.4v6.08A167.34,167.34,0,0,1,388,85.33Zm-43.59-8.72V70.53c-3.86-.28-7.8-.44-11.78-.48a188.58,188.58,0,0,0-31.65,2.32v6.08a188.6,188.6,0,0,1,31.65-2.31c4,0,7.92.2,11.78.47Zm68.57,21v-8c-.82-.52-1.66-1-2.5-1.55v17.74c.84.51,1.68,1,2.5,1.56V97.6Zm19.56,23.27v-14c-.47-.66-1-1.32-1.49-2v14c.52.65,1,1.31,1.49,2Zm4.78,12.53V114.78c-.32-.7-.66-1.4-1-2.09v18.63c.35.69.69,1.38,1,2.08ZM407.86,99.7V83.42c-.87-.5-1.76-1-2.66-1.46V98.25c.9.48,1.79,1,2.66,1.45Zm21.56,10.62V98.55c-.55-.63-1.12-1.26-1.7-1.88v11.77c.58.62,1.15,1.25,1.7,1.88Zm-11.78.28V87.8c-.75-.55-1.52-1.1-2.3-1.64V109c.78.54,1.55,1.09,2.3,1.64Zm21.3,17.28V114.27c-.24-.71-.49-1.43-.77-2.13v14.63c.28.7.53,1.42.77,2.13v-1Zm-17-20.42V89.64c-.69-.58-1.4-1.16-2.12-1.72v17.81c.72.57,1.43,1.15,2.12,1.73ZM391.65,77.29V71.21c-.95-.37-1.91-.72-2.88-1.07v6.08c1,.35,1.93.71,2.88,1.07Zm-5.55-2V69.22l-3-1v6.08l3,1Zm-5.78-1.8V67.41l-3.09-.86v6.09c1,.27,2.07.56,3.09.86Zm-6-1.61V65.81l-3.19-.76v6.09c1.07.24,2.13.49,3.19.75Zm-6.81-1.53V64.28a180.34,180.34,0,0,0-19.25-2.83v6.09a177.85,177.85,0,0,1,19.25,2.82Zm-23.17-3.14V61.14c-3.86-.28-7.8-.44-11.78-.48a192.24,192.24,0,0,0-20.55.89v6.08a192.24,192.24,0,0,1,20.55-.89c4,0,7.92.2,11.78.48Zm95.73,63.59V114.64c-.14-.74-.31-1.46-.51-2.19v16.18c.2.72.37,1.45.52,2.18Zm-37.67-34V74.08c-.92-.46-1.87-.91-2.82-1.35V95.5c.95.44,1.9.88,2.82,1.34Zm23.47,9.74V89.73c-.62-.61-1.26-1.21-1.91-1.81v16.85c.65.59,1.29,1.2,1.91,1.81Zm-132-49.4a185.66,185.66,0,0,1,38.69-3.59c59.54.59,107.23,28.18,108.23,62.07v39c-1-33.89-48.69-61.47-108.23-62.07a185.65,185.65,0,0,0-38.69,3.6v-39Z"/><path class="cls-6" d="M439.58,112.45c.2.73.37,1.45.52,2.19v16.17c-.14-.73-.31-1.46-.51-2.18V112.45Z"/><path class="cls-6" d="M439.58,130.05c.2.73.37,1.45.52,2.19v1c-.14-.73-.31-1.46-.51-2.18v-1Z"/><path class="cls-6" d="M439.58,132.23c.2.72.37,1.45.52,2.18v1c-.14-.73-.31-1.46-.51-2.18v-1Z"/><path class="cls-6" d="M439.58,134.41c.2.72.37,1.45.52,2.18v1c-.14-.73-.31-1.46-.51-2.18v-1Z"/><path class="cls-6" d="M439.58,136.6c.2.73.37,1.45.52,2.19v1c-.14-.73-.31-1.46-.51-2.18v-1Z"/><path class="cls-6" d="M439.58,138.78c.2.72.37,1.45.52,2.18v1q-.21-1.09-.51-2.19v-1Z"/><path class="cls-6" d="M439.58,141c.2.72.37,1.45.52,2.18v1c-.14-.74-.31-1.46-.51-2.19v-1Z"/><path class="cls-6" d="M438.94,127.88v1c-.24-.71-.49-1.43-.77-2.13v-.26c.28.71.53,1.42.77,2.14v-.77Z"/><path class="cls-6" d="M438.17,127.92c.28.71.53,1.42.77,2.13v1c-.24-.72-.49-1.43-.77-2.14v-1Z"/><path class="cls-6" d="M438.17,130.1c.28.7.53,1.42.77,2.13v1.05c-.24-.72-.49-1.43-.77-2.14v-1Z"/><path class="cls-6" d="M438.17,132.29c.28.71.53,1.42.77,2.14v1c-.24-.71-.49-1.43-.77-2.13v-1Z"/><path class="cls-6" d="M438.17,134.47c.28.71.53,1.42.77,2.13v1.05c-.24-.72-.49-1.43-.77-2.14v-1Z"/><path class="cls-6" d="M438.17,136.66c.28.71.53,1.42.77,2.14v1c-.24-.72-.49-1.43-.77-2.14v-1Z"/><path class="cls-6" d="M433.87,126.19c.44.67.86,1.34,1.25,2v1c-.39-.68-.81-1.36-1.25-2v-1Z"/><path class="cls-6" d="M433.87,128.39c.44.66.86,1.34,1.25,2v1c-.39-.68-.81-1.35-1.25-2v-1Z"/><path class="cls-6" d="M436.27,132.47c.35.69.69,1.39,1,2.08v1c-.32-.7-.66-1.39-1-2.08v-1Z"/><path class="cls-6" d="M431,120.05c.52.65,1,1.31,1.49,2v1c-.47-.66-1-1.32-1.49-2v-1Z"/><path class="cls-6" d="M431,122.23c.52.65,1,1.31,1.49,2v1c-.47-.66-1-1.31-1.49-2v-1Z"/><path class="cls-6" d="M431,124.43c.52.65,1,1.3,1.49,2v1c-.47-.66-1-1.32-1.49-2v-1Z"/><path class="cls-6" d="M427.72,109.7c.58.62,1.15,1.25,1.7,1.88v1c-.55-.64-1.12-1.27-1.7-1.89v-1Z"/><path class="cls-6" d="M427.72,111.87c.58.63,1.15,1.25,1.7,1.89v1c-.55-.64-1.12-1.27-1.7-1.89v-1Z"/><path class="cls-6" d="M427.72,114.05c.58.62,1.15,1.25,1.7,1.89v1c-.55-.63-1.12-1.26-1.7-1.89v-1Z"/><path class="cls-6" d="M427.72,116.25c.58.62,1.15,1.25,1.7,1.88v1c-.55-.64-1.12-1.27-1.7-1.89v-1Z"/><path class="cls-6" d="M427.72,118.42c.58.63,1.15,1.25,1.7,1.89v1c-.55-.63-1.12-1.26-1.7-1.88v-1Z"/><path class="cls-6" d="M427.72,120.62c.58.62,1.15,1.25,1.7,1.89v1c-.55-.63-1.12-1.26-1.7-1.88v-1Z"/><path class="cls-6" d="M424,106c.65.59,1.29,1.2,1.91,1.81v1c-.62-.61-1.26-1.21-1.91-1.81v-1Z"/><path class="cls-6" d="M424,108.2c.65.6,1.29,1.2,1.91,1.81v1c-.62-.61-1.26-1.21-1.91-1.81v-1Z"/><path class="cls-6" d="M424,110.38c.65.6,1.29,1.2,1.91,1.81v1c-.62-.61-1.26-1.21-1.91-1.81v-1Z"/><path class="cls-6" d="M424,112.58c.65.59,1.29,1.2,1.91,1.81v1c-.62-.61-1.26-1.21-1.91-1.81v-1Z"/><path class="cls-6" d="M424,114.75c.65.6,1.29,1.2,1.91,1.81v1c-.62-.61-1.26-1.22-1.91-1.81v-1Z"/><path class="cls-6" d="M424,117c.65.6,1.29,1.2,1.91,1.81v1c-.62-.61-1.26-1.22-1.91-1.81v-1Z"/><path class="cls-6" d="M419.86,106.88c.72.57,1.43,1.15,2.12,1.73v1c-.69-.59-1.4-1.16-2.12-1.73v-1.05Z"/><path class="cls-6" d="M419.86,109.08c.72.57,1.43,1.14,2.12,1.73v1c-.69-.58-1.4-1.16-2.12-1.73v-1Z"/><path class="cls-6" d="M419.86,111.26c.72.57,1.43,1.14,2.12,1.72v1c-.69-.58-1.4-1.16-2.12-1.73v-1Z"/><path class="cls-6" d="M419.86,113.45c.72.57,1.43,1.15,2.12,1.73v1c-.69-.59-1.4-1.16-2.12-1.73v-1Z"/><path class="cls-6" d="M415.34,110.11c.78.54,1.55,1.09,2.3,1.65v1c-.75-.55-1.52-1.1-2.3-1.64v-1Z"/><path class="cls-6" d="M412.94,106.32v1.05c-.82-.53-1.66-1.05-2.5-1.56V105c.84.51,1.68,1,2.5,1.56v-.24Z"/><path class="cls-6" d="M410.44,107c.84.51,1.68,1,2.5,1.56v1c-.82-.53-1.66-1-2.5-1.56v-1Z"/><path class="cls-6" d="M405.2,99.64c.9.47,1.79,1,2.66,1.45v1c-.87-.49-1.76-1-2.66-1.45v-1Z"/><path class="cls-6" d="M405.2,101.81c.9.48,1.79,1,2.66,1.45v1c-.87-.49-1.76-1-2.66-1.45v-1Z"/><path class="cls-6" d="M405.2,104c.9.48,1.79,1,2.66,1.45v1c-.87-.5-1.76-1-2.66-1.45v-1Z"/><path class="cls-6" d="M399.61,96.88c.95.44,1.9.89,2.82,1.35v1c-.92-.45-1.87-.9-2.82-1.34v-1Z"/><path class="cls-6" d="M399.61,99.06c.95.44,1.9.89,2.82,1.35v1c-.92-.46-1.87-.91-2.82-1.35v-1Z"/><path class="cls-6" d="M399.61,101.25c.95.44,1.9.89,2.82,1.35v1c-.92-.46-1.87-.91-2.82-1.35v-1Z"/><path class="cls-6" d="M438.17,112.14c.28.7.53,1.42.77,2.13v14.38c-.24-.72-.49-1.43-.77-2.14V112.14Z"/><path class="cls-6" d="M436.27,112.69c.35.69.69,1.39,1,2.09V133.4c-.32-.7-.66-1.39-1-2.08V112.69Z"/><path class="cls-6" d="M433.87,113.74c.44.67.86,1.34,1.25,2v11.3c-.39-.68-.81-1.35-1.25-2v-11.3Z"/><path class="cls-6" d="M431,104.9c.52.65,1,1.31,1.49,2v14c-.47-.66-1-1.32-1.49-2v-14Z"/><path class="cls-6" d="M427.72,96.67c.58.62,1.15,1.25,1.7,1.88v11.77c-.55-.63-1.12-1.26-1.7-1.88V96.67Z"/><path class="cls-6" d="M424,87.92c.65.6,1.29,1.2,1.91,1.81v16.85c-.62-.61-1.26-1.22-1.91-1.81V87.92Z"/><path class="cls-6" d="M419.86,87.92c.72.56,1.43,1.14,2.12,1.72v17.82c-.69-.58-1.4-1.16-2.12-1.73V87.92Z"/><path class="cls-6" d="M415.34,86.16c.78.54,1.55,1.09,2.3,1.64v22.8c-.75-.55-1.52-1.1-2.3-1.64V86.16Z"/><path class="cls-6" d="M410.44,88.07c.84.51,1.68,1,2.5,1.55v16.94c-.82-.53-1.66-1-2.5-1.56V88.07Z"/><path class="cls-6" d="M405.2,82c.9.48,1.79,1,2.66,1.46V99.7c-.87-.49-1.76-1-2.66-1.45V82Z"/><path class="cls-6" d="M399.61,72.73c.95.44,1.9.89,2.82,1.35V96.84c-.92-.46-1.87-.9-2.82-1.34V72.73Z"/><path class="cls-17" d="M344.37,65V63.26c-3.86-.28-7.8-.44-11.78-.48-1.52,0-3,0-4.52,0v1.69c1.5,0,3,0,4.52,0,4,0,7.92.21,11.78.48ZM312,61.55a192.24,192.24,0,0,1,20.55-.89c4,0,7.92.2,11.78.48v6.08c-3.86-.28-7.8-.44-11.78-.48a192.24,192.24,0,0,0-20.55.89V61.55Z"/><path class="cls-17" d="M344.37,74.42v-1.7c-3.86-.27-7.8-.43-11.78-.47q-5.25-.06-10.38.17v1.69c3.42-.15,6.88-.2,10.38-.17,4,0,7.92.2,11.78.48Zm-43.43-2a188.58,188.58,0,0,1,31.65-2.32c4,0,7.92.2,11.78.48v6.08c-3.86-.27-7.8-.43-11.78-.47a188.6,188.6,0,0,0-31.65,2.31V72.37Z"/><path class="cls-17" d="M344.37,83.88V82.19c-3.2-.23-6.46-.38-9.75-.44v1.69c3.29.06,6.55.21,9.75.44Zm-20.5-4.34c2.88-.1,5.78-.14,8.72-.11,4,0,7.92.2,11.78.48V86c-3.86-.28-7.8-.44-11.78-.48-2.94,0-5.84,0-8.72.11v-6.1Z"/><path class="cls-6" d="M348.29,80.23a173.39,173.39,0,0,1,29.88,5.35v6.1a173.39,173.39,0,0,0-29.88-5.35v-6.1Z"/><path class="cls-6" d="M348.29,70.85A166.84,166.84,0,0,1,388,79.25v6.08a167.34,167.34,0,0,0-39.67-8.4V70.85Z"/><path class="cls-6" d="M348.29,61.45a180.34,180.34,0,0,1,19.25,2.83v6.08a177.85,177.85,0,0,0-19.25-2.82V61.45Z"/><path class="cls-6" d="M371.16,65.05l3.19.76v6.08c-1.06-.26-2.12-.51-3.19-.75V65.05Z"/><path class="cls-6" d="M377.23,66.55l3.09.86V73.5c-1-.3-2.05-.59-3.09-.86V66.55Z"/><path class="cls-6" d="M383.1,68.25l3,1V75.3l-3-1V68.25Z"/><path class="cls-6" d="M388.77,70.14c1,.35,1.93.7,2.88,1.07v6.08c-.95-.36-1.91-.72-2.88-1.07V70.14Z"/><path class="cls-6" d="M328.07,62.79c1.5,0,3,0,4.52,0,4,0,7.92.2,11.78.48V65c-3.86-.27-7.8-.44-11.78-.48-1.52,0-3,0-4.52,0V62.79Z"/><path class="cls-6" d="M322.21,72.42q5.13-.23,10.38-.17c4,0,7.92.2,11.78.47v1.7c-3.86-.28-7.8-.44-11.78-.48-3.5,0-7,0-10.38.17V72.42Z"/><path class="cls-6" d="M334.62,81.75c3.29.06,6.55.21,9.75.44v1.69c-3.2-.23-6.46-.38-9.75-.44V81.75Z"/><path class="cls-16" d="M250.25,93.08c2.56-1.72,3.1-5.63,1.32-6-2.06-.45-4.52,3.83-3.34,5.81.39.66,1.16.74,2,.22Zm-26,23c1.11-2.53,1.25-6.6.44-6.3s-1.82,6.53-1,6.89c.08,0,.27,0,.56-.59Zm-3.79,34.81c0-.38,0-.75,0-1.13.56-18.35,14.7-34.74,36.84-46.06l.24.29.55-.7h0l.55-.69c-6.6-7.95-8.17-9.84-12.19-2.47-1.86,3.63-3.56,5.11-5,4.37-8.37-5.43-8.37-5.43-10.6,1.14-3.71,12.59-3.71,12.59-4.77,13-1.29.39-2,.61-2.88,5-1.58,9.81-1.58,9.81-2,14.38a20.86,20.86,0,0,1-.52,3.34l-.16-.33v9.82Zm0,4.95v-39c0-.37,0-.75,0-1.12.63-20.7,18.54-38.9,45.7-50.15v39C236,118.1,220.6,135.35,220.49,155.81Z"/><path class="cls-18" d="M258.15,103.26ZM236.5,114.9v-1.69c-.39.37-.78.74-1.16,1.12V116c.38-.38.77-.75,1.16-1.12Zm0-3.33v-1.71a62.6,62.6,0,0,0-6.39,7v1.71a62.6,62.6,0,0,1,6.39-7Zm-16,39.29V143l.1.27a30,30,0,0,0,.69-4.51c.65-6,1.13-8.65,2.18-14.5.68-3.25,1.07-3.38,2.36-3.81,1.12-.56,1.12-.56,5.59-14.41,1.67-4.84,1.67-4.84,9.31.12,1.34.67,3.56.25,6.6-5.48,3-5.45,3.66-4.64,10,3-22.14,11.32-36.28,27.71-36.84,46.06,0,.38,0,.75,0,1.13Z"/><path class="cls-6" d="M220.49,143l.1.27a30,30,0,0,0,.69-4.51c.65-6,1.13-8.65,2.18-14.5.67-3.2,1-3.33,2.36-3.81,1.12-.56,1.12-.56,5.59-14.41,1.67-4.84,1.67-4.84,9.31.12,1.34.67,3.56.25,6.6-5.48,3-5.45,3.66-4.64,10,3l.24.29.55-.7h0l.55-.69c-1.48-1.79-3.46-4.17-4.93-6-.37-.38-3.71-3.46-7.84,4.63-2.51,4.61-2.51,4.61-10.44-.68-3-1.5-4.79,5-7.24,14-1.07,3.71-1.73,3.93-3.05,4.38-1,.55-1.95,1.11-4,18.72a30.93,30.93,0,0,1-.49,3.65l-.23-.22V143Z"/><path class="cls-6" d="M224.28,110.33c.49-1,.74-.54.84-.2.56,1.83-.74,6.81-1.4,6.51s-.23-4.64.56-6.31Z"/><path class="cls-6" d="M250.25,87.36c1.91-1,2.79.6,2.18,2.68-.76,2.59-3.32,4.31-4.2,2.82s.27-4.44,2-5.5Z"/><path class="cls-6" d="M230.11,116.82a62.6,62.6,0,0,1,6.39-7v1.71a62.6,62.6,0,0,0-6.39,7v-1.71Z"/><path class="cls-6" d="M235.34,114.33c.38-.38.77-.75,1.16-1.12v1.69c-.39.37-.78.74-1.16,1.12v-1.69Z"/><g class="cls-1"><g class="cls-1"><path class="cls-16" d="M233.21,180.34v-27a81.83,81.83,0,0,0,19,14.88v27a81.31,81.31,0,0,1-19-14.88ZM227,146.24v26.1a39.94,39.94,0,0,1-6.55-21.48V141c0-.12.09-.27.12-.39.39-1.65.8-3.36,1.35-3.93.24.14.73.43,1.62,4.4a10.66,10.66,0,0,0,.72,2.29c.28.57.5.83.77.9l1.8.15.34,1.79Zm38.19,60.39v-39c-27.18-11.53-44.74-30-44.74-50.83v39c1.53,21.69,15.33,37.36,44.74,50.82Z"/><path class="cls-18" d="M221.28,154.49V152.8A40.44,40.44,0,0,0,225,163.23v1.69a40.3,40.3,0,0,1-3.76-10.43Zm0-3.33v-1.69a39.92,39.92,0,0,0,2.49,7.77v1.69a39.92,39.92,0,0,1-2.49-7.77ZM227,172.34v-26.1l-1.68-.13c-.33-.12-1.18-.44-2-4.28-.57-2.63-.91-3-1.12-3.27-.27.15-.75.94-1.54,3.92l-.2.48v7.9A39.94,39.94,0,0,0,227,172.34Z"/><path class="cls-6" d="M227,146.24l-1.68-.13c-1-.22-1.62-2.45-2-4.28-1-4.73-1.39-4.15-2.66.65a2.7,2.7,0,0,1-.2.48V141l.09-.27,0-.05a13.28,13.28,0,0,1,1.18-3.81c.57-.9,1.44,2.63,1.69,3.73a9.39,9.39,0,0,0,1.22,3.41c.21.24.21.24,2.18.41l.34,1.79Z"/><path class="cls-16" d="M300.33,211.6v-2.12c1.22.2,2.44.39,3.67.56v2.12c-1.23-.17-2.45-.36-3.67-.56Zm7.38,1.05v-2.12q1.88.22,3.78.42v2.12q-1.9-.18-3.78-.42Zm7.59.77v-2.13c1.27.11,2.56.2,3.84.27v2.13c-1.28-.08-2.57-.17-3.84-.27Zm7.76.46v-2.12c1.3.05,2.61.09,3.92.11V214c-1.31,0-2.62-.06-3.92-.11Zm7.88.15v-2.12c1.31,0,2.62,0,3.92,0V214c-1.3,0-2.61.05-3.92.05Zm7.84-.17v-2.12c1.29-.06,2.58-.12,3.86-.2v2.12c-1.28.08-2.57.15-3.86.2Zm7.68-.47v-2.13c1.27-.1,2.54-.22,3.8-.35V213c-1.26.13-2.53.25-3.8.36Zm7.54-.78v-2.12c1.23-.16,2.46-.32,3.68-.5v2.13c-1.22.17-2.45.34-3.68.49Zm7.35-1.06v-2.13c1.2-.2,2.4-.41,3.59-.63v2.12c-1.19.22-2.39.44-3.59.64Zm7.13-1.34v-2.12l3.48-.77v2.12c-1.15.27-2.31.52-3.48.77Zm6.93-1.61v-2.12q1.69-.43,3.36-.9v2.12q-1.66.47-3.36.9Zm6.66-1.86v-2.12c1.1-.34,2.19-.68,3.26-1v2.12c-1.07.36-2.16.7-3.26,1Zm6.43-2.11v-2.12c1.05-.37,2.08-.76,3.11-1.15v2.13c-1,.39-2.06.77-3.11,1.14Zm6.15-2.35v-2.12c1-.41,2-.83,3-1.26V201c-1,.43-2,.84-3,1.25Zm5.84-2.56v-2.13c.95-.44,1.88-.89,2.8-1.36v2.13c-.92.46-1.85.91-2.8,1.36Zm5.54-2.79v-2.12c.89-.48,1.77-1,2.63-1.47v2.13c-.86.49-1.74,1-2.63,1.46Zm5.18-3v-2.12c.84-.52,1.67-1,2.48-1.58v2.13c-.81.53-1.64,1.05-2.48,1.57Zm4.85-3.18v-2.13q1.17-.81,2.28-1.65v2.12c-.74.56-1.5,1.11-2.28,1.66Zm4.46-3.36v-2.12c.72-.58,1.42-1.16,2.1-1.76v2.13c-.68.59-1.38,1.17-2.1,1.75Zm4.08-3.54v-2.12q1-.9,1.89-1.83v2.13c-.61.61-1.24,1.22-1.89,1.82Zm3.67-3.7v-2.12c.58-.63,1.14-1.26,1.67-1.9v2.12c-.53.64-1.09,1.27-1.67,1.9Zm3.23-3.84v-2.12c.51-.66,1-1.32,1.46-2v2.13c-.46.66-.95,1.32-1.46,2Zm2.8-4v-2.13c.42-.67.83-1.35,1.21-2v2.13c-.38.68-.79,1.36-1.21,2Zm2.31-4.11V166.1c.35-.7.68-1.4,1-2.11v2.12c-.3.71-.63,1.42-1,2.12Zm1.84-4.25v-2.12q.39-1.06.72-2.16v2.13c-.22.72-.46,1.44-.72,2.15Zm1.33-4.35v-2.12c.17-.73.33-1.47.46-2.21v2.12c-.13.74-.29,1.48-.46,2.21ZM300.33,207.79v-2.13c1.22.2,2.44.39,3.67.57v2.12c-1.23-.18-2.45-.36-3.67-.56Zm7.38,1.05v-2.12c1.25.15,2.51.29,3.78.41v2.13q-1.9-.19-3.78-.42Zm7.59.76v-2.12c1.27.1,2.56.19,3.84.27v2.12c-1.28-.08-2.57-.17-3.84-.27Zm7.76.46v-2.12c1.3.05,2.61.09,3.92.11v2.13c-1.31,0-2.62-.06-3.92-.12Zm7.88.15v-2.12c1.31,0,2.62,0,3.92,0v2.12c-1.3,0-2.61,0-3.92,0Zm7.84-.16v-2.13c1.29,0,2.58-.12,3.86-.2v2.13c-1.28.08-2.57.14-3.86.2Zm7.68-.48v-2.12c1.27-.11,2.54-.23,3.8-.36v2.13c-1.26.13-2.53.25-3.8.35Zm7.54-.78v-2.12c1.23-.15,2.46-.32,3.68-.49v2.12c-1.22.18-2.45.34-3.68.49Zm7.35-1.06v-2.12c1.2-.2,2.4-.41,3.59-.64v2.13c-1.19.22-2.39.43-3.59.63Zm7.13-1.34v-2.12c1.17-.25,2.33-.5,3.48-.77v2.12c-1.15.27-2.31.53-3.48.77Zm6.93-1.61v-2.12q1.69-.43,3.36-.9v2.13c-1.11.31-2.23.61-3.36.89Zm6.66-1.85V200.8c1.1-.33,2.19-.67,3.26-1v2.13c-1.07.35-2.16.69-3.26,1Zm6.43-2.12v-2.12c1.05-.37,2.08-.75,3.11-1.14v2.12c-1,.39-2.06.77-3.11,1.14Zm6.15-2.34v-2.13c1-.41,2-.82,3-1.25v2.12c-1,.43-2,.85-3,1.26Zm5.84-2.57v-2.12c.95-.45,1.88-.9,2.8-1.36v2.12c-.92.46-1.85.92-2.8,1.36Zm5.54-2.78V191c.89-.48,1.77-1,2.63-1.46v2.12c-.86.5-1.74,1-2.63,1.47Zm5.18-3V188c.84-.51,1.67-1,2.48-1.57v2.12c-.81.53-1.64,1.06-2.48,1.58Zm4.85-3.19v-2.12c.78-.55,1.54-1.1,2.28-1.66v2.13c-.74.55-1.5,1.11-2.28,1.65Zm4.46-3.35v-2.13c.72-.58,1.42-1.16,2.1-1.75v2.12c-.68.59-1.38,1.18-2.1,1.76Zm4.08-3.54v-2.13c.65-.6,1.28-1.21,1.89-1.82v2.12c-.61.62-1.24,1.22-1.89,1.83Zm3.67-3.7v-2.13c.58-.63,1.14-1.26,1.67-1.9v2.12c-.53.64-1.09,1.28-1.67,1.91Zm3.23-3.84v-2.13c.51-.65,1-1.32,1.46-2v2.12c-.46.67-.95,1.33-1.46,2Zm2.8-4V166.4c.42-.68.83-1.36,1.21-2v2.12c-.38.69-.79,1.37-1.21,2Zm2.31-4.11v-2.12c.35-.7.68-1.41,1-2.12v2.13c-.3.71-.63,1.41-1,2.11Zm1.84-4.24V158c.26-.71.5-1.43.72-2.15V158q-.33,1.08-.72,2.16Zm1.33-4.35v-2.13c.17-.73.33-1.47.46-2.21v2.13c-.13.74-.29,1.47-.46,2.21ZM300.33,204v-2.12c1.22.2,2.44.39,3.67.56v2.12c-1.23-.17-2.45-.36-3.67-.56Zm7.38,1.05V202.9q1.88.22,3.78.42v2.12q-1.9-.18-3.78-.42Zm7.59.77v-2.13c1.27.11,2.56.2,3.84.27v2.13c-1.28-.08-2.57-.17-3.84-.27Zm7.76.46v-2.12c1.3.05,2.61.09,3.92.11v2.12c-1.31,0-2.62-.06-3.92-.11Zm7.88.15v-2.12c1.31,0,2.62,0,3.92-.05v2.12c-1.3,0-2.61.05-3.92.05Zm7.84-.17v-2.12c1.29-.06,2.58-.12,3.86-.2V206c-1.28.08-2.57.15-3.86.2Zm7.68-.47v-2.13c1.27-.1,2.54-.22,3.8-.35v2.12c-1.26.13-2.53.25-3.8.36ZM354,205v-2.12c1.23-.16,2.46-.32,3.68-.5v2.13c-1.22.17-2.45.34-3.68.49Zm7.35-1.06v-2.13c1.2-.2,2.4-.41,3.59-.63v2.12c-1.19.22-2.39.44-3.59.64Zm7.13-1.34v-2.13c1.17-.24,2.33-.5,3.48-.76v2.12c-1.15.27-2.31.52-3.48.77Zm6.93-1.61v-2.12q1.69-.43,3.36-.9v2.12q-1.66.47-3.36.9Zm6.66-1.86V197c1.1-.34,2.19-.68,3.26-1v2.12c-1.07.35-2.16.7-3.26,1ZM388.5,197v-2.12c1.05-.37,2.08-.76,3.11-1.15v2.13c-1,.39-2.06.77-3.11,1.14Zm6.15-2.35v-2.12c1-.41,2-.83,3-1.26v2.13c-1,.43-2,.84-3,1.25Zm5.84-2.56V190c.95-.44,1.88-.89,2.8-1.36v2.13c-.92.46-1.85.91-2.8,1.36ZM406,189.3v-2.12c.89-.48,1.77-1,2.63-1.47v2.13c-.86.49-1.74,1-2.63,1.46Zm5.18-3V184.2c.84-.52,1.67-1,2.48-1.58v2.13c-.81.53-1.64,1.05-2.48,1.57Zm4.85-3.18V181q1.17-.81,2.28-1.65v2.12c-.74.56-1.5,1.11-2.28,1.66Zm4.46-3.36v-2.12c.72-.58,1.42-1.16,2.1-1.76V178c-.68.59-1.38,1.17-2.1,1.75Zm4.08-3.54v-2.12q1-.9,1.89-1.83v2.13c-.61.61-1.24,1.22-1.89,1.82Zm3.67-3.7v-2.12c.58-.63,1.14-1.26,1.67-1.9v2.12c-.53.64-1.09,1.27-1.67,1.9Zm3.23-3.84v-2.12c.51-.66,1-1.32,1.46-2v2.12c-.46.67-.95,1.33-1.46,2Zm2.8-4v-2.13c.42-.67.83-1.35,1.21-2v2.13c-.38.68-.79,1.36-1.21,2Zm2.31-4.11v-2.13c.35-.7.68-1.4,1-2.11v2.12c-.3.71-.63,1.42-1,2.12Zm1.84-4.25v-2.12q.39-1.06.72-2.16v2.13c-.22.72-.46,1.44-.72,2.15Zm1.33-4.35v-2.12c.17-.73.33-1.47.46-2.21v2.12c-.13.74-.29,1.48-.46,2.21Zm-78.43,48v-5c1.2-.2,2.4-.41,3.59-.64v5c-1.19.22-2.39.43-3.59.63Zm70.28-35.37v-5c.5-.65,1-1.31,1.44-2v5q-.69,1-1.44,2Zm-31.14,23.55v-5.49c.95-.45,1.88-.9,2.8-1.36v5.48c-.92.47-1.85.92-2.8,1.37Zm5.74-2.9v-5.49c.89-.48,1.77-1,2.63-1.47v5.49c-.86.5-1.74,1-2.63,1.47ZM354,201v-6.37c1.23-.16,2.46-.32,3.68-.5v6.37c-1.22.18-2.45.35-3.68.5Zm80.39-40.43v-6.37c.43-.67.83-1.36,1.21-2v6.37c-.38.69-.78,1.37-1.21,2Zm-65.91,38v-6.81c1.17-.24,2.33-.5,3.48-.76v6.8c-1.15.27-2.31.52-3.48.77Zm59.92-30.18v-6.81c.58-.62,1.13-1.26,1.67-1.9v6.8c-.54.64-1.09,1.28-1.67,1.91Zm-33.75,22.25V183.3c1-.41,2-.83,3-1.26v7.42c-1,.42-2,.84-3,1.25Zm16.77-8.46v-7.41c.83-.52,1.65-1,2.45-1.57v7.42c-.8.53-1.62,1.05-2.45,1.56Zm-65,19.56v-8.38c1.27-.11,2.54-.22,3.8-.35v8.38c-1.26.13-2.53.25-3.8.35Zm90.24-45.33V148.1c.34-.7.66-1.4,1-2.11v8.39q-.45,1.06-1,2.1ZM300.33,200V190.6c1.22.2,2.44.39,3.67.56v9.43c-1.23-.17-2.45-.36-3.67-.56Zm75.08-3v-9.88q1.69-.43,3.36-.9v9.88q-1.66.47-3.36.9Zm49.34-24.87v-9.88c.65-.6,1.27-1.22,1.89-1.84v9.88c-.62.62-1.24,1.24-1.89,1.84Zm-36.25,20.9V182.64c1.05-.37,2.08-.75,3.11-1.14v10.42c-1,.39-2.06.77-3.11,1.14Zm27.74-14V168.65c.77-.55,1.54-1.1,2.28-1.67V177.4c-.74.57-1.51,1.12-2.28,1.67Zm-77.46,23.22V191.47c1.29-.05,2.58-.12,3.86-.2v10.82c-1.28.08-2.57.15-3.86.2Zm99.73-50V141.43c.26-.72.5-1.44.72-2.17v10.82c-.22.73-.46,1.45-.72,2.17Zm-130.8,48.83V188.16q1.88.22,3.78.42V201.5q-1.9-.19-3.78-.42Zm23.23,1.38V189.54c1.31,0,2.62,0,3.92,0v12.92c-1.3,0-2.61.05-3.92.05Zm51.13-7.29V182.25c1.1-.33,2.19-.68,3.26-1v12.92c-1.07.35-2.16.7-3.26,1ZM420.7,175.7V162.78c.7-.58,1.4-1.16,2.07-1.75V174c-.67.59-1.37,1.17-2.07,1.75Zm19.12-27.81V135c.17-.73.32-1.47.45-2.21v12.92c-.13.74-.28,1.48-.45,2.21ZM323.06,202.31V187c1.3.05,2.61.09,3.92.12v15.29c-1.31,0-2.62-.06-3.92-.11Zm-7.76-.46V185.06c1.27.1,2.56.19,3.84.26v16.79c-1.28-.07-2.57-.16-3.84-.26Zm125.5-83.37c-1.62,34.61-51.57,62.08-112.06,61.47a183.44,183.44,0,0,1-35.92-3.82v39A185,185,0,0,0,328.74,219c60.49.6,110.44-26.87,112.06-61.48v-39Z"/><path class="cls-6" d="M223.77,157.24a39.92,39.92,0,0,1-2.49-7.77v1.69a39.92,39.92,0,0,0,2.49,7.77v-1.69Z"/><path class="cls-6" d="M225,163.23a40.44,40.44,0,0,1-3.76-10.43v1.69A40.3,40.3,0,0,0,225,164.92v-1.69Z"/><path class="cls-18" d="M235.46,178.79V176l1.71,1.62v2.75l-1.71-1.62ZM239,182v-2.76c.61.53,1.23,1,1.87,1.56v2.75c-.64-.51-1.26-1-1.87-1.55Zm3.81,3.08v-2.76c.66.5,1.34,1,2,1.49v2.75c-.69-.49-1.37-1-2-1.48ZM246.9,188v-2.75c.71.48,1.43,1,2.17,1.41v2.76c-.74-.47-1.46-.94-2.17-1.42Zm-11.44-14.73v-2.75l1.71,1.62v2.75q-.87-.79-1.71-1.62Zm3.5,3.21v-2.75c.61.52,1.23,1,1.87,1.55v2.76c-.64-.52-1.26-1-1.87-1.56Zm3.81,3.08v-2.75c.66.5,1.34,1,2,1.48v2.76c-.69-.49-1.37-1-2-1.49Zm4.13,2.94v-2.76c.71.48,1.43.95,2.17,1.42v2.75c-.74-.46-1.46-.94-2.17-1.41Zm-11.44-14.73V165q.84.82,1.71,1.62v2.76l-1.71-1.62ZM239,171v-2.75c.61.53,1.23,1,1.87,1.56v2.75c-.64-.51-1.26-1-1.87-1.56Zm3.81,3.08v-2.75c.66.5,1.34,1,2,1.49v2.75c-.69-.49-1.37-1-2-1.49ZM246.9,177v-2.75c.71.47,1.43.95,2.17,1.41v2.75c-.74-.46-1.46-.93-2.17-1.41Zm-11.44-14.73v-2.76q.84.83,1.71,1.62v2.76l-1.71-1.62Zm3.5,3.21v-2.76c.61.53,1.23,1.05,1.87,1.56V167c-.64-.51-1.26-1-1.87-1.55Zm3.81,3.08V165.8c.66.5,1.34,1,2,1.49V170c-.69-.49-1.37-1-2-1.48Zm4.13,2.93v-2.75c.71.48,1.43.95,2.17,1.41v2.76c-.74-.47-1.46-.94-2.17-1.42Zm5.34-3.26a81.83,81.83,0,0,1-19-14.88v27a81.31,81.31,0,0,0,19,14.88v-27Z"/><path class="cls-19" d="M237.17,161.13q-.87-.8-1.71-1.62v2.76l1.71,1.62v-2.76Z"/><path class="cls-6" d="M240.83,164.28c-.64-.51-1.26-1-1.87-1.56v2.76c.61.52,1.23,1,1.87,1.55v-2.75Z"/><path class="cls-19" d="M244.8,167.29c-.69-.49-1.37-1-2-1.49v2.76c.66.5,1.34,1,2,1.48v-2.75Z"/><path class="cls-19" d="M249.07,170.15c-.74-.46-1.46-.93-2.17-1.41v2.75c.71.48,1.43.95,2.17,1.42v-2.76Z"/><path class="cls-19" d="M237.17,166.64q-.87-.79-1.71-1.62v2.76l1.71,1.62v-2.76Z"/><path class="cls-6" d="M240.83,169.79c-.64-.52-1.26-1-1.87-1.56V171c.61.53,1.23,1.05,1.87,1.56v-2.75Z"/><path class="cls-19" d="M244.8,172.8c-.69-.49-1.37-1-2-1.49v2.75c.66.5,1.34,1,2,1.49V172.8Z"/><path class="cls-19" d="M249.07,175.66c-.74-.46-1.46-.94-2.17-1.41V177c.71.48,1.43.95,2.17,1.41v-2.75Z"/><path class="cls-6" d="M237.17,172.15l-1.71-1.62v2.75q.84.83,1.71,1.62v-2.75Z"/><path class="cls-19" d="M240.83,175.29c-.64-.51-1.26-1-1.87-1.55v2.75c.61.53,1.23,1,1.87,1.56v-2.76Z"/><path class="cls-19" d="M244.8,178.3c-.69-.49-1.37-1-2-1.48v2.75c.66.5,1.34,1,2,1.49V178.3Z"/><path class="cls-6" d="M249.07,181.17c-.74-.47-1.46-.94-2.17-1.42v2.76c.71.47,1.43,1,2.17,1.41v-2.75Z"/><path class="cls-19" d="M237.17,177.66,235.46,176v2.75l1.71,1.62v-2.75Z"/><path class="cls-6" d="M240.83,180.8c-.64-.51-1.26-1-1.87-1.56V182c.61.52,1.23,1,1.87,1.55V180.8Z"/><path class="cls-19" d="M244.8,183.81c-.69-.49-1.37-1-2-1.49v2.76c.66.5,1.34,1,2,1.48v-2.75Z"/><path class="cls-19" d="M249.07,186.67c-.74-.46-1.46-.93-2.17-1.41V188c.71.48,1.43,1,2.17,1.42v-2.76Z"/><path class="cls-6" d="M304,191.16c-1.23-.17-2.45-.36-3.67-.56V200c1.22.2,2.44.39,3.67.56v-9.43Z"/><path class="cls-6" d="M311.49,188.58q-1.9-.2-3.78-.42v12.92q1.88.22,3.78.42V188.58Z"/><path class="cls-6" d="M319.14,185.32c-1.28-.07-2.57-.16-3.84-.26v16.79c1.27.1,2.56.19,3.84.26V185.32Z"/><path class="cls-6" d="M327,187.13c-1.31,0-2.62-.07-3.92-.12v15.3c1.3.05,2.61.09,3.92.11V187.13Z"/><path class="cls-6" d="M334.86,189.49c-1.3,0-2.61,0-3.92,0v12.92c1.31,0,2.62,0,3.92-.05V189.49Z"/><path class="cls-9" d="M342.64,191.27c-1.28.08-2.57.15-3.86.2v10.82c1.29,0,2.58-.12,3.86-.2V191.27Z"/><path class="cls-9" d="M350.26,193.08c-1.26.13-2.53.24-3.8.35v8.38c1.27-.1,2.54-.22,3.8-.35-1.26.13-2.53.25-3.8.35,1.27-.1,2.54-.22,3.8-.35v-8.38Z"/><path class="cls-11" d="M357.68,194.17c-1.22.18-2.45.34-3.68.5V201c1.23-.15,2.46-.32,3.68-.5v-6.37Z"/><path class="cls-11" d="M364.94,194.37c-1.19.23-2.39.44-3.59.64v5c1.2-.2,2.4-.41,3.59-.63v-5Z"/><path class="cls-20" d="M372,191.07c-1.15.26-2.31.52-3.48.76v6.81c1.17-.25,2.33-.5,3.48-.77v-6.8Z"/><path class="cls-20" d="M378.77,186.25q-1.66.47-3.36.9V197q1.69-.43,3.36-.9v-9.88Z"/><path class="cls-18" d="M385.33,181.22c-1.07.35-2.16.7-3.26,1v12.92c1.1-.33,2.19-.68,3.26-1V181.22Z"/><path class="cls-18" d="M391.61,181.5c-1,.39-2.06.77-3.11,1.14v10.42c1.05-.37,2.08-.75,3.11-1.14V181.5Z"/><path class="cls-21" d="M397.61,182c-1,.43-2,.85-3,1.26v7.41c1-.41,2-.83,3-1.25V182Z"/><path class="cls-21" d="M403.29,181.3c-.92.46-1.85.91-2.8,1.36v5.49c.95-.45,1.88-.9,2.8-1.37V181.3Z"/><path class="cls-6" d="M440.27,132.76c-.13.74-.28,1.48-.45,2.21v12.92c.17-.73.32-1.47.45-2.21V132.76Z"/><path class="cls-9" d="M439.23,139.26c-.22.73-.46,1.45-.72,2.17v10.82c.26-.72.5-1.44.72-2.17V139.26Z"/><path class="cls-9" d="M437.66,146c-.3.71-.62,1.41-1,2.11v8.38q.51-1,1-2.1V146Z"/><path class="cls-11" d="M435.6,152.2c-.38.68-.78,1.37-1.21,2v6.37c.43-.67.83-1.35,1.21-2V152.2Z"/><path class="cls-11" d="M433.07,157.66c-.46.66-.94,1.32-1.44,2v5q.75-1,1.44-2v-5Z"/><path class="cls-20" d="M430.07,159.75c-.54.64-1.09,1.28-1.67,1.9v6.81c.58-.63,1.13-1.27,1.67-1.91v-6.8Z"/><path class="cls-20" d="M426.64,160.44c-.62.62-1.24,1.24-1.89,1.84v9.88c.65-.6,1.27-1.22,1.89-1.84v-9.88Z"/><path class="cls-18" d="M422.77,161c-.67.59-1.37,1.17-2.07,1.75V175.7c.7-.58,1.4-1.16,2.07-1.75V161Z"/><path class="cls-18" d="M418.52,167c-.74.57-1.51,1.12-2.28,1.67v10.42c.77-.55,1.54-1.1,2.28-1.67V167Z"/><path class="cls-21" d="M413.87,173.27c-.8.53-1.62,1-2.45,1.57v7.41c.83-.51,1.65-1,2.45-1.56v-7.42Z"/><path class="cls-21" d="M408.86,178.29c-.86.5-1.74,1-2.63,1.47v5.49c.89-.48,1.77-1,2.63-1.47v-5.49Z"/><path class="cls-6" d="M350.26,201.46c-1.26.13-2.53.25-3.8.35,1.27-.1,2.54-.22,3.8-.35Z"/><path class="cls-21" d="M304,202.41c-1.23-.17-2.45-.36-3.67-.56V204c1.22.2,2.44.39,3.67.56v-2.12Z"/><path class="cls-21" d="M319.14,203.93c-1.28-.07-2.57-.16-3.84-.27v2.13c1.27.1,2.56.19,3.84.27v-2.13Z"/><path class="cls-21" d="M327,204.24c-1.31,0-2.62-.06-3.92-.11v2.12c1.3.05,2.61.09,3.92.11v-2.12Z"/><path class="cls-21" d="M334.86,204.23c-1.3,0-2.61,0-3.92.05v2.12c1.31,0,2.62,0,3.92-.05v-2.12Z"/><path class="cls-21" d="M342.64,203.91c-1.28.08-2.57.14-3.86.2v2.12c1.29,0,2.58-.12,3.86-.2v-2.12Z"/><path class="cls-21" d="M357.68,202.36c-1.22.18-2.45.34-3.68.5V205c1.23-.15,2.46-.32,3.68-.49v-2.13Z"/><path class="cls-21" d="M364.94,201.16c-1.19.22-2.39.43-3.59.63v2.13c1.2-.2,2.4-.42,3.59-.64v-2.12Z"/><path class="cls-21" d="M372,199.69c-1.15.26-2.31.52-3.48.76v2.13c1.17-.25,2.33-.5,3.48-.77v-2.12Z"/><path class="cls-21" d="M378.77,198q-1.66.47-3.36.9V201q1.69-.43,3.36-.9V198Z"/><path class="cls-21" d="M385.33,196c-1.07.35-2.16.69-3.26,1v2.12c1.1-.33,2.19-.68,3.26-1V196Z"/><path class="cls-21" d="M397.61,191.27c-1,.43-2,.85-3,1.26v2.12c1-.41,2-.82,3-1.25v-2.13Z"/><path class="cls-21" d="M403.29,188.6c-.92.47-1.85.92-2.8,1.36v2.13c.95-.45,1.88-.9,2.8-1.36V188.6Z"/><path class="cls-21" d="M408.66,185.71c-.86.5-1.74,1-2.63,1.47v2.12c.89-.48,1.77-1,2.63-1.46v-2.13Z"/><path class="cls-21" d="M413.69,182.62c-.81.54-1.64,1.06-2.48,1.58v2.12c.84-.52,1.67-1,2.48-1.57v-2.13Z"/><path class="cls-21" d="M418.34,179.36q-1.11.84-2.28,1.65v2.13c.78-.55,1.54-1.1,2.28-1.66v-2.12Z"/><path class="cls-21" d="M422.62,175.9c-.68.6-1.38,1.18-2.1,1.76v2.12c.72-.58,1.42-1.16,2.1-1.75V175.9Z"/><path class="cls-21" d="M426.49,172.29q-.92.93-1.89,1.83v2.12c.65-.6,1.28-1.21,1.89-1.82v-2.13Z"/><path class="cls-21" d="M433,164.59c-.46.67-.95,1.33-1.46,2v2.12c.51-.66,1-1.32,1.46-2v-2.12Z"/><path class="cls-21" d="M435.51,160.54c-.38.69-.79,1.37-1.21,2v2.13c.42-.68.83-1.36,1.21-2v-2.13Z"/><path class="cls-21" d="M437.59,156.36c-.3.71-.63,1.41-1,2.11v2.13c.35-.7.68-1.41,1-2.12v-2.12Z"/><path class="cls-21" d="M439.17,152.07q-.33,1.1-.72,2.16v2.12c.26-.71.5-1.43.72-2.15v-2.13Z"/><path class="cls-21" d="M304,206.23c-1.23-.18-2.45-.37-3.67-.57v2.13c1.22.2,2.44.38,3.67.56v-2.12Z"/><path class="cls-21" d="M311.49,207.13c-1.27-.12-2.53-.26-3.78-.41v2.12q1.88.22,3.78.42v-2.12Z"/><path class="cls-21" d="M319.14,207.75c-1.28-.08-2.57-.17-3.84-.27v2.12c1.27.1,2.56.19,3.84.27v-2.12Z"/><path class="cls-21" d="M327,208.05c-1.31,0-2.62-.06-3.92-.11v2.12c1.3.06,2.61.09,3.92.12v-2.13Z"/><path class="cls-21" d="M334.86,208.05c-1.3,0-2.61,0-3.92,0v2.12c1.31,0,2.62,0,3.92,0v-2.12Z"/><path class="cls-21" d="M342.64,207.72c-1.28.08-2.57.15-3.86.2v2.13c1.29-.06,2.58-.12,3.86-.2v-2.13Z"/><path class="cls-21" d="M357.68,206.18c-1.22.17-2.45.34-3.68.49v2.12c1.23-.15,2.46-.31,3.68-.49v-2.12Z"/><path class="cls-21" d="M372,203.5c-1.15.27-2.31.52-3.48.77v2.12c1.17-.24,2.33-.5,3.48-.77V203.5Z"/><path class="cls-21" d="M378.77,201.76q-1.66.47-3.36.9v2.12c1.13-.28,2.25-.58,3.36-.89v-2.13Z"/><path class="cls-21" d="M385.33,199.77c-1.07.36-2.16.7-3.26,1v2.13c1.1-.34,2.19-.68,3.26-1v-2.13Z"/><path class="cls-21" d="M397.61,195.09c-1,.43-2,.84-3,1.25v2.13c1-.41,2-.83,3-1.26v-2.12Z"/><path class="cls-21" d="M403.29,192.42c-.92.46-1.85.91-2.8,1.36v2.12c.95-.44,1.88-.9,2.8-1.36v-2.12Z"/><path class="cls-21" d="M418.34,183.17c-.74.56-1.5,1.11-2.28,1.66V187c.78-.54,1.54-1.1,2.28-1.65v-2.13Z"/><path class="cls-21" d="M422.62,179.72c-.68.59-1.38,1.17-2.1,1.75v2.13c.72-.58,1.42-1.17,2.1-1.76v-2.12Z"/><path class="cls-21" d="M426.49,176.11c-.61.61-1.24,1.22-1.89,1.82v2.13c.65-.61,1.28-1.21,1.89-1.83v-2.12Z"/><path class="cls-21" d="M433,168.41c-.46.66-.95,1.33-1.46,2v2.13c.51-.66,1-1.32,1.46-2v-2.12Z"/><path class="cls-21" d="M437.59,160.17c-.3.71-.63,1.42-1,2.12v2.12c.35-.7.68-1.4,1-2.11v-2.13Z"/><path class="cls-21" d="M439.17,155.89c-.22.72-.46,1.44-.72,2.15v2.13q.39-1.08.72-2.16v-2.12Z"/><path class="cls-21" d="M440.24,151.48c-.13.74-.29,1.48-.46,2.21v2.13c.17-.74.33-1.47.46-2.21v-2.13Z"/><path class="cls-21" d="M304,210c-1.23-.17-2.45-.36-3.67-.56v2.12c1.22.2,2.44.39,3.67.56V210Z"/><path class="cls-21" d="M311.49,211q-1.9-.19-3.78-.42v2.12q1.88.24,3.78.42V211Z"/><path class="cls-21" d="M342.64,211.54c-1.28.08-2.57.14-3.86.2v2.12c1.29-.05,2.58-.12,3.86-.2v-2.12Z"/><path class="cls-21" d="M350.26,210.91c-1.26.13-2.53.25-3.8.35v2.13c1.27-.11,2.54-.23,3.8-.36v-2.12Z"/><path class="cls-21" d="M357.68,210c-1.22.18-2.45.34-3.68.5v2.12c1.23-.15,2.46-.32,3.68-.49V210Z"/><path class="cls-21" d="M364.94,208.79c-1.19.22-2.39.43-3.59.63v2.13c1.2-.2,2.4-.42,3.59-.64v-2.12Z"/><path class="cls-21" d="M372,207.32l-3.48.77v2.12c1.17-.25,2.33-.5,3.48-.77v-2.12Z"/><path class="cls-21" d="M385.33,203.59c-1.07.35-2.16.69-3.26,1v2.12c1.1-.33,2.19-.67,3.26-1v-2.12Z"/><path class="cls-21" d="M391.61,201.36c-1,.39-2.06.78-3.11,1.15v2.12c1.05-.37,2.08-.75,3.11-1.14v-2.13Z"/><path class="cls-21" d="M403.29,196.23c-.92.47-1.85.92-2.8,1.36v2.13c.95-.45,1.88-.9,2.8-1.36v-2.13Z"/><path class="cls-21" d="M408.66,193.34c-.86.5-1.74,1-2.63,1.47v2.12c.89-.48,1.77-1,2.63-1.46v-2.13Z"/><path class="cls-21" d="M413.69,190.25c-.81.54-1.64,1.06-2.48,1.58V194c.84-.52,1.67-1,2.48-1.57v-2.13Z"/><path class="cls-21" d="M418.34,187q-1.11.84-2.28,1.65v2.13c.78-.55,1.54-1.1,2.28-1.66V187Z"/><path class="cls-21" d="M422.62,183.53c-.68.6-1.38,1.18-2.1,1.76v2.12c.72-.58,1.42-1.16,2.1-1.75v-2.13Z"/><path class="cls-21" d="M429.94,176.15c-.53.64-1.09,1.27-1.67,1.9v2.12c.58-.63,1.14-1.26,1.67-1.9v-2.12Z"/><path class="cls-21" d="M433,172.22c-.46.67-.95,1.33-1.46,2v2.12c.51-.66,1-1.32,1.46-2v-2.13Z"/><path class="cls-21" d="M435.51,168.17c-.38.69-.79,1.37-1.21,2v2.13c.42-.68.83-1.36,1.21-2v-2.13Z"/><path class="cls-21" d="M437.59,164c-.3.71-.63,1.41-1,2.11v2.13c.35-.7.68-1.41,1-2.12V164Z"/><path class="cls-21" d="M439.17,159.7q-.33,1.1-.72,2.16V164c.26-.71.5-1.43.72-2.15V159.7Z"/><path class="cls-21" d="M440.24,155.3c-.13.74-.29,1.48-.46,2.21v2.12c.17-.73.33-1.47.46-2.21V155.3Z"/><path class="cls-6" d="M311.49,203.32q-1.9-.19-3.78-.42V205q1.88.24,3.78.42v-2.12Z"/><path class="cls-6" d="M350.26,203.28c-1.26.13-2.53.25-3.8.35v2.13c1.27-.11,2.54-.23,3.8-.36v-2.12Z"/><path class="cls-6" d="M391.61,193.73c-1,.39-2.06.78-3.11,1.15V197c1.05-.37,2.08-.75,3.11-1.14v-2.13Z"/><path class="cls-6" d="M429.94,168.52c-.53.64-1.09,1.27-1.67,1.9v2.12c.58-.63,1.14-1.26,1.67-1.9v-2.12Z"/><path class="cls-6" d="M440.24,147.67c-.13.74-.29,1.48-.46,2.21V152c.17-.73.33-1.47.46-2.21v-2.12Z"/><path class="cls-6" d="M350.26,207.09c-1.26.13-2.53.25-3.8.36v2.12c1.27-.1,2.54-.22,3.8-.35v-2.13Z"/><path class="cls-6" d="M364.94,205c-1.19.23-2.39.44-3.59.64v2.12c1.2-.2,2.4-.41,3.59-.63V205Z"/><path class="cls-6" d="M391.61,197.55c-1,.39-2.06.77-3.11,1.14v2.12c1.05-.37,2.08-.75,3.11-1.14v-2.12Z"/><path class="cls-6" d="M408.66,189.53c-.86.49-1.74,1-2.63,1.46v2.13c.89-.48,1.77-1,2.63-1.47v-2.12Z"/><path class="cls-6" d="M413.69,186.44c-.81.53-1.64,1.06-2.48,1.57v2.13c.84-.52,1.67-1,2.48-1.58v-2.12Z"/><path class="cls-6" d="M429.94,172.33c-.53.64-1.09,1.27-1.67,1.9v2.13c.58-.63,1.14-1.27,1.67-1.91v-2.12Z"/><path class="cls-6" d="M435.51,164.36c-.38.68-.79,1.36-1.21,2v2.12c.42-.67.83-1.35,1.21-2v-2.12Z"/><path class="cls-6" d="M319.14,211.56c-1.28-.07-2.57-.16-3.84-.27v2.13c1.27.1,2.56.19,3.84.27v-2.13Z"/><path class="cls-6" d="M327,211.87c-1.31,0-2.62-.06-3.92-.11v2.12c1.3.05,2.61.09,3.92.11v-2.12Z"/><path class="cls-6" d="M334.86,211.86c-1.3,0-2.61,0-3.92,0V214c1.31,0,2.62,0,3.92-.05v-2.12Z"/><path class="cls-6" d="M378.77,205.58q-1.66.46-3.36.9v2.12q1.69-.43,3.36-.9v-2.12Z"/><path class="cls-6" d="M397.61,198.9c-1,.43-2,.85-3,1.26v2.12c1-.41,2-.82,3-1.25V198.9Z"/><path class="cls-6" d="M426.49,179.92q-.92.93-1.89,1.83v2.12c.65-.6,1.28-1.21,1.89-1.82v-2.13Z"/></g></g><g class="cls-22"><path class="cls-23" d="M361.44,217.21c0-24.59-14.64-44.52-32.7-44.52S296,192.62,296,217.21s14.64,31.95,32.7,31.95S361.44,241.79,361.44,217.21Z"/></g><ellipse class="cls-24" cx="328.74" cy="172.69" rx="63.55" ry="36.69"/><ellipse class="cls-25" cx="362.8" cy="72.4" rx="71.67" ry="29.35" transform="translate(55.07 277.75) rotate(-45)"/><path class="cls-26" d="M365.28,83.56a1.9,1.9,0,1,0-2.68-.08A1.9,1.9,0,0,0,365.28,83.56Z"/><path class="cls-6" d="M387.19,81.92a1.9,1.9,0,1,0-2.68-.08A1.88,1.88,0,0,0,387.19,81.92Z"/><path class="cls-26" d="M381.78,52.56a2,2,0,1,0-2.88-.09A2,2,0,0,0,381.78,52.56Z"/><path class="cls-26" d="M379.49,58.36a1.22,1.22,0,1,0-1.72-.06A1.22,1.22,0,0,0,379.49,58.36Z"/><path class="cls-27" d="M377,55.35a.79.79,0,1,0-1.08-1.14A.79.79,0,0,0,377,55.35Z"/><path class="cls-27" d="M382.2,72.7a.79.79,0,0,0,0-1.11.78.78,0,0,0-1.14,1.07A.79.79,0,0,0,382.2,72.7Z"/><path class="cls-26" d="M371.15,50.29a.23.23,0,0,0,0-.33.23.23,0,1,0-.34.32A.23.23,0,0,0,371.15,50.29Z"/><path class="cls-27" d="M372.58,60.12a.23.23,0,1,0-.33,0A.23.23,0,0,0,372.58,60.12Z"/><path class="cls-27" d="M375.65,78.85a.25.25,0,0,0,0-.34.24.24,0,0,0-.34,0,.24.24,0,1,0,.33.35Z"/><path class="cls-27" d="M373.48,75.86a.24.24,0,0,0,0-.33.24.24,0,0,0-.34,0,.23.23,0,0,0,0,.33A.24.24,0,0,0,373.48,75.86Z"/><path class="cls-26" d="M365.38,61.46a2.89,2.89,0,1,0-4.09-.13A2.9,2.9,0,0,0,365.38,61.46Z"/><path class="cls-6" d="M349.81,67.08a1.44,1.44,0,1,0-2-.06A1.43,1.43,0,0,0,349.81,67.08Z"/><path class="cls-26" d="M375.82,67.05a1.44,1.44,0,1,0-2-2.1,1.46,1.46,0,0,0-.06,2A1.44,1.44,0,0,0,375.82,67.05Z"/><path class="cls-26" d="M365.38,43.32a1.44,1.44,0,1,0-2-.07A1.44,1.44,0,0,0,365.38,43.32Z"/><path class="cls-26" d="M347.21,53.65a1.44,1.44,0,1,0-2-.06A1.45,1.45,0,0,0,347.21,53.65Z"/><path class="cls-26" d="M396.57,58.13a1.44,1.44,0,1,0-2-.06A1.43,1.43,0,0,0,396.57,58.13Z"/><path class="cls-26" d="M386.17,33a1.44,1.44,0,1,0-2-.06A1.44,1.44,0,0,0,386.17,33Z"/><path class="cls-6" d="M405.11,35.65a.69.69,0,0,0,0-1,.69.69,0,0,0-1,0,.7.7,0,0,0,0,1A.69.69,0,0,0,405.11,35.65Z"/><path class="cls-26" d="M369.57,78.71a.84.84,0,1,0-1.19,0A.84.84,0,0,0,369.57,78.71Z"/><path class="cls-6" d="M367.94,54.83a.84.84,0,1,0-1.19,0A.84.84,0,0,0,367.94,54.83Z"/><path class="cls-6" d="M357.14,54.51a.57.57,0,1,0-.78-.83.56.56,0,0,0,0,.8A.57.57,0,0,0,357.14,54.51Z"/><path class="cls-6" d="M355.52,54.47a.82.82,0,0,0,0-1.17.83.83,0,0,0-1.17,0,.83.83,0,0,0,1.13,1.21Z"/><path class="cls-6" d="M355.24,56.43a.46.46,0,0,0,0-.64.45.45,0,0,0-.65,0,.46.46,0,0,0,0,.64A.45.45,0,0,0,355.24,56.43Z"/><path class="cls-26" d="M363.17,70a.59.59,0,1,0-.84,0A.6.6,0,0,0,363.17,70Z"/><path class="cls-26" d="M380.48,72.45a.6.6,0,0,0,0-.84.59.59,0,0,0-.84,0,.6.6,0,0,0,0,.84A.59.59,0,0,0,380.48,72.45Z"/><path class="cls-6" d="M366.86,71a1.48,1.48,0,0,0,.06-2.07,1.46,1.46,0,1,0-.06,2.07Z"/><path class="cls-28" d="M286.37,133.12c-1.34,4.45-8.53,13.09-13,11.75s-4.47-12.15-3.13-16.6a8.41,8.41,0,0,1,16.11,4.85Z"/><g class="cls-29"><path class="cls-30" d="M286.37,133.12c-1.34,4.45-8.53,13.09-13,11.75s-4.47-12.15-3.13-16.6a8.41,8.41,0,0,1,16.11,4.85Z"/></g><path class="cls-31" d="M277.81,122.7a8.12,8.12,0,0,1,6.67,3.09c1.35,1.92.55,3.65-1.79,3.86a8.15,8.15,0,0,1-6.67-3.1C274.67,124.63,275.47,122.9,277.81,122.7Z"/><path class="cls-32" d="M277.81,122.7a8.12,8.12,0,0,1,6.67,3.09c1.35,1.92.55,3.65-1.79,3.86a8.15,8.15,0,0,1-6.67-3.1C274.67,124.63,275.47,122.9,277.81,122.7Z"/><path class="cls-6" d="M275.37,124.87a3.22,3.22,0,0,1,1.78-.65,8.13,8.13,0,0,1,6.67,3.1,3.33,3.33,0,0,1,.65,1.67c.85-.71.91-1.91,0-3.2a8.12,8.12,0,0,0-6.67-3.09C276.19,122.84,275.31,123.71,275.37,124.87Z"/><path class="cls-33" d="M285.64,120.42a.65.65,0,0,0-.67.65.66.66,0,1,0,.67-.65Z"/><path class="cls-6" d="M279.39,115.8a1.68,1.68,0,1,0,1.64,1.72A1.68,1.68,0,0,0,279.39,115.8Z"/><path class="cls-33" d="M289,112a.94.94,0,1,0,.91,1A.93.93,0,0,0,289,112Z"/><path class="cls-6" d="M285.22,112.78a.64.64,0,1,0,.63.66A.64.64,0,0,0,285.22,112.78Z"/><path class="cls-6" d="M285.93,111.34a.44.44,0,1,0,0,.88.44.44,0,0,0,0-.88Z"/><path class="cls-33" d="M280.53,123.68a.93.93,0,1,0,.91.95A.93.93,0,0,0,280.53,123.68Z"/><path class="cls-6" d="M283.35,123.37a1.39,1.39,0,1,0,1.35,1.42A1.39,1.39,0,0,0,283.35,123.37Z"/><circle class="cls-34" cx="298.28" cy="105.13" r="12.67"/><g class="cls-29"><circle class="cls-35" cx="298.28" cy="105.13" r="12.67" transform="translate(-10.36 36.11) rotate(-6.81)"/></g><path class="cls-36" d="M361.44,128.13c0,24.59-14.64,44.52-32.7,44.52S296,152.72,296,128.13s14.64-31.95,32.7-31.95S361.44,103.55,361.44,128.13Z"/><g class="cls-29"><path class="cls-37" d="M361.44,128.13c0,24.59-14.64,44.52-32.7,44.52S296,152.72,296,128.13s14.64-31.95,32.7-31.95S361.44,103.55,361.44,128.13Z"/></g><ellipse class="cls-31" cx="328.74" cy="109.4" rx="22.32" ry="12.89"/><ellipse class="cls-38" cx="328.74" cy="109.4" rx="22.32" ry="12.89"/><path class="cls-6" d="M313,103.72c8.71-5,22.85-5,31.56,0,3.6,2.08,5.71,4.69,6.34,7.4.89-3.85-1.22-7.88-6.34-10.83-8.71-5-22.85-5-31.56,0-5.12,2.95-7.23,7-6.34,10.82C307.25,108.41,309.36,105.8,313,103.72Z"/><path class="cls-39" d="M319,61.79c0,6-4.21,13.3-9.41,16.3s-9.41.57-9.41-5.43,4.21-13.3,9.41-16.31S319,55.79,319,61.79Z"/><circle class="cls-40" cx="330.04" cy="78.64" r="33.35"/><g class="cls-29"><circle class="cls-41" cx="330.04" cy="78.64" r="33.35"/></g><ellipse class="cls-31" cx="310.12" cy="87.17" rx="8.47" ry="14.67" transform="translate(-9.68 125.87) rotate(-22.6)"/><ellipse class="cls-42" cx="310.12" cy="87.17" rx="8.47" ry="14.67" transform="translate(-9.68 125.87) rotate(-22.6)"/><path class="cls-6" d="M315.29,88.76c-.31,2.38-2.11,3.13-4,1.67a8.32,8.32,0,0,1-2.89-7c.31-2.38,2.11-3.13,4-1.67A8.33,8.33,0,0,1,315.29,88.76Z"/><path class="cls-6" d="M311.1,98.09c-5.26-4-8.83-12.6-8-19.16A8.05,8.05,0,0,1,306,73.26c-2.75.26-4.83,2.59-5.36,6.63-.85,6.56,2.72,15.13,8,19.15,3.12,2.38,6.12,2.63,8.23,1.07A8.33,8.33,0,0,1,311.1,98.09Z"/><path class="cls-6" d="M309,98.83c-5.26-4-8.83-12.59-8-19.15.39-3,1.66-5.11,3.44-6.06-2,.83-3.47,3-3.9,6.27-.85,6.56,2.72,15.13,8,19.15,2.83,2.16,5.56,2.56,7.62,1.46C314.19,101.32,311.65,100.83,309,98.83Z"/><circle class="cls-43" cx="364.69" cy="136.6" r="12.67"/><g class="cls-29"><circle class="cls-44" cx="364.69" cy="136.6" r="12.67"/></g><path class="cls-31" d="M376.86,136.84a12.4,12.4,0,0,1-5.6,9.7c-3.09,1.78-5.6.34-5.6-3.23a12.38,12.38,0,0,1,5.6-9.7C374.35,131.82,376.86,133.27,376.86,136.84Z"/><path class="cls-45" d="M376.86,136.84a12.4,12.4,0,0,1-5.6,9.7c-3.09,1.78-5.6.34-5.6-3.23a12.38,12.38,0,0,1,5.6-9.7C374.35,131.82,376.86,133.27,376.86,136.84Z"/><path class="cls-6" d="M373.89,132.85a4.8,4.8,0,0,1,.74,2.78,12.35,12.35,0,0,1-5.6,9.7,4.93,4.93,0,0,1-2.62.76c1,1.38,2.77,1.65,4.85.45a12.4,12.4,0,0,0,5.6-9.7C376.86,134.37,375.65,132.92,373.89,132.85Z"/><polygon class="cls-31" points="358.19 90.84 346.11 97.82 346.11 83.87 358.19 76.89 358.19 90.84"/><polygon class="cls-46" points="356.39 77.93 356.39 89.87 346.11 95.81 346.11 97.82 358.19 90.84 358.19 76.89 356.39 77.93"/><polygon class="cls-6" points="348.41 87.68 347.33 88.3 347.33 87.05 348.41 86.43 348.41 87.68"/><polygon class="cls-6" points="350.71 84.75 349.63 85.38 349.63 84.13 350.71 83.5 350.71 84.75"/><polygon class="cls-6" points="353.01 85.03 351.93 85.65 351.93 84.4 353.01 83.78 353.01 85.03"/><polygon class="cls-6" points="353.01 88.3 351.93 88.93 351.93 87.68 353.01 87.05 353.01 88.3"/><polygon class="cls-6" points="351.63 90.82 350.54 91.45 350.54 90.2 351.63 89.58 351.63 90.82"/><polygon class="cls-6" points="355.38 86.94 354.29 87.56 354.29 86.31 355.38 85.69 355.38 86.94"/><polygon class="cls-47" points="367.93 87.17 369.25 84.87 367.93 84.11 355.84 91.09 355.84 105.04 357.17 105.8 358.49 103.51 367.93 98.06 367.93 87.17"/><polygon class="cls-48" points="369.25 98.82 357.17 105.8 357.17 91.85 369.25 84.87 369.25 98.82"/><polygon class="cls-49" points="369.25 98.82 357.17 105.8 357.17 91.85 369.25 84.87 369.25 98.82"/><polygon class="cls-6" points="355.06 86.73 354.83 86.52 368.19 72.24 406.19 72.24 420.22 58.22 420.22 1.08 420.54 1.08 420.54 58.35 420.49 58.4 406.33 72.56 368.33 72.56 355.06 86.73"/><polygon class="cls-6" points="420.26 44.01 413.67 37.41 413.67 13.9 413.99 13.9 413.99 37.28 420.49 43.78 420.26 44.01"/><polygon class="cls-6" points="379.72 72.51 379.5 72.29 386.97 64.81 403.22 64.81 411.02 57.01 411.25 57.24 403.36 65.13 387.1 65.13 379.72 72.51"/><path class="cls-6" d="M411.14,58.21a1.09,1.09,0,1,1,1.08-1.08A1.09,1.09,0,0,1,411.14,58.21Z"/><path class="cls-6" d="M400.19,50.92a1.09,1.09,0,1,1,1.09-1.09A1.08,1.08,0,0,1,400.19,50.92Z"/><circle class="cls-6" cx="408.86" cy="39.16" r="1.08"/><circle class="cls-6" cx="404.58" cy="12.04" r="1.08"/><path class="cls-6" d="M413.83,15a1.08,1.08,0,1,1,1.08-1.08A1.08,1.08,0,0,1,413.83,15Z"/><path class="cls-6" d="M420.38,2.17a1.09,1.09,0,0,1-1.09-1.09,1.09,1.09,0,0,1,2.17,0A1.09,1.09,0,0,1,420.38,2.17Z"/><path class="cls-6" d="M368.65,47.48a1.08,1.08,0,1,1,1.08-1.08A1.08,1.08,0,0,1,368.65,47.48Z"/><polygon class="cls-6" points="348.03 87.37 347.71 87.37 347.71 81.04 347.76 81 362.89 65.63 362.89 43.83 362.94 43.78 375.44 31.28 400.06 31.28 404.43 26.92 404.43 12.04 404.74 12.04 404.74 27.05 404.7 27.1 400.2 31.6 375.57 31.6 363.21 43.96 363.21 65.76 363.16 65.81 348.03 81.17 348.03 87.37"/><polygon class="cls-6" points="363.16 60.66 362.94 60.43 368.49 54.88 368.49 46.4 368.81 46.4 368.81 55.01 368.76 55.06 363.16 60.66"/><polygon class="cls-6" points="350.28 84.65 350.06 84.42 384.8 49.67 399.95 49.67 399.95 49.99 384.94 49.99 350.28 84.65"/><polygon class="cls-6" points="378.54 56.32 378.23 56.32 378.23 45.25 378.27 45.2 384.48 39 408.86 39 408.86 39.32 384.61 39.32 378.54 45.38 378.54 56.32"/><path class="cls-50" d="M373.38,172.16c-1.34,4.45-8.53,13.09-13,11.75s-4.46-12.15-3.12-16.6a8.41,8.41,0,1,1,16.1,4.85Z"/><g class="cls-29"><path class="cls-51" d="M373.38,172.16c-1.34,4.45-8.53,13.09-13,11.75s-4.46-12.15-3.12-16.6a8.41,8.41,0,1,1,16.1,4.85Z"/></g><path class="cls-31" d="M364.82,161.73a8.12,8.12,0,0,1,6.67,3.1c1.35,1.92.55,3.64-1.78,3.85a8.13,8.13,0,0,1-6.68-3.09C361.68,163.67,362.48,161.94,364.82,161.73Z"/><path class="cls-52" d="M364.82,161.73a8.12,8.12,0,0,1,6.67,3.1c1.35,1.92.55,3.64-1.78,3.85a8.13,8.13,0,0,1-6.68-3.09C361.68,163.67,362.48,161.94,364.82,161.73Z"/><path class="cls-6" d="M362.38,163.91a3.17,3.17,0,0,1,1.78-.65,8.12,8.12,0,0,1,6.67,3.1,3.15,3.15,0,0,1,.65,1.67c.85-.71.92-1.91,0-3.2a8.12,8.12,0,0,0-6.67-3.1C363.2,161.88,362.32,162.75,362.38,163.91Z"/><path class="cls-33" d="M371.42,156.39a.66.66,0,1,0-.93,0A.65.65,0,0,0,371.42,156.39Z"/><path class="cls-6" d="M379.12,155.3a1.67,1.67,0,1,0-2.37-.07A1.66,1.66,0,0,0,379.12,155.3Z"/><path class="cls-33" d="M374.93,164.71a.94.94,0,0,0-1.28-1.37.94.94,0,0,0,1.28,1.37Z"/><circle class="cls-6" cx="376.64" cy="161.08" r="0.64"/><path class="cls-6" d="M377.58,163.07a.43.43,0,0,0,0-.62.44.44,0,1,0-.64.6A.43.43,0,0,0,377.58,163.07Z"/><path class="cls-33" d="M372.78,150.49a.93.93,0,0,0-1.27-1.35.93.93,0,0,0,1.27,1.35Z"/><path class="cls-6" d="M371,152.68a1.39,1.39,0,1,0-2-.06A1.38,1.38,0,0,0,371,152.68Z"/><text class="cls-53" transform="translate(0 48.06)">THAT&apos;S IT FOR NOW<tspan x="0" y="36">THANKS FOR STICKING TILL THE END</tspan><tspan class="cls-54" x="288" y="36"> </tspan></text><text/></g></g></g></svg>