<svg xmlns="http://www.w3.org/2000/svg" xmlns:xlink="http://www.w3.org/1999/xlink" viewBox="0 0 495.91 260.46"><defs><style>.cls-1{isolation:isolate;}.cls-2{opacity:0.1;}.cls-10,.cls-12,.cls-13,.cls-14,.cls-3,.cls-4,.cls-5,.cls-7,.cls-8{fill:#9ffff8;}.cls-15,.cls-3{opacity:0.1;}.cls-16,.cls-5{opacity:0.46;}.cls-11,.cls-15,.cls-16,.cls-17,.cls-18,.cls-19,.cls-20,.cls-25,.cls-26,.cls-32,.cls-6,.cls-9{fill:#42e8e0;}.cls-17,.cls-7{opacity:0.37;}.cls-18,.cls-8{opacity:0.56;}.cls-14,.cls-9{opacity:0.91;}.cls-10,.cls-11{opacity:0.73;}.cls-12,.cls-19{opacity:0.55;}.cls-13,.cls-20{opacity:0.19;}.cls-21{opacity:0.2;}.cls-22{fill:url(#Áĺçűě_ííűé_ăđŕäčĺíň_16);}.cls-23,.cls-24,.cls-31,.cls-37,.cls-41,.cls-44,.cls-51{opacity:0.5;}.cls-23,.cls-24,.cls-28,.cls-31,.cls-37,.cls-41,.cls-44,.cls-48,.cls-51{mix-blend-mode:lighten;}.cls-23{fill:url(#Áĺçűě_ííűé_ăđŕäčĺíň_23);}.cls-24{fill:url(#Áĺçűě_ííűé_ăđŕäčĺíň_23-2);}.cls-25{opacity:0.4;}.cls-26,.cls-45{opacity:0.8;}.cls-27{fill:url(#Áĺçűě_ííűé_ăđŕäčĺíň_16-2);}.cls-29{fill:url(#Áĺçűě_ííűé_ăđŕäčĺíň_89);}.cls-30{fill:#251c72;}.cls-31{fill:url(#Áĺçűě_ííűé_ăđŕäčĺíň_23-3);}.cls-32{opacity:0.6;}.cls-33{fill:url(#Áĺçűě_ííűé_ăđŕäčĺíň_16-3);}.cls-34{fill:url(#Áĺçűě_ííűé_ăđŕäčĺíň_85);}.cls-35{fill:url(#Áĺçűě_ííűé_ăđŕäčĺíň_16-4);}.cls-36{fill:url(#Áĺçűě_ííűé_ăđŕäčĺíň_89-2);}.cls-37{fill:url(#Áĺçűě_ííűé_ăđŕäčĺíň_23-4);}.cls-38{fill:#bcbeff;}.cls-39{fill:url(#Áĺçűě_ííűé_ăđŕäčĺíň_16-5);}.cls-40{fill:url(#Áĺçűě_ííűé_ăđŕäčĺíň_89-3);}.cls-41{fill:url(#Áĺçűě_ííűé_ăđŕäčĺíň_8);}.cls-42{fill:url(#Áĺçűě_ííűé_ăđŕäčĺíň_16-6);}.cls-43{fill:url(#Áĺçűě_ííűé_ăđŕäčĺíň_89-4);}.cls-44{fill:url(#Áĺçűě_ííűé_ăđŕäčĺíň_23-5);}.cls-45{fill:url(#Áĺçűě_ííűé_ăđŕäčĺíň_160);}.cls-46{fill:url(#Áĺçűě_ííűé_ăđŕäčĺíň_41);}.cls-47{fill:url(#Áĺçűě_ííűé_ăđŕäčĺíň_41-2);}.cls-48{fill:url(#Áĺçűě_ííűé_ăđŕäčĺíň_116);}.cls-49{fill:url(#Áĺçűě_ííűé_ăđŕäčĺíň_16-7);}.cls-50{fill:url(#Áĺçűě_ííűé_ăđŕäčĺíň_89-5);}.cls-51{fill:url(#Áĺçűě_ííűé_ăđŕäčĺíň_23-6);}.cls-52{font-size:18px;fill:#309ba0;font-family:SourceCodePro-Bold, Source Code Pro;font-weight:700;}.cls-53{fill:#18b2a3;}</style><radialGradient id="Áĺçűě_ííűé_ăđŕäčĺíň_16" cx="1006.96" cy="876.08" r="72.23" gradientTransform="matrix(0.78, 0, 0, -1.06, -380.39, 1151.82)" gradientUnits="userSpaceOnUse"><stop offset="0" stop-color="#c0bff6"/><stop offset="1" stop-color="#393091"/></radialGradient><radialGradient id="Áĺçűě_ííűé_ăđŕäčĺíň_23" cx="261.58" cy="582.67" r="51.89" gradientTransform="matrix(0.87, 0.5, -0.87, 0.5, 661.89, -249.44)" gradientUnits="userSpaceOnUse"><stop offset="0" stop-color="#42e8e0"/><stop offset="0.11" stop-color="#37b6bf"/><stop offset="0.22" stop-color="#2c87a1"/><stop offset="0.34" stop-color="#235f87"/><stop offset="0.46" stop-color="#1c3f72"/><stop offset="0.58" stop-color="#162561"/><stop offset="0.71" stop-color="#121355"/><stop offset="0.85" stop-color="#10084e"/><stop offset="1" stop-color="#0f054c"/></radialGradient><radialGradient id="Áĺçűě_ííűé_ăđŕäčĺíň_23-2" cx="-2837.15" cy="278.39" r="85.19" gradientTransform="matrix(0, 0.41, -1, 0, 696.28, 1234.37)" xlink:href="#Áĺçűě_ííűé_ăđŕäčĺíň_23"/><radialGradient id="Áĺçűě_ííűé_ăđŕäčĺíň_16-2" cx="-347.02" cy="-187.92" r="23.89" gradientTransform="translate(616.75 406.47) rotate(16.76)" xlink:href="#Áĺçűě_ííűé_ăđŕäčĺíň_16"/><linearGradient id="Áĺçűě_ííűé_ăđŕäčĺíň_89" x1="-358.28" y1="-172.39" x2="-344.16" y2="-187.65" gradientTransform="translate(616.75 406.47) rotate(16.76)" gradientUnits="userSpaceOnUse"><stop offset="0" stop-color="#2fd3c7"/><stop offset="0.09" stop-color="#31b6bd"/><stop offset="0.23" stop-color="#338db0"/><stop offset="0.37" stop-color="#356ba5"/><stop offset="0.52" stop-color="#37519c"/><stop offset="0.67" stop-color="#383f96"/><stop offset="0.83" stop-color="#393492"/><stop offset="1" stop-color="#393091"/></linearGradient><radialGradient id="Áĺçűě_ííűé_ăđŕäčĺíň_23-3" cx="2543.33" cy="3603.81" r="15.5" gradientTransform="matrix(-0.09, -1, 1, -0.09, -3028.87, 2981.73)" xlink:href="#Áĺçűě_ííűé_ăđŕäčĺíň_23"/><radialGradient id="Áĺçűě_ííűé_ăđŕäčĺíň_16-3" cx="-13.98" cy="-281.78" r="73.11" gradientTransform="translate(372.94 343.81) rotate(11.2)" xlink:href="#Áĺçűě_ííűé_ăđŕäčĺíň_16"/><linearGradient id="Áĺçűě_ííűé_ăđŕäčĺíň_85" x1="-345.31" y1="416.57" x2="-319.98" y2="416.57" gradientTransform="matrix(0.63, -0.77, 0.77, 0.63, 241.74, -416.11)" gradientUnits="userSpaceOnUse"><stop offset="0" stop-color="#706ec4"/><stop offset="0.02" stop-color="#6d6bc2"/><stop offset="0.25" stop-color="#5651ac"/><stop offset="0.49" stop-color="#463f9d"/><stop offset="0.73" stop-color="#3c3494"/><stop offset="1" stop-color="#393091"/></linearGradient><radialGradient id="Áĺçűě_ííűé_ăđŕäčĺíň_16-4" cx="1006.96" cy="225.59" r="72.23" gradientTransform="translate(-380.39 -117.48) scale(0.78 1.06)" xlink:href="#Áĺçűě_ííűé_ăđŕäčĺíň_16"/><linearGradient id="Áĺçűě_ííűé_ăđŕäčĺíň_89-2" x1="982.16" y1="273.92" x2="982.16" y2="201.72" gradientTransform="translate(-380.39 -117.48) scale(0.78 1.06)" xlink:href="#Áĺçűě_ííűé_ăđŕäčĺíň_89"/><radialGradient id="Áĺçűě_ííűé_ăđŕäčĺíň_23-4" cx="382.96" cy="121.78" r="43.5" gradientTransform="matrix(1, 0, 0, 1, 0, 0)" xlink:href="#Áĺçűě_ííűé_ăđŕäčĺíň_23"/><radialGradient id="Áĺçűě_ííűé_ăđŕäčĺíň_16-5" cx="405.94" cy="73.7" r="56.37" gradientTransform="matrix(1, 0, 0, 1, 0, 0)" xlink:href="#Áĺçűě_ííűé_ăđŕäčĺíň_16"/><linearGradient id="Áĺçűě_ííűé_ăđŕäčĺíň_89-3" x1="380.48" y1="111.68" x2="389.76" y2="45.61" gradientTransform="matrix(1, 0, 0, 1, 0, 0)" xlink:href="#Áĺçűě_ííűé_ăđŕäčĺíň_89"/><radialGradient id="Áĺçűě_ííűé_ăđŕäčĺíň_8" cx="374.74" cy="81.72" r="27.69" gradientTransform="translate(61.54 -133.65) rotate(22.6)" gradientUnits="userSpaceOnUse"><stop offset="0" stop-color="#42e8e0"/><stop offset="0.06" stop-color="#3ccbcd"/><stop offset="0.18" stop-color="#3098ac"/><stop offset="0.3" stop-color="#266b8f"/><stop offset="0.42" stop-color="#1e4777"/><stop offset="0.54" stop-color="#172a65"/><stop offset="0.66" stop-color="#131657"/><stop offset="0.78" stop-color="#100a50"/><stop offset="0.9" stop-color="#0f064d"/><stop offset="1" stop-color="#0f054c"/></radialGradient><radialGradient id="Áĺçűě_ííűé_ăđŕäčĺíň_16-6" cx="11.46" cy="-221.92" r="26.42" gradientTransform="translate(372.94 343.81) rotate(11.2)" xlink:href="#Áĺçűě_ííűé_ăđŕäčĺíň_16"/><linearGradient id="Áĺçűě_ííűé_ăđŕäčĺíň_89-4" x1="-2.9" y1="-203.06" x2="14.31" y2="-221.65" gradientTransform="translate(372.94 343.81) rotate(11.2)" xlink:href="#Áĺçűě_ííűé_ăđŕäčĺíň_89"/><radialGradient id="Áĺçűě_ííűé_ăđŕäčĺíň_23-5" cx="423.98" cy="138.08" r="23.6" gradientTransform="matrix(1, 0, 0, 1, 0, 0)" xlink:href="#Áĺçűě_ííűé_ăđŕäčĺíň_23"/><radialGradient id="Áĺçűě_ííűé_ăđŕäčĺíň_160" cx="404.98" cy="-1737.1" r="22.24" gradientTransform="translate(0 2295.16) scale(1 1.28)" gradientUnits="userSpaceOnUse"><stop offset="0" stop-color="#2b237c"/><stop offset="0.31" stop-color="#251c72"/><stop offset="1" stop-color="#0f054c"/></radialGradient><linearGradient id="Áĺçűě_ííűé_ăđŕäčĺíň_41" x1="422.47" y1="93.48" x2="390.84" y2="103.1" gradientUnits="userSpaceOnUse"><stop offset="0" stop-color="#bcbeff"/><stop offset="0.15" stop-color="#a3a7f5"/><stop offset="0.39" stop-color="#8289e8"/><stop offset="0.61" stop-color="#6a73df"/><stop offset="0.82" stop-color="#5c66d9"/><stop offset="1" stop-color="#5761d7"/></linearGradient><linearGradient id="Áĺçűě_ííűé_ăđŕäčĺíň_41-2" x1="417" y1="95.49" x2="373.66" y2="100.65" xlink:href="#Áĺçűě_ííűé_ăđŕäčĺíň_41"/><linearGradient id="Áĺçűě_ííűé_ăđŕäčĺíň_116" x1="410.5" y1="108.23" x2="433.08" y2="70.88" gradientUnits="userSpaceOnUse"><stop offset="0" stop-color="#42e8e0"/><stop offset="0.12" stop-color="#42e2de"/><stop offset="0.27" stop-color="#41d3d7"/><stop offset="0.44" stop-color="#40b9cc"/><stop offset="0.62" stop-color="#3e94bc"/><stop offset="0.81" stop-color="#3c66a8"/><stop offset="1" stop-color="#393091"/></linearGradient><radialGradient id="Áĺçűě_ííűé_ăđŕäčĺíň_16-7" cx="-252.44" cy="-175.63" r="23.89" gradientTransform="translate(616.75 406.47) rotate(16.76)" xlink:href="#Áĺçűě_ííűé_ăđŕäčĺíň_16"/><linearGradient id="Áĺçűě_ííűé_ăđŕäčĺíň_89-5" x1="-263.7" y1="-160.1" x2="-249.58" y2="-175.35" xlink:href="#Áĺçűě_ííűé_ăđŕäčĺíň_89"/><radialGradient id="Áĺçűě_ííűé_ăđŕäčĺíň_23-6" cx="2496.7" cy="3687.01" r="15.5" gradientTransform="matrix(-0.09, -1, 1, -0.09, -3028.87, 2981.73)" xlink:href="#Áĺçűě_ííűé_ăđŕäčĺíň_23"/></defs><title>ThatsIt</title><g class="cls-1"><g id="Ebene_2" data-name="Ebene 2"><g id="Ńëîé_1" data-name="Ńëîé 1"><g class="cls-2"><path class="cls-3" d="M495.18,185.67v-1c-.15-.73-.32-1.46-.51-2.18v1c.19.72.36,1.45.51,2.18ZM494,181.31v-1c-.23-.72-.49-1.43-.76-2.14v1c.27.7.53,1.42.76,2.13Zm-1.66-4.24v-1c-.31-.7-.65-1.39-1-2.08v1c.36.69.7,1.39,1,2.09Zm-2.15-4.15v-1c-.4-.68-.82-1.35-1.25-2v1c.43.67.85,1.34,1.25,2Zm-2.62-4v-1c-.48-.66-1-1.32-1.49-2v1c.51.65,1,1.3,1.49,2ZM484.5,165v-1c-.54-.63-1.11-1.26-1.7-1.89v1c.59.62,1.16,1.25,1.7,1.89ZM481,161.27v-1c-.62-.61-1.26-1.21-1.92-1.81v1c.66.6,1.3,1.2,1.92,1.81Zm-3.93-3.58v-1c-.69-.59-1.39-1.16-2.11-1.73v1c.72.57,1.42,1.15,2.11,1.73Zm-4.33-3.42v-1c-.76-.55-1.53-1.1-2.31-1.64v1c.78.54,1.55,1.08,2.31,1.64ZM468,151v-1c-.82-.52-1.65-1-2.5-1.55v1c.85.51,1.68,1,2.5,1.56ZM462.94,148v-1c-.87-.5-1.76-1-2.66-1.46v1c.9.48,1.79,1,2.66,1.45Zm-5.42-2.86v-1c-.93-.46-1.87-.91-2.83-1.35v1c1,.44,1.9.89,2.83,1.35Zm37.66,38.38v-1q-.23-1.09-.51-2.19v1.05c.19.72.36,1.45.51,2.18ZM494,179.13v-1c-.23-.72-.49-1.43-.76-2.14V177c.27.7.53,1.42.76,2.13Zm-3.81-8.39v-1c-.4-.68-.82-1.36-1.25-2v1.05c.43.67.85,1.34,1.25,2Zm-2.62-4v-1c-.48-.66-1-1.31-1.49-2v1c.51.65,1,1.31,1.49,2Zm-3.09-3.89v-1.05c-.54-.63-1.11-1.26-1.7-1.88v1c.59.62,1.16,1.25,1.7,1.89ZM481,159.09v-1c-.62-.61-1.26-1.21-1.92-1.81v1c.66.6,1.3,1.2,1.92,1.81Zm-3.93-3.58v-1c-.69-.58-1.39-1.16-2.11-1.73v1c.72.57,1.42,1.15,2.11,1.73Zm-14.12-9.72v-1c-.87-.49-1.76-1-2.66-1.45v1c.9.48,1.79,1,2.66,1.45Zm-5.42-2.86v-1c-.93-.46-1.87-.91-2.83-1.35v1.05c1,.44,1.9.89,2.83,1.34Zm37.66,38.37v-1c-.15-.73-.32-1.46-.51-2.18v1q.29,1.09.51,2.19ZM494,176.94v-1c-.23-.71-.49-1.43-.76-2.13v1c.27.71.53,1.42.76,2.14Zm-6.43-12.41v-1c-.48-.66-1-1.32-1.49-2v1c.51.65,1,1.3,1.49,2Zm-3.09-3.89v-1c-.54-.64-1.11-1.27-1.7-1.89v1c.59.62,1.16,1.25,1.7,1.88ZM481,156.9v-1c-.62-.61-1.26-1.21-1.92-1.81v1c.66.59,1.3,1.2,1.92,1.81Zm-3.93-3.58v-1c-.69-.58-1.39-1.16-2.11-1.73v1c.72.57,1.42,1.15,2.11,1.73Zm-14.12-9.72v-1c-.87-.49-1.76-1-2.66-1.45v1c.9.47,1.79,1,2.66,1.45Zm-5.42-2.86v-1c-.93-.45-1.87-.9-2.83-1.34v1c1,.44,1.9.89,2.83,1.35Zm37.66,38.38v-1c-.15-.74-.32-1.46-.51-2.19v1q.29,1.09.51,2.19ZM494,174.76v-1c-.23-.72-.49-1.43-.76-2.14v1c.27.71.53,1.42.76,2.14Zm-9.52-16.3v-1c-.54-.63-1.11-1.26-1.7-1.88v1c.59.62,1.16,1.25,1.7,1.88ZM481,154.72v-1c-.62-.61-1.26-1.22-1.92-1.81v1c.66.6,1.3,1.2,1.92,1.81Zm-3.93-3.58v-1c-.69-.59-1.39-1.16-2.11-1.73v1c.72.57,1.42,1.15,2.11,1.73Zm-43.8-18v-6.1a173.51,173.51,0,0,0-29.89-5.35v6.1a173.51,173.51,0,0,1,29.89,5.35Zm-33.8-5.67v-6.1q-5.81-.42-11.79-.48-4.4,0-8.72.11v6.1c2.88-.1,5.79-.13,8.72-.11,4,0,7.92.21,11.79.48Zm95.72,49.43v-1q-.23-1.1-.51-2.19v1c.19.72.36,1.45.51,2.18ZM494,172.57v-1c-.23-.72-.49-1.43-.76-2.14v1c.27.71.53,1.42.76,2.14Zm-9.52-16.3v-1c-.54-.63-1.11-1.26-1.7-1.88v1c.59.63,1.16,1.26,1.7,1.89ZM481,152.52v-1c-.62-.61-1.26-1.22-1.92-1.81v1c.66.6,1.3,1.2,1.92,1.81Zm14.19,22.23v-1c-.15-.73-.32-1.46-.51-2.18v1q.29,1.09.51,2.19ZM484.5,154.09v-1c-.54-.64-1.11-1.27-1.7-1.89v1c.59.62,1.16,1.25,1.7,1.88ZM481,150.35v-1c-.62-.61-1.26-1.21-1.92-1.81v1c.66.59,1.3,1.2,1.92,1.81Zm9.22,18.2V157.24c-.4-.68-.82-1.35-1.25-2v11.3c.43.67.85,1.35,1.25,2ZM443,126.82v-6.09a167.73,167.73,0,0,0-39.67-8.4v6.09a166.74,166.74,0,0,1,39.67,8.4Zm-43.58-8.72V112q-5.81-.41-11.79-.47A187.54,187.54,0,0,0,356,113.86v6.08a188.58,188.58,0,0,1,31.65-2.32q6,.06,11.79.48Zm68.56,21v-8c-.82-.53-1.65-1.05-2.5-1.56v17.74c.85.52,1.68,1,2.5,1.56v-9.77Zm19.57,23.28v-14c-.48-.66-1-1.31-1.49-2v14c.51.65,1,1.3,1.49,2Zm4.77,12.53V156.26c-.31-.7-.65-1.39-1-2.08v18.63c.36.68.7,1.38,1,2.08Zm-29.42-33.7V124.9c-.87-.49-1.76-1-2.66-1.45v16.29c.9.47,1.79.95,2.66,1.45Zm21.56,10.62V140c-.54-.64-1.11-1.27-1.7-1.89v11.77c.59.62,1.16,1.25,1.7,1.89Zm-11.77.28v-22.8c-.76-.56-1.53-1.1-2.31-1.64v22.8c.78.54,1.55,1.08,2.31,1.64ZM494,169.36v-13.6c-.23-.72-.49-1.43-.76-2.14v14.63c.27.71.53,1.42.76,2.14v-1Zm-17-20.42V131.13c-.69-.58-1.39-1.16-2.11-1.73v17.82c.72.57,1.42,1.14,2.11,1.72Zm-30.32-30.17v-6.08c-.95-.36-1.91-.72-2.89-1.06v6.08c1,.35,1.94.7,2.89,1.06Zm-5.55-2V110.7q-1.49-.49-3-1v6.08c1,.31,2,.64,3,1ZM435.4,115V108.9c-1-.3-2-.58-3.09-.86v6.08l3.09.86Zm-6-1.6v-6.09c-1.05-.26-2.12-.51-3.19-.75v6.08c1.07.24,2.14.5,3.19.76Zm-6.8-1.54v-6.08a178,178,0,0,0-19.26-2.82V109a180.55,180.55,0,0,1,19.26,2.82Zm-23.17-3.14v-6.08q-5.81-.42-11.79-.48a192.24,192.24,0,0,0-20.55.89v6.08a192.28,192.28,0,0,1,20.55-.88q6,.06,11.79.47Zm95.72,63.6V156.12c-.15-.73-.32-1.46-.51-2.18v16.17q.29,1.09.51,2.19Zm-37.66-34V115.56c-.93-.46-1.87-.91-2.83-1.35V137c1,.44,1.9.89,2.83,1.35ZM481,148.06V131.22c-.62-.61-1.26-1.22-1.92-1.81v16.84c.66.6,1.3,1.2,1.92,1.81ZM349,98.66a186.31,186.31,0,0,1,38.68-3.59c59.55.6,107.23,28.18,108.24,62.07v39c-1-33.89-48.69-61.48-108.24-62.07A185.63,185.63,0,0,0,349,137.68v-39Z"/><path class="cls-4" d="M494.67,153.94c.19.72.36,1.45.51,2.18V172.3q-.23-1.1-.51-2.19V153.94Z"/><path class="cls-4" d="M494.67,171.54c.19.72.36,1.45.51,2.18v1q-.23-1.09-.51-2.19v-1Z"/><path class="cls-4" d="M494.67,173.71q.29,1.09.51,2.19v1c-.15-.73-.32-1.46-.51-2.18v-1Z"/><path class="cls-4" d="M494.67,175.89c.19.73.36,1.45.51,2.19v1q-.23-1.1-.51-2.19v-1Z"/><path class="cls-4" d="M494.67,178.09c.19.72.36,1.45.51,2.18v1q-.23-1.1-.51-2.19v-1Z"/><path class="cls-4" d="M494.67,180.26q.29,1.1.51,2.19v1c-.15-.73-.32-1.46-.51-2.18v-1.05Z"/><path class="cls-4" d="M494.67,182.46c.19.72.36,1.45.51,2.18v1c-.15-.73-.32-1.46-.51-2.18v-1Z"/><path class="cls-4" d="M494,169.36v1c-.23-.72-.49-1.43-.76-2.14V168c.27.71.53,1.42.76,2.14v-.78Z"/><path class="cls-4" d="M493.26,169.4c.27.71.53,1.42.76,2.14v1c-.23-.72-.49-1.43-.76-2.14v-1Z"/><path class="cls-4" d="M493.26,171.58c.27.71.53,1.42.76,2.14v1c-.23-.72-.49-1.43-.76-2.14v-1Z"/><path class="cls-4" d="M493.26,173.78c.27.7.53,1.42.76,2.13v1c-.23-.72-.49-1.43-.76-2.14v-1Z"/><path class="cls-4" d="M493.26,176c.27.71.53,1.42.76,2.14v1c-.23-.71-.49-1.43-.76-2.13V176Z"/><path class="cls-4" d="M493.26,178.15c.27.71.53,1.42.76,2.14v1c-.23-.71-.49-1.43-.76-2.13v-1Z"/><path class="cls-4" d="M489,167.67c.43.67.85,1.35,1.25,2v1c-.4-.68-.82-1.35-1.25-2v-1.05Z"/><path class="cls-4" d="M489,169.87c.43.67.85,1.34,1.25,2v1c-.4-.68-.82-1.35-1.25-2v-1Z"/><path class="cls-4" d="M491.35,174c.36.69.7,1.38,1,2.08v1c-.31-.7-.65-1.4-1-2.09v-1Z"/><path class="cls-4" d="M486.1,161.54c.51.65,1,1.31,1.49,2v1c-.48-.66-1-1.31-1.49-2v-1Z"/><path class="cls-4" d="M486.1,163.72c.51.65,1,1.3,1.49,2v1c-.48-.66-1-1.32-1.49-2v-1Z"/><path class="cls-4" d="M486.1,165.91c.51.65,1,1.31,1.49,2v1c-.48-.67-1-1.32-1.49-2v-1Z"/><path class="cls-4" d="M482.8,151.18c.59.62,1.16,1.25,1.7,1.89v1c-.54-.63-1.11-1.26-1.7-1.88v-1Z"/><path class="cls-4" d="M482.8,153.36c.59.62,1.16,1.25,1.7,1.88v1c-.54-.63-1.11-1.26-1.7-1.89v-1Z"/><path class="cls-4" d="M482.8,155.54c.59.62,1.16,1.25,1.7,1.88v1c-.54-.63-1.11-1.26-1.7-1.88v-1Z"/><path class="cls-4" d="M482.8,157.73c.59.62,1.16,1.25,1.7,1.89v1c-.54-.63-1.11-1.26-1.7-1.88v-1Z"/><path class="cls-4" d="M482.8,159.91c.59.62,1.16,1.25,1.7,1.88v1.05c-.54-.64-1.11-1.27-1.7-1.89v-1Z"/><path class="cls-4" d="M482.8,162.1c.59.63,1.16,1.26,1.7,1.89v1c-.54-.64-1.11-1.27-1.7-1.89v-1Z"/><path class="cls-4" d="M479.07,147.51c.66.6,1.3,1.2,1.92,1.81v1c-.62-.61-1.26-1.22-1.92-1.81v-1Z"/><path class="cls-4" d="M479.07,149.69c.66.59,1.3,1.2,1.92,1.81v1c-.62-.61-1.26-1.21-1.92-1.81v-1Z"/><path class="cls-4" d="M479.07,151.87c.66.59,1.3,1.2,1.92,1.81v1c-.62-.61-1.26-1.21-1.92-1.81v-1Z"/><path class="cls-4" d="M479.07,154.06c.66.6,1.3,1.2,1.92,1.81v1c-.62-.61-1.26-1.22-1.92-1.81v-1Z"/><path class="cls-4" d="M479.07,156.24c.66.6,1.3,1.2,1.92,1.81v1c-.62-.61-1.26-1.21-1.92-1.81v-1Z"/><path class="cls-4" d="M479.07,158.43c.66.6,1.3,1.2,1.92,1.81v1c-.62-.61-1.26-1.21-1.92-1.81v-1Z"/><path class="cls-4" d="M475,148.37c.72.57,1.42,1.14,2.11,1.73v1c-.69-.58-1.39-1.16-2.11-1.73v-1Z"/><path class="cls-4" d="M475,150.56c.72.57,1.42,1.15,2.11,1.73v1c-.69-.58-1.39-1.16-2.11-1.73v-1Z"/><path class="cls-4" d="M475,152.74c.72.57,1.42,1.15,2.11,1.73v1c-.69-.58-1.39-1.16-2.11-1.73v-1Z"/><path class="cls-4" d="M475,154.94c.72.57,1.42,1.14,2.11,1.73v1c-.69-.58-1.39-1.16-2.11-1.73v-1Z"/><path class="cls-4" d="M470.42,151.6c.78.54,1.55,1.09,2.31,1.64v1c-.76-.56-1.53-1.1-2.31-1.64v-1Z"/><path class="cls-4" d="M468,147.81v1c-.82-.53-1.65-1-2.5-1.56v-.81c.85.52,1.68,1,2.5,1.56v-.23Z"/><path class="cls-4" d="M465.52,148.45c.85.51,1.68,1,2.5,1.55v1c-.82-.53-1.65-1.05-2.5-1.56v-1Z"/><path class="cls-4" d="M460.28,141.12c.9.48,1.79,1,2.66,1.45v1c-.87-.49-1.76-1-2.66-1.45v-1Z"/><path class="cls-4" d="M460.28,143.3c.9.47,1.79,1,2.66,1.45v1c-.87-.49-1.76-1-2.66-1.45v-1Z"/><path class="cls-4" d="M460.28,145.49c.9.48,1.79,1,2.66,1.46v1c-.87-.49-1.76-1-2.66-1.45v-1Z"/><path class="cls-4" d="M454.69,138.37c1,.44,1.9.89,2.83,1.34v1c-.93-.46-1.87-.91-2.83-1.35v-1Z"/><path class="cls-4" d="M454.69,140.54c1,.44,1.9.89,2.83,1.35v1c-.93-.45-1.87-.9-2.83-1.34v-1.05Z"/><path class="cls-4" d="M454.69,142.74c1,.44,1.9.89,2.83,1.35v1c-.93-.46-1.87-.91-2.83-1.35v-1Z"/><path class="cls-4" d="M493.26,153.62c.27.71.53,1.42.76,2.14v14.38c-.23-.72-.49-1.43-.76-2.14V153.62Z"/><path class="cls-4" d="M491.35,154.18c.36.69.7,1.38,1,2.08v18.63c-.31-.7-.65-1.4-1-2.08V154.18Z"/><path class="cls-4" d="M489,155.22c.43.67.85,1.34,1.25,2v11.31c-.4-.68-.82-1.36-1.25-2v-11.3Z"/><path class="cls-4" d="M486.1,146.39c.51.65,1,1.3,1.49,2v14c-.48-.67-1-1.32-1.49-2v-14Z"/><path class="cls-4" d="M482.8,138.15c.59.62,1.16,1.25,1.7,1.89v11.77c-.54-.64-1.11-1.27-1.7-1.89V138.15Z"/><path class="cls-4" d="M479.07,129.41c.66.59,1.3,1.2,1.92,1.81v16.84c-.62-.61-1.26-1.21-1.92-1.81V129.41Z"/><path class="cls-4" d="M475,129.4c.72.57,1.42,1.15,2.11,1.73v17.81c-.69-.58-1.39-1.15-2.11-1.72V129.4Z"/><path class="cls-4" d="M470.42,127.65c.78.54,1.55,1.08,2.31,1.64v22.8c-.76-.56-1.53-1.1-2.31-1.64v-22.8Z"/><path class="cls-4" d="M465.52,129.55c.85.51,1.68,1,2.5,1.56V148c-.82-.52-1.65-1-2.5-1.56V129.55Z"/><path class="cls-4" d="M460.28,123.45c.9.47,1.79,1,2.66,1.45v16.29c-.87-.5-1.76-1-2.66-1.45V123.45Z"/><path class="cls-4" d="M454.69,114.21c1,.44,1.9.89,2.83,1.35v22.77c-.93-.46-1.87-.91-2.83-1.35V114.21Z"/><path class="cls-5" d="M399.46,106.44v-1.7q-5.81-.4-11.79-.47c-1.51,0-3,0-4.52,0V106c1.5,0,3,0,4.52,0q6,.06,11.79.48ZM367.12,103a192.24,192.24,0,0,1,20.55-.89q6,.06,11.79.48v6.08q-5.81-.4-11.79-.47a192.28,192.28,0,0,0-20.55.88V103Z"/><path class="cls-5" d="M399.46,115.9v-1.69q-5.81-.42-11.79-.48-5.25,0-10.38.18v1.69q5.13-.22,10.38-.17,6,.06,11.79.47Zm-43.44-2a187.54,187.54,0,0,1,31.65-2.32q6,.06,11.79.47v6.09q-5.81-.42-11.79-.48A188.58,188.58,0,0,0,356,119.94v-6.08Z"/><path class="cls-5" d="M399.46,125.37v-1.69q-4.81-.34-9.75-.45v1.69q4.94.1,9.75.45ZM379,121q4.32-.15,8.72-.11,6,.06,11.79.48v6.1c-3.87-.27-7.8-.44-11.79-.48-2.93,0-5.84,0-8.72.11V121Z"/><path class="cls-6" d="M403.37,121.71a173.51,173.51,0,0,1,29.89,5.35v6.1a173.51,173.51,0,0,0-29.89-5.35v-6.1Z"/><path class="cls-6" d="M403.37,112.33a167.73,167.73,0,0,1,39.67,8.4v6.09a166.74,166.74,0,0,0-39.67-8.4v-6.09Z"/><path class="cls-6" d="M403.37,102.94a178,178,0,0,1,19.26,2.82v6.08A180.55,180.55,0,0,0,403.37,109v-6.08Z"/><path class="cls-6" d="M426.24,106.54c1.07.24,2.14.49,3.19.75v6.09c-1.05-.26-2.12-.52-3.19-.76v-6.08Z"/><path class="cls-6" d="M432.31,108c1,.28,2.07.56,3.09.86V115l-3.09-.86V108Z"/><path class="cls-6" d="M438.19,109.74q1.51.47,3,1v6.09c-1-.33-2-.66-3-1v-6.08Z"/><path class="cls-6" d="M443.85,111.63c1,.34,1.94.7,2.89,1.06v6.08c-.95-.36-1.91-.71-2.89-1.06v-6.08Z"/><path class="cls-4" d="M383.15,104.27c1.5,0,3,0,4.52,0q6,.06,11.79.47v1.7q-5.81-.42-11.79-.48c-1.51,0-3,0-4.52,0v-1.7Z"/><path class="cls-4" d="M377.29,113.91q5.13-.22,10.38-.18,6,.06,11.79.48v1.69q-5.81-.41-11.79-.47-5.25-.06-10.38.17v-1.69Z"/><path class="cls-4" d="M389.71,123.23q4.94.1,9.75.45v1.69q-4.81-.34-9.75-.45v-1.69Z"/><path class="cls-3" d="M305.33,134.57c2.57-1.72,3.11-5.64,1.32-6-2-.46-4.52,3.83-3.34,5.8.39.66,1.17.75,2,.23Zm-26,23c1.11-2.52,1.26-6.6.45-6.3s-1.82,6.53-1,6.9c.09,0,.28,0,.56-.6Zm-3.78,34.81c0-.37,0-.75,0-1.12.56-18.35,14.71-34.74,36.84-46.07l.24.29.56-.69h0l.55-.68c-6.6-8-8.17-9.85-12.2-2.48-1.86,3.64-3.56,5.11-5,4.38-8.38-5.44-8.38-5.44-10.6,1.13-3.72,12.6-3.72,12.6-4.77,13-1.29.4-2,.62-2.88,5-1.59,9.81-1.59,9.81-2.05,14.37a19.76,19.76,0,0,1-.52,3.35l-.15-.34v9.82Zm0,4.95v-39c0-.38,0-.75,0-1.13.63-20.69,18.54-38.89,45.7-50.15v39c-30.22,13.56-45.6,30.81-45.71,51.27Z"/><path class="cls-7" d="M313.24,144.74Zm-21.65,11.64v-1.69c-.4.37-.79.74-1.17,1.12v1.69c.38-.37.77-.75,1.17-1.12Zm0-3.33v-1.71a62.79,62.79,0,0,0-6.4,7V160a62.79,62.79,0,0,1,6.4-7Zm-16,39.29v-7.89l.1.26a32.42,32.42,0,0,0,.69-4.51c.65-6,1.13-8.65,2.18-14.5.67-3.25,1.06-3.37,2.35-3.8,1.13-.56,1.13-.56,5.6-14.41,1.67-4.85,1.67-4.85,9.31.12,1.33.66,3.56.25,6.59-5.49,3-5.44,3.67-4.64,10,3-22.13,11.33-36.28,27.72-36.84,46.07,0,.37,0,.75,0,1.12Z"/><path class="cls-4" d="M275.58,184.45l.1.26a32.42,32.42,0,0,0,.69-4.51c.65-6,1.13-8.65,2.18-14.5.66-3.19,1-3.32,2.35-3.8,1.13-.56,1.13-.56,5.6-14.41,1.67-4.85,1.67-4.85,9.31.12,1.33.66,3.56.25,6.59-5.49,3-5.44,3.67-4.64,10,3l.24.29.56-.69h0l.55-.68c-1.49-1.79-3.47-4.18-4.94-6-.36-.38-3.7-3.47-7.84,4.63-2.5,4.61-2.5,4.61-10.43-.68-3-1.5-4.8,5-7.25,14-1.06,3.71-1.72,3.94-3,4.39-1,.54-2,1.1-4,18.72a30.47,30.47,0,0,1-.49,3.64,2.39,2.39,0,0,1-.23-.22v1.93Z"/><path class="cls-4" d="M279.36,151.81c.5-1,.74-.54.84-.2.56,1.84-.74,6.81-1.4,6.52s-.23-4.65.56-6.32Z"/><path class="cls-4" d="M305.33,128.84c1.91-1,2.8.6,2.19,2.68-.76,2.6-3.32,4.31-4.21,2.82s.28-4.43,2-5.5Z"/><path class="cls-4" d="M285.19,158.31a62.79,62.79,0,0,1,6.4-7v1.71a62.79,62.79,0,0,0-6.4,7v-1.71Z"/><path class="cls-4" d="M290.42,155.81c.38-.38.77-.75,1.17-1.12v1.69c-.4.37-.79.75-1.17,1.12v-1.69Z"/></g><g class="cls-2"><g class="cls-1"><g class="cls-1"><path class="cls-3" d="M288.3,221.82v-27a81.1,81.1,0,0,0,19,14.88v27a81.1,81.1,0,0,1-19-14.88Zm-6.18-34.1v26.11a40,40,0,0,1-6.54-21.49v-9.82c0-.11.09-.27.12-.39.39-1.65.79-3.35,1.35-3.93.23.14.73.43,1.62,4.41a10.44,10.44,0,0,0,.71,2.29c.28.56.51.82.78.89l1.8.15.33,1.79Zm38.2,60.4v-39c-27.18-11.53-44.74-30-44.74-50.82v39c1.52,21.69,15.32,37.37,44.74,50.83Z"/><path class="cls-7" d="M276.36,196v-1.69a41.12,41.12,0,0,0,3.76,10.44v1.69A41.12,41.12,0,0,1,276.36,196Zm0-3.32V191a39.38,39.38,0,0,0,2.5,7.78v1.69a39.5,39.5,0,0,1-2.5-7.77Zm5.76,21.18V187.72l-1.68-.13c-.32-.12-1.18-.44-2-4.28-.56-2.63-.91-3-1.12-3.26-.26.14-.75.94-1.54,3.92l-.19.48v7.89a40,40,0,0,0,6.54,21.49Z"/><path class="cls-4" d="M282.12,187.72l-1.68-.13c-.94-.22-1.61-2.45-2-4.28-1-4.73-1.38-4.14-2.66.66a3,3,0,0,1-.19.48v-1.93l.09-.27,0-.05a13.35,13.35,0,0,1,1.17-3.81c.57-.89,1.44,2.64,1.7,3.74a9.46,9.46,0,0,0,1.21,3.41c.22.24.22.24,2.19.4l.33,1.79Z"/><path class="cls-3" d="M355.42,253.09V251q1.81.3,3.66.57v2.12c-1.23-.18-2.45-.36-3.66-.56Zm7.37,1V252c1.26.15,2.52.29,3.79.42v2.12c-1.27-.13-2.53-.27-3.79-.42Zm7.59.76v-2.12c1.28.1,2.56.19,3.85.27v2.12c-1.29-.08-2.57-.17-3.85-.27Zm7.76.46v-2.12c1.3,0,2.61.09,3.93.11v2.13c-1.32,0-2.63-.06-3.93-.12Zm7.88.15v-2.12c1.32,0,2.63,0,3.93,0v2.12c-1.3,0-2.61,0-3.93,0Zm7.85-.16v-2.13c1.29-.05,2.58-.12,3.86-.2v2.13c-1.28.08-2.57.14-3.86.2Zm7.67-.48v-2.12q1.92-.17,3.81-.36v2.13c-1.26.13-2.53.25-3.81.35Zm7.54-.77V252c1.24-.15,2.47-.32,3.69-.49v2.12c-1.22.18-2.45.34-3.69.5Zm7.35-1.07v-2.12c1.21-.2,2.4-.41,3.59-.64v2.13c-1.19.22-2.38.43-3.59.63Zm7.13-1.34v-2.12c1.17-.25,2.33-.5,3.48-.77v2.12c-1.15.27-2.31.53-3.48.77Zm6.93-1.61V248c1.13-.29,2.25-.59,3.37-.9v2.13c-1.12.31-2.24.61-3.37.89Zm6.67-1.85V246.1c1.1-.33,2.18-.67,3.26-1v2.13l-3.26,1Zm6.43-2.12V244c1-.37,2.08-.75,3.1-1.14V245c-1,.39-2.06.77-3.1,1.14Zm6.15-2.34v-2.13c1-.41,2-.82,2.95-1.25v2.12c-1,.43-1.95.85-2.95,1.26Zm5.83-2.57v-2.12c.95-.45,1.88-.9,2.8-1.36v2.12c-.92.46-1.85.92-2.8,1.36Zm5.54-2.78v-2.13c.89-.48,1.77-1,2.64-1.46V237q-1.31.75-2.64,1.47Zm5.19-3v-2.13c.84-.51,1.66-1,2.47-1.57v2.12c-.81.54-1.63,1.06-2.47,1.58Zm4.85-3.19v-2.12c.77-.55,1.53-1.1,2.27-1.66v2.13c-.74.56-1.5,1.11-2.27,1.65Zm4.46-3.35v-2.13c.71-.58,1.41-1.16,2.09-1.75v2.12c-.68.59-1.38,1.18-2.09,1.76Zm4.08-3.54v-2.13c.64-.6,1.27-1.21,1.88-1.82v2.12c-.61.62-1.24,1.23-1.88,1.83Zm3.67-3.7v-2.13c.57-.63,1.13-1.26,1.67-1.9v2.12c-.54.64-1.1,1.28-1.67,1.91Zm3.23-3.84v-2.13c.5-.65,1-1.32,1.46-2v2.12c-.47.67-1,1.33-1.46,2Zm2.79-4V211.7c.43-.68.83-1.36,1.22-2v2.12c-.39.69-.79,1.37-1.22,2Zm2.32-4.11v-2.12c.34-.7.67-1.41,1-2.12v2.13c-.31.71-.64,1.41-1,2.11Zm1.83-4.24v-2.13c.27-.71.51-1.43.73-2.15v2.12c-.22.72-.46,1.44-.73,2.16Zm1.33-4.35V199c.18-.73.33-1.47.47-2.21v2.13c-.14.74-.29,1.47-.47,2.21ZM355.42,249.27v-2.12c1.21.2,2.43.38,3.66.56v2.12c-1.23-.17-2.45-.36-3.66-.56Zm7.37,1V248.2c1.26.15,2.52.29,3.79.42v2.12c-1.27-.12-2.53-.26-3.79-.42Zm7.59.77V249c1.28.11,2.56.2,3.85.27v2.13c-1.29-.08-2.57-.17-3.85-.27Zm7.76.46v-2.12c1.3,0,2.61.08,3.93.11v2.12c-1.32,0-2.63-.06-3.93-.11Zm7.88.15v-2.13c1.32,0,2.63,0,3.93,0v2.12c-1.3,0-2.61,0-3.93,0Zm7.85-.17v-2.12c1.29-.06,2.58-.12,3.86-.2v2.12c-1.28.08-2.57.15-3.86.2Zm7.67-.48v-2.12c1.28-.1,2.55-.22,3.81-.35v2.12c-1.26.13-2.53.25-3.81.35Zm7.54-.77v-2.12c1.24-.16,2.47-.32,3.69-.5v2.12c-1.22.18-2.45.35-3.69.5Zm7.35-1.06v-2.13c1.21-.2,2.4-.41,3.59-.63v2.12c-1.19.22-2.38.44-3.59.64Zm7.13-1.34v-2.13c1.17-.24,2.33-.5,3.48-.76v2.12c-1.15.27-2.31.52-3.48.77Zm6.93-1.61v-2.12c1.13-.29,2.25-.59,3.37-.9v2.12c-1.12.31-2.24.61-3.37.9Zm6.67-1.86v-2.12l3.26-1v2.12c-1.08.35-2.16.7-3.26,1Zm6.43-2.11v-2.12c1-.38,2.08-.76,3.1-1.15v2.13c-1,.39-2.06.77-3.1,1.14Zm6.15-2.35v-2.12c1-.41,2-.83,2.95-1.26v2.13c-1,.42-1.95.84-2.95,1.25Zm5.83-2.56v-2.13c.95-.44,1.88-.9,2.8-1.36V236c-.92.47-1.85.92-2.8,1.37Zm5.54-2.79v-2.12q1.33-.72,2.64-1.47v2.13c-.87.49-1.75,1-2.64,1.46Zm5.19-3V229.5c.84-.52,1.66-1,2.47-1.58v2.13c-.81.53-1.63,1-2.47,1.57Zm4.85-3.18v-2.13c.77-.54,1.53-1.09,2.27-1.65v2.12c-.74.56-1.5,1.11-2.27,1.66Zm4.46-3.36V223c.71-.58,1.41-1.17,2.09-1.76v2.13c-.68.59-1.38,1.17-2.09,1.75Zm4.08-3.54v-2.12c.64-.6,1.27-1.21,1.88-1.83v2.13c-.61.61-1.24,1.22-1.88,1.82Zm3.67-3.7v-2.12c.57-.63,1.13-1.27,1.67-1.91v2.13c-.54.64-1.1,1.27-1.67,1.9Zm3.23-3.84v-2.12c.5-.66,1-1.32,1.46-2V212c-.47.67-1,1.33-1.46,2Zm2.79-4v-2.13c.43-.67.83-1.35,1.22-2V208c-.39.68-.79,1.36-1.22,2Zm2.32-4.11v-2.13c.34-.7.67-1.4,1-2.11v2.12c-.31.71-.64,1.42-1,2.12Zm1.83-4.25v-2.12c.27-.72.51-1.43.73-2.16v2.13c-.22.72-.46,1.44-.73,2.15Zm1.33-4.35v-2.12c.18-.74.33-1.47.47-2.21v2.12c-.14.74-.29,1.48-.47,2.21ZM355.42,245.46v-2.13q1.81.3,3.66.57V246c-1.23-.18-2.45-.36-3.66-.56Zm7.37,1v-2.12c1.26.15,2.52.29,3.79.42v2.12c-1.27-.13-2.53-.27-3.79-.42Zm7.59.76v-2.12c1.28.1,2.56.19,3.85.27v2.12c-1.29-.08-2.57-.17-3.85-.27Zm7.76.46v-2.12c1.3,0,2.61.09,3.93.11v2.13c-1.32,0-2.63-.06-3.93-.12Zm7.88.15v-2.12c1.32,0,2.63,0,3.93,0v2.12c-1.3,0-2.61,0-3.93,0Zm7.85-.16v-2.13c1.29-.05,2.58-.12,3.86-.2v2.13c-1.28.08-2.57.14-3.86.2Zm7.67-.48v-2.12q1.92-.17,3.81-.36v2.13c-1.26.13-2.53.25-3.81.35Zm7.54-.78v-2.12c1.24-.15,2.47-.32,3.69-.49V246c-1.22.18-2.45.34-3.69.49Zm7.35-1.06v-2.12c1.21-.2,2.4-.41,3.59-.64v2.13c-1.19.22-2.38.43-3.59.63Zm7.13-1.34v-2.12c1.17-.25,2.33-.5,3.48-.77v2.12c-1.15.27-2.31.53-3.48.77Zm6.93-1.61v-2.12c1.13-.29,2.25-.59,3.37-.9v2.13c-1.12.31-2.24.61-3.37.89Zm6.67-1.85v-2.13c1.1-.33,2.18-.67,3.26-1v2.13l-3.26,1Zm6.43-2.12v-2.12c1-.37,2.08-.75,3.1-1.14v2.12c-1,.39-2.06.77-3.1,1.14Zm6.15-2.34V234c1-.41,2-.82,2.95-1.25v2.12c-1,.43-1.95.85-2.95,1.26Zm5.83-2.57v-2.12c.95-.45,1.88-.9,2.8-1.36v2.12c-.92.46-1.85.92-2.8,1.36Zm5.54-2.78v-2.13c.89-.48,1.77-1,2.64-1.46v2.12q-1.31.75-2.64,1.47Zm5.19-3v-2.13c.84-.51,1.66-1,2.47-1.57v2.12c-.81.53-1.63,1.06-2.47,1.58Zm4.85-3.19V222.5c.77-.55,1.53-1.1,2.27-1.66V223c-.74.56-1.5,1.11-2.27,1.65Zm4.46-3.35v-2.13c.71-.58,1.41-1.16,2.09-1.75v2.12c-.68.59-1.38,1.18-2.09,1.76Zm4.08-3.54V215.6c.64-.6,1.27-1.21,1.88-1.82v2.12c-.61.62-1.24,1.22-1.88,1.83Zm3.67-3.7V211.9c.57-.63,1.13-1.26,1.67-1.9v2.12c-.54.64-1.1,1.28-1.67,1.91Zm3.23-3.84v-2.13c.5-.65,1-1.32,1.46-2v2.12c-.47.67-1,1.33-1.46,2Zm2.79-4v-2.12c.43-.68.83-1.36,1.22-2v2.12c-.39.69-.79,1.37-1.22,2Zm2.32-4.11V200c.34-.7.67-1.41,1-2.12V200c-.31.71-.64,1.41-1,2.11Zm1.83-4.24v-2.13c.27-.71.51-1.43.73-2.15v2.12c-.22.72-.46,1.44-.73,2.16Zm1.33-4.35v-2.13c.18-.73.33-1.47.47-2.21v2.13c-.14.74-.29,1.47-.47,2.21Zm-78.43,48v-5c1.21-.2,2.4-.41,3.59-.63v5c-1.19.23-2.38.44-3.59.64Zm70.28-35.38v-5q.75-1,1.44-2v5c-.46.66-.94,1.32-1.44,2Zm-31.14,23.55v-5.49c.95-.44,1.88-.9,2.8-1.36v5.49c-.92.46-1.85.92-2.8,1.36Zm5.74-2.89v-5.49c.89-.48,1.77-1,2.63-1.47v5.49l-2.63,1.47Zm-52.23,15.78v-6.37c1.24-.15,2.47-.32,3.69-.49V242c-1.22.18-2.45.34-3.69.49Zm80.4-40.42v-6.37c.42-.68.82-1.36,1.21-2v6.37c-.39.69-.79,1.37-1.21,2Zm-65.92,38v-6.8c1.17-.25,2.33-.5,3.48-.77v6.8c-1.15.27-2.31.53-3.48.77Zm59.93-30.18v-6.8c.57-.63,1.13-1.26,1.66-1.91V208c-.53.64-1.09,1.27-1.66,1.9ZM449.74,232.2v-7.42c1-.41,2-.83,2.95-1.25v7.41c-1,.43-1.95.85-2.95,1.26Zm16.76-8.46v-7.42c.84-.51,1.65-1,2.46-1.56v7.41c-.81.53-1.62,1.05-2.46,1.57Zm-65,19.56v-8.39c1.28-.1,2.55-.22,3.81-.35V243c-1.26.13-2.53.24-3.81.35ZM491.78,198v-8.39c.34-.69.67-1.39,1-2.1v8.39c-.3.7-.63,1.4-1,2.1ZM355.42,241.52v-9.43c1.21.2,2.43.38,3.66.56v9.43c-1.23-.18-2.45-.36-3.66-.56Zm75.07-3v-9.88c1.13-.29,2.25-.59,3.37-.9v9.88c-1.12.31-2.24.61-3.37.9Zm49.35-24.86v-9.88c.64-.61,1.27-1.22,1.88-1.84v9.88c-.61.62-1.24,1.23-1.88,1.84Zm-36.25,20.89V224.12c1-.37,2.08-.75,3.1-1.14V233.4c-1,.39-2.06.77-3.1,1.14Zm27.73-14V210.14c.78-.55,1.54-1.11,2.29-1.67v10.42c-.75.56-1.51,1.12-2.29,1.67Zm-77.45,23.21V233c1.29-.05,2.58-.12,3.86-.2v10.81c-1.28.08-2.57.15-3.86.2Zm99.72-50V182.92c.26-.72.5-1.45.72-2.17v10.81c-.22.73-.46,1.45-.72,2.17Zm-130.8,48.84V229.65c1.26.15,2.52.29,3.79.42V243c-1.27-.13-2.53-.27-3.79-.42ZM386,243.94V231c1.32,0,2.63,0,3.93,0V243.9c-1.3,0-2.61,0-3.93,0Zm51.14-7.29V223.73c1.1-.33,2.18-.67,3.26-1v12.93c-1.08.35-2.16.69-3.26,1Zm38.62-19.47V204.26c.71-.57,1.4-1.16,2.08-1.74v12.92c-.68.59-1.37,1.17-2.08,1.74Zm19.12-27.8V176.46c.18-.74.33-1.47.46-2.21v12.92c-.13.74-.28,1.47-.46,2.21ZM378.14,243.79V228.5c1.3.05,2.61.09,3.93.11v15.3q-2,0-3.93-.12Zm-7.76-.46V226.54c1.28.1,2.56.19,3.85.27V243.6c-1.29-.08-2.57-.17-3.85-.27ZM495.88,160c-1.62,34.61-51.57,62.08-112,61.48a185.08,185.08,0,0,1-35.93-3.82v39a184.32,184.32,0,0,0,35.93,3.81c60.48.61,110.43-26.86,112.05-61.47V160Z"/><path class="cls-4" d="M278.86,198.73a39.38,39.38,0,0,1-2.5-7.78v1.7a39.5,39.5,0,0,0,2.5,7.77v-1.69Z"/><path class="cls-4" d="M280.12,204.72a41.12,41.12,0,0,1-3.76-10.44V196a41.12,41.12,0,0,0,3.76,10.44v-1.69Z"/><path class="cls-7" d="M290.55,220.27v-2.75c.55.55,1.12,1.09,1.7,1.62v2.75c-.58-.53-1.15-1.07-1.7-1.62Zm3.49,3.21v-2.75c.61.52,1.23,1,1.87,1.55V225c-.64-.52-1.26-1-1.87-1.56Zm3.82,3.08v-2.75c.66.5,1.33,1,2,1.48v2.76c-.69-.49-1.36-1-2-1.49ZM302,229.5v-2.76c.71.48,1.44.95,2.17,1.42v2.75c-.73-.46-1.46-.93-2.17-1.41Zm-11.43-14.73V212c.55.55,1.12,1.09,1.7,1.62v2.76c-.58-.54-1.15-1.08-1.7-1.62ZM294,218v-2.76c.61.53,1.23,1.05,1.87,1.56v2.75c-.64-.51-1.26-1-1.87-1.55Zm3.82,3.07V218.3c.66.5,1.33,1,2,1.49v2.75c-.69-.49-1.36-1-2-1.49ZM302,224v-2.75c.71.48,1.44.95,2.17,1.41v2.76c-.73-.47-1.46-.94-2.17-1.42Zm-11.43-14.73v-2.75c.55.54,1.12,1.08,1.7,1.62v2.75c-.58-.53-1.15-1.07-1.7-1.62Zm3.49,3.21v-2.75c.61.52,1.23,1,1.87,1.55V214c-.64-.51-1.26-1-1.87-1.55Zm3.82,3.08v-2.76c.66.5,1.33,1,2,1.49V217c-.69-.49-1.36-1-2-1.48Zm4.12,2.93v-2.75c.71.48,1.44,1,2.17,1.42v2.75c-.73-.47-1.46-.94-2.17-1.42Zm-11.43-14.73V201c.55.54,1.12,1.08,1.7,1.62v2.75c-.58-.53-1.15-1.07-1.7-1.62ZM294,207v-2.75c.61.52,1.23,1,1.87,1.55v2.76c-.64-.51-1.26-1-1.87-1.56Zm3.82,3.08v-2.75c.66.5,1.33,1,2,1.48v2.76c-.69-.49-1.36-1-2-1.49ZM302,213v-2.76c.71.48,1.44.95,2.17,1.42v2.75c-.73-.46-1.46-.93-2.17-1.41Zm5.35-3.27a81.1,81.1,0,0,1-19-14.88v27a81.1,81.1,0,0,0,19,14.88v-27Z"/><path class="cls-8" d="M292.25,202.62c-.58-.54-1.15-1.08-1.7-1.62v2.75c.55.55,1.12,1.09,1.7,1.62v-2.75Z"/><path class="cls-4" d="M295.91,205.76c-.64-.51-1.26-1-1.87-1.55V207c.61.53,1.23,1,1.87,1.56v-2.76Z"/><path class="cls-8" d="M299.88,208.77c-.69-.49-1.36-1-2-1.48V210c.66.5,1.33,1,2,1.49v-2.76Z"/><path class="cls-8" d="M304.15,211.64c-.73-.47-1.46-.94-2.17-1.42V213c.71.48,1.44,1,2.17,1.41v-2.75Z"/><path class="cls-8" d="M292.25,208.13c-.58-.54-1.15-1.08-1.7-1.62v2.75c.55.55,1.12,1.09,1.7,1.62v-2.75Z"/><path class="cls-4" d="M295.91,211.27c-.64-.51-1.26-1-1.87-1.55v2.75c.61.52,1.23,1,1.87,1.55v-2.75Z"/><path class="cls-8" d="M299.88,214.28c-.69-.49-1.36-1-2-1.49v2.76c.66.5,1.33,1,2,1.48v-2.75Z"/><path class="cls-8" d="M304.15,217.15c-.73-.47-1.46-.94-2.17-1.42v2.75c.71.48,1.44,1,2.17,1.42v-2.75Z"/><path class="cls-4" d="M292.25,213.63c-.58-.53-1.15-1.07-1.7-1.62v2.76c.55.54,1.12,1.08,1.7,1.62v-2.76Z"/><path class="cls-8" d="M295.91,216.78c-.64-.51-1.26-1-1.87-1.56V218c.61.52,1.23,1,1.87,1.55v-2.75Z"/><path class="cls-8" d="M299.88,219.79c-.69-.49-1.36-1-2-1.49v2.75c.66.5,1.33,1,2,1.49v-2.75Z"/><path class="cls-4" d="M304.15,222.65c-.73-.46-1.46-.93-2.17-1.41V224c.71.48,1.44.95,2.17,1.42v-2.76Z"/><path class="cls-8" d="M292.25,219.14c-.58-.53-1.15-1.07-1.7-1.62v2.75c.55.55,1.12,1.09,1.7,1.62v-2.75Z"/><path class="cls-4" d="M295.91,222.28c-.64-.51-1.26-1-1.87-1.55v2.75c.61.53,1.23,1,1.87,1.56v-2.76Z"/><path class="cls-8" d="M299.88,225.29c-.69-.49-1.36-1-2-1.48v2.75c.66.5,1.33,1,2,1.49v-2.76Z"/><path class="cls-8" d="M304.15,228.16c-.73-.47-1.46-.94-2.17-1.42v2.76c.71.48,1.44.95,2.17,1.41v-2.75Z"/><path class="cls-6" d="M359.08,232.65c-1.23-.18-2.45-.36-3.66-.56v9.43c1.21.2,2.43.38,3.66.56v-9.43Z"/><path class="cls-6" d="M366.58,230.07c-1.27-.13-2.53-.27-3.79-.42v12.92c1.26.15,2.52.29,3.79.42V230.07Z"/><path class="cls-6" d="M374.23,226.81c-1.29-.08-2.57-.17-3.85-.27v16.79c1.28.1,2.56.19,3.85.27V226.81Z"/><path class="cls-6" d="M382.07,228.61c-1.32,0-2.63-.06-3.93-.11v15.29q2,.08,3.93.12v-15.3Z"/><path class="cls-6" d="M390,231c-1.3,0-2.61,0-3.93,0v12.92c1.32,0,2.63,0,3.93,0V231Z"/><path class="cls-9" d="M397.73,232.76c-1.28.08-2.57.15-3.86.2v10.81c1.29-.05,2.58-.12,3.86-.2V232.76Z"/><path class="cls-9" d="M405.35,234.56c-1.26.13-2.53.25-3.81.35v8.39c1.28-.11,2.55-.22,3.81-.35-1.26.13-2.53.24-3.81.35,1.28-.11,2.55-.22,3.81-.35v-8.39Z"/><path class="cls-10" d="M412.77,235.66c-1.22.17-2.45.34-3.69.49v6.37c1.24-.15,2.47-.31,3.69-.49v-6.37Z"/><path class="cls-11" d="M420,235.86c-1.19.22-2.38.43-3.59.63v5c1.21-.2,2.4-.41,3.59-.64v-5Z"/><path class="cls-12" d="M427,232.55c-1.15.27-2.31.52-3.48.77v6.8c1.17-.24,2.33-.5,3.48-.77v-6.8Z"/><path class="cls-12" d="M433.86,227.73c-1.12.31-2.24.61-3.37.9v9.88c1.13-.29,2.25-.59,3.37-.9v-9.88Z"/><path class="cls-7" d="M440.42,222.7c-1.08.36-2.16.7-3.26,1v12.92c1.1-.33,2.18-.67,3.26-1V222.7Z"/><path class="cls-7" d="M446.69,223c-1,.39-2.06.77-3.1,1.14v10.42c1-.37,2.08-.75,3.1-1.14V223Z"/><path class="cls-13" d="M452.69,223.53c-1,.42-1.95.84-2.95,1.25v7.42c1-.41,2-.83,2.95-1.26v-7.41Z"/><path class="cls-13" d="M458.37,222.78c-.92.46-1.85.92-2.8,1.36v5.49c.95-.44,1.88-.9,2.8-1.36v-5.49Z"/><path class="cls-4" d="M495.36,174.25c-.13.74-.28,1.47-.46,2.21v12.92c.18-.74.33-1.47.46-2.21V174.25Z"/><path class="cls-14" d="M494.31,180.75c-.22.72-.46,1.45-.72,2.17v10.81c.26-.72.5-1.44.72-2.17V180.75Z"/><path class="cls-14" d="M492.75,187.48c-.3.71-.63,1.41-1,2.1V198c.34-.7.67-1.4,1-2.1v-8.39Z"/><path class="cls-10" d="M490.69,193.68c-.39.69-.79,1.37-1.21,2v6.37c.42-.68.82-1.36,1.21-2v-6.37Z"/><path class="cls-10" d="M488.15,199.14q-.69,1-1.44,2v5c.5-.65,1-1.31,1.44-2v-5Z"/><path class="cls-12" d="M485.15,201.23c-.53.65-1.09,1.28-1.66,1.91v6.8c.57-.63,1.13-1.26,1.66-1.9v-6.81Z"/><path class="cls-12" d="M481.72,201.93c-.61.62-1.24,1.23-1.88,1.84v9.88c.64-.61,1.27-1.22,1.88-1.84v-9.88Z"/><path class="cls-7" d="M477.86,202.52c-.68.58-1.37,1.17-2.08,1.74v12.92c.71-.57,1.4-1.15,2.08-1.74V202.52Z"/><path class="cls-7" d="M473.61,208.47c-.75.56-1.51,1.12-2.29,1.67v10.42c.78-.55,1.54-1.11,2.29-1.67V208.47Z"/><path class="cls-13" d="M469,214.76c-.81.53-1.62,1.05-2.46,1.56v7.42c.84-.52,1.65-1,2.46-1.57v-7.41Z"/><path class="cls-13" d="M463.94,219.78c-.86.5-1.74,1-2.63,1.47v5.49l2.63-1.47v-5.49Z"/><path class="cls-4" d="M405.35,243c-1.26.13-2.53.24-3.81.35,1.28-.11,2.55-.22,3.81-.35Z"/><path class="cls-13" d="M359.08,243.9q-1.84-.27-3.66-.57v2.13c1.21.2,2.43.38,3.66.56V243.9Z"/><path class="cls-13" d="M374.23,245.42c-1.29-.08-2.57-.17-3.85-.27v2.12c1.28.1,2.56.19,3.85.27v-2.12Z"/><path class="cls-13" d="M382.07,245.72c-1.32,0-2.63-.06-3.93-.11v2.12c1.3.06,2.61.09,3.93.12v-2.13Z"/><path class="cls-13" d="M390,245.72c-1.3,0-2.61,0-3.93,0v2.12c1.32,0,2.63,0,3.93,0v-2.12Z"/><path class="cls-13" d="M397.73,245.39c-1.28.08-2.57.15-3.86.2v2.13c1.29-.06,2.58-.12,3.86-.2v-2.13Z"/><path class="cls-13" d="M412.77,243.85c-1.22.17-2.45.34-3.69.49v2.12c1.24-.15,2.47-.31,3.69-.49v-2.12Z"/><path class="cls-13" d="M420,242.64c-1.19.23-2.38.44-3.59.64v2.12c1.21-.2,2.4-.41,3.59-.63v-2.13Z"/><path class="cls-13" d="M427,241.17c-1.15.27-2.31.52-3.48.77v2.12c1.17-.24,2.33-.5,3.48-.77v-2.12Z"/><path class="cls-13" d="M433.86,239.43c-1.12.31-2.24.61-3.37.9v2.12c1.13-.28,2.25-.58,3.37-.89v-2.13Z"/><path class="cls-13" d="M440.42,237.44c-1.08.36-2.16.7-3.26,1v2.13l3.26-1v-2.13Z"/><path class="cls-13" d="M452.69,232.76c-1,.43-1.95.84-2.95,1.25v2.13c1-.41,2-.83,2.95-1.26v-2.12Z"/><path class="cls-13" d="M458.37,230.09c-.92.46-1.85.91-2.8,1.36v2.12c.95-.44,1.88-.9,2.8-1.36v-2.12Z"/><path class="cls-13" d="M463.75,227.2c-.87.49-1.75,1-2.64,1.46v2.13q1.33-.72,2.64-1.47V227.2Z"/><path class="cls-13" d="M468.77,224.11c-.81.53-1.63,1.06-2.47,1.57v2.13c.84-.52,1.66-1.05,2.47-1.58v-2.12Z"/><path class="cls-13" d="M473.42,220.84c-.74.56-1.5,1.11-2.27,1.66v2.12c.77-.54,1.53-1.09,2.27-1.65v-2.13Z"/><path class="cls-13" d="M477.7,217.39c-.68.59-1.38,1.17-2.09,1.75v2.13c.71-.58,1.41-1.17,2.09-1.76v-2.12Z"/><path class="cls-13" d="M481.57,213.78c-.61.61-1.24,1.22-1.88,1.82v2.13c.64-.61,1.27-1.21,1.88-1.83v-2.12Z"/><path class="cls-13" d="M488.05,206.08c-.47.66-1,1.33-1.46,2v2.13c.5-.66,1-1.32,1.46-2v-2.12Z"/><path class="cls-13" d="M490.6,202c-.39.68-.79,1.36-1.22,2v2.12c.43-.67.83-1.35,1.22-2V202Z"/><path class="cls-13" d="M492.68,197.84c-.31.71-.64,1.42-1,2.12v2.12c.34-.7.67-1.4,1-2.11v-2.13Z"/><path class="cls-13" d="M494.26,193.56c-.22.72-.46,1.44-.73,2.15v2.13c.27-.72.51-1.44.73-2.16v-2.12Z"/><path class="cls-13" d="M359.08,247.71c-1.23-.18-2.45-.36-3.66-.56v2.12c1.21.2,2.43.39,3.66.56v-2.12Z"/><path class="cls-13" d="M366.58,248.62c-1.27-.13-2.53-.27-3.79-.42v2.12c1.26.16,2.52.3,3.79.42v-2.12Z"/><path class="cls-13" d="M374.23,249.23c-1.29-.07-2.57-.16-3.85-.27v2.13c1.28.1,2.56.19,3.85.27v-2.13Z"/><path class="cls-13" d="M382.07,249.54c-1.32,0-2.63-.06-3.93-.11v2.12c1.3,0,2.61.09,3.93.11v-2.12Z"/><path class="cls-13" d="M390,249.53c-1.3,0-2.61,0-3.93,0v2.13c1.32,0,2.63,0,3.93,0v-2.12Z"/><path class="cls-13" d="M397.73,249.21c-1.28.08-2.57.14-3.86.2v2.12c1.29-.05,2.58-.12,3.86-.2v-2.12Z"/><path class="cls-13" d="M412.77,247.66c-1.22.18-2.45.34-3.69.5v2.12c1.24-.15,2.47-.32,3.69-.5v-2.12Z"/><path class="cls-13" d="M427,245c-1.15.26-2.31.52-3.48.76v2.13c1.17-.25,2.33-.5,3.48-.77V245Z"/><path class="cls-13" d="M433.86,243.25c-1.12.31-2.24.61-3.37.9v2.12c1.13-.29,2.25-.59,3.37-.9v-2.12Z"/><path class="cls-13" d="M440.42,241.26l-3.26,1v2.12c1.1-.33,2.18-.68,3.26-1v-2.12Z"/><path class="cls-13" d="M452.69,236.57c-1,.43-1.95.85-2.95,1.26V240c1-.41,2-.83,2.95-1.25v-2.13Z"/><path class="cls-13" d="M458.37,233.9c-.92.46-1.85.92-2.8,1.36v2.13c.95-.45,1.88-.9,2.8-1.37V233.9Z"/><path class="cls-13" d="M473.42,224.66c-.74.56-1.5,1.11-2.27,1.65v2.13c.77-.55,1.53-1.1,2.27-1.66v-2.12Z"/><path class="cls-13" d="M477.7,221.2c-.68.59-1.38,1.18-2.09,1.76v2.12c.71-.58,1.41-1.16,2.09-1.75V221.2Z"/><path class="cls-13" d="M481.57,217.59c-.61.62-1.24,1.23-1.88,1.83v2.12c.64-.6,1.27-1.21,1.88-1.82v-2.13Z"/><path class="cls-13" d="M488.05,209.89c-.47.67-1,1.33-1.46,2V214c.5-.66,1-1.32,1.46-2v-2.12Z"/><path class="cls-13" d="M492.68,201.66c-.31.71-.64,1.41-1,2.11v2.13c.34-.7.67-1.41,1-2.12v-2.12Z"/><path class="cls-13" d="M494.26,197.37c-.22.73-.46,1.44-.73,2.16v2.12c.27-.71.51-1.43.73-2.15v-2.13Z"/><path class="cls-13" d="M495.33,193c-.14.74-.29,1.47-.47,2.21v2.12c.18-.73.33-1.47.47-2.21V193Z"/><path class="cls-13" d="M359.08,251.53q-1.84-.27-3.66-.57v2.13c1.21.2,2.43.38,3.66.56v-2.12Z"/><path class="cls-13" d="M366.58,252.44c-1.27-.13-2.53-.27-3.79-.42v2.12c1.26.15,2.52.29,3.79.42v-2.12Z"/><path class="cls-13" d="M397.73,253c-1.28.08-2.57.15-3.86.2v2.13c1.29-.06,2.58-.12,3.86-.2V253Z"/><path class="cls-13" d="M405.35,252.39q-1.89.2-3.81.36v2.12c1.28-.1,2.55-.22,3.81-.35v-2.13Z"/><path class="cls-13" d="M412.77,251.48c-1.22.17-2.45.34-3.69.49v2.13c1.24-.16,2.47-.32,3.69-.5v-2.12Z"/><path class="cls-13" d="M420,250.27c-1.19.23-2.38.44-3.59.64V253c1.21-.2,2.4-.41,3.59-.63v-2.13Z"/><path class="cls-13" d="M427,248.8c-1.15.27-2.31.52-3.48.77v2.12c1.17-.24,2.33-.5,3.48-.77V248.8Z"/><path class="cls-13" d="M440.42,245.07c-1.08.36-2.16.7-3.26,1v2.13l3.26-1v-2.13Z"/><path class="cls-13" d="M446.69,242.85c-1,.39-2.06.77-3.1,1.14v2.12c1-.37,2.08-.75,3.1-1.14v-2.12Z"/><path class="cls-13" d="M458.37,237.72c-.92.46-1.85.91-2.8,1.36v2.12c.95-.44,1.88-.9,2.8-1.36v-2.12Z"/><path class="cls-13" d="M463.75,234.83c-.87.49-1.75,1-2.64,1.46v2.13q1.33-.72,2.64-1.47v-2.12Z"/><path class="cls-13" d="M468.77,231.74c-.81.53-1.63,1.06-2.47,1.57v2.13c.84-.52,1.66-1,2.47-1.58v-2.12Z"/><path class="cls-13" d="M473.42,228.47c-.74.56-1.5,1.11-2.27,1.66v2.12c.77-.54,1.53-1.09,2.27-1.65v-2.13Z"/><path class="cls-13" d="M477.7,225c-.68.59-1.38,1.17-2.09,1.75v2.13c.71-.58,1.41-1.17,2.09-1.76V225Z"/><path class="cls-13" d="M485,217.63c-.54.64-1.1,1.27-1.67,1.9v2.13c.57-.63,1.13-1.27,1.67-1.91v-2.12Z"/><path class="cls-13" d="M488.05,213.71c-.47.66-1,1.33-1.46,2v2.13c.5-.66,1-1.32,1.46-2v-2.12Z"/><path class="cls-13" d="M490.6,209.66c-.39.68-.79,1.36-1.22,2v2.12c.43-.67.83-1.35,1.22-2v-2.12Z"/><path class="cls-13" d="M492.68,205.47c-.31.71-.64,1.42-1,2.12v2.12c.34-.7.67-1.4,1-2.11v-2.13Z"/><path class="cls-13" d="M494.26,201.19c-.22.72-.46,1.44-.73,2.15v2.13c.27-.72.51-1.44.73-2.16v-2.12Z"/><path class="cls-13" d="M495.33,196.78c-.14.74-.29,1.48-.47,2.21v2.13c.18-.74.33-1.47.47-2.21v-2.13Z"/><path class="cls-6" d="M366.58,244.81c-1.27-.13-2.53-.27-3.79-.42v2.12c1.26.15,2.52.29,3.79.42v-2.12Z"/><path class="cls-6" d="M405.35,244.76q-1.89.19-3.81.36v2.12c1.28-.1,2.55-.22,3.81-.35v-2.13Z"/><path class="cls-4" d="M446.69,235.22c-1,.39-2.06.77-3.1,1.14v2.12c1-.37,2.08-.75,3.1-1.14v-2.12Z"/><path class="cls-4" d="M485,210c-.54.64-1.1,1.27-1.67,1.9V214c.57-.63,1.13-1.27,1.67-1.91V210Z"/><path class="cls-4" d="M495.33,189.15c-.14.74-.29,1.48-.47,2.21v2.13c.18-.74.33-1.47.47-2.21v-2.13Z"/><path class="cls-6" d="M405.35,248.58c-1.26.13-2.53.25-3.81.35v2.12c1.28-.1,2.55-.22,3.81-.35v-2.12Z"/><path class="cls-6" d="M420,246.46c-1.19.22-2.38.43-3.59.63v2.13c1.21-.2,2.4-.42,3.59-.64v-2.12Z"/><path class="cls-4" d="M446.69,239c-1,.39-2.06.77-3.1,1.15v2.12c1-.37,2.08-.75,3.1-1.14V239Z"/><path class="cls-4" d="M463.75,231q-1.31.75-2.64,1.47v2.12c.89-.48,1.77-1,2.64-1.46V231Z"/><path class="cls-4" d="M468.77,227.92c-.81.54-1.63,1.06-2.47,1.58v2.12c.84-.52,1.66-1,2.47-1.57v-2.13Z"/><path class="cls-4" d="M485,213.81c-.54.64-1.1,1.28-1.67,1.91v2.12c.57-.63,1.13-1.26,1.67-1.9v-2.13Z"/><path class="cls-4" d="M490.6,205.84c-.39.69-.79,1.37-1.22,2V210c.43-.68.83-1.36,1.22-2v-2.13Z"/><path class="cls-6" d="M374.23,253.05c-1.29-.08-2.57-.17-3.85-.27v2.12c1.28.1,2.56.19,3.85.27v-2.12Z"/><path class="cls-6" d="M382.07,253.35c-1.32,0-2.63-.06-3.93-.11v2.12c1.3.06,2.61.09,3.93.12v-2.13Z"/><path class="cls-6" d="M390,253.35c-1.3,0-2.61,0-3.93,0v2.12c1.32,0,2.63,0,3.93,0v-2.12Z"/><path class="cls-4" d="M433.86,247.06c-1.12.31-2.24.61-3.37.9v2.12c1.13-.28,2.25-.58,3.37-.89v-2.13Z"/><path class="cls-4" d="M452.69,240.39c-1,.43-1.95.84-2.95,1.25v2.13c1-.41,2-.83,2.95-1.26v-2.12Z"/><path class="cls-4" d="M481.57,221.41c-.61.61-1.24,1.22-1.88,1.82v2.13c.64-.6,1.27-1.21,1.88-1.83v-2.12Z"/></g></g></g><path class="cls-15" d="M495.18,144.19v-1c-.15-.73-.32-1.46-.51-2.18v1c.19.73.36,1.45.51,2.19ZM494,139.83v-1c-.23-.72-.49-1.43-.76-2.14v1c.27.71.53,1.42.76,2.14Zm-1.66-4.25v-1c-.31-.69-.65-1.39-1-2.08v1c.36.69.7,1.38,1,2.08Zm-2.15-4.15v-1c-.4-.68-.82-1.36-1.25-2v1c.43.67.85,1.34,1.25,2Zm-2.62-4v-1c-.48-.67-1-1.32-1.49-2v1c.51.65,1,1.31,1.49,2Zm-3.09-3.89v-1c-.54-.64-1.11-1.27-1.7-1.89v1c.59.62,1.16,1.25,1.7,1.88ZM481,119.79v-1c-.62-.61-1.26-1.21-1.92-1.81v1c.66.59,1.3,1.2,1.92,1.81Zm-3.93-3.58v-1c-.69-.58-1.39-1.16-2.11-1.73v1c.72.57,1.42,1.14,2.11,1.73Zm-4.33-3.43v-1q-1.14-.84-2.31-1.65v1c.78.54,1.55,1.09,2.31,1.64ZM468,109.55v-1c-.82-.53-1.65-1-2.5-1.56v1c.85.51,1.68,1,2.5,1.56Zm-5.08-3.06v-1c-.87-.49-1.76-1-2.66-1.45v1c.9.47,1.79.95,2.66,1.45Zm-5.42-2.86v-1c-.93-.46-1.87-.91-2.83-1.35v1c1,.44,1.9.89,2.83,1.35ZM495.18,142v-1c-.15-.73-.32-1.46-.51-2.18v1q.29,1.1.51,2.19ZM494,137.65V136.6c-.23-.71-.49-1.42-.76-2.13v1c.27.71.53,1.42.76,2.14Zm-3.81-8.39v-1c-.4-.68-.82-1.35-1.25-2v1c.43.67.85,1.35,1.25,2Zm-2.62-4v-1c-.48-.66-1-1.32-1.49-2v1c.51.65,1,1.3,1.49,2Zm-3.09-3.89v-1c-.54-.64-1.11-1.26-1.7-1.89v1c.59.62,1.16,1.25,1.7,1.88ZM481,117.61v-1c-.62-.61-1.26-1.21-1.92-1.81v1c.66.59,1.3,1.2,1.92,1.81ZM477.06,114v-1c-.69-.58-1.39-1.15-2.11-1.72v1c.72.57,1.42,1.15,2.11,1.73Zm-14.12-9.72v-1c-.87-.49-1.76-1-2.66-1.45v1c.9.47,1.79,1,2.66,1.45Zm-5.42-2.86v-1c-.93-.46-1.87-.91-2.83-1.35v1c1,.44,1.9.89,2.83,1.35Zm37.66,38.36v-1c-.15-.74-.32-1.46-.51-2.19v1c.19.72.36,1.45.51,2.18ZM494,135.45v-1c-.23-.72-.49-1.43-.76-2.14v1c.27.7.53,1.42.76,2.13Zm-6.43-12.4v-1c-.48-.66-1-1.32-1.49-2v1c.51.65,1,1.31,1.49,2Zm-3.09-3.89v-1c-.54-.63-1.11-1.26-1.7-1.88v1c.59.62,1.16,1.25,1.7,1.89ZM481,115.41v-1c-.62-.61-1.26-1.22-1.92-1.81v1c.66.6,1.3,1.2,1.92,1.81Zm-3.93-3.58v-1c-.69-.59-1.39-1.16-2.11-1.73v1c.72.56,1.42,1.14,2.11,1.72Zm-14.12-9.72v-1c-.87-.49-1.76-1-2.66-1.45v1c.9.48,1.79,1,2.66,1.45Zm-5.42-2.86v-1c-.93-.46-1.87-.91-2.83-1.35v1c1,.44,1.9.89,2.83,1.34Zm37.66,38.38v-1c-.15-.73-.32-1.46-.51-2.18v1c.19.72.36,1.45.51,2.18ZM494,133.28v-1.05c-.23-.71-.49-1.43-.76-2.13v1c.27.71.53,1.42.76,2.14ZM484.5,117v-1c-.54-.64-1.11-1.27-1.7-1.89v1c.59.63,1.16,1.26,1.7,1.89ZM481,113.23v-1c-.62-.61-1.26-1.21-1.92-1.81v1c.66.6,1.3,1.2,1.92,1.81Zm-3.93-3.57v-1c-.69-.58-1.39-1.16-2.11-1.73v1.05c.72.57,1.42,1.14,2.11,1.73Zm-43.8-18v-6.1a173.51,173.51,0,0,0-29.89-5.35v6.1a173.51,173.51,0,0,1,29.89,5.35ZM399.46,86v-6.1q-5.81-.42-11.79-.48-4.4,0-8.72.11v6.1q4.32-.15,8.72-.11,6,.06,11.79.48Zm95.72,49.43v-1c-.15-.73-.32-1.46-.51-2.18v1c.19.72.36,1.45.51,2.18ZM494,131.08v-1c-.23-.71-.49-1.42-.76-2.13v1c.27.71.53,1.42.76,2.14Zm-9.52-16.29v-1c-.54-.64-1.11-1.26-1.7-1.89v1c.59.62,1.16,1.25,1.7,1.89ZM481,111v-1c-.62-.61-1.26-1.21-1.92-1.81v1c.66.6,1.3,1.2,1.92,1.81Zm14.19,22.22v-1c-.15-.74-.32-1.46-.51-2.19v1c.19.72.36,1.45.51,2.18ZM484.5,112.61v-1c-.54-.63-1.11-1.26-1.7-1.88v1c.59.62,1.16,1.25,1.7,1.89ZM481,108.86v-1c-.62-.61-1.26-1.22-1.92-1.81v1c.66.6,1.3,1.2,1.92,1.81Zm9.22,18.2v-11.3c-.4-.68-.82-1.35-1.25-2V125c.43.67.85,1.34,1.25,2ZM443,85.33V79.25a166.74,166.74,0,0,0-39.67-8.4v6.08A167.23,167.23,0,0,1,443,85.33Zm-43.58-8.72V70.53q-5.81-.42-11.79-.48A188.58,188.58,0,0,0,356,72.37v6.08a188.6,188.6,0,0,1,31.65-2.31q6,.06,11.79.47ZM468,97.6v-8c-.82-.52-1.65-1-2.5-1.55v17.74c.85.51,1.68,1,2.5,1.56V97.6Zm19.57,23.27v-14c-.48-.66-1-1.32-1.49-2v14c.51.65,1,1.31,1.49,2Zm4.77,12.53V114.78c-.31-.7-.65-1.4-1-2.09v18.63c.36.69.7,1.38,1,2.08ZM462.94,99.7V83.42c-.87-.5-1.76-1-2.66-1.46V98.25c.9.48,1.79,1,2.66,1.45Zm21.56,10.62V98.55c-.54-.63-1.11-1.26-1.7-1.88v11.77c.59.62,1.16,1.25,1.7,1.88Zm-11.77.28V87.8c-.76-.55-1.53-1.1-2.31-1.64V109c.78.54,1.55,1.09,2.31,1.64ZM494,127.88V114.27c-.23-.71-.49-1.43-.76-2.13v14.63c.27.7.53,1.42.76,2.13v-1Zm-17-20.42V89.64c-.69-.58-1.39-1.16-2.11-1.72v17.81c.72.57,1.42,1.15,2.11,1.73ZM446.74,77.29V71.21c-.95-.37-1.91-.72-2.89-1.07v6.08c1,.35,1.94.71,2.89,1.07Zm-5.55-2V69.22l-3-1v6.08l3,1Zm-5.79-1.8V67.41l-3.09-.86v6.09c1,.27,2.07.56,3.09.86Zm-6-1.61V65.81l-3.19-.76v6.09c1.07.24,2.14.49,3.19.75Zm-6.8-1.53V64.28a180.53,180.53,0,0,0-19.26-2.83v6.09a178,178,0,0,1,19.26,2.82Zm-23.17-3.14V61.14q-5.81-.42-11.79-.48a192.24,192.24,0,0,0-20.55.89v6.08a192.24,192.24,0,0,1,20.55-.89q6,.06,11.79.48Zm95.72,63.59V114.64c-.15-.74-.32-1.46-.51-2.19v16.18c.19.72.36,1.45.51,2.18Zm-37.66-34V74.08c-.93-.46-1.87-.91-2.83-1.35V95.5c1,.44,1.9.88,2.83,1.34ZM481,106.58V89.73c-.62-.61-1.26-1.21-1.92-1.81v16.85c.66.59,1.3,1.2,1.92,1.81ZM349,57.18a185.63,185.63,0,0,1,38.68-3.59c59.55.59,107.23,28.18,108.24,62.07v39c-1-33.89-48.69-61.47-108.24-62.07A185.62,185.62,0,0,0,349,96.2v-39Z"/><path class="cls-6" d="M494.67,112.45c.19.73.36,1.45.51,2.19v16.17c-.15-.73-.32-1.46-.51-2.18V112.45Z"/><path class="cls-6" d="M494.67,130.05c.19.73.36,1.45.51,2.19v1c-.15-.73-.32-1.46-.51-2.18v-1Z"/><path class="cls-6" d="M494.67,132.23c.19.72.36,1.45.51,2.18v1c-.15-.73-.32-1.46-.51-2.18v-1Z"/><path class="cls-6" d="M494.67,134.41c.19.72.36,1.45.51,2.18v1c-.15-.73-.32-1.46-.51-2.18v-1Z"/><path class="cls-6" d="M494.67,136.6c.19.73.36,1.45.51,2.19v1c-.15-.73-.32-1.46-.51-2.18v-1Z"/><path class="cls-6" d="M494.67,138.78c.19.72.36,1.45.51,2.18v1q-.23-1.09-.51-2.19v-1Z"/><path class="cls-6" d="M494.67,141c.19.72.36,1.45.51,2.18v1c-.15-.74-.32-1.46-.51-2.19v-1Z"/><path class="cls-6" d="M494,127.88v1c-.23-.71-.49-1.43-.76-2.13v-.26c.27.71.53,1.42.76,2.14v-.77Z"/><path class="cls-6" d="M493.26,127.92c.27.71.53,1.42.76,2.13v1c-.23-.72-.49-1.43-.76-2.14v-1Z"/><path class="cls-6" d="M493.26,130.1c.27.7.53,1.42.76,2.13v1.05c-.23-.72-.49-1.43-.76-2.14v-1Z"/><path class="cls-6" d="M493.26,132.29c.27.71.53,1.42.76,2.14v1c-.23-.71-.49-1.43-.76-2.13v-1Z"/><path class="cls-6" d="M493.26,134.47c.27.71.53,1.42.76,2.13v1.05c-.23-.72-.49-1.43-.76-2.14v-1Z"/><path class="cls-6" d="M493.26,136.66c.27.71.53,1.42.76,2.14v1c-.23-.72-.49-1.43-.76-2.14v-1Z"/><path class="cls-6" d="M489,126.19c.43.67.85,1.34,1.25,2v1c-.4-.68-.82-1.36-1.25-2v-1Z"/><path class="cls-6" d="M489,128.39c.43.66.85,1.34,1.25,2v1c-.4-.68-.82-1.35-1.25-2v-1Z"/><path class="cls-6" d="M491.35,132.47c.36.69.7,1.39,1,2.08v1c-.31-.7-.65-1.39-1-2.08v-1Z"/><path class="cls-6" d="M486.1,120.05c.51.65,1,1.31,1.49,2v1c-.48-.66-1-1.32-1.49-2v-1Z"/><path class="cls-6" d="M486.1,122.23c.51.65,1,1.31,1.49,2v1c-.48-.66-1-1.31-1.49-2v-1Z"/><path class="cls-6" d="M486.1,124.43c.51.65,1,1.3,1.49,2v1c-.48-.66-1-1.32-1.49-2v-1Z"/><path class="cls-6" d="M482.8,109.7c.59.62,1.16,1.25,1.7,1.88v1c-.54-.64-1.11-1.27-1.7-1.89v-1Z"/><path class="cls-6" d="M482.8,111.87c.59.63,1.16,1.25,1.7,1.89v1c-.54-.64-1.11-1.27-1.7-1.89v-1Z"/><path class="cls-6" d="M482.8,114.05c.59.62,1.16,1.25,1.7,1.89v1c-.54-.63-1.11-1.26-1.7-1.89v-1Z"/><path class="cls-6" d="M482.8,116.25c.59.62,1.16,1.25,1.7,1.88v1c-.54-.64-1.11-1.27-1.7-1.89v-1Z"/><path class="cls-6" d="M482.8,118.42c.59.63,1.16,1.25,1.7,1.89v1c-.54-.63-1.11-1.26-1.7-1.88v-1Z"/><path class="cls-6" d="M482.8,120.62c.59.62,1.16,1.25,1.7,1.89v1c-.54-.63-1.11-1.26-1.7-1.88v-1Z"/><path class="cls-6" d="M479.07,106c.66.59,1.3,1.2,1.92,1.81v1c-.62-.61-1.26-1.21-1.92-1.81v-1Z"/><path class="cls-6" d="M479.07,108.2c.66.6,1.3,1.2,1.92,1.81v1c-.62-.61-1.26-1.21-1.92-1.81v-1Z"/><path class="cls-6" d="M479.07,110.38c.66.6,1.3,1.2,1.92,1.81v1c-.62-.61-1.26-1.21-1.92-1.81v-1Z"/><path class="cls-6" d="M479.07,112.58c.66.59,1.3,1.2,1.92,1.81v1c-.62-.61-1.26-1.21-1.92-1.81v-1Z"/><path class="cls-6" d="M479.07,114.75c.66.6,1.3,1.2,1.92,1.81v1c-.62-.61-1.26-1.22-1.92-1.81v-1Z"/><path class="cls-6" d="M479.07,117c.66.6,1.3,1.2,1.92,1.81v1c-.62-.61-1.26-1.22-1.92-1.81v-1Z"/><path class="cls-6" d="M475,106.88c.72.57,1.42,1.15,2.11,1.73v1c-.69-.59-1.39-1.16-2.11-1.73v-1.05Z"/><path class="cls-6" d="M475,109.08c.72.57,1.42,1.14,2.11,1.73v1c-.69-.58-1.39-1.16-2.11-1.73v-1Z"/><path class="cls-6" d="M475,111.26c.72.57,1.42,1.14,2.11,1.72v1c-.69-.58-1.39-1.16-2.11-1.73v-1Z"/><path class="cls-6" d="M475,113.45c.72.57,1.42,1.15,2.11,1.73v1c-.69-.59-1.39-1.16-2.11-1.73v-1Z"/><path class="cls-6" d="M470.42,110.11q1.17.81,2.31,1.65v1c-.76-.55-1.53-1.1-2.31-1.64v-1Z"/><path class="cls-6" d="M468,106.32v1.05c-.82-.53-1.65-1.05-2.5-1.56V105c.85.51,1.68,1,2.5,1.56v-.24Z"/><path class="cls-6" d="M465.52,107c.85.51,1.68,1,2.5,1.56v1c-.82-.53-1.65-1-2.5-1.56v-1Z"/><path class="cls-6" d="M460.28,99.64c.9.47,1.79,1,2.66,1.45v1c-.87-.49-1.76-1-2.66-1.45v-1Z"/><path class="cls-6" d="M460.28,101.81c.9.48,1.79,1,2.66,1.45v1c-.87-.49-1.76-1-2.66-1.45v-1Z"/><path class="cls-6" d="M460.28,104c.9.48,1.79,1,2.66,1.45v1c-.87-.5-1.76-1-2.66-1.45v-1Z"/><path class="cls-6" d="M454.69,96.88c1,.44,1.9.89,2.83,1.35v1c-.93-.45-1.87-.9-2.83-1.34v-1Z"/><path class="cls-6" d="M454.69,99.06c1,.44,1.9.89,2.83,1.35v1c-.93-.46-1.87-.91-2.83-1.35v-1Z"/><path class="cls-6" d="M454.69,101.25c1,.44,1.9.89,2.83,1.35v1c-.93-.46-1.87-.91-2.83-1.35v-1Z"/><path class="cls-6" d="M493.26,112.14c.27.7.53,1.42.76,2.13v14.38c-.23-.72-.49-1.43-.76-2.14V112.14Z"/><path class="cls-6" d="M491.35,112.69c.36.69.7,1.39,1,2.09V133.4c-.31-.7-.65-1.39-1-2.08V112.69Z"/><path class="cls-6" d="M489,113.74c.43.67.85,1.34,1.25,2v11.3c-.4-.68-.82-1.35-1.25-2v-11.3Z"/><path class="cls-6" d="M486.1,104.9c.51.65,1,1.31,1.49,2v14c-.48-.66-1-1.32-1.49-2v-14Z"/><path class="cls-6" d="M482.8,96.67c.59.62,1.16,1.25,1.7,1.88v11.77c-.54-.63-1.11-1.26-1.7-1.88V96.67Z"/><path class="cls-6" d="M479.07,87.92c.66.6,1.3,1.2,1.92,1.81v16.85c-.62-.61-1.26-1.22-1.92-1.81V87.92Z"/><path class="cls-6" d="M475,87.92c.72.56,1.42,1.14,2.11,1.72v17.82c-.69-.58-1.39-1.16-2.11-1.73V87.92Z"/><path class="cls-6" d="M470.42,86.16c.78.54,1.55,1.09,2.31,1.64v22.8c-.76-.55-1.53-1.1-2.31-1.64V86.16Z"/><path class="cls-6" d="M465.52,88.07c.85.51,1.68,1,2.5,1.55v16.94c-.82-.53-1.65-1-2.5-1.56V88.07Z"/><path class="cls-6" d="M460.28,82c.9.48,1.79,1,2.66,1.46V99.7c-.87-.49-1.76-1-2.66-1.45V82Z"/><path class="cls-6" d="M454.69,72.73c1,.44,1.9.89,2.83,1.35V96.84c-.93-.46-1.87-.9-2.83-1.34V72.73Z"/><path class="cls-16" d="M399.46,65V63.26q-5.81-.42-11.79-.48c-1.51,0-3,0-4.52,0v1.69c1.5,0,3,0,4.52,0,4,0,7.92.21,11.79.48Zm-32.34-3.4a192.24,192.24,0,0,1,20.55-.89q6,.06,11.79.48v6.08q-5.81-.42-11.79-.48a192.24,192.24,0,0,0-20.55.89V61.55Z"/><path class="cls-16" d="M399.46,74.42v-1.7q-5.81-.41-11.79-.47-5.25-.06-10.38.17v1.69c3.42-.15,6.88-.2,10.38-.17q6,.06,11.79.48Zm-43.44-2a188.58,188.58,0,0,1,31.65-2.32q6,.06,11.79.48v6.08q-5.81-.4-11.79-.47A188.6,188.6,0,0,0,356,78.45V72.37Z"/><path class="cls-16" d="M399.46,83.88V82.19q-4.81-.34-9.75-.44v1.69q4.94.09,9.75.44ZM379,79.54q4.32-.15,8.72-.11,6,.06,11.79.48V86q-5.81-.42-11.79-.48-4.4,0-8.72.11v-6.1Z"/><path class="cls-6" d="M403.37,80.23a173.51,173.51,0,0,1,29.89,5.35v6.1a173.51,173.51,0,0,0-29.89-5.35v-6.1Z"/><path class="cls-6" d="M403.37,70.85A166.74,166.74,0,0,1,443,79.25v6.08a167.23,167.23,0,0,0-39.67-8.4V70.85Z"/><path class="cls-6" d="M403.37,61.45a180.53,180.53,0,0,1,19.26,2.83v6.08a178,178,0,0,0-19.26-2.82V61.45Z"/><path class="cls-6" d="M426.24,65.05l3.19.76v6.08c-1.05-.26-2.12-.51-3.19-.75V65.05Z"/><path class="cls-6" d="M432.31,66.55l3.09.86V73.5c-1-.3-2-.59-3.09-.86V66.55Z"/><path class="cls-6" d="M438.19,68.25l3,1V75.3l-3-1V68.25Z"/><path class="cls-6" d="M443.85,70.14c1,.35,1.94.7,2.89,1.07v6.08c-.95-.36-1.91-.72-2.89-1.07V70.14Z"/><path class="cls-6" d="M383.15,62.79c1.5,0,3,0,4.52,0q6,.06,11.79.48V65c-3.87-.27-7.8-.44-11.79-.48-1.51,0-3,0-4.52,0V62.79Z"/><path class="cls-6" d="M377.29,72.42q5.13-.23,10.38-.17,6,.06,11.79.47v1.7q-5.81-.42-11.79-.48c-3.5,0-7,0-10.38.17V72.42Z"/><path class="cls-6" d="M389.71,81.75q4.94.09,9.75.44v1.69q-4.81-.34-9.75-.44V81.75Z"/><path class="cls-15" d="M305.33,93.08c2.57-1.72,3.11-5.63,1.32-6-2-.45-4.52,3.83-3.34,5.81.39.66,1.17.74,2,.22Zm-26,23c1.11-2.53,1.26-6.6.45-6.3s-1.82,6.53-1,6.89c.09,0,.28,0,.56-.59Zm-3.78,34.81c0-.38,0-.75,0-1.13.56-18.35,14.71-34.74,36.84-46.06l.24.29.56-.7h0l.55-.69c-6.6-7.95-8.17-9.84-12.2-2.47-1.86,3.63-3.56,5.11-5,4.37C288.17,99,288.17,99,286,105.61c-3.72,12.59-3.72,12.59-4.77,13-1.29.39-2,.61-2.88,5-1.59,9.81-1.59,9.81-2.05,14.38a19.8,19.8,0,0,1-.52,3.34l-.15-.33v9.82Zm0,4.95v-39c0-.37,0-.75,0-1.12.63-20.7,18.54-38.9,45.7-50.15v39c-30.22,13.57-45.6,30.82-45.71,51.28Z"/><path class="cls-17" d="M313.24,103.26ZM291.59,114.9v-1.69c-.4.37-.79.74-1.17,1.12V116c.38-.38.77-.75,1.17-1.12Zm0-3.33v-1.71a62.71,62.71,0,0,0-6.4,7v1.71a62.71,62.71,0,0,1,6.4-7Zm-16,39.29V143l.1.27a32.94,32.94,0,0,0,.69-4.51c.65-6,1.13-8.65,2.18-14.5.67-3.25,1.06-3.38,2.35-3.81,1.13-.56,1.13-.56,5.6-14.41,1.67-4.84,1.67-4.84,9.31.12,1.33.67,3.56.25,6.59-5.48,3-5.45,3.67-4.64,10,3-22.13,11.32-36.28,27.71-36.84,46.06,0,.38,0,.75,0,1.13Z"/><path class="cls-6" d="M275.58,143l.1.27a32.94,32.94,0,0,0,.69-4.51c.65-6,1.13-8.65,2.18-14.5.66-3.2,1-3.33,2.35-3.81,1.13-.56,1.13-.56,5.6-14.41,1.67-4.84,1.67-4.84,9.31.12,1.33.67,3.56.25,6.59-5.48,3-5.45,3.67-4.64,10,3l.24.29.56-.7h0l.55-.69c-1.49-1.79-3.47-4.17-4.94-6-.36-.38-3.7-3.46-7.84,4.63-2.5,4.61-2.5,4.61-10.43-.68-3-1.5-4.8,5-7.25,14-1.06,3.71-1.72,3.93-3,4.38-1,.55-2,1.11-4,18.72a30.93,30.93,0,0,1-.49,3.65l-.23-.22V143Z"/><path class="cls-6" d="M279.36,110.33c.5-1,.74-.54.84-.2.56,1.83-.74,6.81-1.4,6.51s-.23-4.64.56-6.31Z"/><path class="cls-6" d="M305.33,87.36c1.91-1,2.8.6,2.19,2.68-.76,2.59-3.32,4.31-4.21,2.82s.28-4.44,2-5.5Z"/><path class="cls-6" d="M285.19,116.82a62.71,62.71,0,0,1,6.4-7v1.71a62.71,62.71,0,0,0-6.4,7v-1.71Z"/><path class="cls-6" d="M290.42,114.33c.38-.38.77-.75,1.17-1.12v1.69c-.4.37-.79.74-1.17,1.12v-1.69Z"/><g class="cls-1"><g class="cls-1"><path class="cls-15" d="M288.3,180.34v-27a81.63,81.63,0,0,0,19,14.88v27a81.1,81.1,0,0,1-19-14.88Zm-6.18-34.1v26.1a39.92,39.92,0,0,1-6.54-21.48V141c0-.12.09-.27.12-.39.39-1.65.79-3.36,1.35-3.93.23.14.73.43,1.62,4.4a10.25,10.25,0,0,0,.71,2.29c.28.57.51.83.78.9l1.8.15.33,1.79Zm38.2,60.39v-39c-27.18-11.53-44.74-30-44.74-50.83v39c1.52,21.69,15.32,37.36,44.74,50.82Z"/><path class="cls-17" d="M276.36,154.49V152.8a41.19,41.19,0,0,0,3.76,10.43v1.69a41.05,41.05,0,0,1-3.76-10.43Zm0-3.33v-1.69a39.29,39.29,0,0,0,2.5,7.77v1.69a39.29,39.29,0,0,1-2.5-7.77Zm5.76,21.18v-26.1l-1.68-.13c-.32-.12-1.18-.44-2-4.28-.56-2.63-.91-3-1.12-3.27-.26.15-.75.94-1.54,3.92l-.19.48v7.9a39.92,39.92,0,0,0,6.54,21.48Z"/><path class="cls-6" d="M282.12,146.24l-1.68-.13c-.94-.22-1.61-2.45-2-4.28-1-4.73-1.38-4.15-2.66.65a3,3,0,0,1-.19.48V141l.09-.27a.08.08,0,0,1,0-.05,13.17,13.17,0,0,1,1.17-3.81c.57-.9,1.44,2.63,1.7,3.73a9.39,9.39,0,0,0,1.21,3.41c.22.24.22.24,2.19.41l.33,1.79Z"/><path class="cls-15" d="M355.42,211.6v-2.12c1.21.2,2.43.39,3.66.56v2.12c-1.23-.17-2.45-.36-3.66-.56Zm7.37,1.05v-2.12c1.26.15,2.52.29,3.79.42v2.12c-1.27-.12-2.53-.26-3.79-.42Zm7.59.77v-2.13c1.28.11,2.56.2,3.85.27v2.13c-1.29-.08-2.57-.17-3.85-.27Zm7.76.46v-2.12c1.3.05,2.61.09,3.93.11V214c-1.32,0-2.63-.06-3.93-.11ZM386,214v-2.12c1.32,0,2.63,0,3.93,0V214c-1.3,0-2.61.05-3.93.05Zm7.85-.17v-2.12c1.29-.06,2.58-.12,3.86-.2v2.12c-1.28.08-2.57.15-3.86.2Zm7.67-.47v-2.13c1.28-.1,2.55-.22,3.81-.35V213q-1.89.19-3.81.36Zm7.54-.78v-2.12c1.24-.16,2.47-.32,3.69-.5v2.13c-1.22.17-2.45.34-3.69.49Zm7.35-1.06v-2.13c1.21-.2,2.4-.41,3.59-.63v2.12c-1.19.22-2.38.44-3.59.64Zm7.13-1.34v-2.12l3.48-.77v2.12c-1.15.27-2.31.52-3.48.77Zm6.93-1.61v-2.12c1.13-.29,2.25-.59,3.37-.9v2.12c-1.12.31-2.24.61-3.37.9Zm6.67-1.86v-2.12l3.26-1v2.12c-1.08.36-2.16.7-3.26,1Zm6.43-2.11v-2.12c1-.37,2.08-.76,3.1-1.15v2.13c-1,.39-2.06.77-3.1,1.14Zm6.15-2.35v-2.12c1-.41,2-.83,2.95-1.26V201c-1,.43-1.95.84-2.95,1.25Zm5.83-2.56v-2.13c.95-.44,1.88-.89,2.8-1.36v2.13c-.92.46-1.85.91-2.8,1.36Zm5.54-2.79v-2.12q1.33-.72,2.64-1.47v2.13c-.87.49-1.75,1-2.64,1.46Zm5.19-3v-2.12c.84-.52,1.66-1,2.47-1.58v2.13c-.81.53-1.63,1.05-2.47,1.57Zm4.85-3.18v-2.13c.77-.54,1.53-1.09,2.27-1.65v2.12c-.74.56-1.5,1.11-2.27,1.66Zm4.46-3.36v-2.12c.71-.58,1.41-1.16,2.09-1.76v2.13c-.68.59-1.38,1.17-2.09,1.75Zm4.08-3.54v-2.12c.64-.6,1.27-1.21,1.88-1.83v2.13c-.61.61-1.24,1.22-1.88,1.82Zm3.67-3.7v-2.12c.57-.63,1.13-1.26,1.67-1.9v2.12c-.54.64-1.1,1.27-1.67,1.9Zm3.23-3.84v-2.12c.5-.66,1-1.32,1.46-2v2.13c-.47.66-1,1.32-1.46,2Zm2.79-4v-2.13c.43-.67.83-1.35,1.22-2v2.13c-.39.68-.79,1.36-1.22,2Zm2.32-4.11V166.1c.34-.7.67-1.4,1-2.11v2.12c-.31.71-.64,1.42-1,2.12Zm1.83-4.25v-2.12c.27-.71.51-1.43.73-2.16v2.13c-.22.72-.46,1.44-.73,2.15Zm1.33-4.35v-2.12c.18-.73.33-1.47.47-2.21v2.12c-.14.74-.29,1.48-.47,2.21ZM355.42,207.79v-2.13q1.81.3,3.66.57v2.12c-1.23-.18-2.45-.36-3.66-.56Zm7.37,1.05v-2.12c1.26.15,2.52.29,3.79.41v2.13c-1.27-.13-2.53-.27-3.79-.42Zm7.59.76v-2.12c1.28.1,2.56.19,3.85.27v2.12c-1.29-.08-2.57-.17-3.85-.27Zm7.76.46v-2.12c1.3.05,2.61.09,3.93.11v2.13c-1.32,0-2.63-.06-3.93-.12Zm7.88.15v-2.12c1.32,0,2.63,0,3.93,0v2.12c-1.3,0-2.61,0-3.93,0Zm7.85-.16v-2.13c1.29,0,2.58-.12,3.86-.2v2.13c-1.28.08-2.57.14-3.86.2Zm7.67-.48v-2.12q1.92-.16,3.81-.36v2.13c-1.26.13-2.53.25-3.81.35Zm7.54-.78v-2.12c1.24-.15,2.47-.32,3.69-.49v2.12c-1.22.18-2.45.34-3.69.49Zm7.35-1.06v-2.12c1.21-.2,2.4-.41,3.59-.64v2.13c-1.19.22-2.38.43-3.59.63Zm7.13-1.34v-2.12c1.17-.25,2.33-.5,3.48-.77v2.12c-1.15.27-2.31.53-3.48.77Zm6.93-1.61v-2.12c1.13-.29,2.25-.59,3.37-.9v2.13c-1.12.31-2.24.61-3.37.89Zm6.67-1.85V200.8c1.1-.33,2.18-.67,3.26-1v2.13l-3.26,1Zm6.43-2.12v-2.12c1-.37,2.08-.75,3.1-1.14v2.12c-1,.39-2.06.77-3.1,1.14Zm6.15-2.34v-2.13c1-.41,2-.82,2.95-1.25v2.12c-1,.43-1.95.85-2.95,1.26Zm5.83-2.57v-2.12c.95-.45,1.88-.9,2.8-1.36v2.12c-.92.46-1.85.92-2.8,1.36Zm5.54-2.78V191c.89-.48,1.77-1,2.64-1.46v2.12q-1.31.75-2.64,1.47Zm5.19-3V188c.84-.51,1.66-1,2.47-1.57v2.12c-.81.53-1.63,1.06-2.47,1.58Zm4.85-3.19v-2.12c.77-.55,1.53-1.1,2.27-1.66v2.13c-.74.55-1.5,1.11-2.27,1.65Zm4.46-3.35v-2.13c.71-.58,1.41-1.16,2.09-1.75v2.12c-.68.59-1.38,1.18-2.09,1.76Zm4.08-3.54v-2.13c.64-.6,1.27-1.21,1.88-1.82v2.12c-.61.62-1.24,1.22-1.88,1.83Zm3.67-3.7v-2.13c.57-.63,1.13-1.26,1.67-1.9v2.12c-.54.64-1.1,1.28-1.67,1.91Zm3.23-3.84v-2.13c.5-.65,1-1.32,1.46-2v2.12c-.47.67-1,1.33-1.46,2Zm2.79-4V166.4c.43-.68.83-1.36,1.22-2v2.12c-.39.69-.79,1.37-1.22,2Zm2.32-4.11v-2.12c.34-.7.67-1.41,1-2.12v2.13c-.31.71-.64,1.41-1,2.11Zm1.83-4.24V158c.27-.71.51-1.43.73-2.15V158c-.22.72-.46,1.44-.73,2.16Zm1.33-4.35v-2.13c.18-.73.33-1.47.47-2.21v2.13c-.14.74-.29,1.47-.47,2.21ZM355.42,204v-2.12c1.21.2,2.43.39,3.66.56v2.12c-1.23-.17-2.45-.36-3.66-.56Zm7.37,1.05V202.9c1.26.15,2.52.29,3.79.42v2.12c-1.27-.12-2.53-.26-3.79-.42Zm7.59.77v-2.13c1.28.11,2.56.2,3.85.27v2.13c-1.29-.08-2.57-.17-3.85-.27Zm7.76.46v-2.12c1.3.05,2.61.09,3.93.11v2.12c-1.32,0-2.63-.06-3.93-.11Zm7.88.15v-2.12c1.32,0,2.63,0,3.93-.05v2.12c-1.3,0-2.61.05-3.93.05Zm7.85-.17v-2.12c1.29-.06,2.58-.12,3.86-.2V206c-1.28.08-2.57.15-3.86.2Zm7.67-.47v-2.13c1.28-.1,2.55-.22,3.81-.35v2.12q-1.89.19-3.81.36Zm7.54-.78v-2.12c1.24-.16,2.47-.32,3.69-.5v2.13c-1.22.17-2.45.34-3.69.49Zm7.35-1.06v-2.13c1.21-.2,2.4-.41,3.59-.63v2.12c-1.19.22-2.38.44-3.59.64Zm7.13-1.34v-2.13c1.17-.24,2.33-.5,3.48-.76v2.12c-1.15.27-2.31.52-3.48.77Zm6.93-1.61v-2.12c1.13-.29,2.25-.59,3.37-.9v2.12c-1.12.31-2.24.61-3.37.9Zm6.67-1.86V197l3.26-1v2.12c-1.08.35-2.16.7-3.26,1Zm6.43-2.11v-2.12c1-.37,2.08-.76,3.1-1.15v2.13c-1,.39-2.06.77-3.1,1.14Zm6.15-2.35v-2.12c1-.41,2-.83,2.95-1.26v2.13c-1,.43-1.95.84-2.95,1.25Zm5.83-2.56V190c.95-.44,1.88-.89,2.8-1.36v2.13c-.92.46-1.85.91-2.8,1.36Zm5.54-2.79v-2.12q1.33-.72,2.64-1.47v2.13c-.87.49-1.75,1-2.64,1.46Zm5.19-3V184.2c.84-.52,1.66-1,2.47-1.58v2.13c-.81.53-1.63,1.05-2.47,1.57Zm4.85-3.18V181c.77-.54,1.53-1.09,2.27-1.65v2.12c-.74.56-1.5,1.11-2.27,1.66Zm4.46-3.36v-2.12c.71-.58,1.41-1.16,2.09-1.76V178c-.68.59-1.38,1.17-2.09,1.75Zm4.08-3.54v-2.12c.64-.6,1.27-1.21,1.88-1.83v2.13c-.61.61-1.24,1.22-1.88,1.82Zm3.67-3.7v-2.12c.57-.63,1.13-1.26,1.67-1.9v2.12c-.54.64-1.1,1.27-1.67,1.9Zm3.23-3.84v-2.12c.5-.66,1-1.32,1.46-2v2.12c-.47.67-1,1.33-1.46,2Zm2.79-4v-2.13c.43-.67.83-1.35,1.22-2v2.13c-.39.68-.79,1.36-1.22,2Zm2.32-4.11v-2.13c.34-.7.67-1.4,1-2.11v2.12c-.31.71-.64,1.42-1,2.12Zm1.83-4.25v-2.12c.27-.71.51-1.43.73-2.16v2.13c-.22.72-.46,1.44-.73,2.15Zm1.33-4.35v-2.12c.18-.73.33-1.47.47-2.21v2.12c-.14.74-.29,1.48-.47,2.21Zm-78.43,48v-5c1.21-.2,2.4-.41,3.59-.64v5c-1.19.22-2.38.43-3.59.63Zm70.28-35.37v-5c.5-.65,1-1.31,1.44-2v5q-.69,1-1.44,2Zm-31.14,23.55v-5.49c.95-.45,1.88-.9,2.8-1.36v5.48c-.92.47-1.85.92-2.8,1.37Zm5.74-2.9v-5.49c.89-.48,1.77-1,2.63-1.47v5.49c-.86.5-1.74,1-2.63,1.47ZM409.08,201v-6.37c1.24-.16,2.47-.32,3.69-.5v6.37c-1.22.18-2.45.35-3.69.5Zm80.4-40.43v-6.37c.42-.67.82-1.36,1.21-2v6.37c-.39.69-.79,1.37-1.21,2Zm-65.92,38v-6.81c1.17-.24,2.33-.5,3.48-.76v6.8c-1.15.27-2.31.52-3.48.77Zm59.93-30.18v-6.81c.57-.62,1.13-1.26,1.66-1.9v6.8c-.53.64-1.09,1.28-1.66,1.91Zm-33.75,22.25V183.3c1-.41,2-.83,2.95-1.26v7.42c-1,.42-1.95.84-2.95,1.25Zm16.76-8.46v-7.41c.84-.52,1.65-1,2.46-1.57v7.42c-.81.53-1.62,1.05-2.46,1.56Zm-65,19.56v-8.38c1.28-.11,2.55-.22,3.81-.35v8.38c-1.26.13-2.53.25-3.81.35Zm90.24-45.33V148.1c.34-.7.67-1.4,1-2.11v8.39c-.3.71-.63,1.41-1,2.1ZM355.42,200V190.6c1.21.2,2.43.39,3.66.56v9.43c-1.23-.17-2.45-.36-3.66-.56Zm75.07-3v-9.88c1.13-.29,2.25-.59,3.37-.9v9.88c-1.12.31-2.24.61-3.37.9Zm49.35-24.87v-9.88c.64-.6,1.27-1.22,1.88-1.84v9.88c-.61.62-1.24,1.24-1.88,1.84Zm-36.25,20.9V182.64c1-.37,2.08-.75,3.1-1.14v10.42c-1,.39-2.06.77-3.1,1.14Zm27.73-14V168.65c.78-.55,1.54-1.1,2.29-1.67V177.4c-.75.57-1.51,1.12-2.29,1.67Zm-77.45,23.22V191.47c1.29-.05,2.58-.12,3.86-.2v10.82c-1.28.08-2.57.15-3.86.2Zm99.72-50V141.43c.26-.72.5-1.44.72-2.17v10.82c-.22.73-.46,1.45-.72,2.17Zm-130.8,48.83V188.16c1.26.15,2.52.29,3.79.42V201.5c-1.27-.13-2.53-.27-3.79-.42ZM386,202.46V189.54c1.32,0,2.63,0,3.93,0v12.92c-1.3,0-2.61.05-3.93.05Zm51.14-7.29V182.25c1.1-.33,2.18-.68,3.26-1v12.92c-1.08.35-2.16.7-3.26,1Zm38.62-19.47V162.78c.71-.58,1.4-1.16,2.08-1.75V174c-.68.59-1.37,1.17-2.08,1.75Zm19.12-27.81V135c.18-.73.33-1.47.46-2.21v12.92c-.13.74-.28,1.48-.46,2.21ZM378.14,202.31V187q2,.08,3.93.12v15.29c-1.32,0-2.63-.06-3.93-.11Zm-7.76-.46V185.06c1.28.1,2.56.19,3.85.26v16.79c-1.29-.07-2.57-.16-3.85-.26Zm125.5-83.37c-1.62,34.61-51.57,62.08-112,61.47a183.54,183.54,0,0,1-35.93-3.82v39A185.08,185.08,0,0,0,383.83,219c60.48.6,110.43-26.87,112.05-61.48v-39Z"/><path class="cls-6" d="M278.86,157.24a39.29,39.29,0,0,1-2.5-7.77v1.69a39.29,39.29,0,0,0,2.5,7.77v-1.69Z"/><path class="cls-6" d="M280.12,163.23a41.19,41.19,0,0,1-3.76-10.43v1.69a41.05,41.05,0,0,0,3.76,10.43v-1.69Z"/><path class="cls-17" d="M290.55,178.79V176c.55.54,1.12,1.08,1.7,1.62v2.75c-.58-.54-1.15-1.08-1.7-1.62ZM294,182v-2.76c.61.53,1.23,1,1.87,1.56v2.75c-.64-.51-1.26-1-1.87-1.55Zm3.82,3.08v-2.76c.66.5,1.33,1,2,1.49v2.75c-.69-.49-1.36-1-2-1.48ZM302,188v-2.75c.71.48,1.44,1,2.17,1.41v2.76c-.73-.47-1.46-.94-2.17-1.42Zm-11.43-14.73v-2.75c.55.54,1.12,1.08,1.7,1.62v2.75c-.58-.53-1.15-1.07-1.7-1.62Zm3.49,3.21v-2.75c.61.52,1.23,1,1.87,1.55v2.76c-.64-.52-1.26-1-1.87-1.56Zm3.82,3.08v-2.75c.66.5,1.33,1,2,1.48v2.76c-.69-.49-1.36-1-2-1.49Zm4.12,2.94v-2.76c.71.48,1.44.95,2.17,1.42v2.75c-.73-.46-1.46-.94-2.17-1.41Zm-11.43-14.73V165c.55.55,1.12,1.09,1.7,1.62v2.76c-.58-.54-1.15-1.08-1.7-1.62ZM294,171v-2.75c.61.53,1.23,1,1.87,1.56v2.75c-.64-.51-1.26-1-1.87-1.56Zm3.82,3.08v-2.75c.66.5,1.33,1,2,1.49v2.75c-.69-.49-1.36-1-2-1.49ZM302,177v-2.75c.71.47,1.44.95,2.17,1.41v2.75c-.73-.46-1.46-.93-2.17-1.41Zm-11.43-14.73v-2.76c.55.55,1.12,1.09,1.7,1.62v2.76c-.58-.54-1.15-1.08-1.7-1.62Zm3.49,3.21v-2.76c.61.53,1.23,1.05,1.87,1.56V167c-.64-.51-1.26-1-1.87-1.55Zm3.82,3.08V165.8c.66.5,1.33,1,2,1.49V170c-.69-.49-1.36-1-2-1.48Zm4.12,2.93v-2.75c.71.48,1.44.95,2.17,1.41v2.76c-.73-.47-1.46-.94-2.17-1.42Zm5.35-3.26a81.63,81.63,0,0,1-19-14.88v27a81.1,81.1,0,0,0,19,14.88v-27Z"/><path class="cls-18" d="M292.25,161.13c-.58-.53-1.15-1.07-1.7-1.62v2.76c.55.54,1.12,1.08,1.7,1.62v-2.76Z"/><path class="cls-6" d="M295.91,164.28c-.64-.51-1.26-1-1.87-1.56v2.76c.61.52,1.23,1,1.87,1.55v-2.75Z"/><path class="cls-18" d="M299.88,167.29c-.69-.49-1.36-1-2-1.49v2.76c.66.5,1.33,1,2,1.48v-2.75Z"/><path class="cls-18" d="M304.15,170.15c-.73-.46-1.46-.93-2.17-1.41v2.75c.71.48,1.44.95,2.17,1.42v-2.76Z"/><path class="cls-18" d="M292.25,166.64c-.58-.53-1.15-1.07-1.7-1.62v2.76c.55.54,1.12,1.08,1.7,1.62v-2.76Z"/><path class="cls-6" d="M295.91,169.79c-.64-.52-1.26-1-1.87-1.56V171c.61.53,1.23,1.05,1.87,1.56v-2.75Z"/><path class="cls-18" d="M299.88,172.8c-.69-.49-1.36-1-2-1.49v2.75c.66.5,1.33,1,2,1.49V172.8Z"/><path class="cls-18" d="M304.15,175.66c-.73-.46-1.46-.94-2.17-1.41V177c.71.48,1.44.95,2.17,1.41v-2.75Z"/><path class="cls-6" d="M292.25,172.15c-.58-.54-1.15-1.08-1.7-1.62v2.75c.55.55,1.12,1.09,1.7,1.62v-2.75Z"/><path class="cls-18" d="M295.91,175.29c-.64-.51-1.26-1-1.87-1.55v2.75c.61.53,1.23,1,1.87,1.56v-2.76Z"/><path class="cls-18" d="M299.88,178.3c-.69-.49-1.36-1-2-1.48v2.75c.66.5,1.33,1,2,1.49V178.3Z"/><path class="cls-6" d="M304.15,181.17c-.73-.47-1.46-.94-2.17-1.42v2.76c.71.47,1.44,1,2.17,1.41v-2.75Z"/><path class="cls-18" d="M292.25,177.66c-.58-.54-1.15-1.08-1.7-1.62v2.75c.55.54,1.12,1.08,1.7,1.62v-2.75Z"/><path class="cls-6" d="M295.91,180.8c-.64-.51-1.26-1-1.87-1.56V182c.61.52,1.23,1,1.87,1.55V180.8Z"/><path class="cls-18" d="M299.88,183.81c-.69-.49-1.36-1-2-1.49v2.76c.66.5,1.33,1,2,1.48v-2.75Z"/><path class="cls-18" d="M304.15,186.67c-.73-.46-1.46-.93-2.17-1.41V188c.71.48,1.44,1,2.17,1.42v-2.76Z"/><path class="cls-6" d="M359.08,191.16c-1.23-.17-2.45-.36-3.66-.56V200c1.21.2,2.43.39,3.66.56v-9.43Z"/><path class="cls-6" d="M366.58,188.58c-1.27-.13-2.53-.27-3.79-.42v12.92c1.26.15,2.52.29,3.79.42V188.58Z"/><path class="cls-6" d="M374.23,185.32c-1.29-.07-2.57-.16-3.85-.26v16.79c1.28.1,2.56.19,3.85.26V185.32Z"/><path class="cls-6" d="M382.07,187.13q-2,0-3.93-.12v15.3c1.3.05,2.61.09,3.93.11V187.13Z"/><path class="cls-6" d="M390,189.49c-1.3,0-2.61,0-3.93,0v12.92c1.32,0,2.63,0,3.93-.05V189.49Z"/><path class="cls-9" d="M397.73,191.27c-1.28.08-2.57.15-3.86.2v10.82c1.29,0,2.58-.12,3.86-.2V191.27Z"/><path class="cls-9" d="M405.35,193.08c-1.26.13-2.53.24-3.81.35v8.38c1.28-.1,2.55-.22,3.81-.35-1.26.13-2.53.25-3.81.35,1.28-.1,2.55-.22,3.81-.35v-8.38Z"/><path class="cls-11" d="M412.77,194.17c-1.22.18-2.45.34-3.69.5V201c1.24-.15,2.47-.32,3.69-.5v-6.37Z"/><path class="cls-11" d="M420,194.37c-1.19.23-2.38.44-3.59.64v5c1.21-.2,2.4-.41,3.59-.63v-5Z"/><path class="cls-19" d="M427,191.07c-1.15.26-2.31.52-3.48.76v6.81c1.17-.25,2.33-.5,3.48-.77v-6.8Z"/><path class="cls-19" d="M433.86,186.25c-1.12.31-2.24.61-3.37.9V197c1.13-.29,2.25-.59,3.37-.9v-9.88Z"/><path class="cls-17" d="M440.42,181.22c-1.08.35-2.16.7-3.26,1v12.92c1.1-.33,2.18-.68,3.26-1V181.22Z"/><path class="cls-17" d="M446.69,181.5c-1,.39-2.06.77-3.1,1.14v10.42c1-.37,2.08-.75,3.1-1.14V181.5Z"/><path class="cls-20" d="M452.69,182c-1,.43-1.95.85-2.95,1.26v7.41c1-.41,2-.83,2.95-1.25V182Z"/><path class="cls-20" d="M458.37,181.3c-.92.46-1.85.91-2.8,1.36v5.49c.95-.45,1.88-.9,2.8-1.37V181.3Z"/><path class="cls-6" d="M495.36,132.76c-.13.74-.28,1.48-.46,2.21v12.92c.18-.73.33-1.47.46-2.21V132.76Z"/><path class="cls-9" d="M494.31,139.26c-.22.73-.46,1.45-.72,2.17v10.82c.26-.72.5-1.44.72-2.17V139.26Z"/><path class="cls-9" d="M492.75,146c-.3.71-.63,1.41-1,2.11v8.38c.34-.69.67-1.39,1-2.1V146Z"/><path class="cls-11" d="M490.69,152.2c-.39.68-.79,1.37-1.21,2v6.37c.42-.67.82-1.35,1.21-2V152.2Z"/><path class="cls-11" d="M488.15,157.66c-.46.66-.94,1.32-1.44,2v5q.75-1,1.44-2v-5Z"/><path class="cls-19" d="M485.15,159.75c-.53.64-1.09,1.28-1.66,1.9v6.81c.57-.63,1.13-1.27,1.66-1.91v-6.8Z"/><path class="cls-19" d="M481.72,160.44c-.61.62-1.24,1.24-1.88,1.84v9.88c.64-.6,1.27-1.22,1.88-1.84v-9.88Z"/><path class="cls-17" d="M477.86,161c-.68.59-1.37,1.17-2.08,1.75V175.7c.71-.58,1.4-1.16,2.08-1.75V161Z"/><path class="cls-17" d="M473.61,167c-.75.57-1.51,1.12-2.29,1.67v10.42c.78-.55,1.54-1.1,2.29-1.67V167Z"/><path class="cls-20" d="M469,173.27c-.81.53-1.62,1-2.46,1.57v7.41c.84-.51,1.65-1,2.46-1.56v-7.42Z"/><path class="cls-20" d="M463.94,178.29c-.86.5-1.74,1-2.63,1.47v5.49c.89-.48,1.77-1,2.63-1.47v-5.49Z"/><path class="cls-6" d="M405.35,201.46c-1.26.13-2.53.25-3.81.35,1.28-.1,2.55-.22,3.81-.35Z"/><path class="cls-20" d="M359.08,202.41c-1.23-.17-2.45-.36-3.66-.56V204c1.21.2,2.43.39,3.66.56v-2.12Z"/><path class="cls-20" d="M374.23,203.93c-1.29-.07-2.57-.16-3.85-.27v2.13c1.28.1,2.56.19,3.85.27v-2.13Z"/><path class="cls-20" d="M382.07,204.24c-1.32,0-2.63-.06-3.93-.11v2.12c1.3.05,2.61.09,3.93.11v-2.12Z"/><path class="cls-20" d="M390,204.23c-1.3,0-2.61,0-3.93.05v2.12c1.32,0,2.63,0,3.93-.05v-2.12Z"/><path class="cls-20" d="M397.73,203.91c-1.28.08-2.57.14-3.86.2v2.12c1.29,0,2.58-.12,3.86-.2v-2.12Z"/><path class="cls-20" d="M412.77,202.36c-1.22.18-2.45.34-3.69.5V205c1.24-.15,2.47-.32,3.69-.49v-2.13Z"/><path class="cls-20" d="M420,201.16c-1.19.22-2.38.43-3.59.63v2.13c1.21-.2,2.4-.42,3.59-.64v-2.12Z"/><path class="cls-20" d="M427,199.69c-1.15.26-2.31.52-3.48.76v2.13c1.17-.25,2.33-.5,3.48-.77v-2.12Z"/><path class="cls-20" d="M433.86,198c-1.12.31-2.24.61-3.37.9V201c1.13-.29,2.25-.59,3.37-.9V198Z"/><path class="cls-20" d="M440.42,196l-3.26,1v2.12c1.1-.33,2.18-.68,3.26-1V196Z"/><path class="cls-20" d="M452.69,191.27c-1,.43-1.95.85-2.95,1.26v2.12c1-.41,2-.82,2.95-1.25v-2.13Z"/><path class="cls-20" d="M458.37,188.6c-.92.47-1.85.92-2.8,1.36v2.13c.95-.45,1.88-.9,2.8-1.36V188.6Z"/><path class="cls-20" d="M463.75,185.71q-1.31.75-2.64,1.47v2.12c.89-.48,1.77-1,2.64-1.46v-2.13Z"/><path class="cls-20" d="M468.77,182.62c-.81.54-1.63,1.06-2.47,1.58v2.12c.84-.52,1.66-1,2.47-1.57v-2.13Z"/><path class="cls-20" d="M473.42,179.36c-.74.56-1.5,1.11-2.27,1.65v2.13c.77-.55,1.53-1.1,2.27-1.66v-2.12Z"/><path class="cls-20" d="M477.7,175.9c-.68.6-1.38,1.18-2.09,1.76v2.12c.71-.58,1.41-1.16,2.09-1.75V175.9Z"/><path class="cls-20" d="M481.57,172.29c-.61.62-1.24,1.23-1.88,1.83v2.12c.64-.6,1.27-1.21,1.88-1.82v-2.13Z"/><path class="cls-20" d="M488.05,164.59c-.47.67-1,1.33-1.46,2v2.12c.5-.66,1-1.32,1.46-2v-2.12Z"/><path class="cls-20" d="M490.6,160.54c-.39.69-.79,1.37-1.22,2v2.13c.43-.68.83-1.36,1.22-2v-2.13Z"/><path class="cls-20" d="M492.68,156.36c-.31.71-.64,1.41-1,2.11v2.13c.34-.7.67-1.41,1-2.12v-2.12Z"/><path class="cls-20" d="M494.26,152.07c-.22.73-.46,1.45-.73,2.16v2.12c.27-.71.51-1.43.73-2.15v-2.13Z"/><path class="cls-20" d="M359.08,206.23q-1.84-.27-3.66-.57v2.13c1.21.2,2.43.38,3.66.56v-2.12Z"/><path class="cls-20" d="M366.58,207.13c-1.27-.12-2.53-.26-3.79-.41v2.12c1.26.15,2.52.29,3.79.42v-2.12Z"/><path class="cls-20" d="M374.23,207.75c-1.29-.08-2.57-.17-3.85-.27v2.12c1.28.1,2.56.19,3.85.27v-2.12Z"/><path class="cls-20" d="M382.07,208.05c-1.32,0-2.63-.06-3.93-.11v2.12c1.3.06,2.61.09,3.93.12v-2.13Z"/><path class="cls-20" d="M390,208.05c-1.3,0-2.61,0-3.93,0v2.12c1.32,0,2.63,0,3.93,0v-2.12Z"/><path class="cls-20" d="M397.73,207.72c-1.28.08-2.57.15-3.86.2v2.13c1.29-.06,2.58-.12,3.86-.2v-2.13Z"/><path class="cls-20" d="M412.77,206.18c-1.22.17-2.45.34-3.69.49v2.12c1.24-.15,2.47-.31,3.69-.49v-2.12Z"/><path class="cls-20" d="M427,203.5c-1.15.27-2.31.52-3.48.77v2.12c1.17-.24,2.33-.5,3.48-.77V203.5Z"/><path class="cls-20" d="M433.86,201.76c-1.12.31-2.24.61-3.37.9v2.12c1.13-.28,2.25-.58,3.37-.89v-2.13Z"/><path class="cls-20" d="M440.42,199.77c-1.08.36-2.16.7-3.26,1v2.13l3.26-1v-2.13Z"/><path class="cls-20" d="M452.69,195.09c-1,.43-1.95.84-2.95,1.25v2.13c1-.41,2-.83,2.95-1.26v-2.12Z"/><path class="cls-20" d="M458.37,192.42c-.92.46-1.85.91-2.8,1.36v2.12c.95-.44,1.88-.9,2.8-1.36v-2.12Z"/><path class="cls-20" d="M473.42,183.17c-.74.56-1.5,1.11-2.27,1.66V187c.77-.54,1.53-1.1,2.27-1.65v-2.13Z"/><path class="cls-20" d="M477.7,179.72c-.68.59-1.38,1.17-2.09,1.75v2.13c.71-.58,1.41-1.17,2.09-1.76v-2.12Z"/><path class="cls-20" d="M481.57,176.11c-.61.61-1.24,1.22-1.88,1.82v2.13c.64-.61,1.27-1.21,1.88-1.83v-2.12Z"/><path class="cls-20" d="M488.05,168.41c-.47.66-1,1.33-1.46,2v2.13c.5-.66,1-1.32,1.46-2v-2.12Z"/><path class="cls-20" d="M492.68,160.17c-.31.71-.64,1.42-1,2.12v2.12c.34-.7.67-1.4,1-2.11v-2.13Z"/><path class="cls-20" d="M494.26,155.89c-.22.72-.46,1.44-.73,2.15v2.13c.27-.72.51-1.44.73-2.16v-2.12Z"/><path class="cls-20" d="M495.33,151.48c-.14.74-.29,1.48-.47,2.21v2.13c.18-.74.33-1.47.47-2.21v-2.13Z"/><path class="cls-20" d="M359.08,210c-1.23-.17-2.45-.36-3.66-.56v2.12c1.21.2,2.43.39,3.66.56V210Z"/><path class="cls-20" d="M366.58,211c-1.27-.13-2.53-.27-3.79-.42v2.12c1.26.16,2.52.3,3.79.42V211Z"/><path class="cls-20" d="M397.73,211.54c-1.28.08-2.57.14-3.86.2v2.12c1.29-.05,2.58-.12,3.86-.2v-2.12Z"/><path class="cls-20" d="M405.35,210.91c-1.26.13-2.53.25-3.81.35v2.13q1.92-.16,3.81-.36v-2.12Z"/><path class="cls-20" d="M412.77,210c-1.22.18-2.45.34-3.69.5v2.12c1.24-.15,2.47-.32,3.69-.49V210Z"/><path class="cls-20" d="M420,208.79c-1.19.22-2.38.43-3.59.63v2.13c1.21-.2,2.4-.42,3.59-.64v-2.12Z"/><path class="cls-20" d="M427,207.32l-3.48.77v2.12c1.17-.25,2.33-.5,3.48-.77v-2.12Z"/><path class="cls-20" d="M440.42,203.59l-3.26,1v2.12c1.1-.33,2.18-.67,3.26-1v-2.12Z"/><path class="cls-20" d="M446.69,201.36c-1,.39-2.06.78-3.1,1.15v2.12c1-.37,2.08-.75,3.1-1.14v-2.13Z"/><path class="cls-20" d="M458.37,196.23c-.92.47-1.85.92-2.8,1.36v2.13c.95-.45,1.88-.9,2.8-1.36v-2.13Z"/><path class="cls-20" d="M463.75,193.34q-1.31.75-2.64,1.47v2.12c.89-.48,1.77-1,2.64-1.46v-2.13Z"/><path class="cls-20" d="M468.77,190.25c-.81.54-1.63,1.06-2.47,1.58V194c.84-.52,1.66-1,2.47-1.57v-2.13Z"/><path class="cls-20" d="M473.42,187c-.74.56-1.5,1.11-2.27,1.65v2.13c.77-.55,1.53-1.1,2.27-1.66V187Z"/><path class="cls-20" d="M477.7,183.53c-.68.6-1.38,1.18-2.09,1.76v2.12c.71-.58,1.41-1.16,2.09-1.75v-2.13Z"/><path class="cls-20" d="M485,176.15c-.54.64-1.1,1.27-1.67,1.9v2.12c.57-.63,1.13-1.26,1.67-1.9v-2.12Z"/><path class="cls-20" d="M488.05,172.22c-.47.67-1,1.33-1.46,2v2.12c.5-.66,1-1.32,1.46-2v-2.13Z"/><path class="cls-20" d="M490.6,168.17c-.39.69-.79,1.37-1.22,2v2.13c.43-.68.83-1.36,1.22-2v-2.13Z"/><path class="cls-20" d="M492.68,164c-.31.71-.64,1.41-1,2.11v2.13c.34-.7.67-1.41,1-2.12V164Z"/><path class="cls-20" d="M494.26,159.7c-.22.73-.46,1.45-.73,2.16V164c.27-.71.51-1.43.73-2.15V159.7Z"/><path class="cls-20" d="M495.33,155.3c-.14.74-.29,1.48-.47,2.21v2.12c.18-.73.33-1.47.47-2.21V155.3Z"/><path class="cls-6" d="M366.58,203.32c-1.27-.13-2.53-.27-3.79-.42V205c1.26.16,2.52.3,3.79.42v-2.12Z"/><path class="cls-6" d="M405.35,203.28c-1.26.13-2.53.25-3.81.35v2.13q1.92-.16,3.81-.36v-2.12Z"/><path class="cls-6" d="M446.69,193.73c-1,.39-2.06.78-3.1,1.15V197c1-.37,2.08-.75,3.1-1.14v-2.13Z"/><path class="cls-6" d="M485,168.52c-.54.64-1.1,1.27-1.67,1.9v2.12c.57-.63,1.13-1.26,1.67-1.9v-2.12Z"/><path class="cls-6" d="M495.33,147.67c-.14.74-.29,1.48-.47,2.21V152c.18-.73.33-1.47.47-2.21v-2.12Z"/><path class="cls-6" d="M405.35,207.09q-1.89.19-3.81.36v2.12c1.28-.1,2.55-.22,3.81-.35v-2.13Z"/><path class="cls-6" d="M420,205c-1.19.23-2.38.44-3.59.64v2.12c1.21-.2,2.4-.41,3.59-.63V205Z"/><path class="cls-6" d="M446.69,197.55c-1,.39-2.06.77-3.1,1.14v2.12c1-.37,2.08-.75,3.1-1.14v-2.12Z"/><path class="cls-6" d="M463.75,189.53c-.87.49-1.75,1-2.64,1.46v2.13q1.33-.72,2.64-1.47v-2.12Z"/><path class="cls-6" d="M468.77,186.44c-.81.53-1.63,1.06-2.47,1.57v2.13c.84-.52,1.66-1,2.47-1.58v-2.12Z"/><path class="cls-6" d="M485,172.33c-.54.64-1.1,1.27-1.67,1.9v2.13c.57-.63,1.13-1.27,1.67-1.91v-2.12Z"/><path class="cls-6" d="M490.6,164.36c-.39.68-.79,1.36-1.22,2v2.12c.43-.67.83-1.35,1.22-2v-2.12Z"/><path class="cls-6" d="M374.23,211.56c-1.29-.07-2.57-.16-3.85-.27v2.13c1.28.1,2.56.19,3.85.27v-2.13Z"/><path class="cls-6" d="M382.07,211.87c-1.32,0-2.63-.06-3.93-.11v2.12c1.3.05,2.61.09,3.93.11v-2.12Z"/><path class="cls-6" d="M390,211.86c-1.3,0-2.61,0-3.93,0V214c1.32,0,2.63,0,3.93-.05v-2.12Z"/><path class="cls-6" d="M433.86,205.58c-1.12.31-2.24.61-3.37.9v2.12c1.13-.29,2.25-.59,3.37-.9v-2.12Z"/><path class="cls-6" d="M452.69,198.9c-1,.43-1.95.85-2.95,1.26v2.12c1-.41,2-.82,2.95-1.25V198.9Z"/><path class="cls-6" d="M481.57,179.92c-.61.62-1.24,1.23-1.88,1.83v2.12c.64-.6,1.27-1.21,1.88-1.82v-2.13Z"/></g></g><g class="cls-21"><path class="cls-22" d="M416.53,217.21c0-24.59-14.64-44.52-32.7-44.52s-32.71,19.93-32.71,44.52,14.64,31.95,32.71,31.95S416.53,241.79,416.53,217.21Z"/></g><ellipse class="cls-23" cx="383.83" cy="172.69" rx="63.55" ry="36.69"/><ellipse class="cls-24" cx="417.89" cy="72.4" rx="71.67" ry="29.35" transform="translate(71.2 316.7) rotate(-45)"/><path class="cls-25" d="M420.36,83.56a1.89,1.89,0,1,0-2.68-.08A1.91,1.91,0,0,0,420.36,83.56Z"/><path class="cls-6" d="M442.27,81.92a1.89,1.89,0,1,0-2.68-.08A1.89,1.89,0,0,0,442.27,81.92Z"/><path class="cls-25" d="M436.86,52.56a2,2,0,1,0-2.88-.09A2,2,0,0,0,436.86,52.56Z"/><path class="cls-25" d="M434.58,58.36a1.22,1.22,0,1,0-1.72-.06A1.22,1.22,0,0,0,434.58,58.36Z"/><path class="cls-26" d="M432.06,55.35a.78.78,0,1,0-1.11,0A.78.78,0,0,0,432.06,55.35Z"/><path class="cls-26" d="M437.28,72.7a.79.79,0,0,0,0-1.11.79.79,0,0,0-1.15,1.07A.79.79,0,0,0,437.28,72.7Z"/><path class="cls-25" d="M426.24,50.29a.24.24,0,0,0,0-.33.24.24,0,1,0-.35.32A.24.24,0,0,0,426.24,50.29Z"/><path class="cls-26" d="M427.67,60.12a.24.24,0,0,0,0-.33.24.24,0,0,0-.34,0,.24.24,0,0,0,0,.33A.24.24,0,0,0,427.67,60.12Z"/><path class="cls-26" d="M430.73,78.85a.24.24,0,0,0,0-.34.23.23,0,0,0-.33,0,.24.24,0,1,0,.32.35Z"/><path class="cls-26" d="M428.56,75.86a.23.23,0,0,0,0-.33.24.24,0,0,0-.34,0,.24.24,0,0,0,0,.33A.24.24,0,0,0,428.56,75.86Z"/><path class="cls-25" d="M420.46,61.46a2.89,2.89,0,1,0-4.08-.13A2.88,2.88,0,0,0,420.46,61.46Z"/><path class="cls-6" d="M404.89,67.08a1.43,1.43,0,1,0-2-.06A1.44,1.44,0,0,0,404.89,67.08Z"/><path class="cls-25" d="M430.91,67.05a1.44,1.44,0,1,0-2-.06A1.43,1.43,0,0,0,430.91,67.05Z"/><path class="cls-25" d="M420.46,43.32a1.44,1.44,0,1,0-2-.07A1.45,1.45,0,0,0,420.46,43.32Z"/><path class="cls-25" d="M402.29,53.65a1.44,1.44,0,1,0-2-.06A1.43,1.43,0,0,0,402.29,53.65Z"/><path class="cls-25" d="M451.65,58.13a1.43,1.43,0,1,0-2-.06A1.44,1.44,0,0,0,451.65,58.13Z"/><path class="cls-25" d="M441.26,33a1.44,1.44,0,1,0-2-.06A1.43,1.43,0,0,0,441.26,33Z"/><path class="cls-6" d="M460.2,35.65a.69.69,0,1,0-1,0A.69.69,0,0,0,460.2,35.65Z"/><path class="cls-25" d="M424.66,78.71a.85.85,0,0,0-1.16-1.23.85.85,0,1,0,1.16,1.23Z"/><path class="cls-6" d="M423,54.83a.84.84,0,1,0-1.19,0A.84.84,0,0,0,423,54.83Z"/><path class="cls-6" d="M412.23,54.51a.57.57,0,1,0-.81,0A.58.58,0,0,0,412.23,54.51Z"/><path class="cls-6" d="M410.61,54.47a.83.83,0,1,0-1.17,0A.83.83,0,0,0,410.61,54.47Z"/><path class="cls-6" d="M410.32,56.43a.45.45,0,1,0-.64,0A.44.44,0,0,0,410.32,56.43Z"/><path class="cls-25" d="M418.25,70a.59.59,0,0,0,0-.84.59.59,0,1,0,0,.84Z"/><path class="cls-25" d="M435.56,72.45a.59.59,0,1,0-.81-.86.6.6,0,0,0,0,.84A.59.59,0,0,0,435.56,72.45Z"/><path class="cls-6" d="M421.94,71a1.46,1.46,0,1,0-2.07-.07A1.47,1.47,0,0,0,421.94,71Z"/><path class="cls-27" d="M341.45,133.12c-1.34,4.45-8.53,13.09-13,11.75s-4.46-12.15-3.12-16.6a8.41,8.41,0,1,1,16.1,4.85Z"/><g class="cls-28"><path class="cls-29" d="M341.45,133.12c-1.34,4.45-8.53,13.09-13,11.75s-4.46-12.15-3.12-16.6a8.41,8.41,0,1,1,16.1,4.85Z"/></g><path class="cls-30" d="M332.89,122.7a8.11,8.11,0,0,1,6.67,3.09c1.35,1.92.55,3.65-1.79,3.86a8.16,8.16,0,0,1-6.67-3.1C329.75,124.63,330.55,122.9,332.89,122.7Z"/><path class="cls-31" d="M332.89,122.7a8.11,8.11,0,0,1,6.67,3.09c1.35,1.92.55,3.65-1.79,3.86a8.16,8.16,0,0,1-6.67-3.1C329.75,124.63,330.55,122.9,332.89,122.7Z"/><path class="cls-6" d="M330.45,124.87a3.25,3.25,0,0,1,1.78-.65,8.12,8.12,0,0,1,6.67,3.1,3.15,3.15,0,0,1,.65,1.67c.85-.71.92-1.91,0-3.2a8.11,8.11,0,0,0-6.67-3.09C331.27,122.84,330.39,123.71,330.45,124.87Z"/><path class="cls-32" d="M340.73,120.42a.67.67,0,1,0,.64.68A.66.66,0,0,0,340.73,120.42Z"/><path class="cls-6" d="M334.48,115.8a1.68,1.68,0,1,0,1.63,1.72A1.67,1.67,0,0,0,334.48,115.8Z"/><path class="cls-32" d="M344.05,112a.94.94,0,1,0,.92,1A.94.94,0,0,0,344.05,112Z"/><path class="cls-6" d="M340.31,112.78a.64.64,0,1,0,0,1.28.63.63,0,0,0,.65-.62A.64.64,0,0,0,340.31,112.78Z"/><path class="cls-6" d="M341,111.34a.44.44,0,1,0,0,.88.44.44,0,0,0,0-.88Z"/><path class="cls-32" d="M335.62,123.68a.93.93,0,1,0,0,1.86.93.93,0,0,0,0-1.86Z"/><path class="cls-6" d="M338.43,123.37a1.39,1.39,0,1,0,1.36,1.42A1.39,1.39,0,0,0,338.43,123.37Z"/><circle class="cls-33" cx="353.36" cy="105.13" r="12.67"/><g class="cls-28"><circle class="cls-34" cx="353.36" cy="105.13" r="12.67" transform="translate(-9.97 42.64) rotate(-6.81)"/></g><path class="cls-35" d="M416.53,128.13c0,24.59-14.64,44.52-32.7,44.52s-32.71-19.93-32.71-44.52,14.64-31.95,32.71-31.95S416.53,103.55,416.53,128.13Z"/><g class="cls-28"><path class="cls-36" d="M416.53,128.13c0,24.59-14.64,44.52-32.7,44.52s-32.71-19.93-32.71-44.52,14.64-31.95,32.71-31.95S416.53,103.55,416.53,128.13Z"/></g><ellipse class="cls-30" cx="383.83" cy="109.4" rx="22.32" ry="12.89"/><ellipse class="cls-37" cx="383.83" cy="109.4" rx="22.32" ry="12.89"/><path class="cls-6" d="M368,103.72c8.72-5,22.85-5,31.57,0,3.6,2.08,5.71,4.69,6.33,7.4.89-3.85-1.22-7.88-6.33-10.83-8.72-5-22.85-5-31.57,0-5.11,2.95-7.22,7-6.33,10.82C362.33,108.41,364.44,105.8,368,103.72Z"/><path class="cls-38" d="M374.09,61.79c0,6-4.22,13.3-9.42,16.3s-9.41.57-9.41-5.43,4.22-13.3,9.41-16.31S374.09,55.79,374.09,61.79Z"/><circle class="cls-39" cx="385.12" cy="78.64" r="33.35"/><g class="cls-28"><circle class="cls-40" cx="385.12" cy="78.64" r="33.35"/></g><ellipse class="cls-30" cx="365.2" cy="87.17" rx="8.47" ry="14.67" transform="translate(-5.45 147.04) rotate(-22.6)"/><ellipse class="cls-41" cx="365.2" cy="87.17" rx="8.47" ry="14.67" transform="translate(-5.45 147.04) rotate(-22.6)"/><path class="cls-6" d="M370.38,88.76c-.31,2.38-2.11,3.13-4,1.67a8.32,8.32,0,0,1-2.9-7c.31-2.38,2.11-3.13,4-1.67A8.34,8.34,0,0,1,370.38,88.76Z"/><path class="cls-6" d="M366.18,98.09c-5.25-4-8.82-12.6-8-19.16A8.13,8.13,0,0,1,361,73.26c-2.75.26-4.83,2.59-5.35,6.63-.85,6.56,2.72,15.13,8,19.15,3.11,2.38,6.12,2.63,8.23,1.07A8.34,8.34,0,0,1,366.18,98.09Z"/><path class="cls-6" d="M364.11,98.83c-5.25-4-8.82-12.59-8-19.15.39-3,1.67-5.11,3.44-6.06-2,.83-3.46,3-3.89,6.27-.85,6.56,2.72,15.13,8,19.15,2.82,2.16,5.55,2.56,7.61,1.46C369.27,101.32,366.73,100.83,364.11,98.83Z"/><circle class="cls-42" cx="419.77" cy="136.6" r="12.67"/><g class="cls-28"><circle class="cls-43" cx="419.77" cy="136.6" r="12.67"/></g><path class="cls-30" d="M431.94,136.84a12.37,12.37,0,0,1-5.6,9.7c-3.09,1.78-5.6.34-5.6-3.23a12.38,12.38,0,0,1,5.6-9.7C429.44,131.82,431.94,133.27,431.94,136.84Z"/><path class="cls-44" d="M431.94,136.84a12.37,12.37,0,0,1-5.6,9.7c-3.09,1.78-5.6.34-5.6-3.23a12.38,12.38,0,0,1,5.6-9.7C429.44,131.82,431.94,133.27,431.94,136.84Z"/><path class="cls-6" d="M429,132.85a4.8,4.8,0,0,1,.75,2.78,12.38,12.38,0,0,1-5.6,9.7,5,5,0,0,1-2.63.76c1,1.38,2.78,1.65,4.85.45a12.37,12.37,0,0,0,5.6-9.7C431.94,134.37,430.74,132.92,429,132.85Z"/><polygon class="cls-30" points="413.27 90.84 401.19 97.82 401.19 83.87 413.27 76.89 413.27 90.84"/><polygon class="cls-45" points="411.48 77.93 411.48 89.87 401.19 95.81 401.19 97.82 413.27 90.84 413.27 76.89 411.48 77.93"/><polygon class="cls-6" points="403.5 87.68 402.42 88.3 402.42 87.05 403.5 86.43 403.5 87.68"/><polygon class="cls-6" points="405.8 84.75 404.71 85.38 404.71 84.13 405.8 83.5 405.8 84.75"/><polygon class="cls-6" points="408.09 85.03 407.01 85.65 407.01 84.4 408.09 83.78 408.09 85.03"/><polygon class="cls-6" points="408.09 88.3 407.01 88.93 407.01 87.68 408.09 87.05 408.09 88.3"/><polygon class="cls-6" points="406.71 90.82 405.63 91.45 405.63 90.2 406.71 89.58 406.71 90.82"/><polygon class="cls-6" points="410.46 86.94 409.38 87.56 409.38 86.31 410.46 85.69 410.46 86.94"/><polygon class="cls-46" points="423.01 87.17 424.33 84.87 423.01 84.11 410.93 91.09 410.93 105.04 412.25 105.8 413.57 103.51 423.01 98.06 423.01 87.17"/><polygon class="cls-47" points="424.33 98.82 412.25 105.8 412.25 91.85 424.33 84.87 424.33 98.82"/><polygon class="cls-48" points="424.33 98.82 412.25 105.8 412.25 91.85 424.33 84.87 424.33 98.82"/><polygon class="cls-6" points="410.15 86.73 409.91 86.52 423.27 72.24 461.28 72.24 475.3 58.22 475.3 1.08 475.62 1.08 475.62 58.35 475.57 58.4 461.41 72.56 423.41 72.56 410.15 86.73"/><polygon class="cls-6" points="475.35 44.01 468.75 37.41 468.75 13.9 469.07 13.9 469.07 37.28 475.57 43.78 475.35 44.01"/><polygon class="cls-6" points="434.81 72.51 434.58 72.29 442.06 64.81 458.31 64.81 466.11 57.01 466.33 57.24 458.44 65.13 442.19 65.13 434.81 72.51"/><path class="cls-6" d="M466.22,58.21a1.09,1.09,0,1,1,1.08-1.08A1.08,1.08,0,0,1,466.22,58.21Z"/><path class="cls-6" d="M455.28,50.92a1.09,1.09,0,1,1,1.08-1.09A1.09,1.09,0,0,1,455.28,50.92Z"/><circle class="cls-6" cx="463.94" cy="39.16" r="1.08"/><circle class="cls-6" cx="459.67" cy="12.04" r="1.08"/><path class="cls-6" d="M468.91,15A1.08,1.08,0,1,1,470,13.9,1.08,1.08,0,0,1,468.91,15Z"/><path class="cls-6" d="M475.46,2.17a1.09,1.09,0,1,1,1.08-1.09A1.08,1.08,0,0,1,475.46,2.17Z"/><path class="cls-6" d="M423.74,47.48a1.08,1.08,0,1,1,1.08-1.08A1.08,1.08,0,0,1,423.74,47.48Z"/><polygon class="cls-6" points="403.12 87.37 402.8 87.37 402.8 81.04 402.84 81 417.97 65.63 417.97 43.83 418.02 43.78 430.52 31.28 455.15 31.28 459.51 26.92 459.51 12.04 459.83 12.04 459.83 27.05 459.78 27.1 455.28 31.6 430.65 31.6 418.29 43.96 418.29 65.76 418.25 65.81 403.12 81.17 403.12 87.37"/><polygon class="cls-6" points="418.25 60.66 418.02 60.43 423.58 54.88 423.58 46.4 423.89 46.4 423.89 55.01 423.85 55.06 418.25 60.66"/><polygon class="cls-6" points="405.37 84.65 405.14 84.42 439.89 49.67 455.03 49.67 455.03 49.99 440.02 49.99 405.37 84.65"/><polygon class="cls-6" points="433.63 56.32 433.31 56.32 433.31 45.25 433.36 45.2 439.56 39 463.94 39 463.94 39.32 439.7 39.32 433.63 45.38 433.63 56.32"/><path class="cls-49" d="M428.47,172.16c-1.34,4.45-8.53,13.09-13,11.75s-4.47-12.15-3.13-16.6a8.41,8.41,0,1,1,16.11,4.85Z"/><g class="cls-28"><path class="cls-50" d="M428.47,172.16c-1.34,4.45-8.53,13.09-13,11.75s-4.47-12.15-3.13-16.6a8.41,8.41,0,1,1,16.11,4.85Z"/></g><path class="cls-30" d="M419.91,161.73a8.13,8.13,0,0,1,6.67,3.1c1.35,1.92.55,3.64-1.79,3.85a8.11,8.11,0,0,1-6.67-3.09C416.77,163.67,417.57,161.94,419.91,161.73Z"/><path class="cls-51" d="M419.91,161.73a8.13,8.13,0,0,1,6.67,3.1c1.35,1.92.55,3.64-1.79,3.85a8.11,8.11,0,0,1-6.67-3.09C416.77,163.67,417.57,161.94,419.91,161.73Z"/><path class="cls-6" d="M417.47,163.91a3.14,3.14,0,0,1,1.78-.65,8.13,8.13,0,0,1,6.67,3.1,3.33,3.33,0,0,1,.65,1.67c.85-.71.91-1.91,0-3.2a8.13,8.13,0,0,0-6.67-3.1C418.29,161.88,417.41,162.75,417.47,163.91Z"/><path class="cls-32" d="M426.51,156.39a.66.66,0,1,0-.94,0A.66.66,0,0,0,426.51,156.39Z"/><path class="cls-6" d="M434.2,155.3a1.66,1.66,0,0,0,.08-2.36,1.67,1.67,0,1,0-2.44,2.29A1.66,1.66,0,0,0,434.2,155.3Z"/><path class="cls-32" d="M430,164.71a.94.94,0,1,0-1.29-1.37.94.94,0,0,0,1.29,1.37Z"/><circle class="cls-6" cx="431.73" cy="161.08" r="0.64"/><path class="cls-6" d="M432.67,163.07a.44.44,0,0,0-.6-.64.44.44,0,1,0,.6.64Z"/><path class="cls-32" d="M427.87,150.49a.93.93,0,0,0,0-1.31.93.93,0,0,0-1.36,1.27A.94.94,0,0,0,427.87,150.49Z"/><path class="cls-6" d="M426.08,152.68a1.39,1.39,0,1,0-2-.06A1.39,1.39,0,0,0,426.08,152.68Z"/><text class="cls-52" transform="translate(0 46.37)">THAT&apos;S IT FOR NOW<tspan x="0" y="43.2">TO KNOW MORE CHECK MY ABOUT PAGE</tspan><tspan class="cls-53"><tspan x="0" y="86.4">CLICK HERE </tspan></tspan></text><text/></g></g></g></svg>