<svg xmlns="http://www.w3.org/2000/svg" viewBox="0 0 525.64 167.23"><defs><style>.cls-1{fill:#fff;}</style></defs><title>tipicowhite</title><g id="Ebene_2" data-name="Ebene 2"><g id="Ebene_1-2" data-name="Ebene 1"><g id="Ebene_2-2" data-name="Ebene 2"><g id="Ebene_1-2-2" data-name="Ebene 1-2"><path class="cls-1" d="M218.55,42.23c8.07,0,16.18-.43,24.22.11,11.76.79,19.82,9.68,20.74,21.45.6,7.84-.92,15.34-2.79,22.81-2.4,9.61-4.61,19.29-7.61,28.71-2.58,8.1-7.52,14.78-15.39,18.78-6.16,3.13-12.84,4-19.62,4.11-13.2.12-26.41,0-39.61,0h-.89c-4.19-.2-4.21-.21-5.12,3.82-1.58,7-3.12,14-4.7,21-.73,3.23-2,4.21-5.23,4.21H142.08c-3.14,0-4-1.08-3.35-4.11q8.19-36.72,16.4-73.44c1.88-8.45,3.54-17,7.16-24.91,6.27-13.82,16.92-21.54,32-22.49,8-.5,16.15-.09,24.22-.09Zm-17,68.1h15.56c8.23-.09,12.19-3,14.27-10.91,1.81-6.86,3.41-13.78,4.89-20.72,1.22-5.74-1.4-8.81-7.28-8.85-4.89,0-9.79-.06-14.68,0-6,.08-12,.09-18,.45-6.5.39-10.95,3.75-12.32,9.42-1.83,7.54-3.43,15.14-4.88,22.77-1,5.09,1.49,7.82,6.63,7.84s10.59,0,15.86,0Z"/><path class="cls-1" d="M459.11,137.93c-8.16,0-16.33.35-24.46-.08-13-.69-21.38-10-21.69-23-.18-7.76,1.79-15.12,3.57-22.51,1.92-8,3.51-16.11,6.29-23.78,6.57-18.06,19.1-26.53,38.3-26.66,13-.09,26.11-.13,39.16,0,7,.08,13.7,1.65,18.83,7,4.67,4.9,6.15,11,6.48,17.52.35,7.14-1.44,14-3.11,20.79-2.28,9.26-4.37,18.6-7.28,27.66-2.69,8.39-7.68,15.37-16,19.39-6.14,3-12.75,3.8-19.45,3.91-6.9.12-13.8,0-20.69,0Zm4-27.6c5.34,0,10.67.08,16,0,7.72-.13,11.63-2.88,13.67-10.19s3.65-14.48,5.18-21.78c1.08-5.14-1.31-8.38-6.4-8.41-11.26-.08-22.53,0-33.77.44-7.16.31-11.13,4.27-12.69,11.22-.42,1.88-.8,3.76-1.2,5.64-1,4.78-2.13,9.53-3.07,14.32-1.18,6,1.12,8.78,7.15,8.78q7.56,0,15.12,0Z"/><path class="cls-1" d="M364,138.23c-8.9,0-17.8.17-26.7-.09a41.07,41.07,0,0,1-11.11-1.78c-8.67-2.71-14-10.31-14.65-19.79-.5-7.15.95-14,2.66-20.84,2.23-8.89,4.08-17.9,6.85-26.62,2.93-9.24,8.24-17.06,17-22,6.69-3.79,14-5.17,21.58-5.22,17.64-.12,35.29,0,52.94,0,3.05,0,4,1.24,3.35,4.18q-2.36,9.95-4.77,19.86c-.69,2.87-2.19,4-5.24,4H362.5a51.72,51.72,0,0,0-8.61.78c-5.68,1-9.25,4.27-10.43,10.06-1.44,7-3.1,14-4.47,21.06-1.14,5.86,1.19,8.48,7.25,8.48h50.94c3.45,0,4.35,1.13,3.64,4.51L397,133.53c-.75,3.61-2.06,4.69-5.82,4.69Z"/><path class="cls-1" d="M25.42,69.84H2.86C.72,69.84-.35,68.6.1,66.53Q2.4,55.79,4.9,45.09c.56-2.4,2.1-3.28,5.08-3.28h89.9c3.49,0,4.3,1.09,3.53,4.54q-2.14,9.63-4.24,19.3c-.67,3.06-2,4.19-5.28,4.19H57.18c-1.74,0-2.47.52-2.83,2.18q-3.42,15.63-7,31.21a3.81,3.81,0,0,1-.15.65c-1.28,7.35,1,10.07,8.44,10.07H84c3.26,0,4.09,1.07,3.38,4.28-1.18,5.42-2.36,10.85-3.59,16.26-.66,2.89-1.92,3.9-4.77,3.89-11.65,0-23.29.06-34.94-.15-7.27-.13-14.13-1.87-19.55-7.18-6.08-6-7.93-13.56-7.08-21.64.71-6.74,2.37-13.38,3.74-20C22.45,83,24,76.62,25.42,69.84Z"/><path class="cls-1" d="M276.09,138.22h-10c-3.49,0-4.24-1-3.44-4.6q4.62-21,9.31-42,5.1-23,10.2-45.92c.63-2.82,1.93-3.92,4.77-3.94q10.68-.06,21.36,0c2.53,0,3.47,1.23,2.93,3.71q-6.37,28.92-12.78,57.85-3.44,15.5-6.89,31c-.65,2.87-1.87,3.91-4.77,4C283.21,138.26,279.65,138.22,276.09,138.22Z"/><path class="cls-1" d="M114.38,138.23H104.15c-3.27,0-4.18-1.16-3.44-4.49q2.46-11.16,5-22.31Q113,78.82,120.13,46.22c.78-3.5,1.92-4.5,5.45-4.51h20.24c3.31,0,4.13,1,3.42,4.22q-9.68,43.77-19.36,87.52c-.85,3.84-2,4.79-5.93,4.78Z"/><path class="cls-1" d="M67.19,16.76A16.51,16.51,0,0,1,50.72,33.31h-.46A16.65,16.65,0,0,1,51,0h0A16.46,16.46,0,0,1,67.19,16.69Z"/></g></g></g></g></svg>