<svg xmlns="http://www.w3.org/2000/svg" viewBox="0 0 551.9 190.5"><defs><style>.cls-1{fill:#fff;}</style></defs><title>Tipico</title><g id="Ebene_2" data-name="Ebene 2"><g id="Ebene_1-2" data-name="Ebene 1"><path class="cls-1" d="M551.9,190.5H0V0H551.9ZM234.59,56.07h0c-8.07,0-16.18-.41-24.22.09-15.11,1-25.76,8.67-32,22.49-3.62,8-5.28,16.46-7.16,24.91Q163,140.27,154.77,177c-.68,3,.21,4.11,3.35,4.11q10.23,0,20.47,0c3.27,0,4.5-1,5.23-4.21,1.58-7,3.12-14,4.7-21,.91-4,.93-4,5.12-3.82h.89c13.2,0,26.41.09,39.61,0,6.78-.06,13.46-1,19.62-4.11,7.87-4,12.81-10.68,15.39-18.78,3-9.42,5.21-19.1,7.61-28.71,1.87-7.47,3.39-15,2.79-22.81-.92-11.77-9-20.66-20.74-21.45C250.77,55.64,242.66,56.07,234.59,56.07Zm240.56,95.7v.3c6.89,0,13.79.09,20.69,0,6.7-.11,13.31-.93,19.45-3.91,8.27-4,13.26-11,16-19.39,2.91-9.06,5-18.4,7.28-27.66,1.67-6.82,3.46-13.65,3.11-20.79-.33-6.52-1.81-12.62-6.48-17.52-5.13-5.39-11.79-7-18.83-7-13.05-.16-26.11-.12-39.16,0-19.2.13-31.73,8.6-38.3,26.66-2.78,7.67-4.37,15.8-6.29,23.78-1.78,7.39-3.75,14.75-3.57,22.51.31,13,8.68,22.35,21.69,23C458.82,152.12,467,151.77,475.15,151.77Zm-95.13.3h27.13c3.76,0,5.07-1.08,5.82-4.69l3.9-18.68c.71-3.38-.19-4.51-3.64-4.51H362.29c-6.06,0-8.39-2.62-7.25-8.48,1.37-7,3-14,4.47-21.06,1.18-5.79,4.75-9.08,10.43-10.06a50.77,50.77,0,0,1,8.61-.78c14.46-.08,28.92,0,43.37,0,3.05,0,4.55-1.16,5.24-4q2.4-9.93,4.77-19.86c.69-2.94-.3-4.17-3.35-4.18-17.65,0-35.3-.08-52.94,0-7.55.05-14.89,1.43-21.58,5.22-8.75,5-14.06,12.77-17,22-2.77,8.72-4.62,17.73-6.85,26.62-1.71,6.84-3.16,13.69-2.66,20.84.68,9.48,6,17.08,14.65,19.79A41.4,41.4,0,0,0,353.32,152C362.22,152.24,371.12,152.07,380,152.07ZM41.46,83.68c-1.5,6.78-3,13.11-4.29,19.48-1.37,6.66-3,13.3-3.74,20-.85,8.08,1,15.68,7.08,21.64,5.42,5.31,12.28,7,19.55,7.18,11.65.21,23.29.13,34.94.15,2.85,0,4.11-1,4.77-3.89,1.23-5.41,2.41-10.84,3.59-16.26.71-3.21-.12-4.27-3.38-4.28H71.72c-7.43,0-9.72-2.72-8.44-10.07,0-.22.11-.43.15-.65,2.33-10.4,4.68-20.79,7-31.21.36-1.66,1.09-2.19,2.83-2.18,12.24.09,24.47.05,36.71,0,3.25,0,4.61-1.13,5.28-4.19q2.1-9.66,4.24-19.3c.77-3.45,0-4.54-3.53-4.54H26c-3,0-4.52.88-5.08,3.28q-2.51,10.69-4.8,21.44c-.45,2.07.62,3.27,2.76,3.31,2.74,0,5.49,0,8.23,0Zm250.67,68.38c3.56,0,7.12,0,10.68,0,2.9-.05,4.12-1.09,4.77-4q3.45-15.48,6.89-31,6.4-28.92,12.78-57.85c.54-2.48-.4-3.69-2.93-3.71q-10.68-.06-21.36,0c-2.84,0-4.14,1.12-4.77,3.94q-5.12,23-10.2,45.92-4.67,21-9.31,42c-.8,3.64-.05,4.58,3.44,4.6Zm-161.71,0H140c3.92,0,5.08-.94,5.93-4.78q9.68-43.77,19.36-87.52c.71-3.18-.11-4.22-3.42-4.22q-10.11,0-20.24,0c-3.53,0-4.67,1-5.45,4.51Q129,92.67,121.71,125.27c-1.65,7.44-3.32,14.87-5,22.31-.74,3.33.17,4.48,3.44,4.49ZM83.23,30.6A16.62,16.62,0,1,0,50,30.35,16.68,16.68,0,0,0,66.3,47.14,16.51,16.51,0,0,0,83.23,30.6Z"/><path d="M234.59,56.07c8.07,0,16.18-.43,24.22.11,11.76.79,19.82,9.68,20.74,21.45.6,7.84-.92,15.34-2.79,22.81-2.4,9.61-4.61,19.29-7.61,28.71-2.58,8.1-7.52,14.78-15.39,18.78-6.16,3.13-12.84,4-19.62,4.11-13.2.12-26.41,0-39.61,0h-.89c-4.19-.2-4.21-.21-5.12,3.82-1.58,7-3.12,14-4.7,21-.73,3.23-2,4.21-5.23,4.21q-10.25,0-20.47,0c-3.14,0-4-1.08-3.35-4.11q8.19-36.72,16.4-73.44c1.88-8.45,3.54-17,7.16-24.91,6.27-13.82,16.92-21.54,32-22.49,8-.5,16.15-.09,24.22-.09Zm-17,68.1c5.18,0,10.37,0,15.56,0,8.23-.09,12.19-3,14.27-10.91,1.81-6.86,3.41-13.78,4.89-20.72,1.22-5.74-1.4-8.81-7.28-8.85-4.89,0-9.79-.06-14.68,0-6,.08-12,.09-18,.45-6.5.39-10.95,3.75-12.32,9.42-1.83,7.54-3.43,15.14-4.88,22.77-1,5.09,1.49,7.82,6.63,7.84S212.37,124.18,217.64,124.17Z"/><path d="M475.15,151.77c-8.16,0-16.33.35-24.46-.08-13-.69-21.38-10-21.69-23-.18-7.76,1.79-15.12,3.57-22.51,1.92-8,3.51-16.11,6.29-23.78,6.57-18.06,19.1-26.53,38.3-26.66,13-.09,26.11-.13,39.16,0,7,.08,13.7,1.65,18.83,7,4.67,4.9,6.15,11,6.48,17.52.35,7.14-1.44,14-3.11,20.79-2.28,9.26-4.37,18.6-7.28,27.66-2.69,8.39-7.68,15.37-16,19.39-6.14,3-12.75,3.8-19.45,3.91-6.9.12-13.8,0-20.69,0Zm4-27.6c5.34,0,10.67.08,16,0,7.72-.13,11.63-2.88,13.67-10.19s3.65-14.48,5.18-21.78c1.08-5.14-1.31-8.38-6.4-8.41-11.26-.08-22.53,0-33.77.44-7.16.31-11.13,4.27-12.69,11.22-.42,1.88-.8,3.76-1.2,5.64-1,4.78-2.13,9.53-3.07,14.32-1.18,6,1.12,8.78,7.15,8.78Q471.58,124.19,479.14,124.17Z"/><path d="M380,152.07c-8.9,0-17.8.17-26.7-.09a41.4,41.4,0,0,1-11.11-1.78c-8.67-2.71-14-10.31-14.65-19.79-.5-7.15.95-14,2.66-20.84,2.23-8.89,4.08-17.9,6.85-26.62,2.93-9.24,8.24-17.06,17-22,6.69-3.79,14-5.17,21.58-5.22,17.64-.12,35.29,0,52.94,0,3.05,0,4,1.24,3.35,4.18q-2.35,9.94-4.77,19.86c-.69,2.87-2.19,4-5.24,4-14.45,0-28.91,0-43.37,0a50.77,50.77,0,0,0-8.61.78c-5.68,1-9.25,4.27-10.43,10.06-1.44,7-3.1,14-4.47,21.06-1.14,5.86,1.19,8.48,7.25,8.48h50.94c3.45,0,4.35,1.13,3.64,4.51L413,147.37c-.75,3.61-2.06,4.69-5.82,4.69Z"/><path d="M41.46,83.68H27.13c-2.74,0-5.49,0-8.23,0-2.14,0-3.21-1.24-2.76-3.31q2.3-10.74,4.8-21.44c.56-2.4,2.1-3.28,5.08-3.28h89.9c3.49,0,4.3,1.09,3.53,4.54q-2.15,9.63-4.24,19.3c-.67,3.06-2,4.19-5.28,4.19-12.24,0-24.47,0-36.71,0-1.74,0-2.47.52-2.83,2.18-2.28,10.42-4.63,20.81-7,31.21,0,.22-.11.43-.15.65-1.28,7.35,1,10.07,8.44,10.07H100c3.26,0,4.09,1.07,3.38,4.28-1.18,5.42-2.36,10.85-3.59,16.26-.66,2.89-1.92,3.9-4.77,3.89-11.65,0-23.29.06-34.94-.15-7.27-.13-14.13-1.87-19.55-7.18-6.08-6-7.93-13.56-7.08-21.64.71-6.74,2.37-13.38,3.74-20C38.49,96.79,40,90.46,41.46,83.68Z"/><path d="M292.13,152.06h-10c-3.49,0-4.24-1-3.44-4.6q4.62-21,9.31-42,5.1-23,10.2-45.92c.63-2.82,1.93-3.92,4.77-3.94q10.68-.07,21.36,0c2.53,0,3.47,1.23,2.93,3.71q-6.37,28.92-12.78,57.85-3.44,15.49-6.89,31c-.65,2.87-1.87,3.91-4.77,4C299.25,152.1,295.69,152.06,292.13,152.06Z"/><path d="M130.42,152.07H120.19c-3.27,0-4.18-1.16-3.44-4.49,1.64-7.44,3.31-14.87,5-22.31Q129,92.66,136.17,60.06c.78-3.5,1.92-4.5,5.45-4.51q10.13,0,20.24,0c3.31,0,4.13,1,3.42,4.22q-9.67,43.76-19.36,87.52c-.85,3.84-2,4.79-5.93,4.78Z"/><path d="M83.23,30.6A16.51,16.51,0,0,1,66.3,47.14,16.65,16.65,0,1,1,67,13.84,16.46,16.46,0,0,1,83.23,30.6Z"/><path class="cls-1" d="M217.64,124.18c-5.27,0-10.53,0-15.79,0s-7.6-2.75-6.63-7.84c1.45-7.63,3.05-15.23,4.88-22.77,1.37-5.67,5.82-9,12.32-9.42,6-.36,12-.37,18-.45,4.89-.07,9.79,0,14.68,0,5.88,0,8.5,3.11,7.28,8.85-1.48,6.94-3.08,13.86-4.89,20.72-2.08,7.9-6,10.82-14.27,10.91C228,124.22,222.82,124.17,217.64,124.18Z"/><path class="cls-1" d="M479.14,124.17q-7.56,0-15.12,0c-6,0-8.33-2.78-7.15-8.78.94-4.79,2-9.54,3.07-14.32.4-1.88.78-3.76,1.2-5.64,1.56-7,5.53-10.91,12.69-11.22,11.24-.49,22.51-.52,33.77-.44,5.09,0,7.48,3.27,6.4,8.41-1.53,7.3-3.19,14.59-5.18,21.78s-5.95,10.06-13.67,10.19C489.81,124.25,484.48,124.17,479.14,124.17Z"/></g></g></svg>