<svg xmlns="http://www.w3.org/2000/svg" xmlns:xlink="http://www.w3.org/1999/xlink" viewBox="0 0 444.24 202.02"><defs><style>.cls-1{fill:url(#Áĺçűě_ííűé_ăđŕäčĺíň_33);}.cls-2{fill:url(#Áĺçűě_ííűé_ăđŕäčĺíň_33-2);}.cls-16,.cls-3,.cls-6{opacity:0.3;}.cls-3{fill:url(#Áĺçűě_ííűé_ăđŕäčĺíň_33-3);}.cls-4{fill:url(#Áĺçűě_ííűé_ăđŕäčĺíň_33-4);}.cls-5{fill:url(#Áĺçűě_ííűé_ăđŕäčĺíň_33-5);}.cls-6{fill:url(#Áĺçűě_ííűé_ăđŕäčĺíň_33-6);}.cls-7{fill:url(#Áĺçűě_ííűé_ăđŕäčĺíň_33-7);}.cls-11,.cls-19,.cls-8,.cls-9{fill:#e8975b;}.cls-18,.cls-9{opacity:0.6;}.cls-10,.cls-20{fill:#e82b88;}.cls-11{opacity:0.4;}.cls-12{fill:url(#Áĺçűě_ííűé_ăđŕäčĺíň_67);}.cls-13{fill:url(#Áĺçűě_ííűé_ăđŕäčĺíň_67-2);}.cls-14,.cls-19,.cls-20{opacity:0.5;}.cls-14{fill:url(#Áĺçűě_ííűé_ăđŕäčĺíň_343);}.cls-15{fill:url(#Áĺçűě_ííűé_ăđŕäčĺíň_343-2);}.cls-16{fill:url(#Áĺçűě_ííűé_ăđŕäčĺíň_343-3);}.cls-17{fill:url(#Áĺçűě_ííűé_ăđŕäčĺíň_343-4);}.cls-18{fill:#020230;}</style><linearGradient id="Áĺçűě_ííűé_ăđŕäčĺíň_33" x1="406.89" y1="122.05" x2="439.51" y2="122.05" gradientUnits="userSpaceOnUse"><stop offset="0" stop-color="#e39a65"/><stop offset="1" stop-color="#e95f8d"/></linearGradient><linearGradient id="Áĺçűě_ííűé_ăđŕäčĺíň_33-2" x1="209.63" y1="186.18" x2="264.41" y2="186.18" xlink:href="#Áĺçűě_ííűé_ăđŕäčĺíň_33"/><linearGradient id="Áĺçűě_ííűé_ăđŕäčĺíň_33-3" x1="210.56" y1="186.19" x2="263.48" y2="186.19" xlink:href="#Áĺçűě_ííűé_ăđŕäčĺíň_33"/><linearGradient id="Áĺçűě_ííűé_ăđŕäčĺíň_33-4" x1="0" y1="113.54" x2="94.37" y2="113.54" xlink:href="#Áĺçűě_ííűé_ăđŕäčĺíň_33"/><linearGradient id="Áĺçűě_ííűé_ăđŕäčĺíň_33-5" x1="72.71" y1="34.21" x2="149.49" y2="34.21" xlink:href="#Áĺçűě_ííűé_ăđŕäčĺíň_33"/><linearGradient id="Áĺçűě_ííűé_ăđŕäčĺíň_33-6" x1="73.64" y1="34.21" x2="148.56" y2="34.21" xlink:href="#Áĺçűě_ííűé_ăđŕäčĺíň_33"/><linearGradient id="Áĺçűě_ííűé_ăđŕäčĺíň_33-7" x1="336.9" y1="66.4" x2="444.24" y2="66.4" xlink:href="#Áĺçűě_ííűé_ăđŕäčĺíň_33"/><radialGradient id="Áĺçűě_ííűé_ăđŕäčĺíň_67" cx="139.27" cy="90.45" r="192.14" gradientUnits="userSpaceOnUse"><stop offset="0" stop-color="#4c02f1"/><stop offset="0.01" stop-color="#4b02ef"/><stop offset="0.13" stop-color="#3903c4"/><stop offset="0.25" stop-color="#29039e"/><stop offset="0.38" stop-color="#1d0380"/><stop offset="0.51" stop-color="#130468"/><stop offset="0.65" stop-color="#0c0457"/><stop offset="0.81" stop-color="#07044d"/><stop offset="1" stop-color="#06044a"/></radialGradient><radialGradient id="Áĺçűě_ííűé_ăđŕäčĺíň_67-2" cx="298.37" cy="105.29" r="185.73" xlink:href="#Áĺçűě_ííűé_ăđŕäčĺíň_67"/><radialGradient id="Áĺçűě_ííűé_ăđŕäčĺíň_343" cx="167.19" cy="13.73" r="201.21" gradientUnits="userSpaceOnUse"><stop offset="0" stop-color="#e39a65"/><stop offset="0.47" stop-color="#a92ffb"/><stop offset="0.59" stop-color="#891cfb"/><stop offset="0.73" stop-color="#6507fa"/><stop offset="1" stop-color="#3919bb"/></radialGradient><radialGradient id="Áĺçűě_ííűé_ăđŕäčĺíň_343-2" cx="161.4" cy="1.71" r="218.76" xlink:href="#Áĺçűě_ííűé_ăđŕäčĺíň_343"/><radialGradient id="Áĺçűě_ííűé_ăđŕäčĺíň_343-3" cx="167.47" cy="18.83" r="193.85" xlink:href="#Áĺçűě_ííűé_ăđŕäčĺíň_343"/><radialGradient id="Áĺçűě_ííűé_ăđŕäčĺíň_343-4" cx="418.19" cy="199.36" r="178.81" xlink:href="#Áĺçűě_ííűé_ăđŕäčĺíň_343"/></defs><title>Tools</title><g id="Ebene_2" data-name="Ebene 2"><g id="Ńëîé_1" data-name="Ńëîé 1"><path class="cls-1" d="M423.2,131.64a7,7,0,0,1-3.48-.93h0L408,123.93a2.17,2.17,0,0,1,0-3.76l11.74-6.78a7,7,0,0,1,7,0l11.74,6.78a2.17,2.17,0,0,1,0,3.76l-11.74,6.78A7,7,0,0,1,423.2,131.64Zm-2.55-2.54a5.13,5.13,0,0,0,5.1,0l11.74-6.78a.32.32,0,0,0,0-.54L425.75,115a5.1,5.1,0,0,0-5.1,0l-11.74,6.78a.32.32,0,0,0,0,.54Z"/><path class="cls-2" d="M237,202a11.27,11.27,0,0,1-5.65-1.52l-20.2-11.66a3.06,3.06,0,0,1,0-5.31l20.2-11.66a11.31,11.31,0,0,1,11.31,0l20.2,11.66a3.07,3.07,0,0,1,0,5.31l-20.2,11.66A11.31,11.31,0,0,1,237,202Zm0-29.81a9.44,9.44,0,0,0-4.72,1.27l-20.2,11.66a1.17,1.17,0,0,0-.61,1,1.19,1.19,0,0,0,.61,1l20.2,11.66h0a9.49,9.49,0,0,0,9.45,0L262,187.23a1.18,1.18,0,0,0,.6-1,1.19,1.19,0,0,0-.6-1.05l-20.2-11.66A9.48,9.48,0,0,0,237,172.21Z"/><path class="cls-3" d="M231.83,199.7,211.63,188a2.15,2.15,0,0,1,0-3.71l20.2-11.66a10.4,10.4,0,0,1,10.38,0l20.2,11.66a2.14,2.14,0,0,1,0,3.71l-20.2,11.66A10.4,10.4,0,0,1,231.83,199.7Z"/><path class="cls-4" d="M47.18,140.62a19.25,19.25,0,0,1-9.61-2.56L2.44,117.77a4.89,4.89,0,0,1,0-8.46L37.57,89a19.24,19.24,0,0,1,19.22,0l35.13,20.28a4.88,4.88,0,0,1,0,8.46L56.79,138.06A19.19,19.19,0,0,1,47.18,140.62Zm0-51.83a16.8,16.8,0,0,0-8.44,2.26L3.61,111.33a2.55,2.55,0,0,0,0,4.42L38.74,136h0a17,17,0,0,0,16.89,0l35.13-20.29a2.55,2.55,0,0,0,0-4.42L55.63,91.05A16.86,16.86,0,0,0,47.18,88.79Z"/><path class="cls-5" d="M111.1,56.24a15.63,15.63,0,0,1-7.81-2.09h0L74.69,37.64a4,4,0,0,1,0-6.86l28.6-16.5a15.62,15.62,0,0,1,15.62,0l28.6,16.5a4,4,0,0,1,0,6.86l-28.6,16.51A15.63,15.63,0,0,1,111.1,56.24Zm-6.88-3.7a13.8,13.8,0,0,0,13.76,0L146.58,36a2.09,2.09,0,0,0,0-3.63L118,15.89a13.8,13.8,0,0,0-13.76,0L75.62,32.4a2.09,2.09,0,0,0,0,3.63Z"/><path class="cls-6" d="M103.75,53.35,75.16,36.84a3,3,0,0,1,0-5.25l28.59-16.51a14.73,14.73,0,0,1,14.7,0L147,31.59a3,3,0,0,1,0,5.25L118.45,53.35A14.73,14.73,0,0,1,103.75,53.35Z"/><path class="cls-7" d="M390.58,97a21.64,21.64,0,0,1-10.81-2.88h0L339.5,70.9a5.19,5.19,0,0,1,0-9l40.26-23.24a21.7,21.7,0,0,1,21.63,0L441.65,61.9a5.2,5.2,0,0,1,0,9L401.39,94.15A21.7,21.7,0,0,1,390.58,97Zm-9.89-4.5a19.83,19.83,0,0,0,19.77,0l40.26-23.24a3.34,3.34,0,0,0,0-5.77L400.46,40.27a19.83,19.83,0,0,0-19.77,0L340.43,63.51a3.35,3.35,0,0,0,0,5.78Z"/><path class="cls-8" d="M222.15,60.53l25.73,14.85a5.91,5.91,0,0,0,5.37,0c1.49-.86,1.49-2.25,0-3.1L227.52,57.42a6,6,0,0,0-5.37,0C220.66,58.28,220.66,59.67,222.15,60.53Z"/><path class="cls-9" d="M210.88,63.93c-1.48.85-1.48,2.24,0,3.1l39.58,22.85a5.93,5.93,0,0,0,5.38,0c1.48-.86,1.48-2.25,0-3.1L216.26,63.93A5.93,5.93,0,0,0,210.88,63.93Z"/><path class="cls-8" d="M199.62,73.53l7.94,4.59a6,6,0,0,0,5.37,0c1.49-.86,1.49-2.25,0-3.11L205,70.43a5.93,5.93,0,0,0-5.38,0C198.14,71.29,198.14,72.68,199.62,73.53Z"/><path class="cls-10" d="M188.36,80,210.76,93a5.91,5.91,0,0,0,5.37,0c1.49-.86,1.49-2.25,0-3.1l-22.4-12.94a6,6,0,0,0-5.37,0C186.87,77.79,186.87,79.18,188.36,80Z"/><path class="cls-8" d="M245.13,96.71c1.49-.86,1.49-2.25,0-3.11l-22.4-12.93a5.91,5.91,0,0,0-5.37,0c-1.49.86-1.49,2.25,0,3.1l22.4,12.94A6,6,0,0,0,245.13,96.71Z"/><path class="cls-9" d="M262.67,103.73l-1.32-.76L255,99.29a6,6,0,0,0-5.38,0c-1.48.86-1.48,2.25,0,3.11l6.37,3.67,1.31.76,6.37,3.68a6,6,0,0,0,5.37,0c1.49-.86,1.49-2.25,0-3.11Z"/><path class="cls-8" d="M382.46,1.63a5.3,5.3,0,0,1,4.78,0L389.59,3c1.31.76,1.31,2,0,2.76a5.3,5.3,0,0,1-4.78,0l-2.35-1.37C381.14,3.63,381.14,2.39,382.46,1.63Z"/><path class="cls-8" d="M360.15.57a5.27,5.27,0,0,1,4.77,0l14.44,8.34c1.32.76,1.32,2,0,2.75a5.3,5.3,0,0,1-4.78,0L360.15,3.33C358.83,2.57,358.83,1.33,360.15.57Z"/><path class="cls-8" d="M315.64,33.93a5.3,5.3,0,0,1,4.78,0l7.8,4.5c1.31.76,1.31,2,0,2.76a5.3,5.3,0,0,1-4.78,0l-7.8-4.5C314.32,35.93,314.32,34.69,315.64,33.93Z"/><path class="cls-11" d="M326.85,28.59a5.27,5.27,0,0,1,4.77,0l6.82,3.94c1.32.76,1.32,2,0,2.75a5.21,5.21,0,0,1-4.77,0l-6.82-3.94C325.53,30.58,325.53,29.35,326.85,28.59Z"/><path class="cls-11" d="M312.75,8.61a5.3,5.3,0,0,1,4.78,0l31.14,18c1.32.76,1.32,2,0,2.76a5.27,5.27,0,0,1-4.77,0l-31.15-18C311.44,10.61,311.44,9.37,312.75,8.61Z"/><path class="cls-8" d="M342.75,14.15a5.27,5.27,0,0,1,4.77,0l11.38,6.57c1.32.76,1.32,2,0,2.75a5.27,5.27,0,0,1-4.77,0L342.75,16.9C341.43,16.14,341.43,14.91,342.75,14.15Z"/><path class="cls-8" d="M357.53,10.87a5.27,5.27,0,0,1,4.77,0l6.83,3.94c1.32.76,1.32,2,0,2.76a5.27,5.27,0,0,1-4.77,0l-6.83-3.94C356.21,12.87,356.21,11.63,357.53,10.87Z"/><path class="cls-8" d="M321.09,37.06a5.3,5.3,0,0,1,4.78,0l2.35,1.37c1.31.76,1.31,2,0,2.75a5.3,5.3,0,0,1-4.78,0l-2.35-1.37C319.77,39.05,319.77,37.82,321.09,37.06Z"/><path class="cls-11" d="M282.07,26.32a5.27,5.27,0,0,1,4.77,0l31.15,18c1.31.76,1.31,2,0,2.76a5.3,5.3,0,0,1-4.78,0l-31.14-18C280.75,28.32,280.75,27.08,282.07,26.32Z"/><path class="cls-8" d="M279.45,36.62a5.3,5.3,0,0,1,4.78,0l23.53,13.62c1.32.76,1.32,2,0,2.75A5.27,5.27,0,0,1,303,53L279.45,39.38C278.14,38.62,278.14,37.38,279.45,36.62Z"/><path class="cls-12" d="M324,82.75c-.44-1.13-1-2.26-1.53-3.38-.42,3.89-2,7.78-3.87,11.66a28.59,28.59,0,0,1-.09,7.62l-4.49,1.6L301.7,112.33l-16.41,8.44-18.91,6.6-22.13,3.93H225.34L203,127.19l-25.7-6.42L156.83,106.5l-8-7.1a28.46,28.46,0,0,1-.4-4.69,79.43,79.43,0,0,1-4.65-13.31c-.25.58-.48,1.16-.7,1.74L141,79.48v16l0,0c.42,13.36,9.45,26.64,27.1,36.84,36.19,20.89,94.85,20.89,131,0,18.17-10.5,27.2-24.26,27.11-38h0V79.48Z"/><path class="cls-13" d="M173.35,59.68c33.28-19.21,87.23-19.21,120.51,0C309,68.41,317.22,79.61,318.59,91c1.86-3.88,3.45-7.77,3.87-11.66A41.08,41.08,0,0,0,319.18,74l2.68-.23-13.2-23.08L270,32.1l-34.85-4.29-29.79,3.75-18.92,3.57L171.1,42.27,155.22,53.86l-7.85,15.53-1,7a38.3,38.3,0,0,0-2.61,5,79.43,79.43,0,0,0,4.65,13.31C148.31,82,156.6,69.35,173.35,59.68Z"/><ellipse class="cls-14" cx="233.61" cy="85.26" rx="85.22" ry="49.2"/><path class="cls-15" d="M299.12,41.66c-36.18-20.89-94.85-20.89-131,0s-36.18,54.76,0,75.65,94.85,20.89,131,0S335.3,62.55,299.12,41.66Zm-5.25,72.62c-33.28,19.21-87.24,19.21-120.52,0s-33.28-50.36,0-69.58,87.23-19.21,120.51,0S327.14,95.06,293.87,114.28Z"/><path class="cls-16" d="M173.35,53.56C158.66,62,150.47,72.84,148.74,83.92c1.73,11.07,9.92,21.88,24.61,30.35,33.28,19.22,87.24,19.22,120.52,0,14.68-8.48,22.87-19.28,24.6-30.36-1.73-11.07-9.92-21.88-24.61-30.36C260.58,34.35,206.63,34.35,173.35,53.56Z"/><path class="cls-17" d="M410.92,201.09a5.68,5.68,0,0,1-2.85-.77L292.55,133.63a5.71,5.71,0,0,1,5.71-9.89l115.52,66.69a5.72,5.72,0,0,1-2.86,10.66Z"/><path class="cls-18" d="M298.26,123.74a5.71,5.71,0,0,0-5.71,9.89l8.33,4.81h0s-3-7.66,5.94-9.75h0Z"/><path class="cls-8" d="M126.41,117a5.25,5.25,0,0,1,4.76,0l31,17.94c1.32.76,1.32,2,0,2.75a5.23,5.23,0,0,1-4.75,0l-31-18C125.1,119,125.1,117.78,126.41,117Z"/><path class="cls-8" d="M82.07,150.27a5.25,5.25,0,0,1,4.76,0l24.41,14.12c1.32.76,1.32,2,0,2.75a5.23,5.23,0,0,1-4.75,0L82.07,153C80.76,152.25,80.76,151,82.07,150.27Z"/><path class="cls-19" d="M109.88,154.58a5.23,5.23,0,0,1,4.75,0l6.8,3.93c1.32.76,1.32,2,0,2.75a5.3,5.3,0,0,1-4.75,0l-6.8-3.93C108.56,156.57,108.56,155.34,109.88,154.58Z"/><path class="cls-8" d="M112.48,144.32a5.25,5.25,0,0,1,4.76,0l14.39,8.3c1.31.76,1.31,2,0,2.75a5.25,5.25,0,0,1-4.76,0l-14.39-8.31C111.17,146.31,111.17,145.08,112.48,144.32Z"/><path class="cls-8" d="M125.72,140.19a5.32,5.32,0,0,1,4.76,0l11.34,6.55c1.31.76,1.31,2,0,2.75a5.28,5.28,0,0,1-4.76,0l-11.34-6.55C124.41,142.18,124.41,141,125.72,140.19Z"/><path class="cls-20" d="M123.81,127.29a5.23,5.23,0,0,1,4.75,0L152,140.86c1.31.75,1.31,2,0,2.74a5.25,5.25,0,0,1-4.76,0L123.81,130C122.49,129.28,122.49,128.05,123.81,127.29Z"/><path class="cls-8" d="M87.5,153.38c1.31-.76,20.09,8.88,21.4,9.64l2.34,1.37c1.32.75,1.32,2,0,2.74a5.23,5.23,0,0,1-4.75,0l-2.35-1.36C102.83,165,86.18,154.14,87.5,153.38Z"/><path class="cls-8" d="M81.91,162a5.3,5.3,0,0,1,4.75,0l14.39,8.31c1.31.76,1.31,2,0,2.75a5.32,5.32,0,0,1-4.76,0l-14.38-8.31C80.59,164,80.59,162.72,81.91,162Z"/><path class="cls-8" d="M79.3,172.23a5.25,5.25,0,0,1,4.76,0l6.8,3.92c1.31.76,1.31,2,0,2.75a5.25,5.25,0,0,1-4.76,0L79.3,175C78,174.22,78,173,79.3,172.23Z"/><path class="cls-8" d="M390.32,52.78,411.2,64.84a4.87,4.87,0,0,0,4.37,0,1.33,1.33,0,0,0,0-2.52L394.68,50.26a4.85,4.85,0,0,0-4.36,0A1.33,1.33,0,0,0,390.32,52.78Z"/><path class="cls-9" d="M381.18,55.54a1.33,1.33,0,0,0,0,2.52L399,68.4a4.79,4.79,0,0,0,4.36,0,1.33,1.33,0,0,0,0-2.52L385.54,55.54A4.79,4.79,0,0,0,381.18,55.54Z"/><path class="cls-8" d="M372,63.34l6.44,3.72a4.87,4.87,0,0,0,4.37,0,1.33,1.33,0,0,0,0-2.52l-6.44-3.72a4.81,4.81,0,0,0-4.37,0A1.33,1.33,0,0,0,372,63.34Z"/><path class="cls-10" d="M362.89,68.62l18.18,10.49a4.81,4.81,0,0,0,4.37,0,1.33,1.33,0,0,0,0-2.52L367.25,66.1a4.79,4.79,0,0,0-4.36,0A1.33,1.33,0,0,0,362.89,68.62Z"/><path class="cls-8" d="M402.6,78.44a1.33,1.33,0,0,0,0-2.52l-11.81-6.79a4.79,4.79,0,0,0-4.36,0,1.33,1.33,0,0,0,0,2.52l11.8,6.79A4.81,4.81,0,0,0,402.6,78.44Z"/><path class="cls-8" d="M40.15,107.12l20.89,12a4.79,4.79,0,0,0,4.36,0,1.33,1.33,0,0,0,0-2.51L44.52,104.6a4.81,4.81,0,0,0-4.37,0A1.33,1.33,0,0,0,40.15,107.12Z"/><path class="cls-9" d="M31,109.88a1.33,1.33,0,0,0,0,2.52l17.83,10.34a4.85,4.85,0,0,0,4.36,0,1.33,1.33,0,0,0,0-2.52L35.37,109.88A4.79,4.79,0,0,0,31,109.88Z"/></g></g></svg>