<svg xmlns="http://www.w3.org/2000/svg" viewBox="0 0 897.37 210.99"><defs><style>.cls-1{fill:#fff;}</style></defs><title>tralumawhite</title><g id="Ebene_2" data-name="Ebene 2"><g id="Layer_2" data-name="Layer 2"><path id="house" class="cls-1" d="M203.09,54.51,159.37,6.65A20.27,20.27,0,0,0,144.46,0h-.06a20.29,20.29,0,0,0-14.92,6.73L111.09,27.07,92.71,6.73A20.21,20.21,0,0,0,77.77,0h0A20.23,20.23,0,0,0,62.82,6.73L19,55.27C8.33,67,0,88.67,0,104.52v71.36A35.15,35.15,0,0,0,35.11,211h152a35.15,35.15,0,0,0,35.11-35.11V103.72C222.19,87.84,213.8,66.23,203.09,54.51ZM200,175.88a12.9,12.9,0,0,1-12.89,12.89h-152a12.9,12.9,0,0,1-12.89-12.89V104.52C22.22,94,28.4,78,35.44,70.17L77.77,23.33,96.12,43.64,72.88,69.37a26.13,26.13,0,0,0-6.22,16.15v35.6a16.13,16.13,0,0,0,16.11,16.11h56.65a16.13,16.13,0,0,0,16.11-16.11V85.52a26.13,26.13,0,0,0-6.22-16.15L126.07,43.64l18.4-20.36L186.69,69.5C193.76,77.24,200,93.23,200,103.72ZM132.71,84.14a5.48,5.48,0,0,1,.6,1.56V115H88.88V85.7a5.48,5.48,0,0,1,.6-1.56l21.61-23.93Z"/><g id="typo"><g id="typo-2" data-name="typo"><path class="cls-1" d="M334,74.77h18.49c3.17,0,3.92,1.12,3.92,4.86v9.15c0,3.18-.75,4.67-3.92,4.67H334v40.71c0,6.72.37,9,2.24,11,1.68,1.87,3.74,2.43,8.78,2.43h9.15c3.92,0,4.48,1.12,4.48,4.85v9.15c0,3.55-.37,4.67-4.48,4.67H340.67c-10.83,0-17.18-1.68-21.85-6-4.85-4.48-7.09-11.77-7.09-22.41V93.45H300.52c-2.8,0-3.73-.75-3.73-3.55V81.68c0-3,.74-3.54,3-3.92l12-2.05V56.1c0-3.74,1.12-4.67,5.23-4.67h11.76c4.11,0,5.23.93,5.23,4.67Z"/><path class="cls-1" d="M391.1,86.91h.37c5.79-8.4,12.14-12.14,24.84-12.14h2.61c3.92,0,5.23.75,5.23,4.49v9.89c0,3.18-1.12,4.3-5.23,4.3h-3.36c-8.22,0-12.7,1.87-15.13,4.67s-4.29,6.16-4.29,15.87v47.62c0,3.74-1.12,4.67-5.23,4.67H379.15c-4.11,0-5.23-.93-5.23-4.67V79.07c0-3.18,1.3-4.3,4.48-4.3h6.53c3.18,0,4.49.56,4.86,3.37Z"/><path class="cls-1" d="M488.39,158.44c-3.55,6.16-9.34,9.52-20.54,9.52h-6.91c-9.71,0-15.5-1.68-20.54-6-5.42-4.67-8-12-8-20.92v-4.29c0-10.09,2.42-17.18,7.84-21.67,5.79-4.85,14.57-6.91,27.27-6.91h6.72c3.36,0,7.28.19,10.46.38v-5c0-4.85-.94-7.65-3.18-9.52-2.61-2.05-6.16-2.61-12.88-2.61a86,86,0,0,0-23,3.54c-3,.94-4.11-.37-4.67-3l-1.68-8.78c-.75-3.18-.38-4.67,2.8-5.6a101,101,0,0,1,28.2-4.49c13.26,0,20.54,1.68,26.89,6,6.72,4.67,9.71,11.39,9.71,24.65v59c0,2.43-1.31,3.55-3.92,3.55h-8.59c-2.8,0-3.92-.93-4.48-3.36l-1.12-4.48Zm-3.73-32.12c-3.18-.19-7.1-.38-10.84-.38h-6.53c-4.3,0-7.85.56-9.71,2.25-2.06,1.68-2.8,4.85-2.8,9.15v2.24c0,4.11.93,6.72,2.8,8.4,1.49,1.31,4.11,2.24,8.21,2.24h6.73c8.59,0,12.14-3.92,12.14-12.51Z"/><path class="cls-1" d="M550.39,141.45c0,4.48,1.5,6.16,5.42,6.16h5.6c3.36,0,4.29,1.12,4.29,4.48v9.71c0,3.55-1.12,4.48-4.29,4.48H548.9c-7.85,0-12-1.3-15.32-4.48-3.73-3.73-5.41-9-5.41-18.3v-99c0-3.73,1.12-4.67,5.23-4.67h11.76c4.11,0,5.23.94,5.23,4.67Z"/><path class="cls-1" d="M655.34,137.52c0,12.52-3.36,19.8-10.64,24.47-6.35,4.11-15.88,6-26.52,6-11,0-20.36-1.49-26.89-6-6.91-4.67-10.65-12-10.65-24.47V79.44c0-3.73,1.12-4.67,5.23-4.67h11.77c4.1,0,5.23.94,5.23,4.67v55.84c0,6.35,1.3,9.53,4.1,11.58,2.62,1.87,6.54,2.43,11.21,2.43s8.78-.56,11.2-2.43c2.62-2.05,3.74-5.23,3.74-11.58V79.44c0-3.73,1.12-4.67,5.23-4.67h11.76c4.11,0,5.23.94,5.23,4.67Z"/><path class="cls-1" d="M805.86,161.61c0,3.74-1.12,4.67-5.23,4.67H788.87c-4.11,0-5.23-.93-5.23-4.67v-52.1c0-7.28-.93-11.39-3.55-14.38-2.43-2.8-6-4.11-12.14-4.11a20.67,20.67,0,0,0-15.68,7.1,112,112,0,0,1,.55,12.51v51c0,3.74-1.12,4.67-5.22,4.67H735.83c-4.11,0-5.23-.93-5.23-4.67v-52.1c0-7.47-.93-11.58-3.92-14.57-2.8-2.8-5.79-3.92-11.77-3.92-5.41,0-9.52,1.12-11.95,3.36S699,99.61,699,107.27v54.34c0,3.74-1.12,4.67-5.23,4.67H682.05c-4.11,0-5.23-.93-5.23-4.67V79.07c0-3.18,1.3-4.3,4.48-4.3h6.91c3.17,0,4.29.56,4.85,3.37l.94,4.48h.56c6-6,14.19-9.53,24.65-9.53,11.77,0,20.73,3.93,26,10.46a42.78,42.78,0,0,1,28-10.46c10.65,0,18.49,2.43,23.91,7.85,6,5.79,8.77,15.12,8.77,27.64Z"/><path class="cls-1" d="M878.88,158.44c-3.55,6.16-9.34,9.52-20.54,9.52h-6.91c-9.71,0-15.5-1.68-20.54-6-5.42-4.67-8-12-8-20.92v-4.29c0-10.09,2.42-17.18,7.84-21.67,5.79-4.85,14.57-6.91,27.26-6.91h6.73c3.36,0,7.28.19,10.46.38v-5c0-4.85-.94-7.65-3.18-9.52-2.61-2.05-6.16-2.61-12.88-2.61a86.05,86.05,0,0,0-23,3.54c-3,.94-4.1-.37-4.66-3l-1.68-8.78c-.75-3.18-.38-4.67,2.8-5.6a101,101,0,0,1,28.2-4.49c13.26,0,20.54,1.68,26.89,6,6.72,4.67,9.71,11.39,9.71,24.65v59c0,2.43-1.31,3.55-3.92,3.55h-8.59c-2.8,0-3.92-.93-4.48-3.36l-1.13-4.48Zm-3.73-32.12c-3.18-.19-7.1-.38-10.84-.38h-6.53c-4.3,0-7.85.56-9.71,2.25-2.06,1.68-2.8,4.85-2.8,9.15v2.24c0,4.11.93,6.72,2.8,8.4,1.49,1.31,4.11,2.24,8.21,2.24H863c8.59,0,12.14-3.92,12.14-12.51Z"/></g></g></g></g></svg>