<svg xmlns="http://www.w3.org/2000/svg" xmlns:xlink="http://www.w3.org/1999/xlink" viewBox="0 0 80.6 34.41"><defs><style>.cls-1{fill:#1a1a1a;}.cls-2{fill:none;}.cls-3{clip-path:url(#clip-path);}.cls-4{clip-path:url(#clip-path-2);}.cls-5{fill:#fff;}</style><clipPath id="clip-path" transform="translate(8.26 8.7)"><path class="cls-1" d="M7.16,6.91s0-.1,0-.13L9,4.85,10.7,6.78a.5.5,0,0,1,.05.13V9.27H7.16Zm4.08,4.15a1.3,1.3,0,0,0,1.3-1.3V6.89a2.14,2.14,0,0,0-.5-1.3L10.16,3.52l1.48-1.64L15.05,5.6a4.92,4.92,0,0,1,1.07,2.76v5.82a1,1,0,0,1-1,1H2.83a1,1,0,0,1-1-1V8.43A4.9,4.9,0,0,1,2.86,5.66L6.27,1.88,7.75,3.52,5.87,5.59a2.14,2.14,0,0,0-.5,1.3V9.76a1.3,1.3,0,0,0,1.3,1.3ZM11.64,0a1.64,1.64,0,0,0-1.2.54L9,2.18,7.47.54A1.64,1.64,0,0,0,6.27,0,1.66,1.66,0,0,0,5.06.54L1.53,4.46A6.7,6.7,0,0,0,0,8.43v5.75A2.83,2.83,0,0,0,2.83,17H15.08a2.83,2.83,0,0,0,2.83-2.83V8.36a6.73,6.73,0,0,0-1.54-4L12.85.54A1.62,1.62,0,0,0,11.64,0Z"/></clipPath><clipPath id="clip-path-2" transform="translate(8.26 8.7)"><rect class="cls-2" width="72.34" height="17.01"/></clipPath></defs><title>tralumablack</title><g id="Ebene_2" data-name="Ebene 2"><g id="Layer_1" data-name="Layer 1"><path class="cls-1" d="M7.16,6.91s0-.1,0-.13L9,4.85,10.7,6.78a.5.5,0,0,1,.05.13V9.27H7.16Zm4.08,4.15a1.3,1.3,0,0,0,1.3-1.3V6.89a2.14,2.14,0,0,0-.5-1.3L10.16,3.52l1.48-1.64L15.05,5.6a4.92,4.92,0,0,1,1.07,2.76v5.82a1,1,0,0,1-1,1H2.83a1,1,0,0,1-1-1V8.43A4.9,4.9,0,0,1,2.86,5.66L6.27,1.88,7.75,3.52,5.87,5.59a2.14,2.14,0,0,0-.5,1.3V9.76a1.3,1.3,0,0,0,1.3,1.3ZM11.64,0a1.64,1.64,0,0,0-1.2.54L9,2.18,7.47.54A1.64,1.64,0,0,0,6.27,0,1.66,1.66,0,0,0,5.06.54L1.53,4.46A6.7,6.7,0,0,0,0,8.43v5.75A2.83,2.83,0,0,0,2.83,17H15.08a2.83,2.83,0,0,0,2.83-2.83V8.36a6.73,6.73,0,0,0-1.54-4L12.85.54A1.62,1.62,0,0,0,11.64,0Z" transform="translate(8.26 8.7)"/><g class="cls-3"><polygon class="cls-1" points="0 19.22 15.1 0 34.44 15.19 19.34 34.41 0 19.22"/></g><g class="cls-4"><path class="cls-5" d="M26.92,6h1.49c.26,0,.32.09.32.39v.74c0,.25-.06.37-.32.37H26.92v3.28c0,.55,0,.73.18.89s.3.2.71.2h.74c.31,0,.36.09.36.39V13c0,.28,0,.37-.36.37H27.46a2.41,2.41,0,0,1-1.76-.48,2.34,2.34,0,0,1-.57-1.8V7.53h-.91c-.22,0-.3-.06-.3-.28V6.58c0-.24.06-.28.24-.31l1-.17V4.52c0-.3.09-.37.42-.37h.95c.33,0,.42.07.42.37Z" transform="translate(8.26 8.7)"/></g><g class="cls-4"><path class="cls-5" d="M31.53,7h0a2.07,2.07,0,0,1,2-1h.21c.31,0,.42.06.42.36v.8c0,.25-.09.34-.42.34H33.5a1.51,1.51,0,0,0-1.22.38,1.68,1.68,0,0,0-.35,1.28V13c0,.3-.09.38-.42.38h-1c-.33,0-.42-.08-.42-.38V6.37c0-.25.11-.34.36-.34H31c.25,0,.36,0,.39.27Z" transform="translate(8.26 8.7)"/></g><g class="cls-4"><path class="cls-5" d="M39.37,12.77a1.68,1.68,0,0,1-1.66.77h-.55a2.35,2.35,0,0,1-1.66-.48,2.14,2.14,0,0,1-.65-1.69V11a2.13,2.13,0,0,1,.63-1.74,3.38,3.38,0,0,1,2.2-.56h.54l.85,0v-.4a.9.9,0,0,0-.26-.77,1.6,1.6,0,0,0-1-.21,6.93,6.93,0,0,0-1.85.28c-.24.08-.33,0-.38-.24l-.13-.71c-.06-.25,0-.37.23-.45a8.12,8.12,0,0,1,2.27-.36,3.65,3.65,0,0,1,2.17.48,2.12,2.12,0,0,1,.78,2v4.76c0,.19-.11.28-.32.28h-.69c-.23,0-.31-.07-.36-.27l-.09-.36Zm-.3-2.59c-.26,0-.57,0-.88,0h-.52a1.3,1.3,0,0,0-.79.18,1,1,0,0,0-.22.74v.18a.87.87,0,0,0,.22.68,1.07,1.07,0,0,0,.67.18h.54c.69,0,1-.32,1-1v-.92Z" transform="translate(8.26 8.7)"/></g><g class="cls-4"><path class="cls-5" d="M44.37,11.4c0,.36.12.5.43.5h.46c.27,0,.34.09.34.36V13c0,.29-.09.36-.34.36h-1A1.6,1.6,0,0,1,43,13a1.91,1.91,0,0,1-.43-1.47v-8c0-.3.09-.38.42-.38h.94c.34,0,.43.08.43.38Z" transform="translate(8.26 8.7)"/></g><g class="cls-4"><path class="cls-5" d="M52.83,11.09a2.07,2.07,0,0,1-.86,2,4.06,4.06,0,0,1-2.14.48,3.88,3.88,0,0,1-2.17-.48,2.15,2.15,0,0,1-.85-2V6.4c0-.3.09-.37.42-.37h1c.33,0,.42.07.42.37v4.5c0,.52.1.77.33.94a1.59,1.59,0,0,0,.9.19,1.53,1.53,0,0,0,.9-.19c.21-.17.31-.42.31-.94V6.4c0-.3.09-.37.42-.37h.94c.34,0,.43.07.43.37Z" transform="translate(8.26 8.7)"/></g><g class="cls-4"><path class="cls-5" d="M65,13c0,.3-.09.37-.42.37h-1c-.33,0-.42-.07-.42-.37V8.83a1.65,1.65,0,0,0-.29-1.16,1.16,1.16,0,0,0-1-.33,1.68,1.68,0,0,0-1.26.57,9.26,9.26,0,0,1,0,1V13c0,.3-.09.37-.42.37h-.95c-.33,0-.42-.07-.42-.37V8.83a1.55,1.55,0,0,0-.31-1.18,1.2,1.2,0,0,0-.95-.31,1.39,1.39,0,0,0-1,.27c-.2.18-.32.42-.32,1V13c0,.3-.09.37-.42.37H55c-.33,0-.42-.07-.42-.37V6.37c0-.25.1-.34.36-.34h.56c.25,0,.34,0,.39.27l.07.36H56a2.71,2.71,0,0,1,2-.77,2.61,2.61,0,0,1,2.09.84,3.48,3.48,0,0,1,2.26-.84,2.6,2.6,0,0,1,1.92.63A3,3,0,0,1,65,8.75V13Z" transform="translate(8.26 8.7)"/></g><g class="cls-4"><path class="cls-5" d="M70.85,12.77a1.68,1.68,0,0,1-1.66.77h-.56A2.33,2.33,0,0,1,67,13.06a2.14,2.14,0,0,1-.65-1.69V11A2.13,2.13,0,0,1,67,9.28a3.38,3.38,0,0,1,2.2-.56h.54l.85,0v-.4a.9.9,0,0,0-.26-.77,1.6,1.6,0,0,0-1-.21,6.93,6.93,0,0,0-1.85.28c-.24.08-.33,0-.38-.24l-.13-.71c-.06-.25,0-.37.22-.45a8.25,8.25,0,0,1,2.28-.36,3.6,3.6,0,0,1,2.16.48c.55.38.79.92.79,2v4.76c0,.19-.11.28-.32.28h-.69c-.23,0-.32-.07-.36-.27l-.09-.36Zm-.31-2.59c-.25,0-.57,0-.87,0h-.53a1.27,1.27,0,0,0-.78.18,1,1,0,0,0-.22.74v.18a.87.87,0,0,0,.22.68,1,1,0,0,0,.67.18h.54c.69,0,1-.32,1-1v-.92Z" transform="translate(8.26 8.7)"/></g><g class="cls-4"><path class="cls-1" d="M26.92,6h1.49c.26,0,.32.09.32.39v.74c0,.25-.06.37-.32.37H26.92v3.28c0,.55,0,.73.18.89s.3.2.71.2h.74c.31,0,.36.09.36.39V13c0,.28,0,.37-.36.37H27.46a2.41,2.41,0,0,1-1.76-.48,2.34,2.34,0,0,1-.57-1.8V7.53h-.9c-.23,0-.31-.06-.31-.28V6.58c0-.24.06-.28.24-.31l1-.17V4.52c0-.3.09-.37.42-.37h.95c.33,0,.42.07.42.37Z" transform="translate(8.26 8.7)"/></g><g class="cls-4"><path class="cls-1" d="M31.52,7h0a2.07,2.07,0,0,1,2-1h.21c.31,0,.42.06.42.36v.8c0,.25-.09.34-.42.34H33.5a1.51,1.51,0,0,0-1.22.38,1.68,1.68,0,0,0-.35,1.28V13c0,.3-.09.38-.42.38h-1c-.33,0-.42-.08-.42-.38V6.37c0-.25.1-.34.36-.34H31c.25,0,.36,0,.39.27Z" transform="translate(8.26 8.7)"/></g><g class="cls-4"><path class="cls-1" d="M39.37,12.77a1.68,1.68,0,0,1-1.66.77h-.55a2.35,2.35,0,0,1-1.66-.48,2.14,2.14,0,0,1-.65-1.69V11a2.1,2.1,0,0,1,.64-1.74,3.33,3.33,0,0,1,2.19-.56h.55l.84,0v-.4a.9.9,0,0,0-.26-.77,1.58,1.58,0,0,0-1-.21,6.93,6.93,0,0,0-1.85.28c-.24.08-.33,0-.37-.24l-.14-.71c-.06-.25,0-.37.23-.45a8.12,8.12,0,0,1,2.27-.36,3.65,3.65,0,0,1,2.17.48,2.12,2.12,0,0,1,.78,2v4.76c0,.19-.11.28-.32.28h-.69c-.23,0-.31-.07-.36-.27l-.09-.36Zm-.3-2.59c-.26,0-.57,0-.88,0h-.52a1.3,1.3,0,0,0-.79.18,1,1,0,0,0-.22.74v.18a.87.87,0,0,0,.22.68,1.07,1.07,0,0,0,.67.18h.54c.69,0,1-.32,1-1v-.92Z" transform="translate(8.26 8.7)"/></g><g class="cls-4"><path class="cls-1" d="M44.37,11.4c0,.36.12.5.43.5h.46c.27,0,.34.09.34.36V13c0,.29-.09.36-.34.36h-1A1.6,1.6,0,0,1,43,13a1.91,1.91,0,0,1-.43-1.47v-8c0-.3.09-.38.42-.38h.94c.34,0,.43.08.43.38Z" transform="translate(8.26 8.7)"/></g><g class="cls-4"><path class="cls-1" d="M52.83,11.09a2.07,2.07,0,0,1-.86,2,4.06,4.06,0,0,1-2.14.48,3.88,3.88,0,0,1-2.17-.48,2.15,2.15,0,0,1-.85-2V6.4c0-.3.09-.37.42-.37h1c.33,0,.42.07.42.37v4.5c0,.52.1.77.33.94a1.59,1.59,0,0,0,.9.19,1.53,1.53,0,0,0,.9-.19c.21-.17.31-.42.31-.94V6.4c0-.3.09-.37.42-.37h.94c.34,0,.43.07.43.37Z" transform="translate(8.26 8.7)"/></g><g class="cls-4"><path class="cls-1" d="M65,13c0,.3-.09.37-.42.37h-1c-.33,0-.42-.07-.42-.37V8.83a1.65,1.65,0,0,0-.29-1.16,1.16,1.16,0,0,0-1-.33,1.68,1.68,0,0,0-1.26.57,9.26,9.26,0,0,1,0,1V13c0,.3-.09.37-.42.37h-.95c-.33,0-.42-.07-.42-.37V8.83a1.55,1.55,0,0,0-.31-1.18,1.2,1.2,0,0,0-.95-.31,1.39,1.39,0,0,0-1,.27c-.2.18-.32.42-.32,1V13c0,.3-.09.37-.42.37H55c-.33,0-.42-.07-.42-.37V6.37c0-.25.1-.34.36-.34h.56c.25,0,.34,0,.39.27l.07.36H56a2.71,2.71,0,0,1,2-.77,2.61,2.61,0,0,1,2.09.84,3.48,3.48,0,0,1,2.26-.84,2.6,2.6,0,0,1,1.92.63A3,3,0,0,1,65,8.75V13Z" transform="translate(8.26 8.7)"/></g><g class="cls-4"><path class="cls-1" d="M70.85,12.77a1.68,1.68,0,0,1-1.66.77h-.56A2.33,2.33,0,0,1,67,13.06a2.14,2.14,0,0,1-.65-1.69V11A2.13,2.13,0,0,1,67,9.28a3.38,3.38,0,0,1,2.2-.56h.54l.85,0v-.4a.9.9,0,0,0-.26-.77,1.6,1.6,0,0,0-1-.21,6.93,6.93,0,0,0-1.85.28c-.24.08-.33,0-.38-.24l-.13-.71c-.06-.25,0-.37.22-.45a8.25,8.25,0,0,1,2.28-.36,3.6,3.6,0,0,1,2.16.48c.55.38.79.92.79,2v4.76c0,.19-.11.28-.32.28h-.69c-.23,0-.32-.07-.36-.27l-.09-.36Zm-.31-2.59c-.25,0-.57,0-.87,0h-.53a1.27,1.27,0,0,0-.78.18,1,1,0,0,0-.22.74v.18a.87.87,0,0,0,.22.68,1,1,0,0,0,.67.18h.54c.69,0,1-.32,1-1v-.92Z" transform="translate(8.26 8.7)"/></g></g></g></svg>