<svg xmlns="http://www.w3.org/2000/svg" viewBox="0 0 767.04 207"><defs><style>.cls-1{fill:#1a1a1a;}</style></defs><title>xpressblack</title><g id="Ebene_2" data-name="Ebene 2"><g id="Ebene_1-2" data-name="Ebene 1"><g id="Color"><path class="cls-1" d="M23.42,74.14H35.06c2,0,2.48.71,2.48,3.06V83c0,2-.48,2.94-2.48,2.94H23.42v25.65c0,4.24.23,5.65,1.41,6.94S27.18,120,30.36,120h5.76c2.47,0,2.83.71,2.83,3.06v5.77c0,2.23-.24,2.94-2.83,2.94H27.65c-6.82,0-10.82-1.06-13.76-3.77s-4.47-7.41-4.47-14.12v-28H2.36C.59,85.91,0,85.44,0,83.67V78.5C0,76.62.47,76.26,1.89,76l7.53-1.3V62.38c0-2.35.7-2.94,3.29-2.94h7.41c2.59,0,3.3.59,3.3,2.94Z"/><path class="cls-1" d="M59.42,81.79h.23c3.65-5.29,7.65-7.65,15.65-7.65H77c2.47,0,3.29.48,3.29,2.83V83.2c0,2-.7,2.71-3.29,2.71H74.83c-5.18,0-8,1.18-9.53,2.94s-2.71,3.88-2.71,10v30c0,2.35-.7,2.94-3.29,2.94H51.89c-2.59,0-3.3-.59-3.3-2.94v-52c0-2,.83-2.71,2.83-2.71h4.1c2,0,2.82.36,3,2.12Z"/><path class="cls-1" d="M120.72,126.86c-2.24,3.88-5.89,6-13,6h-4.35c-6.12,0-9.76-1.06-12.94-3.77-3.41-2.94-5.06-7.53-5.06-13.18v-2.7c0-6.36,1.53-10.83,4.94-13.65,3.65-3.06,9.18-4.35,17.18-4.35h4.23c2.12,0,4.59.11,6.59.23V92.26c0-3.06-.58-4.82-2-6-1.64-1.29-3.88-1.64-8.11-1.64a54.58,54.58,0,0,0-14.48,2.23c-1.88.59-2.59-.23-2.94-1.88l-1.06-5.53c-.47-2-.23-2.94,1.77-3.53a64.09,64.09,0,0,1,17.76-2.82c8.36,0,13,1,17,3.76,4.23,2.94,6.11,7.18,6.11,15.53v37.18c0,1.53-.82,2.24-2.47,2.24h-5.37c-1.76,0-2.47-.59-2.82-2.12l-.71-2.82Zm-2.36-20.24c-2-.12-4.47-.24-6.82-.24h-4.12c-2.7,0-4.94.36-6.12,1.41s-1.76,3.06-1.76,5.77V115c0,2.59.59,4.24,1.76,5.3.94.82,2.59,1.41,5.18,1.41h4.24c5.41,0,7.64-2.47,7.64-7.88Z"/><path class="cls-1" d="M159.78,116.15c0,2.82.94,3.88,3.41,3.88h3.53c2.11,0,2.7.71,2.7,2.82V129c0,2.24-.7,2.83-2.7,2.83h-7.89c-4.94,0-7.53-.83-9.64-2.83-2.36-2.35-3.42-5.64-3.42-11.53V55.08c0-2.35.71-2.94,3.3-2.94h7.45c2.59,0,3.3.59,3.3,2.94Z"/><path class="cls-1" d="M225.9,113.68c0,7.88-2.12,12.47-6.71,15.41-4,2.59-10,3.77-16.71,3.77-6.94,0-12.82-1-16.94-3.77-4.35-2.94-6.71-7.53-6.71-15.41V77.09c0-2.36.71-3,3.3-3h7.39c2.59,0,3.29.59,3.29,3v35.18c0,4,.83,6,2.59,7.29s4.12,1.53,7.06,1.53,5.53-.35,7.06-1.53,2.36-3.29,2.36-7.29V77.09c0-2.36.7-3,3.29-3h7.41c2.59,0,3.3.59,3.3,3Z"/><path class="cls-1" d="M320.73,128.86c0,2.35-.71,2.94-3.3,2.94H310c-2.59,0-3.29-.59-3.29-2.94V96c0-4.59-.59-7.18-2.24-9.06s-3.76-2.59-7.65-2.59A13,13,0,0,0,287,88.85a69.15,69.15,0,0,1,.35,7.88v32.13c0,2.35-.7,2.94-3.29,2.94h-7.41c-2.59,0-3.3-.59-3.3-2.94V96c0-4.71-.59-7.3-2.47-9.18s-3.65-2.47-7.41-2.47c-3.41,0-6,.71-7.53,2.12s-2.47,3.29-2.47,8.12v34.24c0,2.35-.71,2.94-3.3,2.94h-7.41c-2.59,0-3.29-.59-3.29-2.94v-52c0-2,.82-2.71,2.82-2.71h4.35c2,0,2.71.36,3.06,2.12l.59,2.83h.35c3.77-3.77,9-6,15.53-6,7.42,0,13.06,2.47,16.36,6.58a27,27,0,0,1,17.65-6.58c6.7,0,11.65,1.53,15.06,4.94,3.76,3.64,5.53,9.53,5.53,17.41Z"/><path class="cls-1" d="M366.73,126.86c-2.24,3.88-5.88,6-12.94,6h-4.36c-6.12,0-9.76-1.06-12.94-3.77-3.41-2.94-5.06-7.53-5.06-13.18v-2.7c0-6.36,1.53-10.83,4.94-13.65,3.65-3.06,9.18-4.35,17.18-4.35h4.24c2.11,0,4.59.11,6.59.23V92.26c0-3.06-.59-4.82-2-6-1.65-1.29-3.89-1.64-8.12-1.64a54.57,54.57,0,0,0-14.47,2.23c-1.89.59-2.59-.23-3-1.88l-1.06-5.53c-.47-2-.23-2.94,1.77-3.53a64.1,64.1,0,0,1,17.77-2.82c8.35,0,12.94,1,16.94,3.76,4.23,2.94,6.12,7.18,6.12,15.53v37.18c0,1.53-.83,2.24-2.48,2.24h-5.38c-1.76,0-2.47-.59-2.82-2.12l-.71-2.82Zm-2.35-20.24c-2-.12-4.48-.24-6.83-.24h-4.12c-2.7,0-4.94.36-6.11,1.41s-1.77,3.06-1.77,5.77V115c0,2.59.59,4.24,1.77,5.3.94.82,2.58,1.41,5.17,1.41h4.24c5.41,0,7.65-2.47,7.65-7.88Z"/><path class="cls-1" d="M532.32,79h.2c4.82-3.88,10-5.88,19.3-5.88,9.64,0,17,3.88,17,15.06,0,5.76-1.76,13.29-3.64,22.94-3.3,17.06-11.06,21.77-25.06,21.77-7.06,0-11.65-1.42-14.47-3.77l-4,20.59c-.47,2.24-1.42,2.94-3.65,2.94h-7.65c-2.35,0-3.06-.94-2.71-2.94L522,76.38c.35-1.76.94-2.24,2.94-2.24h4.59c2,0,2.7.36,2.7,1.89Zm-2.47,28.94A48.26,48.26,0,0,0,528.8,116c0,3.77,2.46,5.53,9.05,5.53,8.94,0,11.89-3.29,13.54-12,1.41-7.3,2.93-14.71,2.93-17.41,0-6.12-2.11-7.65-8.82-7.65-4.23,0-6.82.82-8.82,2.59s-3.65,4.7-4.47,8.7Z"/><path class="cls-1" d="M593.52,81.79h.24c4-5.76,8.7-7.65,15.88-7.65h2.88c2.47,0,3.18.48,2.71,2.83l-1.3,6.94c-.23,1.53-1,2-3.06,2h-2.82c-5.18,0-8.24,1.29-10.12,3.06-2.23,2.12-3.53,4.47-4.7,10.59l-5.65,29.3c-.47,2.35-1.29,2.94-3.88,2.94h-7.38c-2.59,0-3.17-.59-2.7-2.94l10.12-52.48c.35-1.76,1.17-2.24,3.17-2.24h4.24c2,0,2.71.36,2.59,2.12Z"/><path class="cls-1" d="M659.39,109.68H630.21a31.08,31.08,0,0,0-.59,5.53,5.16,5.16,0,0,0,2.47,4.59c1.53.94,4.59,1.41,9.41,1.41a54.86,54.86,0,0,0,13.3-2c1.53-.47,2.59-.47,2.82,1.41l.94,6.24c.24,1.88-.35,2.47-2.11,3a65.48,65.48,0,0,1-18.48,3c-16.23,0-22.35-5.06-22.35-15.18,0-5.18,1.53-13.53,3.18-22,3.41-17.18,12.35-22.59,26.94-22.59,13.06,0,20.12,5.29,20.12,15.17,0,5.06-.94,9.77-2.59,18C662.8,108.74,661.86,109.68,659.39,109.68Zm-22.48-23c-2.23,2.24-3.29,5.53-4.59,11.89h16.83c1.18,0,1.53-.47,1.76-1.65a32.06,32.06,0,0,0,.83-6.24,8.09,8.09,0,0,0-.94-4.23c-1.06-1.53-3.18-2.35-6.59-2.35s-5.69,1-7.3,2.63Z"/><path class="cls-1" d="M671,129.56c-1.77-.59-1.89-1.53-1.3-3.41l1.77-6.12c.58-1.76,1.76-1.76,3-1.29a43.14,43.14,0,0,0,14.12,2.7c5.18,0,8.83-.94,9.89-3.64a13.49,13.49,0,0,0,.94-4.48c0-2.35-1.3-3.53-4.94-4.58l-8.83-2.59c-7.17-2.12-10.23-6.36-10.23-10.94a32.67,32.67,0,0,1,1.41-9.42c2.7-8.94,8.82-12.7,22.23-12.7a56.48,56.48,0,0,1,15.18,2.23c1.89.59,2,1.3,1.53,3.06l-1.88,6.71c-.47,1.53-1.29,1.76-2.94,1.29a45.29,45.29,0,0,0-12.07-1.88c-6.24,0-8.35,1.17-9.41,4.12a12.75,12.75,0,0,0-.59,3.06c0,1.88,1.18,3,4.47,4l8,2c6.12,1.64,11.77,4.35,11.77,11.53a41.68,41.68,0,0,1-1.42,10c-2.82,10.12-9.53,13.65-22.12,13.65A57.69,57.69,0,0,1,671,129.56Z"/><path class="cls-1" d="M722,129.56c-1.77-.59-1.88-1.53-1.3-3.41l1.77-6.12c.59-1.76,1.76-1.76,3.06-1.29a42.88,42.88,0,0,0,14.12,2.7c5.17,0,8.82-.94,9.88-3.64a13.24,13.24,0,0,0,.94-4.48c0-2.35-1.29-3.53-4.94-4.58l-8.83-2.59c-7.17-2.12-10.23-6.36-10.23-10.94a32.67,32.67,0,0,1,1.41-9.42c2.71-8.94,8.82-12.7,22.24-12.7a56.53,56.53,0,0,1,15.18,2.23c1.88.59,2,1.3,1.52,3.06l-1.88,6.71c-.47,1.53-1.29,1.76-2.94,1.29a44.86,44.86,0,0,0-12.12-1.88c-6.23,0-8.35,1.17-9.41,4.12a12.75,12.75,0,0,0-.59,3.06c0,1.88,1.18,3,4.47,4l8,2c6.12,1.64,11.77,4.35,11.77,11.53a42.18,42.18,0,0,1-1.41,10c-2.83,10.12-9.53,13.65-22.12,13.65A57.7,57.7,0,0,1,722,129.56Z"/><path class="cls-1" d="M464.45,52.91,495.52,9.32A22.22,22.22,0,0,1,513.61,0h34L484,88.6Z"/><path class="cls-1" d="M334.64,207,415.8,93.21l-28-50.71h31.9a22.9,22.9,0,0,1,20.08,11.9L502,168.06H470.65a22.92,22.92,0,0,1-20-11.82l-15-27.15-49.32,68.66a22.2,22.2,0,0,1-18,9.25Z"/></g></g></g></svg>