<svg xmlns="http://www.w3.org/2000/svg" viewBox="0 0 2496.89 969.75"><defs><style>.cls-1{fill:#fff;}</style></defs><title>Xray</title><g id="Ebene_2" data-name="Ebene 2"><g id="Ebene_1-2" data-name="Ebene 1"><path class="cls-1" d="M2289.58,246.26A17.54,17.54,0,0,0,2272.86,234H2109.18a17.54,17.54,0,0,0-16.72,12.27L1886,901.19A17.51,17.51,0,0,0,1902.69,924h112.68a17.52,17.52,0,0,0,16.83-12.57l142.19-481.67s3.72-12,16.6-12c13.09,0,16.28,12.5,16.28,12.52l66,228.42h-90.64a17.52,17.52,0,0,0-16.88,12.78l-25.44,90.43a17.55,17.55,0,0,0,16.89,22.28h153l39.73,127.52A17.53,17.53,0,0,0,2366.62,924h112.73a17.51,17.51,0,0,0,16.72-22.81L2289.58,246.25"/><path class="cls-1" d="M1519.92,361.51h136.39c70.53,0,84.69,27.75,84.69,72.54v66.89c0,55.75-21.36,74.56-84.69,74.56H1519.92Zm416.45,533.54L1786.49,678.86c64.53-26.77,97.24-82.87,97.24-166.77V423.92c0-131.36-68.58-189.93-222.36-189.93H1394.74a17.53,17.53,0,0,0-17.54,17.53V906.46A17.54,17.54,0,0,0,1394.74,924h107.64a17.54,17.54,0,0,0,17.54-17.54V701.06h110.16L1779.9,916.47a17.54,17.54,0,0,0,14.4,7.53h128.75a17.54,17.54,0,0,0,13.32-29ZM1246.41,234H1138.77a17.54,17.54,0,0,0-17.54,17.53V906.46A17.54,17.54,0,0,0,1138.77,924h107.64A17.54,17.54,0,0,0,1264,906.46V251.53A17.54,17.54,0,0,0,1246.41,234h0m-252.09,0h-109a16.75,16.75,0,0,0-16.75,16.7V763.18c0,64.4-49.08,85.57-82.29,87.26a17.27,17.27,0,0,0-12.55,7.23A16.68,16.68,0,0,0,771.6,872l26.49,86.17c2.16,7.05,9.77,11.59,22.13,11.59,104.25,0,190.8-81.85,190.8-191.57V250.7A16.7,16.7,0,0,0,994.33,234h0"/><path class="cls-1" d="M150.61,55.32A60.64,60.64,0,1,0,211.19,116a60.54,60.54,0,0,0-60.58-60.63m398,0A60.64,60.64,0,1,0,609.17,116,60.52,60.52,0,0,0,548.6,55.32M349.6,0a60.64,60.64,0,1,0,60.57,60.63A60.54,60.54,0,0,0,349.6,0M691.82,224.27a19.09,19.09,0,0,0-11.54-3.89,18.88,18.88,0,0,0-6.77,1.26c-41,15.68-82.67,27.59-120.69,36.45a23.74,23.74,0,0,0-16.61,14.48c-27.7,75.88-98.43,148.13-172.64,223.8-3,2.83-7.15,6.56-13.94,6.56s-10.91-3.61-13.94-6.56C261.49,420.7,190.76,348.7,163.05,272.82a23.79,23.79,0,0,0-16.61-14.49A935.94,935.94,0,0,1,25.67,221.52a19.13,19.13,0,0,0-6.78-1.26,18.69,18.69,0,0,0-11.45,3.86A18.93,18.93,0,0,0,.08,240.88C6.36,304,31.29,365.66,76.29,430.29c42.29,60.77,97.46,117,150.79,171.42C325.36,702,418.19,796.62,426.34,906.4A19,19,0,0,0,445.27,924H560.73a19,19,0,0,0,19-19c0-.3,0-.6,0-.9-3.64-73.4-31.26-146.91-84.45-224.69-11.14-16.31-23.08-32.18-35.57-47.7a13.8,13.8,0,0,1,.93-18.15c3.84-3.93,7.69-7.84,11.57-11.81,53.34-54.4,108.5-110.65,150.8-171.42,45-64.64,69.91-126,76.2-189a19.51,19.51,0,0,0-7.36-17M225.73,687.1a17.59,17.59,0,0,0-13.48-5.77c-8.62,0-13.73,6-15.66,8.91C148,764.14,122.94,833.89,119.47,904a19.06,19.06,0,0,0,19,20H253.77a19.14,19.14,0,0,0,19-17.65c2.51-33.78,13-67.64,32.18-103.23,6.64-12.31,1.48-23.88-2.34-28.82-19-24.7-42.26-51.06-76.88-87.18"/><path class="cls-1" d="M349.74,280.83c36.18,0,57.16-2.17,64.54-2.17a17.62,17.62,0,0,1,17.46,17.57,19.12,19.12,0,0,1-1.4,7c-4.8,12.83-26.67,59-67.39,98.58a18.58,18.58,0,0,1-13.31,5.27h0a18.56,18.56,0,0,1-13.3-5.27c-40.72-39.59-62.6-85.75-67.38-98.58a18.69,18.69,0,0,1-1.42-7A17.63,17.63,0,0,1,285,278.66c7.38,0,28.35,2.17,64.52,2.17h.24"/></g></g></svg>